<svg xmlns="http://www.w3.org/2000/svg"  viewBox="0 0 256 256" width="64px" height="64px"><path fill="#4671C6" d="M245.167,229.913H10.833c-1.657,0-3-1.343-3-3v-79c0-1.657,1.343-3,3-3h234.333c1.657,0,3,1.343,3,3v79 C248.167,228.57,246.824,229.913,245.167,229.913z"/><path fill="#A4C9FF" d="M245.167,229.913H10.833c-1.657,0-3-1.343-3-3v-8.431h240.333v8.431 C248.167,228.57,246.824,229.913,245.167,229.913z"/><path fill="#A4C9FF" d="M248.167,156.344H7.833v-8.431c0-1.657,1.343-3,3-3h234.333c1.657,0,3,1.343,3,3V156.344z"/><path fill="#E0EBFC" d="M51.707,192.869H21.189c-0.994,0-1.8-0.806-1.8-1.8v-7.311c0-0.994,0.806-1.8,1.8-1.8h30.518 c0.994,0,1.8,0.806,1.8,1.8v7.311C53.507,192.063,52.701,192.869,51.707,192.869z"/><path fill="#E0EBFC" d="M114.811,192.869H84.293c-0.994,0-1.8-0.806-1.8-1.8v-7.311c0-0.994,0.806-1.8,1.8-1.8h30.518 c0.994,0,1.8,0.806,1.8,1.8v7.311C116.611,192.063,115.805,192.869,114.811,192.869z"/><path fill="#E0EBFC" d="M174.811,192.869h-30.518c-0.994,0-1.8-0.806-1.8-1.8v-7.311c0-0.994,0.806-1.8,1.8-1.8h30.518 c0.994,0,1.8,0.806,1.8,1.8v7.311C176.611,192.063,175.805,192.869,174.811,192.869z"/><path fill="#E0EBFC" d="M234.811,192.869h-30.518c-0.994,0-1.8-0.806-1.8-1.8v-7.311c0-0.994,0.806-1.8,1.8-1.8h30.518 c0.994,0,1.8,0.806,1.8,1.8v7.311C236.611,192.063,235.805,192.869,234.811,192.869z"/><path fill="#A4C9FF" d="M120.689,128.487L120.689,128.487c-1.961-0.526-3.125-2.541-2.6-4.503l22.139-82.625 c0.526-1.961,2.541-3.125,4.503-2.6v0c1.961,0.526,3.125,2.541,2.6,4.503l-22.139,82.625 C124.666,127.848,122.65,129.012,120.689,128.487z"/><path fill="#3762CC" d="M121.638,130.613c-0.485,0-0.977-0.063-1.467-0.194c0,0,0,0,0,0c-3.023-0.81-4.824-3.928-4.014-6.952 l22.14-82.625c0.81-3.023,3.931-4.822,6.952-4.014c3.023,0.81,4.824,3.929,4.014,6.953l-22.14,82.625 C126.444,128.938,124.145,130.613,121.638,130.613z M121.206,126.555c0.893,0.237,1.814-0.293,2.054-1.186l22.14-82.625 c0.239-0.893-0.293-1.814-1.186-2.054c-0.89-0.239-1.814,0.292-2.054,1.186l-22.14,82.625 c-0.116,0.433-0.056,0.884,0.168,1.272C120.412,126.162,120.774,126.439,121.206,126.555L121.206,126.555z"/><path fill="#E0EBFC" d="M131.902,72.435l12.055-44.989c0.262-0.978,1.267-1.558,2.245-1.296L213.68,44.23 c0.978,0.262,1.558,1.267,1.296,2.245l-12.055,44.989c-0.262,0.978-1.267,1.558-2.245,1.296L133.198,74.68 C132.22,74.418,131.64,73.413,131.902,72.435z"/><path fill="#4671C6" d="M156.468,37.57l-14.204-3.806l1.693-6.318c0.262-0.978,1.267-1.559,2.245-1.296l12.433,3.331 L156.468,37.57z"/><rect width="14.705" height="8.374" x="171.505" y="35.047" fill="#4671C6" transform="rotate(14.999 178.87 39.238)"/><rect width="14.705" height="8.374" x="171.505" y="35.047" fill="#4671C6" transform="rotate(14.999 178.87 39.238)"/><path fill="#4671C6" d="M213.284,52.793l-14.204-3.806l2.167-8.089l12.433,3.331c0.978,0.262,1.558,1.267,1.296,2.245 L213.284,52.793z"/><path fill="#4671C6" d="M213.284,52.793l-14.204-3.806l2.167-8.089l12.433,3.331c0.978,0.262,1.558,1.267,1.296,2.245 L213.284,52.793z"/><rect width="14.705" height="8.374" x="155.134" y="39.33" fill="#4671C6" transform="rotate(14.999 162.498 43.521)"/><rect width="14.705" height="8.374" x="183.542" y="46.942" fill="#4671C6" transform="rotate(14.999 190.909 51.134)"/><rect width="14.705" height="8.374" x="138.762" y="43.612" fill="#4671C6" transform="rotate(14.999 146.125 47.804)"/><rect width="14.705" height="8.374" x="167.17" y="51.224" fill="#4671C6" transform="rotate(14.999 174.535 55.416)"/><rect width="14.705" height="8.374" x="167.17" y="51.224" fill="#4671C6" transform="rotate(14.999 174.535 55.416)"/><rect width="14.705" height="8.374" x="195.578" y="58.836" fill="#4671C6" transform="rotate(14.999 202.945 63.029)"/><rect width="14.705" height="8.374" x="195.578" y="58.836" fill="#4671C6" transform="rotate(14.999 202.945 63.029)"/><rect width="14.705" height="8.374" x="150.799" y="55.507" fill="#4671C6" transform="rotate(14.999 158.163 59.7)"/><rect width="14.705" height="8.374" x="179.207" y="63.119" fill="#4671C6" transform="rotate(14.999 186.574 67.312)"/><rect width="14.705" height="8.374" x="134.428" y="59.789" fill="#4671C6" transform="rotate(14.999 141.79 63.982)"/><rect width="14.705" height="8.374" x="162.836" y="67.401" fill="#4671C6" transform="rotate(14.999 170.2 71.594)"/><rect width="14.705" height="8.374" x="162.836" y="67.401" fill="#4671C6" transform="rotate(14.999 170.2 71.594)"/><rect width="14.705" height="8.374" x="191.243" y="75.013" fill="#4671C6" transform="rotate(14.999 198.61 79.207)"/><rect width="14.705" height="8.374" x="191.243" y="75.013" fill="#4671C6" transform="rotate(14.999 198.61 79.207)"/><rect width="14.705" height="8.374" x="146.465" y="71.684" fill="#4671C6" transform="rotate(14.999 153.828 75.877)"/><rect width="14.705" height="8.374" x="174.873" y="79.296" fill="#4671C6" transform="rotate(14.999 182.238 83.49)"/><path fill="#3762CC" d="M201.15,94.824c-0.327,0-0.66-0.042-0.99-0.13l-67.479-18.082c-0.988-0.264-1.815-0.898-2.328-1.786 c-0.512-0.886-0.647-1.919-0.383-2.908v0l12.055-44.989c0.548-2.041,2.655-3.256,4.694-2.711l67.479,18.082 c0.988,0.265,1.815,0.898,2.327,1.786c0.513,0.887,0.648,1.92,0.383,2.91l-12.055,44.988 C204.396,93.693,202.843,94.824,201.15,94.824z M133.876,72.792l67.157,17.995l11.969-44.667l-67.157-17.995L133.876,72.792z M133.833,72.952L133.833,72.952L133.833,72.952L133.833,72.952z"/><g><path fill="#A4C9FF" d="M135.311,128.487L135.311,128.487c1.961-0.526,3.125-2.541,2.6-4.503l-22.139-82.625 c-0.526-1.961-2.541-3.125-4.503-2.6l0,0c-1.961,0.526-3.125,2.541-2.6,4.503l22.139,82.625 C131.334,127.848,133.35,129.012,135.311,128.487z"/><path fill="#3762CC" d="M134.351,130.615c-0.983,0-1.954-0.258-2.829-0.763c-1.313-0.758-2.253-1.982-2.645-3.447 L106.738,43.78c-0.81-3.024,0.991-6.143,4.014-6.953c3.023-0.807,6.142,0.991,6.952,4.014l22.14,82.625 c0.811,3.023-0.99,6.142-4.014,6.952C135.34,130.55,134.844,130.615,134.351,130.615z M112.22,40.634 c-0.144,0-0.289,0.019-0.434,0.057c-0.433,0.116-0.794,0.394-1.018,0.781c-0.224,0.388-0.284,0.84-0.167,1.272l22.139,82.625 c0.116,0.433,0.394,0.794,0.781,1.018s0.838,0.283,1.272,0.168c0.433-0.116,0.794-0.394,1.018-0.781s0.283-0.839,0.168-1.272 l-22.14-82.625C113.639,41.128,112.96,40.634,112.22,40.634z"/><path fill="#E0EBFC" d="M124.098,72.435l-12.055-44.989c-0.262-0.978-1.267-1.558-2.245-1.296L42.32,44.23 c-0.978,0.262-1.558,1.267-1.296,2.245l12.055,44.989c0.262,0.978,1.267,1.558,2.245,1.296l67.479-18.081 C123.78,74.418,124.36,73.413,124.098,72.435z"/><path fill="#4671C6" d="M99.532,37.57l14.204-3.806l-1.693-6.318c-0.262-0.978-1.267-1.559-2.245-1.296l-12.433,3.331 L99.532,37.57z"/><rect width="14.705" height="8.374" x="69.79" y="35.047" fill="#4671C6" transform="scale(-1) rotate(-14.999 -298.033 586)"/><rect width="14.705" height="8.374" x="69.79" y="35.047" fill="#4671C6" transform="scale(-1) rotate(-14.999 -298.033 586)"/><path fill="#4671C6" d="M42.716,52.793l14.204-3.806l-2.167-8.089L42.32,44.23c-0.978,0.262-1.558,1.267-1.296,2.245 L42.716,52.793z"/><path fill="#4671C6" d="M42.716,52.793l14.204-3.806l-2.167-8.089L42.32,44.23c-0.978,0.262-1.558,1.267-1.296,2.245 L42.716,52.793z"/><rect width="14.705" height="8.374" x="86.161" y="39.33" fill="#4671C6" transform="scale(-1) rotate(-14.999 -330.564 710.36)"/><rect width="14.705" height="8.374" x="57.753" y="46.942" fill="#4671C6" transform="scale(-1) rotate(-14.999 -388.388 494.564)"/><rect width="14.705" height="8.374" x="102.533" y="43.612" fill="#4671C6" transform="scale(-1) rotate(-14.999 -363.095 834.725)"/><rect width="14.705" height="8.374" x="74.125" y="51.224" fill="#4671C6" transform="scale(-1) rotate(-14.999 -420.919 618.928)"/><rect width="14.705" height="8.374" x="74.125" y="51.224" fill="#4671C6" transform="scale(-1) rotate(-14.999 -420.919 618.928)"/><rect width="14.705" height="8.374" x="45.717" y="58.836" fill="#4671C6" transform="scale(-1) rotate(-14.999 -478.741 403.137)"/><rect width="14.705" height="8.374" x="45.717" y="58.836" fill="#4671C6" transform="scale(-1) rotate(-14.999 -478.741 403.137)"/><rect width="14.705" height="8.374" x="90.496" y="55.507" fill="#4671C6" transform="scale(-1) rotate(-14.999 -453.45 743.288)"/><rect width="14.705" height="8.374" x="62.087" y="63.119" fill="#4671C6" transform="scale(-1) rotate(-14.999 -511.274 527.492)"/><rect width="14.705" height="8.374" x="106.867" y="59.789" fill="#4671C6" transform="scale(-1) rotate(-14.999 -485.98 867.653)"/><rect width="14.705" height="8.374" x="78.459" y="67.401" fill="#4671C6" transform="scale(-1) rotate(-14.999 -543.804 651.856)"/><rect width="14.705" height="8.374" x="78.459" y="67.401" fill="#4671C6" transform="scale(-1) rotate(-14.999 -543.804 651.856)"/><rect width="14.705" height="8.374" x="50.052" y="75.013" fill="#4671C6" transform="scale(-1) rotate(-14.999 -601.627 436.065)"/><rect width="14.705" height="8.374" x="50.052" y="75.013" fill="#4671C6" transform="scale(-1) rotate(-14.999 -601.627 436.065)"/><rect width="14.705" height="8.374" x="94.83" y="71.684" fill="#4671C6" transform="scale(-1) rotate(-14.999 -576.336 776.216)"/><rect width="14.705" height="8.374" x="66.422" y="79.296" fill="#4671C6" transform="scale(-1) rotate(-14.999 -634.16 560.42)"/><path fill="#3762CC" d="M54.85,94.824c-1.693,0-3.246-1.131-3.704-2.841l-12.055-44.99c-0.547-2.042,0.669-4.148,2.711-4.695 l67.479-18.081c2.046-0.548,4.148,0.669,4.695,2.711l12.054,44.989v0c0.265,0.989,0.129,2.022-0.383,2.909 c-0.512,0.887-1.339,1.521-2.328,1.786L55.841,94.693C55.51,94.782,55.178,94.824,54.85,94.824z M42.998,46.119l11.968,44.667 l67.157-17.995l-11.968-44.667L42.998,46.119z M122.167,72.953L122.167,72.953L122.167,72.953z"/></g><g><path fill="#3762CC" d="M245.167,231.914H10.833c-2.757,0-5-2.243-5-5v-79c0-2.757,2.243-5,5-5h234.333c2.757,0,5,2.243,5,5v79 C250.167,229.67,247.924,231.914,245.167,231.914z M10.833,146.914c-0.551,0-1,0.449-1,1v79c0,0.551,0.449,1,1,1h234.333 c0.552,0,1-0.449,1-1v-79c0-0.551-0.448-1-1-1H10.833z"/></g><g><path fill="#3762CC" d="M245.167,231.914H10.833c-2.757,0-5-2.243-5-5v-8.431c0-1.104,0.896-2,2-2s2,0.896,2,2v8.431 c0,0.551,0.449,1,1,1h234.333c0.552,0,1-0.449,1-1v-8.431c0-1.104,0.895-2,2-2c1.104,0,2,0.896,2,2v8.431 C250.167,229.67,247.924,231.914,245.167,231.914z"/></g><g><path fill="#3762CC" d="M248.167,158.344c-1.105,0-2-0.896-2-2v-8.431c0-0.551-0.448-1-1-1H10.833c-0.551,0-1,0.449-1,1v8.431 c0,1.104-0.896,2-2,2s-2-0.896-2-2v-8.431c0-2.757,2.243-5,5-5h234.333c2.757,0,5,2.243,5,5v8.431 C250.167,157.449,249.271,158.344,248.167,158.344z"/></g><g><path fill="#3762CC" d="M245.167,231.914H10.833c-2.757,0-5-2.243-5-5v-8.431c0-1.104,0.896-2,2-2h240.333c1.104,0,2,0.896,2,2 v8.431C250.167,229.67,247.924,231.914,245.167,231.914z M9.833,220.482v6.431c0,0.551,0.449,1,1,1h234.333c0.552,0,1-0.449,1-1 v-6.431H9.833z"/></g><g><path fill="#3762CC" d="M248.167,158.344H7.833c-1.104,0-2-0.896-2-2v-8.431c0-2.757,2.243-5,5-5h234.333c2.757,0,5,2.243,5,5 v8.431C250.167,157.449,249.271,158.344,248.167,158.344z M9.833,154.344h236.333v-6.431c0-0.551-0.448-1-1-1H10.833 c-0.551,0-1,0.449-1,1V154.344z"/></g></svg>