<svg xmlns="http://www.w3.org/2000/svg"  viewBox="0 0 64 64" width="64px" height="64px"><path fill="#8d6be2" d="M35.638,3.108H9.539c-1.78,0-3.223,1.443-3.223,3.223v16.241c0,1.78,1.443,3.223,3.223,3.223h1.323v6.665 l9.169-6.665h15.607c1.78,0,3.223-1.443,3.223-3.223V6.331C38.86,4.551,37.418,3.108,35.638,3.108z"/><path fill="#8d6be2" d="M8.316,24.573V7.108c0-1.105,0.895-2,2-2h27.322c0.365,0,0.71,0.074,1.037,0.186 c-0.434-1.268-1.622-2.186-3.037-2.186H9.539c-1.78,0-3.223,1.443-3.223,3.223v16.241c0,1.415,0.918,2.604,2.186,3.037 C8.39,25.282,8.316,24.938,8.316,24.573z"/><path fill="#63312d" d="M10.861,32.96c-0.078,0-0.155-0.018-0.227-0.055c-0.167-0.085-0.273-0.257-0.273-0.445v-6.165H9.539 c-2.053,0-3.723-1.67-3.723-3.723V6.331c0-2.053,1.67-3.723,3.723-3.723h26.099c2.053,0,3.723,1.67,3.723,3.723v16.242 c0,2.053-1.67,3.723-3.723,3.723H20.193l-9.038,6.569C11.068,32.928,10.965,32.96,10.861,32.96z M9.539,3.608 c-1.501,0-2.723,1.221-2.723,2.723v16.242c0,1.501,1.222,2.723,2.723,2.723h1.323c0.276,0,0.5,0.224,0.5,0.5v5.684l8.375-6.088 c0.085-0.062,0.188-0.096,0.294-0.096h15.607c1.501,0,2.723-1.221,2.723-2.723V6.331c0-1.501-1.221-2.723-2.723-2.723H9.539z"/><path fill="#8d6be2" d="M40.74,3.108h-5.103c1.78,0,3.223,1.443,3.223,3.223v16.241c0,1.78-1.443,3.223-3.223,3.223h5.103 c1.78,0,3.223-1.443,3.223-3.223V6.331C43.963,4.551,42.52,3.108,40.74,3.108z"/><path fill="#63312d" d="M40.741,26.295h-5.103c-0.276,0-0.5-0.224-0.5-0.5s0.224-0.5,0.5-0.5c1.501,0,2.723-1.221,2.723-2.723V6.331 c0-1.501-1.221-2.723-2.723-2.723c-0.276,0-0.5-0.224-0.5-0.5s0.224-0.5,0.5-0.5h5.103c2.053,0,3.723,1.67,3.723,3.723v16.242 C44.463,24.625,42.793,26.295,40.741,26.295z M38.174,25.295h2.567c1.501,0,2.723-1.221,2.723-2.723V6.331 c0-1.501-1.221-2.723-2.723-2.723h-2.567c0.729,0.68,1.187,1.649,1.187,2.723v16.242C39.36,23.646,38.903,24.615,38.174,25.295z"/><path fill="#8d6be2" d="M49.358,31.54H23.26c-1.78,0-3.223,1.443-3.223,3.223v16.241c0,1.78,1.443,3.223,3.223,3.223h1.323v6.665 l9.169-6.665h15.607c1.78,0,3.223-1.443,3.223-3.223V34.762C52.581,32.982,51.138,31.54,49.358,31.54z"/><path fill="#8d6be2" d="M22.037,53.004V35.539c0-1.105,0.895-2,2-2h27.322c0.365,0,0.71,0.074,1.037,0.186 c-0.434-1.268-1.622-2.186-3.037-2.186H23.259c-1.78,0-3.223,1.443-3.223,3.223v16.241c0,1.415,0.918,2.604,2.186,3.037 C22.111,53.714,22.037,53.369,22.037,53.004z"/><path fill="#63312d" d="M24.582,61.392c-0.078,0-0.155-0.018-0.227-0.055c-0.167-0.085-0.273-0.257-0.273-0.445v-6.165h-0.823 c-2.053,0-3.723-1.67-3.723-3.723V34.763c0-2.053,1.67-3.723,3.723-3.723h26.099c2.053,0,3.723,1.67,3.723,3.723v16.241 c0,2.053-1.67,3.723-3.723,3.723H33.914l-9.038,6.569C24.789,61.359,24.686,61.392,24.582,61.392z M23.259,32.04 c-1.501,0-2.723,1.221-2.723,2.723v16.241c0,1.501,1.221,2.723,2.723,2.723h1.323c0.276,0,0.5,0.224,0.5,0.5v5.684l8.375-6.088 c0.085-0.063,0.188-0.096,0.294-0.096h15.607c1.501,0,2.723-1.222,2.723-2.723V34.763c0-1.502-1.222-2.723-2.723-2.723H23.259z"/><path fill="#8d6be2" d="M54.461,31.54h-5.103c1.78,0,3.223,1.443,3.223,3.223v16.241c0,1.78-1.443,3.223-3.223,3.223h5.103 c1.78,0,3.223-1.443,3.223-3.223V34.762C57.684,32.982,56.241,31.54,54.461,31.54z"/><path fill="#63312d" d="M54.461,54.727h-5.103c-0.276,0-0.5-0.224-0.5-0.5s0.224-0.5,0.5-0.5c1.501,0,2.723-1.222,2.723-2.723V34.763 c0-1.502-1.222-2.723-2.723-2.723c-0.276,0-0.5-0.224-0.5-0.5s0.224-0.5,0.5-0.5h5.103c2.053,0,3.723,1.67,3.723,3.723v16.241 C58.185,53.057,56.514,54.727,54.461,54.727z M51.895,53.727h2.566c1.501,0,2.723-1.222,2.723-2.723V34.763 c0-1.502-1.222-2.723-2.723-2.723h-2.566c0.729,0.68,1.187,1.649,1.187,2.723v16.241C53.082,52.077,52.625,53.047,51.895,53.727z"/><circle cx="16.746" cy="14.188" r="6.25" fill="#FCC24C"/><path fill="#63312d" d="M16.746,20.938c-3.722,0-6.75-3.028-6.75-6.75s3.028-6.75,6.75-6.75s6.75,3.028,6.75,6.75 S20.468,20.938,16.746,20.938z M16.746,8.438c-3.17,0-5.75,2.58-5.75,5.75s2.58,5.75,5.75,5.75s5.75-2.58,5.75-5.75 S19.917,8.438,16.746,8.438z"/><rect width="1" height="7" x="16.246" y="10.688" fill="#63312d"/><rect width="7" height="1" x="13.246" y="13.688" fill="#63312d"/><rect width="8.833" height="1" x="26.267" y="9.438" fill="#63312d"/><rect width="8.833" height="1" x="26.267" y="12.271" fill="#63312d"/><rect width="8.833" height="1" x="26.267" y="15.104" fill="#63312d"/><rect width="8.833" height="1" x="26.267" y="17.938" fill="#63312d"/><circle cx="30.257" cy="42.883" r="6.25" fill="#FCC24C"/><path fill="#63312d" d="M30.257,49.633c-3.722,0-6.75-3.028-6.75-6.75s3.028-6.75,6.75-6.75s6.75,3.028,6.75,6.75 S33.979,49.633,30.257,49.633z M30.257,37.133c-3.17,0-5.75,2.579-5.75,5.75s2.58,5.75,5.75,5.75s5.75-2.579,5.75-5.75 S33.427,37.133,30.257,37.133z"/><rect width="7" height="1" x="26.757" y="42.383" fill="#63312d"/><rect width="8.833" height="1" x="39.778" y="38.133" fill="#63312d"/><rect width="8.833" height="1" x="39.778" y="40.967" fill="#63312d"/><rect width="8.833" height="1" x="39.778" y="43.8" fill="#63312d"/><rect width="8.833" height="1" x="39.778" y="46.633" fill="#63312d"/></svg>