<svg xmlns="http://www.w3.org/2000/svg"  viewBox="0 0 64 64" width="64px" height="64px"><path fill="#db8e11" d="M34,38H16C9.373,38,4,43.373,4,50v10h42V50C46,43.373,40.627,38,34,38z"/><path fill="#212a41" d="M46,60.5H4c-0.276,0-0.5-0.224-0.5-0.5V50c0-6.893,5.607-12.5,12.5-12.5h18c6.893,0,12.5,5.607,12.5,12.5v10 C46.5,60.276,46.276,60.5,46,60.5z M4.5,59.5h41V50c0-6.341-5.159-11.5-11.5-11.5H16C9.659,38.5,4.5,43.659,4.5,50V59.5z"/><path fill="#e0e0e0" d="M12,50v10h42V50c0-6.627-5.373-12-12-12H24C17.373,38,12,43.373,12,50z"/><path fill="#212a41" d="M54,60.5H12c-0.276,0-0.5-0.224-0.5-0.5V50c0-6.893,5.607-12.5,12.5-12.5h18c6.893,0,12.5,5.607,12.5,12.5v10 C54.5,60.276,54.276,60.5,54,60.5z M12.5,59.5h41V50c0-6.341-5.159-11.5-11.5-11.5H24c-6.341,0-11.5,5.159-11.5,11.5V59.5z"/><circle cx="41" cy="19" r="3" fill="#e8d2a8"/><path fill="#212a41" d="M41,22.5c-1.93,0-3.5-1.57-3.5-3.5s1.57-3.5,3.5-3.5s3.5,1.57,3.5,3.5S42.93,22.5,41,22.5z M41,16.5 c-1.379,0-2.5,1.122-2.5,2.5s1.121,2.5,2.5,2.5s2.5-1.122,2.5-2.5S42.379,16.5,41,16.5z"/><path fill="#e0c8a4" d="M17,10v6c-1.657,0-3,1.343-3,3s1.343,3,3,3v2c0,4.418,3.582,8,8,8h8c4.418,0,8-3.582,8-8V10 c0-3.314-2.686-6-6-6H23C19.686,4,17,6.686,17,10z"/><path fill="#212a41" d="M33,32.5h-8c-4.687,0-8.5-3.813-8.5-8.5v-1.536c-1.694-0.243-3-1.704-3-3.464s1.306-3.221,3-3.464V10 c0-3.584,2.916-6.5,6.5-6.5h12c3.584,0,6.5,2.916,6.5,6.5v14C41.5,28.687,37.687,32.5,33,32.5z M23,4.5 c-3.032,0-5.5,2.467-5.5,5.5v6c0,0.276-0.224,0.5-0.5,0.5c-1.379,0-2.5,1.122-2.5,2.5s1.121,2.5,2.5,2.5 c0.276,0,0.5,0.224,0.5,0.5v2c0,4.136,3.364,7.5,7.5,7.5h8c4.136,0,7.5-3.364,7.5-7.5V10c0-3.033-2.468-5.5-5.5-5.5H23z"/><path fill="#c2aa86" d="M33,30.5c-0.276,0-0.5-0.224-0.5-0.5s0.224-0.5,0.5-0.5c3.032,0,5.5-2.467,5.5-5.5V12 c0-0.276,0.224-0.5,0.5-0.5s0.5,0.224,0.5,0.5v12C39.5,27.584,36.584,30.5,33,30.5z"/><path fill="#fee6c2" d="M25,30.5c-3.584,0-6.5-2.916-6.5-6.5v-2c0-0.276,0.224-0.5,0.5-0.5s0.5,0.224,0.5,0.5v2 c0,3.033,2.468,5.5,5.5,5.5c0.276,0,0.5,0.224,0.5,0.5S25.276,30.5,25,30.5z"/><polygon fill="#f9ac2f" points="42,38 38,38 40,32"/><path fill="#212a41" d="M42,38.5h-4c-0.161,0-0.312-0.077-0.405-0.208c-0.095-0.13-0.12-0.298-0.069-0.451l2-6 c0.137-0.408,0.812-0.408,0.949,0l2,6c0.051,0.152,0.025,0.32-0.069,0.451C42.312,38.423,42.161,38.5,42,38.5z M38.693,37.5h2.613 L40,33.581L38.693,37.5z"/><polygon fill="#db8e11" points="38,38 34,38 34,32 40,32"/><path fill="#212a41" d="M38,38.5h-4c-0.276,0-0.5-0.224-0.5-0.5v-6c0-0.276,0.224-0.5,0.5-0.5h6c0.161,0,0.312,0.077,0.405,0.208 c0.095,0.13,0.12,0.298,0.069,0.451l-2,6C38.406,38.362,38.215,38.5,38,38.5z M34.5,37.5h3.14l1.667-5H34.5V37.5z"/><rect width="10" height="6" x="24" y="32" fill="#e8d2a8"/><path fill="#212a41" d="M34,38.5H24c-0.276,0-0.5-0.224-0.5-0.5v-6c0-0.276,0.224-0.5,0.5-0.5h10c0.276,0,0.5,0.224,0.5,0.5v6 C34.5,38.276,34.276,38.5,34,38.5z M24.5,37.5h9v-5h-9V37.5z"/><polygon fill="#f9ac2f" points="28,38 22,38 18,32 24,32"/><path fill="#212a41" d="M28,38.5h-6c-0.167,0-0.323-0.083-0.416-0.223l-4-6c-0.103-0.153-0.112-0.351-0.024-0.513 C17.646,31.602,17.815,31.5,18,31.5h6c0.167,0,0.323,0.083,0.416,0.223l4,6c0.103,0.153,0.112,0.351,0.024,0.513 C28.354,38.398,28.185,38.5,28,38.5z M22.268,37.5h4.798l-3.333-5h-4.798L22.268,37.5z"/><polygon fill="#db8e11" points="22,38 16,38 18,32 24,32"/><path fill="#212a41" d="M22,38.5h-6c-0.161,0-0.312-0.077-0.405-0.208c-0.095-0.13-0.12-0.298-0.069-0.451l2-6 C17.594,31.638,17.785,31.5,18,31.5h6c0.161,0,0.312,0.077,0.405,0.208c0.095,0.13,0.12,0.298,0.069,0.451l-2,6 C22.406,38.362,22.215,38.5,22,38.5z M16.693,37.5h4.946l1.667-5H18.36L16.693,37.5z"/><path fill="#212a41" d="M17,22.5c-0.936,0-1.814-0.364-2.475-1.025C13.864,20.814,13.5,19.935,13.5,19s0.364-1.814,1.025-2.475 c1.32-1.322,3.629-1.322,4.949,0c0.195,0.195,0.195,0.512,0,0.707c-0.195,0.195-0.512,0.195-0.707,0 c-0.943-0.944-2.592-0.944-3.535,0C14.76,17.705,14.5,18.333,14.5,19s0.26,1.295,0.732,1.768c0.943,0.944,2.592,0.944,3.535,0 c0.195-0.195,0.512-0.195,0.707,0c0.195,0.195,0.195,0.512,0,0.707C18.814,22.136,17.936,22.5,17,22.5z"/><path fill="#f9ac2f" d="M33,49v11H12V50c0-6.627,5.373-12,12-12h4L33,49z"/><path fill="#212a41" d="M33,60.5H12c-0.276,0-0.5-0.224-0.5-0.5V50c0-6.893,5.607-12.5,12.5-12.5h4c0.196,0,0.374,0.115,0.455,0.293 l5,11C33.484,48.858,33.5,48.929,33.5,49v11C33.5,60.276,33.276,60.5,33,60.5z M12.5,59.5h20V49.108L27.678,38.5H24 c-6.341,0-11.5,5.159-11.5,11.5V59.5z"/><path fill="#f9ac2f" d="M6,58.5c-0.276,0-0.5-0.224-0.5-0.5v-8c0-4.977,3.538-9.305,8.413-10.292c0.274-0.056,0.535,0.12,0.59,0.391 c0.055,0.271-0.12,0.534-0.391,0.589C9.701,41.581,6.5,45.498,6.5,50v8C6.5,58.276,6.276,58.5,6,58.5z"/><path fill="#ffca4d" d="M14,58.5c-0.276,0-0.5-0.224-0.5-0.5v-8c0-5.79,4.71-10.5,10.5-10.5h0.599c0.276,0,0.5,0.224,0.5,0.5 s-0.224,0.5-0.5,0.5H24c-5.238,0-9.5,4.262-9.5,9.5v8C14.5,58.276,14.276,58.5,14,58.5z"/><path fill="#0079a8" d="M41,16H17v-6c0-3.314,2.686-6,6-6h12c3.314,0,6,2.686,6,6V16z"/><path fill="#212a41" d="M41,16.5H17c-0.276,0-0.5-0.224-0.5-0.5v-6c0-3.584,2.916-6.5,6.5-6.5h12c3.584,0,6.5,2.916,6.5,6.5v6 C41.5,16.276,41.276,16.5,41,16.5z M17.5,15.5h23V10c0-3.033-2.468-5.5-5.5-5.5H23c-3.032,0-5.5,2.467-5.5,5.5V15.5z"/><g><path fill="#005b8a" d="M39,11.5c-0.276,0-0.5-0.224-0.5-0.5v-1c0-1.93-1.57-3.5-3.5-3.5c-0.276,0-0.5-0.224-0.5-0.5 s0.224-0.5,0.5-0.5c2.481,0,4.5,2.019,4.5,4.5v1C39.5,11.276,39.276,11.5,39,11.5z"/></g><g><path fill="#1e97c6" d="M19,11.5c-0.276,0-0.5-0.224-0.5-0.5v-1c0-2.481,2.019-4.5,4.5-4.5c0.276,0,0.5,0.224,0.5,0.5 S23.276,6.5,23,6.5c-1.93,0-3.5,1.57-3.5,3.5v1C19.5,11.276,19.276,11.5,19,11.5z"/></g><g><path fill="#f9ac2f" d="M33,49v11h21V50c0-6.627-5.373-12-12-12h-4L33,49z"/><path fill="#212a41" d="M54,60.5H33c-0.276,0-0.5-0.224-0.5-0.5V49c0-0.071,0.016-0.142,0.045-0.207l5-11 C37.626,37.615,37.804,37.5,38,37.5h4c6.893,0,12.5,5.607,12.5,12.5v10C54.5,60.276,54.276,60.5,54,60.5z M33.5,59.5h20V50 c0-6.341-5.159-11.5-11.5-11.5h-3.678L33.5,49.108V59.5z"/></g><g><path fill="#db8e11" d="M52,58.5c-0.276,0-0.5-0.224-0.5-0.5v-8c0-5.238-4.262-9.5-9.5-9.5h-0.6c-0.276,0-0.5-0.224-0.5-0.5 s0.224-0.5,0.5-0.5H42c5.79,0,10.5,4.71,10.5,10.5v8C52.5,58.276,52.276,58.5,52,58.5z"/></g><g><path fill="#c2aa86" d="M32,36.5c-0.276,0-0.5-0.224-0.5-0.5v-2c0-0.276,0.224-0.5,0.5-0.5s0.5,0.224,0.5,0.5v2 C32.5,36.276,32.276,36.5,32,36.5z"/></g><g><path fill="#0079a8" d="M48,13H17v3h31c0.552,0,1-0.448,1-1v-1C49,13.448,48.552,13,48,13z"/><path fill="#212a41" d="M48,16.5H17c-0.276,0-0.5-0.224-0.5-0.5v-3c0-0.276,0.224-0.5,0.5-0.5h31c0.827,0,1.5,0.673,1.5,1.5v1 C49.5,15.827,48.827,16.5,48,16.5z M17.5,15.5H48c0.275,0,0.5-0.224,0.5-0.5v-1c0-0.276-0.225-0.5-0.5-0.5H17.5V15.5z"/></g><g><path fill="#e0e0e0" d="M55,60h-2c-1.105,0-2-0.895-2-2V40h6v18C57,59.105,56.105,60,55,60z"/><path fill="#212a41" d="M55,60.5h-2c-1.379,0-2.5-1.122-2.5-2.5V40c0-0.276,0.224-0.5,0.5-0.5h6c0.276,0,0.5,0.224,0.5,0.5v18 C57.5,59.378,56.379,60.5,55,60.5z M51.5,40.5V58c0,0.827,0.673,1.5,1.5,1.5h2c0.827,0,1.5-0.673,1.5-1.5V40.5H51.5z"/></g><g><path fill="#e0e0e0" d="M56,30.349V36h-4v-5.651c-2.329,0.825-4,3.04-4,5.651c0,3.314,2.686,6,6,6c3.314,0,6-2.686,6-6 C60,33.389,58.329,31.173,56,30.349z"/><path fill="#212a41" d="M54,42.5c-3.584,0-6.5-2.916-6.5-6.5c0-2.745,1.741-5.205,4.333-6.123c0.155-0.055,0.323-0.03,0.456,0.063 c0.132,0.094,0.211,0.246,0.211,0.408V35.5h3v-5.151c0-0.163,0.079-0.314,0.211-0.408c0.134-0.094,0.304-0.116,0.456-0.063 C58.759,30.795,60.5,33.255,60.5,36C60.5,39.584,57.584,42.5,54,42.5z M51.5,31.107c-1.82,0.93-3,2.815-3,4.893 c0,3.033,2.468,5.5,5.5,5.5s5.5-2.467,5.5-5.5c0-2.078-1.18-3.963-3-4.893V36c0,0.276-0.224,0.5-0.5,0.5h-4 c-0.276,0-0.5-0.224-0.5-0.5V31.107z"/></g><g><path fill="#212a41" d="M56,39.5h-4c-0.276,0-0.5-0.224-0.5-0.5s0.224-0.5,0.5-0.5h4c0.276,0,0.5,0.224,0.5,0.5S56.276,39.5,56,39.5z"/></g><g><path fill="#fefefe" d="M53,58.5c-0.276,0-0.5-0.224-0.5-0.5V44c0-0.276,0.224-0.5,0.5-0.5s0.5,0.224,0.5,0.5v14 C53.5,58.276,53.276,58.5,53,58.5z"/></g><g><circle cx="54" cy="57" r="1" fill="#212a41"/></g></svg>