<svg xmlns="http://www.w3.org/2000/svg"  viewBox="0 0 256 256" width="64px" height="64px"><path fill="#ff4397" d="M108.69,153.398h-9.859H81.157v-28.546H66H50.843v28.546H33.169H23.31 c-10.651-0.014-19.296,8.609-19.31,19.26v49.592h62h62v-49.592C127.987,162.008,119.341,153.385,108.69,153.398z"/><path fill="#e12579" d="M108.69,153.398h-6.352c10.651-0.014,19.296,8.609,19.31,19.26v49.592H128v-49.592 C127.987,162.008,119.341,153.385,108.69,153.398z"/><path fill="#ff61b5" d="M23.31,153.398h6.352c-10.651-0.014-19.296,8.609-19.31,19.26v49.592H4v-49.592 C4.014,162.008,12.659,153.385,23.31,153.398z"/><path fill="#690589" d="M128,224.25H4c-1.104,0-2-0.896-2-2v-49.592c0.015-11.73,9.561-21.26,21.284-21.26c0.009,0,0.019,0,0.028,0 h25.531v-26.545c0-1.104,0.896-2,2-2h30.314c1.104,0,2,0.896,2,2v26.545h25.531c0.008,0,0.019,0,0.028,0 c11.725,0,21.269,9.53,21.284,21.258v49.595C130,223.355,129.104,224.25,128,224.25z M6,220.25h120v-47.592 c-0.012-9.521-7.764-17.26-17.285-17.26c-0.008,0-0.007,0-0.025,0H81.157c-1.104,0-2-0.896-2-2v-26.545H52.843v26.545 c0,1.104-0.896,2-2,2H23.31c-0.007,0-0.016,0-0.022,0c-9.524,0-17.275,7.739-17.287,17.263V220.25z"/><path fill="#f4efed" d="M81.157,153.398v1.464c0,8.371-6.786,15.157-15.157,15.157l0,0c-8.371,0-15.157-6.786-15.157-15.157v-1.464 H23.878v68.852h84.243v-68.852H81.157z"/><path fill="#690589" d="M108.122,224.25H23.878c-1.104,0-2-0.896-2-2v-68.853c0-1.104,0.896-2,2-2h26.964c1.104,0,2,0.896,2,2v1.464 c0,7.255,5.902,13.157,13.157,13.157s13.157-5.902,13.157-13.157v-1.464c0-1.104,0.896-2,2-2h26.964c1.104,0,2,0.896,2,2v68.853 C110.122,223.355,109.226,224.25,108.122,224.25z M25.878,220.25h80.243v-64.853H83.149c-0.285,9.213-7.868,16.621-17.149,16.621 s-16.864-7.408-17.149-16.621H25.878V220.25z"/><path fill="#690589" d="M66,224.25c-1.104,0-2-0.896-2-2v-52.231c0-1.104,0.896-2,2-2s2,0.896,2,2v52.231 C68,223.355,67.104,224.25,66,224.25z"/><path fill="#690589" d="M51.733,161.988H23.878c-1.104,0-2-0.896-2-2s0.896-2,2-2h27.855c1.104,0,2,0.896,2,2 S52.838,161.988,51.733,161.988z"/><path fill="#690589" d="M108.122,161.988H80.267c-1.104,0-2-0.896-2-2s0.896-2,2-2h27.855c1.104,0,2,0.896,2,2 S109.226,161.988,108.122,161.988z"/><path fill="#ffbd8e" d="M34.379,96.861h-2.258c-5.836,0-10.567,4.731-10.567,10.567s4.731,10.567,10.567,10.567h2.258V96.861z"/><path fill="#e18152" d="M99.878,96.861h-2.258v21.134h2.258c5.836,0,10.567-4.731,10.567-10.567S105.714,96.861,99.878,96.861z"/><path fill="#ff9f70" d="M66,150.579L66,150.579c-17.464,0-31.621-14.341-31.621-32.031V96.372C34.379,78.681,48.536,64.34,66,64.34 l0,0c17.464,0,31.621,14.341,31.621,32.031v22.175C97.621,136.238,83.464,150.579,66,150.579z"/><path fill="#e18152" d="M66,64.34c-1.216,0-2.413,0.076-3.593,0.212c15.771,1.808,28.027,15.361,28.027,31.82v22.175 c0,16.459-12.257,30.011-28.027,31.819c1.18,0.135,2.378,0.212,3.593,0.212c17.464,0,31.621-14.341,31.621-32.031V96.372 C97.621,78.681,83.464,64.34,66,64.34z"/><path fill="#ffbd8e" d="M66,64.34c1.216,0,2.413,0.076,3.593,0.212c-15.771,1.808-28.027,15.361-28.027,31.82v22.175 c0,16.459,12.257,30.011,28.027,31.819c-1.18,0.135-2.377,0.212-3.593,0.212c-17.464,0-31.621-14.341-31.621-32.031V96.372 C34.379,78.681,48.536,64.34,66,64.34z"/><path fill="#690589" d="M66,152.579c-18.539,0-33.621-15.266-33.621-34.031V96.372C32.379,77.607,47.461,62.34,66,62.34 s33.621,15.267,33.621,34.032v22.175C99.621,137.312,84.539,152.579,66,152.579z M66,66.34c-16.333,0-29.621,13.472-29.621,30.032 v22.175c0,16.559,13.288,30.031,29.621,30.031s29.621-13.472,29.621-30.031V96.372C95.621,79.812,82.333,66.34,66,66.34z"/><path fill="#690589" d="M34.379,119.995h-2.258c-6.929,0-12.567-5.638-12.567-12.567s5.638-12.567,12.567-12.567h2.258 c1.104,0,2,0.896,2,2v21.134C36.379,119.1,35.484,119.995,34.379,119.995z M32.122,98.861c-4.724,0-8.567,3.843-8.567,8.567 s3.843,8.567,8.567,8.567h0.258V98.861H32.122z"/><path fill="#690589" d="M99.878,119.995h-2.258c-1.104,0-2-0.896-2-2V96.861c0-1.104,0.896-2,2-2h2.258 c6.929,0,12.567,5.638,12.567,12.567S106.808,119.995,99.878,119.995z M99.621,115.995h0.258c4.724,0,8.567-3.843,8.567-8.567 s-3.843-8.567-8.567-8.567h-0.258V115.995z"/><path fill="#fcc24c" d="M66,50.67L66,50.67c-18.806,0-34.052,15.245-34.052,34.052v4.163h68.104v-4.163 C100.052,65.915,84.806,50.67,66,50.67z"/><path fill="#dea42e" d="M66,50.67L66,50.67c-0.76,0-1.511,0.034-2.258,0.083c17.752,1.164,31.794,15.922,31.794,33.969v4.163h4.517 v-4.163C100.052,65.915,84.806,50.67,66,50.67z"/><path fill="#fce06a" d="M66,50.67L66,50.67c0.76,0,1.511,0.034,2.258,0.083c-17.752,1.164-31.794,15.922-31.794,33.969v4.163h-4.517 v-4.163C31.948,65.915,47.194,50.67,66,50.67z"/><path fill="#690589" d="M100.052,90.884H31.948c-1.104,0-2-0.896-2-2v-4.163c0-19.879,16.173-36.052,36.052-36.052 s36.052,16.173,36.052,36.052v4.163C102.052,89.989,101.156,90.884,100.052,90.884z M33.948,86.884h64.104v-2.163 c0-17.673-14.378-32.052-32.052-32.052S33.948,67.048,33.948,84.721V86.884z"/><path fill="#f4efed" d="M72.332,65.986c0,3.497-2.835,6.332-6.332,6.332c-3.497,0-6.332-2.835-6.332-6.332 c0-3.497,2.835-6.332,6.332-6.332C69.497,59.654,72.332,62.489,72.332,65.986z"/><path fill="#690589" d="M66,74.317c-4.594,0-8.332-3.737-8.332-8.332s3.737-8.332,8.332-8.332s8.332,3.737,8.332,8.332 S70.594,74.317,66,74.317z M66,61.654c-2.388,0-4.332,1.943-4.332,4.332s1.943,4.332,4.332,4.332s4.332-1.943,4.332-4.332 S68.388,61.654,66,61.654z"/><path fill="#fcc24c" d="M96.303,95.667l-15.51-2.691c-9.788-1.699-19.796-1.699-29.584,0l-15.511,2.691 c-3.595,0.624-6.883-2.144-6.883-5.792l0,0c0-2.859,2.057-5.303,4.873-5.792l17.521-3.04c9.788-1.698,19.796-1.698,29.584,0 l17.52,3.04c2.816,0.489,4.873,2.933,4.873,5.792v0C103.186,93.523,99.897,96.29,96.303,95.667z"/><path fill="#dea42e" d="M98.313,84.084l-3.77-0.654c2.279,1.014,3.823,3.291,3.823,5.882c0,2.769-1.73,5.073-4.103,6.002 l2.04,0.354c3.595,0.624,6.883-2.144,6.883-5.792C103.186,87.017,101.129,84.572,98.313,84.084z"/><path fill="#fce06a" d="M33.687,84.084l3.77-0.654c-2.279,1.014-3.823,3.291-3.823,5.882c0,2.769,1.73,5.073,4.102,6.002 l-2.04,0.354c-3.595,0.624-6.883-2.144-6.883-5.792C28.814,87.017,30.871,84.572,33.687,84.084z"/><path fill="#690589" d="M97.313,97.754c-0.45,0-0.902-0.039-1.353-0.117l0,0L80.45,94.946c-9.589-1.664-19.312-1.664-28.9,0 l-15.511,2.691c-2.297,0.398-4.636-0.234-6.419-1.734c-1.783-1.5-2.806-3.698-2.806-6.028c0-3.841,2.747-7.105,6.532-7.762 l17.521-3.04c10.042-1.742,20.226-1.742,30.268,0l17.521,3.04c3.785,0.657,6.532,3.921,6.532,7.762 c0,2.331-1.023,4.528-2.806,6.028C100.947,97.109,99.154,97.754,97.313,97.754z M96.645,93.696 c1.132,0.196,2.282-0.115,3.16-0.854c0.878-0.739,1.381-1.82,1.381-2.968c0-1.891-1.353-3.498-3.215-3.821l-17.521-3.04 c-9.589-1.664-19.312-1.664-28.9,0l-17.521,3.04c-1.863,0.323-3.215,1.93-3.215,3.821c0,1.147,0.503,2.229,1.381,2.968 c0.877,0.738,2.028,1.049,3.16,0.854l15.511-2.691c10.043-1.742,20.227-1.742,30.268,0L96.645,93.696z"/><path fill="#576fa5" d="M232.69,153.398h-9.859h-17.674v-28.546H190h-15.157v28.546h-17.674h-9.859 c-10.651-0.014-19.296,8.609-19.31,19.26v49.592h62h62v-49.592C251.986,162.008,243.341,153.385,232.69,153.398z"/><path fill="#395288" d="M232.69,153.398h-6.352c10.651-0.014,19.296,8.609,19.31,19.26v49.592H252v-49.592 C251.986,162.008,243.341,153.385,232.69,153.398z"/><path fill="#99ca6f" d="M147.31,153.398h6.352c-10.651-0.014-19.296,8.609-19.31,19.26v49.592H128v-49.592 C128.013,162.008,136.659,153.385,147.31,153.398z"/><path fill="#690589" d="M252,224.25H128c-1.104,0-2-0.896-2-2v-49.592c0.015-11.73,9.561-21.26,21.284-21.26c0.009,0,0.019,0,0.028,0 h25.531v-26.545c0-1.104,0.896-2,2-2h30.314c1.104,0,2,0.896,2,2v26.545h25.531c0.008,0,0.019,0,0.028,0 c11.725,0,21.269,9.53,21.284,21.258v49.595C254,223.355,253.104,224.25,252,224.25z M130,220.25h120v-47.592 c-0.012-9.521-7.764-17.26-17.285-17.26c-0.007,0-0.01,0-0.025,0h-27.533c-1.104,0-2-0.896-2-2v-26.545h-26.314v26.545 c0,1.104-0.896,2-2,2H147.31c-0.007,0-0.016,0-0.022,0c-9.524,0-17.275,7.739-17.287,17.263V220.25z"/><path fill="#f4efed" d="M205.157,153.398v1.464c0,8.371-6.786,15.157-15.157,15.157l0,0c-8.371,0-15.157-6.786-15.157-15.157v-1.464 h-26.964v68.852h84.243v-68.852H205.157z"/><path fill="#ff4397" d="M219.895,190.157c0,4.631-3.755,8.386-8.386,8.386c-4.631,0-8.386-3.755-8.386-8.386 c0-4.631,3.755-8.386,8.386-8.386C216.141,181.771,219.895,185.526,219.895,190.157z"/><path fill="#690589" d="M135.673,186.675c-1.104,0-2-0.896-2-2v-7.819c0-1.104,0.896-2,2-2s2,0.896,2,2v7.819 C137.673,185.78,136.778,186.675,135.673,186.675z"/><path fill="#690589" d="M232.122,224.25h-84.243c-1.104,0-2-0.896-2-2v-68.853c0-1.104,0.896-2,2-2h26.964c1.104,0,2,0.896,2,2v1.464 c0,7.255,5.902,13.157,13.157,13.157s13.157-5.902,13.157-13.157v-1.464c0-1.104,0.896-2,2-2h26.964c1.104,0,2,0.896,2,2v68.853 C234.122,223.355,233.226,224.25,232.122,224.25z M149.878,220.25h80.243v-64.853h-22.973 c-0.285,9.213-7.868,16.621-17.149,16.621s-16.864-7.408-17.149-16.621h-22.973V220.25z"/><path fill="#690589" d="M190,224.25c-1.104,0-2-0.896-2-2v-52.231c0-1.104,0.896-2,2-2s2,0.896,2,2v52.231 C192,223.355,191.104,224.25,190,224.25z"/><path fill="#690589" d="M211.509,200.543c-5.727,0-10.386-4.659-10.386-10.386c0-5.727,4.659-10.386,10.386-10.386 s10.386,4.659,10.386,10.386C221.895,195.884,217.236,200.543,211.509,200.543z M211.509,183.771 c-3.521,0-6.386,2.865-6.386,6.386c0,3.521,2.865,6.386,6.386,6.386s6.386-2.865,6.386-6.386 C217.895,186.636,215.03,183.771,211.509,183.771z"/><path fill="#690589" d="M175.733,161.988h-27.855c-1.104,0-2-0.896-2-2s0.896-2,2-2h27.855c1.104,0,2,0.896,2,2 S176.838,161.988,175.733,161.988z"/><path fill="#690589" d="M232.122,161.988h-27.855c-1.104,0-2-0.896-2-2s0.896-2,2-2h27.855c1.104,0,2,0.896,2,2 S233.226,161.988,232.122,161.988z"/><path fill="#ffbd8e" d="M158.379,96.861h-2.258c-5.836,0-10.567,4.731-10.567,10.567s4.731,10.567,10.567,10.567h2.258V96.861z"/><path fill="#e18152" d="M223.878,96.861h-2.258v21.134h2.258c5.836,0,10.567-4.731,10.567-10.567S229.714,96.861,223.878,96.861z"/><path fill="#ff9f70" d="M190,150.579L190,150.579c-17.464,0-31.621-14.341-31.621-32.031V96.372 c0-17.691,14.157-32.031,31.621-32.031l0,0c17.464,0,31.621,14.341,31.621,32.031v22.175 C221.621,136.238,207.464,150.579,190,150.579z"/><path fill="#e18152" d="M190,64.34c-1.216,0-2.413,0.076-3.593,0.212c15.771,1.808,28.027,15.361,28.027,31.82v22.175 c0,16.459-12.257,30.011-28.027,31.819c1.18,0.135,2.378,0.212,3.593,0.212c17.464,0,31.621-14.341,31.621-32.031V96.372 C221.621,78.681,207.464,64.34,190,64.34z"/><path fill="#ffbd8e" d="M190,64.34c1.216,0,2.413,0.076,3.593,0.212c-15.771,1.808-28.027,15.361-28.027,31.82v22.175 c0,16.459,12.257,30.011,28.027,31.819c-1.18,0.135-2.377,0.212-3.593,0.212c-17.464,0-31.621-14.341-31.621-32.031V96.372 C158.379,78.681,172.536,64.34,190,64.34z"/><path fill="#690589" d="M190,152.579c-18.539,0-33.621-15.266-33.621-34.031V96.372c0-18.765,15.082-34.032,33.621-34.032 s33.621,15.267,33.621,34.032v22.175C223.621,137.312,208.539,152.579,190,152.579z M190,66.34 c-16.333,0-29.621,13.472-29.621,30.032v22.175c0,16.559,13.288,30.031,29.621,30.031s29.621-13.472,29.621-30.031V96.372 C219.621,79.812,206.333,66.34,190,66.34z"/><path fill="#690589" d="M158.379,119.995h-2.258c-6.929,0-12.567-5.638-12.567-12.567s5.638-12.567,12.567-12.567h2.258 c1.104,0,2,0.896,2,2v21.134C160.379,119.1,159.484,119.995,158.379,119.995z M156.122,98.861c-4.724,0-8.567,3.843-8.567,8.567 s3.843,8.567,8.567,8.567h0.258V98.861H156.122z"/><path fill="#690589" d="M223.878,119.995h-2.258c-1.104,0-2-0.896-2-2V96.861c0-1.104,0.896-2,2-2h2.258 c6.929,0,12.567,5.638,12.567,12.567S230.808,119.995,223.878,119.995z M223.621,115.995h0.258c4.724,0,8.567-3.843,8.567-8.567 s-3.843-8.567-8.567-8.567h-0.258V115.995z"/><path fill="#7bac51" d="M190,50.67L190,50.67c-18.806,0-34.052,15.245-34.052,34.052v4.163h68.104v-4.163 C224.052,65.915,208.806,50.67,190,50.67z"/><path fill="#5d8e33" d="M190,50.67L190,50.67c-0.76,0-1.511,0.034-2.258,0.083c17.752,1.164,31.794,15.922,31.794,33.969v4.163h4.517 v-4.163C224.052,65.915,208.806,50.67,190,50.67z"/><path fill="#99ca6f" d="M190,50.67L190,50.67c0.76,0,1.511,0.034,2.258,0.083c-17.752,1.164-31.794,15.922-31.794,33.969v4.163 h-4.517v-4.163C155.948,65.915,171.194,50.67,190,50.67z"/><path fill="#690589" d="M224.052,90.884h-68.104c-1.104,0-2-0.896-2-2v-4.163c0-19.879,16.173-36.052,36.052-36.052 s36.052,16.173,36.052,36.052v4.163C226.052,89.989,225.156,90.884,224.052,90.884z M157.948,86.884h64.104v-2.163 c0-17.673-14.378-32.052-32.052-32.052s-32.052,14.378-32.052,32.052V86.884z"/><path fill="#ff4397" d="M196.332,65.986c0,3.497-2.835,6.332-6.332,6.332s-6.332-2.835-6.332-6.332c0-3.497,2.835-6.332,6.332-6.332 S196.332,62.489,196.332,65.986z"/><path fill="#690589" d="M190,74.317c-4.594,0-8.332-3.737-8.332-8.332s3.737-8.332,8.332-8.332s8.332,3.737,8.332,8.332 S194.594,74.317,190,74.317z M190,61.654c-2.388,0-4.332,1.943-4.332,4.332s1.943,4.332,4.332,4.332s4.332-1.943,4.332-4.332 S192.388,61.654,190,61.654z"/><path fill="#7bac51" d="M220.303,95.667l-15.51-2.691c-9.788-1.699-19.796-1.699-29.584,0l-15.511,2.691 c-3.594,0.624-6.883-2.144-6.883-5.792l0,0c0-2.859,2.057-5.303,4.873-5.792l17.521-3.04c9.788-1.698,19.796-1.698,29.584,0 l17.52,3.04c2.817,0.489,4.873,2.933,4.873,5.792v0C227.186,93.523,223.897,96.29,220.303,95.667z"/><path fill="#5d8e33" d="M222.313,84.084l-3.77-0.654c2.279,1.014,3.823,3.291,3.823,5.882c0,2.769-1.73,5.073-4.102,6.002 l2.04,0.354c3.594,0.624,6.883-2.144,6.883-5.792C227.186,87.017,225.129,84.572,222.313,84.084z"/><path fill="#99ca6f" d="M157.687,84.084l3.77-0.654c-2.279,1.014-3.823,3.291-3.823,5.882c0,2.769,1.73,5.073,4.102,6.002 l-2.04,0.354c-3.594,0.624-6.883-2.144-6.883-5.792C152.814,87.017,154.871,84.572,157.687,84.084z"/><path fill="#690589" d="M221.313,97.754c-0.45,0-0.902-0.039-1.353-0.117l0,0l-15.511-2.691c-9.589-1.664-19.312-1.664-28.9,0 l-15.511,2.691c-2.299,0.398-4.636-0.234-6.419-1.734c-1.783-1.5-2.806-3.698-2.806-6.028c0-3.841,2.747-7.105,6.532-7.762 l17.521-3.04c10.042-1.742,20.226-1.742,30.268,0l17.521,3.04c3.785,0.657,6.532,3.921,6.532,7.762 c0,2.331-1.023,4.528-2.806,6.028C224.947,97.109,223.154,97.754,221.313,97.754z M220.645,93.696 c1.13,0.196,2.282-0.115,3.16-0.854c0.878-0.739,1.381-1.82,1.381-2.968c0-1.891-1.353-3.498-3.215-3.821l-17.521-3.04 c-9.589-1.664-19.312-1.664-28.9,0l-17.521,3.04c-1.863,0.323-3.215,1.93-3.215,3.821c0,1.147,0.503,2.229,1.381,2.968 c0.877,0.738,2.028,1.049,3.16,0.854l15.511-2.691c10.043-1.742,20.227-1.742,30.268,0L220.645,93.696z"/><path fill="#7bac51" d="M175.161,147.235h-10.892h-19.524v-31.535H128h-16.745v31.535H91.731H80.839 c-11.766-0.015-21.317,9.511-21.332,21.277v53.738H128h68.492v-53.738C196.477,156.746,186.927,147.22,175.161,147.235z"/><path fill="#5d8e33" d="M175.161,147.235h-7.017c11.766-0.015,21.317,9.511,21.332,21.277v53.738h7.017v-53.738 C196.477,156.746,186.927,147.22,175.161,147.235z"/><path fill="#99ca6f" d="M80.839,147.235h7.017c-11.766-0.015-21.317,9.511-21.332,21.277v53.738h-7.017v-53.738 C59.522,156.746,69.073,147.22,80.839,147.235z"/><path fill="#690589" d="M196.492,224.25H59.508c-1.104,0-2-0.896-2-2v-53.738c0.008-6.228,2.439-12.077,6.847-16.473 c4.399-4.389,10.244-6.805,16.457-6.805c0.011,0,0.02,0,0.031,0h28.414v-29.535c0-1.104,0.896-2,2-2h33.489c1.104,0,2,0.896,2,2 v29.535h28.414c0.01,0,0.021,0,0.031,0c6.213,0,12.057,2.416,16.457,6.805c4.407,4.396,6.839,10.245,6.847,16.47v53.74 C198.492,223.355,197.597,224.25,196.492,224.25z M61.508,220.25h132.984v-51.738c-0.006-5.154-2.021-9.999-5.671-13.641 c-3.645-3.635-8.485-5.637-13.632-5.637c-0.009,0-0.012,0.003-0.028,0h-30.416c-1.104,0-2-0.896-2-2v-29.535h-29.489v29.535 c0,1.104-0.896,2-2,2H80.839c-0.008,0-0.017,0-0.025,0c-5.149,0-9.99,2.001-13.635,5.637c-3.651,3.642-5.665,8.487-5.671,13.643 V220.25z"/><path fill="#f4efed" d="M144.745,147.235v1.617c0,9.248-7.497,16.745-16.745,16.745l0,0c-9.248,0-16.745-7.497-16.745-16.745v-1.617 H81.468v75.015h93.065v-75.015H144.745z"/><rect width="23.332" height="10.67" x="92.311" y="182.508" fill="#fcc24c"/><circle cx="151.762" cy="187.844" r="9.264" fill="#fcc24c" transform="rotate(-45.001 151.76 187.846)"/><path fill="#690589" d="M67.984,187.469c-1.104,0-2-0.896-2-2v-12c0-1.104,0.896-2,2-2s2,0.896,2,2v12 C69.984,186.573,69.089,187.469,67.984,187.469z"/><path fill="#690589" d="M174.532,224.25H81.468c-1.104,0-2-0.896-2-2v-75.015c0-1.104,0.896-2,2-2h29.788c1.104,0,2,0.896,2,2v1.617 c0,8.13,6.614,14.745,14.745,14.745s14.745-6.614,14.745-14.745v-1.617c0-1.104,0.896-2,2-2h29.788c1.104,0,2,0.896,2,2v75.015 C176.532,223.355,175.637,224.25,174.532,224.25z M83.468,220.25h89.064v-71.015h-25.792c-0.205,10.16-8.533,18.361-18.741,18.361 s-18.536-8.202-18.741-18.361H83.468V220.25z"/><path fill="#690589" d="M128,224.25c-1.104,0-2-0.896-2-2v-56.654c0-1.104,0.896-2,2-2s2,0.896,2,2v56.654 C130,223.355,129.104,224.25,128,224.25z"/><path fill="#690589" d="M115.642,195.179H92.311c-1.104,0-2-0.896-2-2v-10.67c0-1.104,0.896-2,2-2h23.332c1.104,0,2,0.896,2,2v10.67 C117.642,194.283,116.747,195.179,115.642,195.179z M94.311,191.179h19.332v-6.67H94.311V191.179z"/><path fill="#690589" d="M151.762,199.107c-6.211,0-11.264-5.053-11.264-11.264s5.053-11.264,11.264-11.264 s11.264,5.053,11.264,11.264S157.973,199.107,151.762,199.107z M151.762,180.58c-4.005,0-7.264,3.259-7.264,7.264 s3.259,7.264,7.264,7.264s7.264-3.258,7.264-7.264S155.767,180.58,151.762,180.58z"/><path fill="#690589" d="M112.239,156.515H81.468c-1.104,0-2-0.896-2-2s0.896-2,2-2h30.771c1.104,0,2,0.896,2,2 S113.344,156.515,112.239,156.515z"/><path fill="#690589" d="M174.532,156.515h-30.771c-1.104,0-2-0.896-2-2s0.896-2,2-2h30.771c1.104,0,2,0.896,2,2 S175.637,156.515,174.532,156.515z"/><path fill="#ffbd8e" d="M93.068,84.778h-2.494c-6.447,0-11.674,5.227-11.674,11.674c0,6.447,5.226,11.674,11.674,11.674h2.494 V84.778z"/><path fill="#e18152" d="M165.426,84.778h-2.494v23.347h2.494c6.447,0,11.673-5.226,11.673-11.674 C177.099,90.005,171.873,84.778,165.426,84.778z"/><path fill="#ff9f70" d="M128,144.121L128,144.121c-19.292,0-34.932-15.843-34.932-35.385V84.238 c0-19.543,15.639-35.386,34.932-35.386l0,0c19.292,0,34.932,15.843,34.932,35.386v24.498 C162.932,128.278,147.292,144.121,128,144.121z"/><path fill="#e18152" d="M128,48.852c-1.343,0-2.666,0.084-3.969,0.234c17.422,1.997,30.962,16.969,30.962,35.152v24.498 c0,18.183-13.54,33.154-30.962,35.152c1.304,0.149,2.626,0.234,3.969,0.234c19.292,0,34.932-15.842,34.932-35.385V84.238 C162.932,64.695,147.292,48.852,128,48.852z"/><path fill="#ffbd8e" d="M128,48.852c1.343,0,2.666,0.084,3.97,0.234c-17.422,1.997-30.962,16.969-30.962,35.152v24.498 c0,18.183,13.54,33.154,30.962,35.152c-1.303,0.149-2.626,0.234-3.97,0.234c-19.292,0-34.932-15.842-34.932-35.385V84.238 C93.068,64.695,108.707,48.852,128,48.852z"/><path fill="#690589" d="M128,146.121c-20.364,0-36.932-16.771-36.932-37.385V84.238c0-20.615,16.568-37.386,36.932-37.386 s36.932,16.771,36.932,37.386v24.498C164.932,129.35,148.364,146.121,128,146.121z M128,50.852 c-18.159,0-32.932,14.977-32.932,33.386v24.498c0,18.409,14.773,33.385,32.932,33.385s32.932-14.977,32.932-33.385V84.238 C160.932,65.829,146.159,50.852,128,50.852z"/><path fill="#690589" d="M93.068,110.125h-2.494c-7.54,0-13.674-6.134-13.674-13.673s6.134-13.674,13.674-13.674h2.494 c1.104,0,2,0.896,2,2v23.347C95.068,109.229,94.172,110.125,93.068,110.125z M90.574,86.778c-5.334,0-9.674,4.34-9.674,9.674 s4.34,9.673,9.674,9.673h0.494V86.778H90.574z"/><path fill="#690589" d="M165.426,110.125h-2.494c-1.104,0-2-0.896-2-2V84.778c0-1.104,0.896-2,2-2h2.494 c7.54,0,13.674,6.134,13.674,13.674S172.965,110.125,165.426,110.125z M164.932,106.125h0.494c5.334,0,9.674-4.339,9.674-9.673 s-4.34-9.674-9.674-9.674h-0.494V106.125z"/><path fill="#ff4397" d="M128,33.749L128,33.749c-20.776,0-37.618,16.842-37.618,37.618v4.599h75.235v-4.599 C165.618,50.591,148.776,33.749,128,33.749z"/><path fill="#e12579" d="M128,33.749L128,33.749c-0.839,0-1.669,0.037-2.495,0.091c19.611,1.285,35.123,17.59,35.123,37.526v4.599 h4.99v-4.599C165.618,50.591,148.776,33.749,128,33.749z"/><path fill="#ff61b5" d="M128,33.749L128,33.749c0.839,0,1.669,0.037,2.495,0.091c-19.611,1.285-35.123,17.59-35.123,37.526v4.599 h-4.99v-4.599C90.382,50.591,107.224,33.749,128,33.749z"/><path fill="#690589" d="M165.618,77.966H90.382c-1.104,0-2-0.896-2-2v-4.599c0-21.845,17.772-39.618,39.618-39.618 s39.618,17.772,39.618,39.618v4.599C167.618,77.07,166.722,77.966,165.618,77.966z M92.382,73.966h71.235v-2.599 c0-19.64-15.978-35.618-35.618-35.618S92.382,51.728,92.382,71.367V73.966z"/><path fill="#fcc24c" d="M134.995,50.669c0,3.863-3.132,6.995-6.995,6.995c-3.863,0-6.995-3.132-6.995-6.995 c0-3.863,3.132-6.994,6.995-6.994C131.863,43.675,134.995,46.807,134.995,50.669z"/><path fill="#690589" d="M128,59.664c-4.959,0-8.995-4.035-8.995-8.995s4.035-8.995,8.995-8.995s8.995,4.035,8.995,8.995 S132.959,59.664,128,59.664z M128,45.675c-2.754,0-4.995,2.241-4.995,4.995s2.241,4.995,4.995,4.995s4.995-2.241,4.995-4.995 S130.754,45.675,128,45.675z"/><path fill="#ff4397" d="M161.476,83.459l-17.135-2.973c-10.813-1.876-21.869-1.876-32.682,0l-17.135,2.973 c-3.971,0.689-7.604-2.368-7.604-6.398l0,0c0-3.158,2.272-5.858,5.383-6.398l19.355-3.358c10.813-1.876,21.869-1.876,32.682,0 l19.355,3.358c3.111,0.54,5.383,3.24,5.383,6.398v0C169.08,81.091,165.447,84.148,161.476,83.459z"/><path fill="#e12579" d="M163.696,70.662l-4.165-0.723c2.518,1.121,4.223,3.635,4.223,6.498c0,3.06-1.911,5.604-4.532,6.63 l2.254,0.391c3.971,0.689,7.604-2.368,7.604-6.398C169.08,73.902,166.808,71.202,163.696,70.662z"/><path fill="#ff61b5" d="M92.304,70.662l4.165-0.723c-2.518,1.121-4.223,3.635-4.223,6.498c0,3.06,1.912,5.604,4.532,6.63 l-2.254,0.391c-3.971,0.689-7.604-2.368-7.604-6.398C86.92,73.902,89.192,71.202,92.304,70.662z"/><path fill="#690589" d="M162.593,85.555c-0.485,0-0.973-0.042-1.458-0.125L144,82.456c-10.617-1.843-21.383-1.843-31.999,0 l-17.135,2.973c-2.477,0.427-4.998-0.252-6.92-1.87s-3.025-3.986-3.025-6.499c0-4.142,2.961-7.661,7.042-8.369l19.355-3.358 c11.069-1.921,22.295-1.921,33.366,0l19.355,3.358c4.08,0.708,7.042,4.227,7.042,8.369c0,2.513-1.103,4.881-3.025,6.499 C166.51,84.859,164.577,85.555,162.593,85.555z M161.818,81.488c1.312,0.229,2.644-0.134,3.661-0.989 c1.017-0.856,1.601-2.109,1.601-3.438c0-2.191-1.566-4.053-3.725-4.427L144,69.275c-10.617-1.843-21.382-1.843-31.999,0 l-19.355,3.358c-2.159,0.374-3.725,2.236-3.725,4.427c0,1.329,0.583,2.583,1.601,3.438c1.017,0.855,2.352,1.215,3.661,0.989 l17.135-2.973c11.069-1.92,22.295-1.92,33.366,0L161.818,81.488z"/></svg>