<svg xmlns="http://www.w3.org/2000/svg"  viewBox="0 0 64 64" width="64px" height="64px"><rect width="4" height="3" x="19" y="37" fill="#d32e5e"/><path fill="#212a41" d="M23,40.5h-4c-0.276,0-0.5-0.224-0.5-0.5v-3c0-0.276,0.224-0.5,0.5-0.5h4c0.276,0,0.5,0.224,0.5,0.5v3 C23.5,40.276,23.276,40.5,23,40.5z M19.5,39.5h3v-2h-3V39.5z"/><path fill="#b51040" d="M26,58H4V46c0-3.314,2.686-6,6-6h10c3.314,0,6,2.686,6,6V58z"/><path fill="#212a41" d="M26,58.5H4c-0.276,0-0.5-0.224-0.5-0.5V46c0-3.584,2.916-6.5,6.5-6.5h10c3.584,0,6.5,2.916,6.5,6.5v12 C26.5,58.276,26.276,58.5,26,58.5z M4.5,57.5h21V46c0-3.032-2.468-5.5-5.5-5.5H10c-3.032,0-5.5,2.468-5.5,5.5V57.5z"/><path fill="#d32e5e" d="M24,40H14c-3.314,0-6,2.686-6,6v12h22V46C30,42.686,27.314,40,24,40z"/><path fill="#212a41" d="M30,58.5H8c-0.276,0-0.5-0.224-0.5-0.5V46c0-3.584,2.916-6.5,6.5-6.5h10c3.584,0,6.5,2.916,6.5,6.5v12 C30.5,58.276,30.276,58.5,30,58.5z M8.5,57.5h21V46c0-3.032-2.468-5.5-5.5-5.5H14c-3.032,0-5.5,2.468-5.5,5.5V57.5z"/><path fill="#e0c8a4" d="M19,37h-4c-2.209,0-4-1.791-4-4v-6c0-2.209,1.791-4,4-4h4c2.209,0,4,1.791,4,4v6C23,35.209,21.209,37,19,37z"/><path fill="#212a41" d="M19,37.5h-4c-2.481,0-4.5-2.019-4.5-4.5v-6c0-2.481,2.019-4.5,4.5-4.5h4c2.481,0,4.5,2.019,4.5,4.5v6 C23.5,35.481,21.481,37.5,19,37.5z M15,23.5c-1.93,0-3.5,1.57-3.5,3.5v6c0,1.93,1.57,3.5,3.5,3.5h4c1.93,0,3.5-1.57,3.5-3.5v-6 c0-1.93-1.57-3.5-3.5-3.5H15z"/><path fill="#db8e11" d="M15,23v6c0,1.105-0.895,2-2,2h-2v-6c0-1.105,0.895-2,2-2L15,23z"/><path fill="#212a41" d="M13,31.5h-2c-0.276,0-0.5-0.224-0.5-0.5v-6c0-1.379,1.121-2.5,2.5-2.5h2c0.276,0,0.5,0.224,0.5,0.5v6 C15.5,30.379,14.379,31.5,13,31.5z M11.5,30.5H13c0.827,0,1.5-0.673,1.5-1.5v-5.5H13c-0.827,0-1.5,0.673-1.5,1.5V30.5z"/><path fill="#f9ac2f" d="M25,21v2c0,2.209-1.791,4-4,4h-7v-4c0-1.105,0.895-2,2-2L25,21z"/><path fill="#212a41" d="M21,27.5h-7c-0.276,0-0.5-0.224-0.5-0.5v-4c0-1.379,1.121-2.5,2.5-2.5h9c0.276,0,0.5,0.224,0.5,0.5v2 C25.5,25.481,23.481,27.5,21,27.5z M14.5,26.5H21c1.93,0,3.5-1.57,3.5-3.5v-1.5H16c-0.827,0-1.5,0.673-1.5,1.5V26.5z"/><path fill="#b51040" d="M28,56.5c-0.276,0-0.5-0.224-0.5-0.5V46c0-0.276,0.224-0.5,0.5-0.5s0.5,0.224,0.5,0.5v10 C28.5,56.276,28.276,56.5,28,56.5z"/><path fill="#212a41" d="M19,58.5c-0.276,0-0.5-0.224-0.5-0.5V40c0-0.276,0.224-0.5,0.5-0.5s0.5,0.224,0.5,0.5v18 C19.5,58.276,19.276,58.5,19,58.5z"/><rect width="4" height="3" x="15" y="37" fill="#e0c8a4"/><path fill="#212a41" d="M19,40.5h-4c-0.276,0-0.5-0.224-0.5-0.5v-3c0-0.276,0.224-0.5,0.5-0.5h4c0.276,0,0.5,0.224,0.5,0.5v3 C19.5,40.276,19.276,40.5,19,40.5z M15.5,39.5h3v-2h-3V39.5z"/><rect width="4" height="3" x="12" y="37" fill="#d32e5e"/><path fill="#212a41" d="M16,40.5h-4c-0.276,0-0.5-0.224-0.5-0.5v-3c0-0.276,0.224-0.5,0.5-0.5h4c0.276,0,0.5,0.224,0.5,0.5v3 C16.5,40.276,16.276,40.5,16,40.5z M12.5,39.5h3v-2h-3V39.5z"/><path fill="#d32e5e" d="M6.721,60h10.559C18.944,58.534,20,56.392,20,54c0-4.418-3.582-8-8-8s-8,3.582-8,8 C4,56.392,5.056,58.534,6.721,60z"/><path fill="#212a41" d="M17.279,60.5H6.721c-0.122,0-0.239-0.044-0.33-0.125C4.554,58.758,3.5,56.435,3.5,54 c0-4.687,3.813-8.5,8.5-8.5s8.5,3.813,8.5,8.5c0,2.435-1.054,4.758-2.891,6.375C17.519,60.456,17.401,60.5,17.279,60.5z M6.913,59.5h10.174c1.536-1.421,2.413-3.414,2.413-5.5c0-4.136-3.364-7.5-7.5-7.5S4.5,49.864,4.5,54 C4.5,56.086,5.377,58.079,6.913,59.5z"/><path fill="#f14c7c" d="M7.538,58.5c-0.137,0-0.273-0.056-0.372-0.166C6.092,57.137,5.5,55.598,5.5,54c0-0.276,0.224-0.5,0.5-0.5 s0.5,0.224,0.5,0.5c0,1.351,0.501,2.653,1.41,3.666c0.185,0.205,0.167,0.521-0.038,0.706C7.776,58.458,7.657,58.5,7.538,58.5z"/><path fill="#b7c0d7" d="M11,51v3l2,2h6.736C19.902,55.36,20,54.692,20,54c0-1.062-0.211-2.073-0.587-3H11z"/><path fill="#212a41" d="M19.736,56.5H13c-0.133,0-0.26-0.053-0.354-0.146l-2-2C10.553,54.26,10.5,54.133,10.5,54v-3 c0-0.276,0.224-0.5,0.5-0.5h8.413c0.203,0,0.387,0.123,0.463,0.312C20.29,51.832,20.5,52.904,20.5,54 c0,0.694-0.094,1.409-0.279,2.125C20.163,56.346,19.964,56.5,19.736,56.5z M13.207,55.5h6.133c0.106-0.508,0.16-1.011,0.16-1.5 c0-0.854-0.146-1.694-0.432-2.5H11.5v2.293L13.207,55.5z"/><polygon fill="#4e4b51" points="9,54 11,54 11,51 8,51"/><path fill="#212a41" d="M11,54.5H9c-0.215,0-0.406-0.138-0.475-0.342l-1-3c-0.051-0.152-0.025-0.32,0.069-0.45 C7.688,50.577,7.839,50.5,8,50.5h3c0.276,0,0.5,0.224,0.5,0.5v3C11.5,54.276,11.276,54.5,11,54.5z M9.36,53.5h1.14v-2H8.693 L9.36,53.5z"/><rect width="4" height="3" x="41" y="37" fill="#f9ac2f" transform="rotate(-180 43 38.5)"/><path fill="#212a41" d="M45,40.5h-4c-0.276,0-0.5-0.224-0.5-0.5v-3c0-0.276,0.224-0.5,0.5-0.5h4c0.276,0,0.5,0.224,0.5,0.5v3 C45.5,40.276,45.276,40.5,45,40.5z M41.5,39.5h3v-2h-3V39.5z"/><path fill="#f9ac2f" d="M38,58h22V46c0-3.314-2.686-6-6-6H44c-3.314,0-6,2.686-6,6V58z"/><path fill="#212a41" d="M60,58.5H38c-0.276,0-0.5-0.224-0.5-0.5V46c0-3.584,2.916-6.5,6.5-6.5h10c3.584,0,6.5,2.916,6.5,6.5v12 C60.5,58.276,60.276,58.5,60,58.5z M38.5,57.5h21V46c0-3.032-2.468-5.5-5.5-5.5H44c-3.032,0-5.5,2.468-5.5,5.5V57.5z"/><path fill="#db8e11" d="M40,40h10c3.314,0,6,2.686,6,6v12H34V46C34,42.686,36.686,40,40,40z"/><path fill="#212a41" d="M56,58.5H34c-0.276,0-0.5-0.224-0.5-0.5V46c0-3.584,2.916-6.5,6.5-6.5h10c3.584,0,6.5,2.916,6.5,6.5v12 C56.5,58.276,56.276,58.5,56,58.5z M34.5,57.5h21V46c0-3.032-2.468-5.5-5.5-5.5H40c-3.032,0-5.5,2.468-5.5,5.5V57.5z"/><path fill="#e0c8a4" d="M45,37h4c2.209,0,4-1.791,4-4v-6c0-2.209-1.791-4-4-4h-4c-2.209,0-4,1.791-4,4v6C41,35.209,42.791,37,45,37z"/><path fill="#212a41" d="M49,37.5h-4c-2.481,0-4.5-2.019-4.5-4.5v-6c0-2.481,2.019-4.5,4.5-4.5h4c2.481,0,4.5,2.019,4.5,4.5v6 C53.5,35.481,51.481,37.5,49,37.5z M45,23.5c-1.93,0-3.5,1.57-3.5,3.5v6c0,1.93,1.57,3.5,3.5,3.5h4c1.93,0,3.5-1.57,3.5-3.5v-6 c0-1.93-1.57-3.5-3.5-3.5H45z"/><path fill="#6c696f" d="M49,23v6c0,1.105,0.895,2,2,2h2v-6c0-1.105-0.895-2-2-2L49,23z"/><path fill="#212a41" d="M53,31.5h-2c-1.379,0-2.5-1.121-2.5-2.5v-6c0-0.276,0.224-0.5,0.5-0.5h2c1.379,0,2.5,1.121,2.5,2.5v6 C53.5,31.276,53.276,31.5,53,31.5z M49.5,23.5V29c0,0.827,0.673,1.5,1.5,1.5h1.5V25c0-0.827-0.673-1.5-1.5-1.5H49.5z"/><path fill="#4e4b51" d="M39,25v2h14v-4c0-1.105-0.895-2-2-2l-8,0C40.791,21,39,22.791,39,25z"/><path fill="#212a41" d="M53,27.5H39c-0.276,0-0.5-0.224-0.5-0.5v-2c0-2.481,2.019-4.5,4.5-4.5h8c1.379,0,2.5,1.121,2.5,2.5v4 C53.5,27.276,53.276,27.5,53,27.5z M39.5,26.5h13V23c0-0.827-0.673-1.5-1.5-1.5h-8c-1.93,0-3.5,1.57-3.5,3.5V26.5z"/><path fill="#f9ac2f" d="M36,56.5c-0.276,0-0.5-0.224-0.5-0.5V46c0-0.276,0.224-0.5,0.5-0.5s0.5,0.224,0.5,0.5v10 C36.5,56.276,36.276,56.5,36,56.5z"/><path fill="#212a41" d="M45,58.5c-0.276,0-0.5-0.224-0.5-0.5V40c0-0.276,0.224-0.5,0.5-0.5s0.5,0.224,0.5,0.5v18 C45.5,58.276,45.276,58.5,45,58.5z"/><g><rect width="4" height="3" x="45" y="37" fill="#e0c8a4" transform="rotate(-180 47 38.5)"/><path fill="#212a41" d="M49,40.5h-4c-0.276,0-0.5-0.224-0.5-0.5v-3c0-0.276,0.224-0.5,0.5-0.5h4c0.276,0,0.5,0.224,0.5,0.5v3 C49.5,40.276,49.276,40.5,49,40.5z M45.5,39.5h3v-2h-3V39.5z"/></g><g><rect width="4" height="3" x="48" y="37" fill="#f9ac2f" transform="rotate(-180 50 38.5)"/><path fill="#212a41" d="M52,40.5h-4c-0.276,0-0.5-0.224-0.5-0.5v-3c0-0.276,0.224-0.5,0.5-0.5h4c0.276,0,0.5,0.224,0.5,0.5v3 C52.5,40.276,52.276,40.5,52,40.5z M48.5,39.5h3v-2h-3V39.5z"/></g><g><path fill="#f9ac2f" d="M57.279,60H46.721C45.056,58.534,44,56.392,44,54c0-4.418,3.582-8,8-8s8,3.582,8,8 C60,56.392,58.944,58.534,57.279,60z"/><path fill="#212a41" d="M57.279,60.5H46.721c-0.122,0-0.239-0.044-0.33-0.125C44.554,58.758,43.5,56.435,43.5,54 c0-4.687,3.813-8.5,8.5-8.5s8.5,3.813,8.5,8.5c0,2.435-1.054,4.758-2.891,6.375C57.519,60.456,57.401,60.5,57.279,60.5z M46.913,59.5h10.174c1.536-1.421,2.413-3.414,2.413-5.5c0-4.136-3.364-7.5-7.5-7.5s-7.5,3.364-7.5,7.5 C44.5,56.086,45.377,58.079,46.913,59.5z"/></g><g><path fill="#db8e11" d="M56.462,58.5c-0.119,0-0.238-0.042-0.334-0.128c-0.205-0.185-0.223-0.501-0.038-0.706 c0.909-1.013,1.41-2.315,1.41-3.666c0-0.276,0.224-0.5,0.5-0.5s0.5,0.224,0.5,0.5c0,1.598-0.592,3.137-1.666,4.334 C56.735,58.444,56.599,58.5,56.462,58.5z"/></g><g><path fill="#b7c0d7" d="M53,51v3l-2,2h-6.736C44.098,55.36,44,54.692,44,54c0-1.062,0.211-2.073,0.587-3H53z"/><path fill="#212a41" d="M51,56.5h-6.736c-0.228,0-0.427-0.154-0.484-0.375C43.594,55.409,43.5,54.694,43.5,54 c0-1.096,0.21-2.168,0.624-3.188c0.076-0.189,0.26-0.312,0.463-0.312H53c0.276,0,0.5,0.224,0.5,0.5v3 c0,0.133-0.053,0.26-0.146,0.354l-2,2C51.26,56.447,51.133,56.5,51,56.5z M44.66,55.5h6.133l1.707-1.707V51.5h-7.568 C44.646,52.306,44.5,53.146,44.5,54C44.5,54.489,44.554,54.992,44.66,55.5z"/></g><g><polygon fill="#4e4b51" points="55,54 53,54 53,51 56,51"/><path fill="#212a41" d="M55,54.5h-2c-0.276,0-0.5-0.224-0.5-0.5v-3c0-0.276,0.224-0.5,0.5-0.5h3c0.161,0,0.312,0.077,0.405,0.208 c0.095,0.13,0.12,0.298,0.069,0.45l-1,3C55.406,54.362,55.215,54.5,55,54.5z M53.5,53.5h1.14l0.667-2H53.5V53.5z"/></g><g><rect width="4" height="3" x="22" y="46" fill="#0079a8"/><path fill="#212a41" d="M26,49.5h-4c-0.276,0-0.5-0.224-0.5-0.5v-3c0-0.276,0.224-0.5,0.5-0.5h4c0.276,0,0.5,0.224,0.5,0.5v3 C26.5,49.276,26.276,49.5,26,49.5z M22.5,48.5h3v-2h-3V48.5z"/></g><g><rect width="4" height="3" x="38" y="46" fill="#0079a8"/><path fill="#212a41" d="M42,49.5h-4c-0.276,0-0.5-0.224-0.5-0.5v-3c0-0.276,0.224-0.5,0.5-0.5h4c0.276,0,0.5,0.224,0.5,0.5v3 C42.5,49.276,42.276,49.5,42,49.5z M38.5,48.5h3v-2h-3V48.5z"/></g><g><path fill="#e0e0e0" d="M42.5,4h-16c-1.105,0-2,0.895-2,2v10c0,1.105,0.895,2,2,2h6v4l4-4h6c1.105,0,2-0.895,2-2V6 C44.5,4.896,43.605,4,42.5,4z"/><path fill="#212a41" d="M32.5,22.5c-0.064,0-0.13-0.013-0.191-0.038C32.122,22.385,32,22.202,32,22v-3.5h-5.5 c-1.379,0-2.5-1.121-2.5-2.5V6c0-1.379,1.121-2.5,2.5-2.5h16C43.879,3.5,45,4.621,45,6v10c0,1.379-1.121,2.5-2.5,2.5h-5.793 l-3.854,3.854C32.758,22.449,32.63,22.5,32.5,22.5z M26.5,4.5C25.673,4.5,25,5.173,25,6v10c0,0.827,0.673,1.5,1.5,1.5h6 c0.276,0,0.5,0.224,0.5,0.5v2.793l3.146-3.146C36.24,17.553,36.367,17.5,36.5,17.5h6c0.827,0,1.5-0.673,1.5-1.5V6 c0-0.827-0.673-1.5-1.5-1.5H26.5z"/></g><g><path fill="#c2c2c2" d="M26.5,18c-1.105,0-2-0.895-2-2V6c0-1.105,0.895-2,2-2h-3c-1.105,0-2,0.895-2,2v10c0,1.105,0.895,2,2,2h6v4h3 v-4H26.5z"/><path fill="#212a41" d="M32.5,22.5h-3c-0.276,0-0.5-0.224-0.5-0.5v-3.5h-5.5c-1.379,0-2.5-1.121-2.5-2.5V6c0-1.379,1.121-2.5,2.5-2.5 h3C26.776,3.5,27,3.724,27,4s-0.224,0.5-0.5,0.5C25.673,4.5,25,5.173,25,6v10c0,0.827,0.673,1.5,1.5,1.5h6 c0.276,0,0.5,0.224,0.5,0.5v4C33,22.276,32.776,22.5,32.5,22.5z M30,21.5h2v-3h-2V21.5z M23.5,4.5C22.673,4.5,22,5.173,22,6v10 c0,0.827,0.673,1.5,1.5,1.5h1.001C24.187,17.082,24,16.562,24,16V6c0-0.562,0.187-1.082,0.501-1.5H23.5z"/></g><g><path fill="#212a41" d="M34.5,16.5c-3.032,0-5.5-2.468-5.5-5.5s2.468-5.5,5.5-5.5S40,7.968,40,11S37.532,16.5,34.5,16.5z M34.5,6.5 C32.019,6.5,30,8.519,30,11s2.019,4.5,4.5,4.5S39,13.481,39,11S36.981,6.5,34.5,6.5z"/></g><g><path fill="#212a41" d="M39.5,11.5h-3c-0.276,0-0.5-0.224-0.5-0.5s0.224-0.5,0.5-0.5h3c0.276,0,0.5,0.224,0.5,0.5 S39.776,11.5,39.5,11.5z"/></g><g><path fill="#212a41" d="M34.5,13.5c-1.379,0-2.5-1.121-2.5-2.5s1.121-2.5,2.5-2.5S37,9.621,37,11S35.879,13.5,34.5,13.5z M34.5,9.5 c-0.827,0-1.5,0.673-1.5,1.5s0.673,1.5,1.5,1.5S36,11.827,36,11S35.327,9.5,34.5,9.5z"/></g><g><path fill="#212a41" d="M34.5,16.5c-0.276,0-0.5-0.224-0.5-0.5v-3c0-0.276,0.224-0.5,0.5-0.5S35,12.724,35,13v3 C35,16.276,34.776,16.5,34.5,16.5z"/></g><g><path fill="#212a41" d="M32.5,11.5h-3c-0.276,0-0.5-0.224-0.5-0.5s0.224-0.5,0.5-0.5h3c0.276,0,0.5,0.224,0.5,0.5 S32.776,11.5,32.5,11.5z"/></g><g><path fill="#fefefe" d="M26.5,16.5c-0.276,0-0.5-0.224-0.5-0.5V6c0-0.276,0.224-0.5,0.5-0.5S27,5.724,27,6v10 C27,16.276,26.776,16.5,26.5,16.5z"/></g><g><path fill="#c2c2c2" d="M42.5,16.5c-0.276,0-0.5-0.224-0.5-0.5V6c0-0.276,0.224-0.5,0.5-0.5S43,5.724,43,6v10 C43,16.276,42.776,16.5,42.5,16.5z"/></g></svg>