<svg xmlns="http://www.w3.org/2000/svg"  viewBox="0 0 64 64" width="64px" height="64px"><path fill="#705ca3" d="M33.765,48.158l-11.156-4.4c-0.258-0.103-0.599-0.153-0.94-0.153l0,0h-5.439v1.929l-6.655,2.625 c-0.518,0.203-0.939,0.824-0.939,1.38v8.466h7.595h5.439h13.035v-8.466C34.704,48.982,34.282,48.361,33.765,48.158z"/><path fill="#63312d" d="M34.704,58.504H8.635c-0.276,0-0.5-0.224-0.5-0.5v-8.466c0-0.758,0.552-1.569,1.257-1.845l6.338-2.5v-1.588 c0-0.276,0.224-0.5,0.5-0.5h5.439c0.419,0,0.818,0.067,1.124,0.188l11.154,4.4c0.705,0.276,1.257,1.087,1.257,1.845v8.466 C35.204,58.28,34.98,58.504,34.704,58.504z M9.135,57.504h25.069v-7.966c0-0.351-0.296-0.787-0.622-0.915c0,0,0,0-0.001,0 l-11.156-4.4c-0.189-0.076-0.465-0.119-0.756-0.119h-4.939v1.429c0,0.206-0.125,0.39-0.316,0.465l-6.655,2.625 c-0.327,0.128-0.623,0.564-0.623,0.915V57.504z"/><path fill="#705ca3" d="M28.356,48.158l-11.156-4.4c-0.517-0.204-1.362-0.204-1.879,0l-11.155,4.4 c-0.518,0.203-0.94,0.824-0.94,1.38v8.466h26.07v-8.466C29.296,48.982,28.873,48.361,28.356,48.158z"/><path fill="#705ca3" d="M5.226,51.016c0-0.556,0.423-1.177,0.94-1.38l11.155-4.4c0.232-0.092,1.026-0.398,1.877-0.69L17.2,43.758 c-0.517-0.204-1.362-0.204-1.879,0l-11.155,4.4c-0.518,0.203-0.94,0.824-0.94,1.38v8.466h2V51.016z"/><path fill="#63312d" d="M29.296,58.504H3.226c-0.276,0-0.5-0.224-0.5-0.5v-8.466c0-0.758,0.552-1.568,1.258-1.845l11.154-4.4 c0.63-0.248,1.616-0.249,2.246,0l11.156,4.4c0.705,0.277,1.256,1.087,1.256,1.845v8.466 C29.796,58.28,29.572,58.504,29.296,58.504z M3.726,57.504h25.07v-7.966c0-0.351-0.297-0.787-0.623-0.915c0,0,0,0,0,0 l-11.156-4.4c-0.396-0.157-1.116-0.157-1.512,0L4.35,48.624c-0.327,0.128-0.624,0.564-0.624,0.915V57.504z"/><polygon fill="#f9dd9d" points="21.734,47.577 25.443,49.037 26.448,47.395 22.739,45.936"/><path fill="#efc36a" d="M15.42,36.776c0.123,1.152,0.375,2.412,0.842,3.565v3.869h5.407c4.353,0,5.824-4.178,6.228-7.449H15.419 C15.42,36.767,15.42,36.771,15.42,36.776z"/><path fill="#d1d1d1" d="M21.669,27.262h-5.407v2.965c-0.636,1.278-0.841,2.773-0.932,4.072h12.677 C27.796,31.307,26.995,27.262,21.669,27.262z"/><path fill="#705ca3" d="M28.007,34.299H15.33c0,0.001,0,0.004,0,0.006c-0.009,0.121-0.021,0.239-0.021,0.362 c0,0.603,0.027,1.325,0.109,2.095h12.478c0.095-0.771,0.132-1.491,0.132-2.095C28.028,34.543,28.016,34.422,28.007,34.299z"/><path fill="#63312d" d="M21.669,44.711h-5.407c-0.276,0-0.5-0.224-0.5-0.5v-3.773c-0.413-1.049-0.695-2.263-0.839-3.608 c-0.001-0.009-0.001-0.018-0.002-0.026c-0.011-0.128,0.028-0.257,0.111-0.358c0.095-0.116,0.237-0.183,0.387-0.183h12.478 c0.143,0,0.28,0.062,0.375,0.169c0.095,0.107,0.139,0.25,0.122,0.392C27.775,41.836,25.324,44.711,21.669,44.711z M16.762,43.711 h4.907c3.944,0,5.233-3.811,5.652-6.449H15.983c0.151,1.077,0.4,2.047,0.742,2.893c0.024,0.06,0.037,0.123,0.037,0.188V43.711z"/><path fill="#63312d" d="M28.007,34.799H15.33c-0.139,0-0.271-0.058-0.366-0.159c-0.095-0.101-0.143-0.237-0.133-0.375 c0.078-1.113,0.259-2.741,0.931-4.153v-2.85c0-0.276,0.224-0.5,0.5-0.5h5.407c6.308,0,6.692,5.45,6.836,7.502 c0.01,0.138-0.038,0.274-0.133,0.376S28.146,34.799,28.007,34.799z M15.873,33.799h11.591c-0.292-3.069-1.318-6.037-5.795-6.037 h-4.907v2.465c0,0.077-0.018,0.153-0.052,0.223C16.175,31.524,15.969,32.794,15.873,33.799z"/><path fill="#63312d" d="M27.896,37.262H15.419c-0.256,0-0.47-0.193-0.497-0.447c-0.075-0.699-0.112-1.421-0.112-2.148 c0-0.111,0.008-0.218,0.016-0.326c0.021-0.26,0.243-0.542,0.504-0.542h12.677c0.262,0,0.48,0.203,0.499,0.464l-0.499,0.036 l0.505,0.048c0.008,0.106,0.016,0.212,0.016,0.32c0,0.689-0.047,1.434-0.136,2.156C28.362,37.073,28.149,37.262,27.896,37.262z M15.874,36.262h11.574c0.048-0.494,0.075-0.991,0.08-1.463H15.81C15.813,35.292,15.835,35.782,15.874,36.262z"/><polygon fill="#f9dd9d" points="10.784,47.575 7.076,49.034 6.074,47.395 9.783,45.936"/><path fill="#63312d" d="M25.443,49.537c-0.062,0-0.124-0.011-0.183-0.035l-3.709-1.46c-0.138-0.054-0.244-0.167-0.291-0.307 s-0.029-0.294,0.048-0.42l1.005-1.642c0.126-0.207,0.384-0.292,0.609-0.204l3.709,1.459c0.137,0.054,0.244,0.167,0.291,0.306 c0.047,0.14,0.029,0.294-0.047,0.42l-1.005,1.643C25.777,49.45,25.613,49.537,25.443,49.537z M22.472,47.33l2.764,1.088 l0.475-0.776l-2.764-1.087L22.472,47.33z"/><path fill="#63312d" d="M7.076,49.534c-0.17,0-0.333-0.087-0.427-0.239l-1.002-1.64c-0.077-0.126-0.094-0.28-0.047-0.42 s0.154-0.252,0.291-0.306L9.6,45.47c0.225-0.089,0.483-0.003,0.61,0.205l1.001,1.64c0.077,0.126,0.094,0.28,0.047,0.42 c-0.047,0.14-0.154,0.252-0.291,0.306L7.259,49.5C7.2,49.523,7.138,49.534,7.076,49.534z M6.812,47.642l0.472,0.773l2.764-1.087 l-0.472-0.773L6.812,47.642z"/><path fill="#f9dd9d" d="M10.013,36.776c0.349,3.269,1.693,7.434,6.249,7.434c4.353,0,5.823-4.178,6.227-7.449 c-1.645-0.836-3.705-1.6-6.322-1.6C13.648,35.162,11.637,35.928,10.013,36.776z"/><path fill="#ffeecf" d="M11.769,35.986c-0.63,0.238-1.217,0.508-1.756,0.79c0.349,3.269,1.693,7.434,6.249,7.434 c0.363,0,0.699-0.039,1.024-0.094C13.713,43.478,11.866,40.012,11.769,35.986z"/><path fill="#705ca3" d="M22.599,34.299c-1.662-0.855-3.761-1.647-6.433-1.647c-2.561,0-4.604,0.786-6.244,1.653 c-0.009,0.121-0.021,0.239-0.021,0.362c0,0.606,0.028,1.334,0.111,2.109c1.624-0.849,3.636-1.614,6.153-1.614 c2.617,0,4.678,0.764,6.322,1.6c0.095-0.771,0.131-1.491,0.131-2.095C22.619,34.543,22.608,34.422,22.599,34.299z"/><path fill="#705ca3" d="M11.729,34.667c0-0.072-0.003-0.672-0.003-1.182c-0.649,0.247-1.252,0.527-1.805,0.819 c-0.009,0.121-0.021,0.239-0.021,0.362c0,0.606,0.028,1.334,0.111,2.109c0.542-0.283,1.133-0.555,1.767-0.794 C11.749,35.51,11.729,35.058,11.729,34.667z"/><path fill="#f8f3f3" d="M22.599,34.299c-0.211-2.992-1.013-7.037-6.337-7.037c-5.327,0-6.132,4.048-6.34,7.043 c1.641-0.867,3.684-1.653,6.244-1.653C18.838,32.651,20.937,33.443,22.599,34.299z"/><path fill="#63312d" d="M9.922,34.805c-0.095,0-0.19-0.027-0.273-0.081c-0.152-0.099-0.238-0.272-0.226-0.454 c0.224-3.223,1.177-7.508,6.839-7.508c6.307,0,6.691,5.45,6.835,7.502c0.013,0.18-0.073,0.353-0.223,0.453 c-0.152,0.099-0.344,0.109-0.504,0.027c-1.328-0.683-3.416-1.592-6.204-1.592c-2.682,0-4.715,0.911-6.01,1.595 C10.082,34.786,10.002,34.805,9.922,34.805z M16.166,32.151c2.487,0,4.447,0.666,5.854,1.31c-0.337-2.946-1.447-5.699-5.759-5.699 c-4.315,0-5.426,2.75-5.761,5.695C11.874,32.813,13.776,32.151,16.166,32.151z"/><path fill="#63312d" d="M16.262,44.711c-3.809,0-6.204-2.799-6.746-7.881c-0.022-0.205,0.083-0.401,0.266-0.497 c1.373-0.717,3.528-1.671,6.385-1.671c2.954,0,5.152,0.944,6.549,1.654c0.188,0.095,0.295,0.298,0.27,0.507 C22.622,39.769,21.265,44.711,16.262,44.711z M10.549,37.063c0.394,3.111,1.721,6.647,5.712,6.647c4.051,0,5.3-4.021,5.684-6.661 c-1.311-0.637-3.252-1.388-5.779-1.388C13.73,35.662,11.833,36.42,10.549,37.063z"/><path fill="#63312d" d="M10.013,37.276c-0.081,0-0.162-0.02-0.236-0.059c-0.146-0.078-0.244-0.223-0.261-0.388 c-0.076-0.708-0.114-1.435-0.114-2.163c0-0.111,0.008-0.218,0.016-0.326c0.014-0.171,0.119-0.398,0.271-0.478 c1.39-0.735,3.574-1.711,6.478-1.711c3.005,0,5.241,0.972,6.662,1.703c0.154,0.079,0.256,0.232,0.27,0.405l-0.499,0.04 l0.501-0.005c0.01,0.125,0.02,0.248,0.02,0.374c0,0.694-0.046,1.439-0.135,2.156c-0.02,0.162-0.117,0.304-0.261,0.38 s-0.316,0.077-0.461,0.004c-1.305-0.664-3.357-1.545-6.096-1.545c-2.636,0-4.642,0.889-5.922,1.558 C10.172,37.257,10.092,37.276,10.013,37.276z M10.402,34.619c0,0.016-0.001,0.032-0.001,0.048c0,0.446,0.015,0.893,0.045,1.334 c1.365-0.648,3.288-1.339,5.719-1.339c2.529,0,4.505,0.692,5.897,1.337c0.037-0.451,0.056-0.902,0.056-1.332 c0-0.017,0-0.034,0-0.051c-1.334-0.664-3.334-1.465-5.953-1.465C13.648,33.151,11.703,33.954,10.402,34.619z"/><rect width="2.145" height="12.922" x="15.189" y="45.082" fill="#FCC24C"/><path fill="#63312d" d="M17.334,58.504h-2.146c-0.276,0-0.5-0.224-0.5-0.5V45.082c0-0.276,0.224-0.5,0.5-0.5h2.146 c0.276,0,0.5,0.224,0.5,0.5v12.922C17.834,58.28,17.61,58.504,17.334,58.504z M15.688,57.504h1.146V45.582h-1.146V57.504z"/><path fill="#FCC24C" d="M16.262,44.211c-1.643,0-2.861-0.548-3.772-1.392v2.072c0.911,0.842,2.133,1.384,3.772,1.384 c1.593,0,2.798-0.562,3.708-1.434v-2.072C19.06,43.643,17.857,44.211,16.262,44.211z"/><path fill="#ffc8bb" d="M14.489,44.891v-0.951c-0.787-0.239-1.456-0.617-2-1.121v2.072c0.911,0.842,2.133,1.384,3.772,1.384 c0.343,0,0.66-0.038,0.969-0.088C16.099,46.008,15.197,45.544,14.489,44.891z"/><path fill="#63312d" d="M16.262,46.774c-1.639,0-3.022-0.51-4.112-1.517c-0.103-0.095-0.161-0.228-0.161-0.367v-2.072 c0-0.199,0.118-0.379,0.3-0.458c0.181-0.08,0.395-0.044,0.54,0.091c0.914,0.847,2.037,1.259,3.433,1.259 c1.349,0,2.449-0.426,3.362-1.303c0.144-0.139,0.358-0.177,0.542-0.099c0.185,0.079,0.304,0.26,0.304,0.46v2.072 c0,0.136-0.056,0.267-0.154,0.361C19.225,46.246,17.861,46.774,16.262,46.774z M12.989,44.665 c0.874,0.736,1.974,1.109,3.272,1.109c1.258,0,2.336-0.388,3.208-1.153v-0.817c-0.925,0.603-2,0.907-3.208,0.907 c-1.242,0-2.338-0.296-3.272-0.881V44.665z"/><rect width="4.197" height="1.673" x="21.216" y="51.711" fill="#f9dd9d"/><rect width="4.196" height="1.673" x="7.109" y="51.711" fill="#f9dd9d"/><path fill="#63312d" d="M25.413,53.884h-4.197c-0.276,0-0.5-0.224-0.5-0.5v-1.673c0-0.276,0.224-0.5,0.5-0.5h4.197 c0.276,0,0.5,0.224,0.5,0.5v1.673C25.913,53.66,25.689,53.884,25.413,53.884z M21.716,52.884h3.197v-0.673h-3.197V52.884z"/><path fill="#63312d" d="M11.306,53.884H7.109c-0.276,0-0.5-0.224-0.5-0.5v-1.673c0-0.276,0.224-0.5,0.5-0.5h4.196 c0.276,0,0.5,0.224,0.5,0.5v1.673C11.806,53.66,11.582,53.884,11.306,53.884z M7.609,52.884h3.196v-0.673H7.609V52.884z"/><rect width="4.197" height="1" x="21.216" y="55.046" fill="#63312d"/><rect width="4.196" height="1" x="7.109" y="55.046" fill="#63312d"/><rect width="5.396" height="2.081" x="19.97" y="42.769" fill="#FCC24C"/><path fill="#63312d" d="M25.365,45.35H19.97c-0.276,0-0.5-0.224-0.5-0.5v-2.081c0-0.276,0.224-0.5,0.5-0.5h5.396 c0.276,0,0.5,0.224,0.5,0.5v2.081C25.865,45.126,25.642,45.35,25.365,45.35z M20.47,44.35h4.396v-1.081H20.47V44.35z"/><path fill="#705ca3" d="M59.835,48.158l-11.156-4.4c-0.259-0.103-0.599-0.153-0.939-0.153l0,0H42.3v1.929l-6.656,2.625 c-0.517,0.203-0.939,0.824-0.939,1.38v8.466H42.3h5.439h13.035v-8.466C60.774,48.982,60.352,48.361,59.835,48.158z"/><path fill="#63312d" d="M60.774,58.504h-26.07c-0.276,0-0.5-0.224-0.5-0.5v-8.466c0-0.758,0.552-1.568,1.256-1.845l6.339-2.5v-1.588 c0-0.276,0.224-0.5,0.5-0.5h5.439c0.418,0,0.817,0.067,1.124,0.188l11.155,4.4c0.705,0.277,1.256,1.087,1.256,1.845v8.466 C61.274,58.28,61.051,58.504,60.774,58.504z M35.204,57.504h25.07v-7.966c0-0.351-0.297-0.787-0.623-0.915c0,0,0,0,0,0 l-11.156-4.4c-0.19-0.076-0.465-0.119-0.756-0.119H42.8v1.429c0,0.206-0.125,0.39-0.316,0.465l-6.656,2.625 c-0.326,0.128-0.623,0.564-0.623,0.915V57.504z"/><path fill="#705ca3" d="M54.427,48.158l-11.157-4.4c-0.516-0.204-1.361-0.204-1.878,0l-11.156,4.4 c-0.517,0.203-0.939,0.824-0.939,1.38v8.466h26.069v-8.466C55.365,48.982,54.942,48.361,54.427,48.158z"/><path fill="#705ca3" d="M31.296,51.016c0-0.556,0.423-1.177,0.94-1.38l11.156-4.4c0.231-0.092,1.025-0.398,1.876-0.69l-1.998-0.788 c-0.516-0.204-1.361-0.204-1.878,0l-11.156,4.4c-0.517,0.203-0.939,0.824-0.939,1.38v8.466h2V51.016z"/><path fill="#63312d" d="M55.365,58.504H29.296c-0.276,0-0.5-0.224-0.5-0.5v-8.466c0-0.758,0.552-1.568,1.256-1.845l11.156-4.4 c0.63-0.249,1.616-0.249,2.246,0l11.157,4.4c0.704,0.277,1.255,1.088,1.255,1.845v8.466 C55.865,58.28,55.642,58.504,55.365,58.504z M29.796,57.504h25.069v-7.966c0-0.351-0.296-0.787-0.622-0.915h0l-11.157-4.4 c-0.395-0.157-1.115-0.157-1.511,0l-11.156,4.401c-0.326,0.128-0.623,0.564-0.623,0.915V57.504z"/><polygon fill="#f9dd9d" points="47.805,47.577 51.513,49.037 52.518,47.395 48.809,45.936"/><path fill="#efc36a" d="M41.49,36.776c0.123,1.152,0.374,2.412,0.841,3.565v3.869h5.408c4.353,0,5.824-4.178,6.228-7.449H41.489 C41.489,36.767,41.489,36.771,41.49,36.776z"/><path fill="#d1d1d1" d="M47.739,27.262h-5.408v2.965c-0.636,1.278-0.84,2.773-0.931,4.072h12.677 C53.865,31.307,53.065,27.262,47.739,27.262z"/><path fill="#705ca3" d="M54.077,34.299H41.4c0,0.001-0.001,0.004-0.001,0.006c-0.008,0.121-0.019,0.239-0.019,0.362 c0,0.603,0.027,1.325,0.109,2.095h12.478c0.094-0.771,0.132-1.491,0.132-2.095C54.099,34.543,54.086,34.422,54.077,34.299z"/><path fill="#63312d" d="M47.739,44.711h-5.408c-0.276,0-0.5-0.224-0.5-0.5v-3.773c-0.412-1.047-0.694-2.261-0.838-3.608l0,0 c-0.002-0.024-0.004-0.048-0.004-0.068c0-0.276,0.224-0.5,0.5-0.5h12.478c0.143,0,0.28,0.062,0.375,0.169 c0.095,0.107,0.139,0.25,0.122,0.392C53.845,41.836,51.395,44.711,47.739,44.711z M42.831,43.711h4.908 c3.944,0,5.233-3.811,5.652-6.449H42.054c0.151,1.078,0.399,2.049,0.741,2.893c0.024,0.06,0.037,0.123,0.037,0.188V43.711z"/><path fill="#63312d" d="M54.077,34.799H41.4c-0.139,0-0.271-0.058-0.366-0.159c-0.095-0.101-0.143-0.237-0.133-0.375 c0.078-1.114,0.259-2.743,0.93-4.153v-2.85c0-0.276,0.224-0.5,0.5-0.5h5.408c6.305,0,6.691,5.45,6.836,7.502 c0.01,0.138-0.038,0.274-0.133,0.376C54.349,34.741,54.216,34.799,54.077,34.799z M41.943,33.799h11.591 c-0.293-3.069-1.319-6.037-5.795-6.037h-4.908v2.465c0,0.077-0.018,0.153-0.052,0.223C42.245,31.523,42.039,32.793,41.943,33.799z"/><path fill="#63312d" d="M53.967,37.262H41.489c-0.256,0-0.47-0.193-0.497-0.447c-0.075-0.699-0.112-1.421-0.112-2.148 c0-0.104,0.007-0.205,0.015-0.307c0.001-0.025,0.012-0.146,0.018-0.17c0.051-0.228,0.254-0.392,0.488-0.392h12.677 c0.262,0,0.48,0.203,0.499,0.464l-0.499,0.036l0.505,0.048c0.008,0.106,0.016,0.212,0.016,0.32c0,0.681-0.047,1.427-0.135,2.155 C54.433,37.073,54.22,37.262,53.967,37.262z M41.944,36.262h11.574c0.048-0.498,0.075-0.995,0.08-1.463H41.88 C41.884,35.292,41.905,35.782,41.944,36.262z"/><polygon fill="#f9dd9d" points="36.854,47.575 33.146,49.034 32.145,47.395 35.853,45.936"/><path fill="#63312d" d="M51.513,49.537c-0.062,0-0.124-0.011-0.183-0.035l-3.708-1.46c-0.138-0.054-0.244-0.167-0.291-0.307 c-0.047-0.14-0.029-0.293,0.047-0.419l1.004-1.642c0.127-0.208,0.384-0.292,0.61-0.205l3.709,1.459 c0.137,0.054,0.244,0.167,0.291,0.306c0.047,0.14,0.029,0.294-0.047,0.42l-1.005,1.643C51.846,49.45,51.683,49.537,51.513,49.537z M48.542,47.33l2.763,1.088l0.475-0.776l-2.764-1.087L48.542,47.33z"/><path fill="#63312d" d="M33.146,49.534c-0.17,0-0.333-0.087-0.427-0.239l-1.002-1.64c-0.077-0.126-0.094-0.28-0.047-0.42 s0.154-0.252,0.291-0.306l3.708-1.459c0.223-0.089,0.483-0.003,0.61,0.205l1.002,1.64c0.077,0.126,0.094,0.28,0.047,0.42 s-0.154,0.252-0.291,0.306L33.33,49.5C33.27,49.523,33.208,49.534,33.146,49.534z M32.882,47.642l0.472,0.773l2.763-1.087 l-0.472-0.773L32.882,47.642z"/><path fill="#f9dd9d" d="M36.082,36.776c0.349,3.269,1.693,7.434,6.249,7.434c4.353,0,5.824-4.178,6.228-7.449 c-1.645-0.836-3.706-1.6-6.323-1.6C39.719,35.162,37.706,35.928,36.082,36.776z"/><path fill="#ffeecf" d="M37.838,35.986c-0.629,0.238-1.216,0.508-1.756,0.79c0.349,3.269,1.693,7.434,6.249,7.434 c0.363,0,0.7-0.039,1.024-0.094C39.783,43.478,37.936,40.012,37.838,35.986z"/><path fill="#705ca3" d="M48.669,34.299c-1.663-0.855-3.762-1.647-6.433-1.647c-2.561,0-4.604,0.786-6.243,1.653 c-0.009,0.121-0.021,0.239-0.021,0.362c0,0.606,0.027,1.334,0.11,2.109c1.624-0.849,3.637-1.614,6.153-1.614 c2.617,0,4.679,0.764,6.323,1.6c0.095-0.771,0.131-1.491,0.131-2.095C48.689,34.543,48.678,34.422,48.669,34.299z"/><path fill="#705ca3" d="M37.8,34.667c0-0.072-0.003-0.672-0.004-1.182c-0.648,0.247-1.251,0.527-1.804,0.819 c-0.009,0.121-0.021,0.239-0.021,0.362c0,0.606,0.027,1.334,0.11,2.109c0.543-0.283,1.133-0.555,1.767-0.794 C37.818,35.51,37.8,35.058,37.8,34.667z"/><path fill="#f8f3f3" d="M48.669,34.299c-0.211-2.992-1.013-7.037-6.338-7.037c-5.326,0-6.131,4.048-6.339,7.043 c1.64-0.867,3.683-1.653,6.243-1.653C44.907,32.651,47.006,33.443,48.669,34.299z"/><path fill="#63312d" d="M35.992,34.805c-0.095,0-0.19-0.027-0.272-0.081c-0.152-0.099-0.239-0.272-0.227-0.454 c0.224-3.223,1.176-7.508,6.838-7.508c6.308,0,6.692,5.45,6.836,7.502c0.013,0.18-0.072,0.353-0.223,0.453 c-0.152,0.099-0.344,0.109-0.504,0.027c-1.329-0.684-3.417-1.592-6.205-1.592c-2.683,0-4.714,0.911-6.009,1.595 C36.153,34.786,36.072,34.805,35.992,34.805z M42.235,32.151c2.487,0,4.448,0.666,5.855,1.31c-0.337-2.945-1.447-5.699-5.76-5.699 c-4.315,0-5.425,2.751-5.761,5.697C38.477,32.569,40.297,32.151,42.235,32.151z"/><path fill="#63312d" d="M42.331,44.711c-3.809,0-6.204-2.799-6.746-7.881c-0.022-0.205,0.083-0.401,0.266-0.497 c1.373-0.717,3.528-1.671,6.385-1.671c2.955,0,5.153,0.944,6.55,1.654c0.188,0.095,0.295,0.298,0.27,0.507 C48.437,41.836,45.986,44.711,42.331,44.711z M36.619,37.063c0.394,3.111,1.721,6.647,5.712,6.647 c4.051,0,5.301-4.021,5.685-6.661c-1.311-0.637-3.253-1.388-5.78-1.388C39.8,35.662,37.902,36.42,36.619,37.063z"/><path fill="#63312d" d="M36.082,37.276c-0.081,0-0.162-0.02-0.236-0.059c-0.146-0.078-0.244-0.223-0.261-0.388 c-0.075-0.702-0.113-1.429-0.113-2.163c0-0.111,0.008-0.218,0.016-0.326c0.014-0.171,0.119-0.398,0.271-0.478 c2.208-1.167,4.266-1.711,6.477-1.711c3.004,0,5.241,0.972,6.662,1.703c0.155,0.08,0.258,0.235,0.27,0.409l-0.499,0.036 l0.504,0.037c0.008,0.11,0.016,0.22,0.016,0.331c0,0.694-0.046,1.439-0.135,2.156c-0.02,0.162-0.117,0.304-0.261,0.38 c-0.145,0.077-0.317,0.077-0.461,0.004c-1.305-0.664-3.357-1.545-6.097-1.545c-2.636,0-4.642,0.889-5.922,1.558 C36.241,37.257,36.162,37.276,36.082,37.276z M36.473,34.619c0,0.016-0.001,0.032-0.001,0.048c0,0.449,0.015,0.895,0.044,1.333 c1.365-0.648,3.289-1.338,5.719-1.338c2.53,0,4.506,0.692,5.898,1.337c0.037-0.451,0.056-0.902,0.056-1.332 c0-0.017,0-0.034-0.001-0.051c-1.334-0.664-3.335-1.465-5.953-1.465C39.717,33.151,37.772,33.954,36.473,34.619z"/><rect width="2.145" height="12.922" x="41.258" y="45.082" fill="#FCC24C"/><path fill="#63312d" d="M43.403,58.504h-2.146c-0.276,0-0.5-0.224-0.5-0.5V45.082c0-0.276,0.224-0.5,0.5-0.5h2.146 c0.276,0,0.5,0.224,0.5,0.5v12.922C43.903,58.28,43.68,58.504,43.403,58.504z M41.758,57.504h1.146V45.582h-1.146V57.504z"/><path fill="#FCC24C" d="M42.331,44.211c-1.643,0-2.86-0.548-3.771-1.392v2.072c0.911,0.842,2.132,1.384,3.771,1.384 c1.593,0,2.798-0.562,3.708-1.434v-2.072C45.129,43.643,43.927,44.211,42.331,44.211z"/><path fill="#ffc8bb" d="M40.56,44.891v-0.951c-0.787-0.239-1.457-0.617-2-1.121v2.072c0.911,0.842,2.132,1.384,3.771,1.384 c0.344,0,0.66-0.038,0.969-0.088C42.168,46.008,41.267,45.544,40.56,44.891z"/><path fill="#63312d" d="M42.331,46.774c-1.639,0-3.021-0.51-4.111-1.517c-0.103-0.095-0.161-0.228-0.161-0.367v-2.072 c0-0.199,0.118-0.379,0.3-0.458c0.182-0.08,0.394-0.044,0.54,0.091c0.914,0.847,2.037,1.259,3.432,1.259 c1.349,0,2.449-0.426,3.362-1.303c0.144-0.139,0.359-0.177,0.542-0.099c0.185,0.079,0.304,0.26,0.304,0.46v2.072 c0,0.136-0.056,0.267-0.154,0.361C45.294,46.246,43.931,46.774,42.331,46.774z M39.06,44.665c0.874,0.736,1.974,1.109,3.271,1.109 c1.258,0,2.336-0.388,3.208-1.153v-0.817c-0.925,0.603-2,0.907-3.208,0.907c-1.242,0-2.338-0.296-3.271-0.881V44.665z"/><rect width="4.196" height="1.673" x="47.286" y="51.711" fill="#f9dd9d"/><rect width="4.196" height="1.673" x="33.179" y="51.711" fill="#f9dd9d"/><path fill="#63312d" d="M51.482,53.884h-4.196c-0.276,0-0.5-0.224-0.5-0.5v-1.673c0-0.276,0.224-0.5,0.5-0.5h4.196 c0.276,0,0.5,0.224,0.5,0.5v1.673C51.982,53.66,51.759,53.884,51.482,53.884z M47.786,52.884h3.196v-0.673h-3.196V52.884z"/><path fill="#63312d" d="M37.375,53.884h-4.196c-0.276,0-0.5-0.224-0.5-0.5v-1.673c0-0.276,0.224-0.5,0.5-0.5h4.196 c0.276,0,0.5,0.224,0.5,0.5v1.673C37.875,53.66,37.651,53.884,37.375,53.884z M33.679,52.884h3.196v-0.673h-3.196V52.884z"/><rect width="4.196" height="1" x="47.286" y="55.046" fill="#63312d"/><rect width="4.196" height="1" x="33.179" y="55.046" fill="#63312d"/><rect width="5.396" height="2.081" x="46.039" y="42.769" fill="#FCC24C"/><path fill="#63312d" d="M51.436,45.35h-5.396c-0.276,0-0.5-0.224-0.5-0.5v-2.081c0-0.276,0.224-0.5,0.5-0.5h5.396 c0.276,0,0.5,0.224,0.5,0.5v2.081C51.936,45.126,51.712,45.35,51.436,45.35z M46.539,44.35h4.396v-1.081h-4.396V44.35z"/><path fill="#FCC24C" d="M53.626,5.996H43.424c-1.001,0-1.812,0.812-1.812,1.813v9.129c0,1.001,0.811,1.812,1.812,1.812h0.744v3.747 l5.152-3.747h4.306c1,0,1.812-0.811,1.812-1.812V7.81C55.438,6.809,54.626,5.996,53.626,5.996z"/><path fill="#FCC24C" d="M43.424,18.751h0.188V9.81c0-1.001,0.811-1.813,1.812-1.813h10.015V7.81c0-1.001-0.812-1.813-1.812-1.813 H43.424c-1.001,0-1.812,0.812-1.812,1.813v9.129C41.612,17.94,42.423,18.751,43.424,18.751z"/><rect width="7.494" height="1" x="44.74" y="10.019" fill="#63312d"/><rect width="7.494" height="1" x="44.74" y="13.747" fill="#63312d"/><path fill="#63312d" d="M44.168,22.998c-0.078,0-0.155-0.018-0.227-0.055c-0.167-0.085-0.273-0.257-0.273-0.445v-3.247h-0.244 c-1.274,0-2.312-1.038-2.312-2.312V7.81c0-1.276,1.037-2.313,2.312-2.313h10.202c1.275,0,2.312,1.038,2.312,2.313v9.129 c0,1.275-1.038,2.312-2.312,2.312h-4.143l-5.021,3.651C44.375,22.966,44.271,22.998,44.168,22.998z M43.424,6.496 c-0.723,0-1.312,0.589-1.312,1.313v9.129c0,0.724,0.588,1.312,1.312,1.312h0.744c0.276,0,0.5,0.224,0.5,0.5v2.765l4.358-3.169 c0.085-0.062,0.188-0.096,0.294-0.096h4.306c0.724,0,1.312-0.589,1.312-1.312V7.81c0-0.724-0.589-1.313-1.312-1.313H43.424z"/><path fill="#FCC24C" d="M10.374,5.996h10.201c1.002,0,1.812,0.812,1.812,1.813v9.129c0,1.001-0.81,1.812-1.812,1.812h-0.744v3.747 l-5.152-3.747h-4.305c-1,0-1.813-0.811-1.813-1.812V7.81C8.561,6.809,9.374,5.996,10.374,5.996z"/><path fill="#FCC24C" d="M10.561,9.81c0-1.001,0.813-1.813,1.813-1.813h10.013V7.81c0-1.001-0.81-1.813-1.812-1.813H10.374 c-1,0-1.813,0.812-1.813,1.813v9.129c0,1.001,0.813,1.812,1.813,1.812h0.187V9.81z"/><rect width="7.494" height="1" x="11.765" y="10.019" fill="#63312d"/><rect width="7.494" height="1" x="11.765" y="13.747" fill="#63312d"/><path fill="#63312d" d="M19.831,22.998c-0.104,0-0.207-0.032-0.294-0.096l-5.021-3.651h-4.142c-1.276,0-2.313-1.038-2.313-2.312V7.81 c0-1.276,1.038-2.313,2.313-2.313h10.201c1.274,0,2.312,1.038,2.312,2.313v9.129c0,1.275-1.037,2.312-2.312,2.312h-0.244v3.247 c0,0.188-0.105,0.36-0.273,0.445C19.986,22.98,19.909,22.998,19.831,22.998z M10.374,6.496c-0.724,0-1.313,0.589-1.313,1.313 v9.129c0,0.724,0.589,1.312,1.313,1.312h4.305c0.105,0,0.208,0.034,0.294,0.096l4.358,3.169v-2.765c0-0.276,0.224-0.5,0.5-0.5 h0.744c0.723,0,1.312-0.589,1.312-1.312V7.81c0-0.724-0.588-1.313-1.312-1.313H10.374z"/></svg>