<svg xmlns="http://www.w3.org/2000/svg"  viewBox="0 0 256 256" width="64px" height="64px"><path fill="#4671c6" d="M249.021,79.648l-12.733-4.635l-5.611,15.415l14.892,5.42l4.797-13.181 C250.815,81.435,250.213,80.083,249.021,79.648z"/><rect width="16.404" height="15.848" x="202.942" y="66.667" fill="#4671c6" transform="rotate(-70.001 211.14 74.592)"/><rect width="16.404" height="15.848" x="173.158" y="55.827" fill="#4671c6" transform="rotate(-70.001 181.357 63.752)"/><rect width="16.404" height="15.848" x="212.223" y="87.503" fill="#4671c6" transform="rotate(-70.001 220.421 95.428)"/><rect width="16.404" height="15.848" x="182.439" y="76.662" fill="#4671c6" transform="rotate(-70.001 190.638 84.587)"/><rect width="16.404" height="15.848" x="152.656" y="65.822" fill="#4671c6" transform="rotate(-70.001 160.855 73.746)"/><rect width="16.404" height="15.848" x="191.721" y="97.498" fill="#4671c6" transform="rotate(-70.001 199.919 105.422)"/><rect width="16.404" height="15.848" x="161.937" y="86.657" fill="#4671c6" transform="rotate(-70.001 170.135 94.581)"/><rect width="16.404" height="15.848" x="201.002" y="118.333" fill="#4671c6" transform="rotate(-70.001 209.2 126.257)"/><rect width="16.404" height="15.848" x="171.218" y="107.493" fill="#4671c6" transform="rotate(-70.001 179.416 115.417)"/><rect width="16.404" height="15.848" x="141.434" y="96.652" fill="#4671c6" transform="rotate(-70.001 149.633 104.576)"/><rect width="16.404" height="15.848" x="221.504" y="108.338" fill="#4671c6" transform="rotate(-70.001 229.702 116.263)"/><path fill="#a4c9ff" d="M97.005,213.55L97.005,213.55c-2.212-0.805-3.352-3.251-2.547-5.462l59.36-163.09 c0.805-2.212,3.251-3.352,5.462-2.547l0,0c2.212,0.805,3.352,3.251,2.547,5.462l-59.36,163.09 C101.663,213.214,99.217,214.355,97.005,213.55z"/><rect width="16.404" height="15.848" x="217.834" y="72.088" fill="#ffea92" transform="rotate(-70.001 226.032 80.013)"/><path fill="#ffea92" d="M229.55,139.86l4.797-13.181l-14.892-5.42l-5.611,15.415l12.733,4.634 C227.77,141.743,229.101,141.094,229.55,139.86z"/><rect width="16.404" height="15.848" x="188.05" y="61.247" fill="#ffea92" transform="rotate(-70.001 196.249 69.172)"/><rect width="16.404" height="15.848" x="158.266" y="50.407" fill="#ffea92" transform="rotate(-70.001 166.465 58.331)"/><rect width="16.404" height="15.848" x="197.331" y="82.083" fill="#ffea92" transform="rotate(-70.001 205.53 90.007)"/><rect width="16.404" height="15.848" x="167.547" y="71.242" fill="#ffea92" transform="rotate(-70.001 175.746 79.167)"/><rect width="16.404" height="15.848" x="206.613" y="102.918" fill="#ffea92" transform="rotate(-70.001 214.81 110.842)"/><rect width="16.404" height="15.848" x="176.829" y="92.078" fill="#ffea92" transform="rotate(-70.001 185.027 100.002)"/><rect width="16.404" height="15.848" x="147.045" y="81.237" fill="#ffea92" transform="rotate(-70.001 155.244 89.161)"/><rect width="16.404" height="15.848" x="186.11" y="112.913" fill="#ffea92" transform="rotate(-70.001 194.308 120.837)"/><rect width="16.404" height="15.848" x="156.326" y="102.072" fill="#ffea92" transform="rotate(-70.001 164.525 109.996)"/><rect width="16.404" height="15.848" x="227.115" y="92.923" fill="#ffea92" transform="rotate(-70.001 235.313 100.848)"/><path fill="#4671c6" d="M249.021,79.648l-12.733-4.635l-5.611,15.415l14.892,5.42l4.797-13.181 C250.815,81.435,250.213,80.083,249.021,79.648z"/><rect width="16.404" height="15.848" x="202.942" y="66.667" fill="#4671c6" transform="rotate(-70.001 211.14 74.592)"/><rect width="16.404" height="15.848" x="173.158" y="55.827" fill="#4671c6" transform="rotate(-70.001 181.357 63.752)"/><rect width="16.404" height="15.848" x="212.223" y="87.503" fill="#4671c6" transform="rotate(-70.001 220.421 95.428)"/><rect width="16.404" height="15.848" x="182.439" y="76.662" fill="#4671c6" transform="rotate(-70.001 190.638 84.587)"/><rect width="16.404" height="15.848" x="152.656" y="65.822" fill="#4671c6" transform="rotate(-70.001 160.855 73.746)"/><rect width="16.404" height="15.848" x="191.721" y="97.498" fill="#4671c6" transform="rotate(-70.001 199.919 105.422)"/><rect width="16.404" height="15.848" x="161.937" y="86.657" fill="#4671c6" transform="rotate(-70.001 170.135 94.581)"/><rect width="16.404" height="15.848" x="201.002" y="118.333" fill="#4671c6" transform="rotate(-70.001 209.2 126.257)"/><rect width="16.404" height="15.848" x="171.218" y="107.493" fill="#4671c6" transform="rotate(-70.001 179.416 115.417)"/><rect width="16.404" height="15.848" x="141.434" y="96.652" fill="#4671c6" transform="rotate(-70.001 149.633 104.576)"/><rect width="16.404" height="15.848" x="221.504" y="108.338" fill="#4671c6" transform="rotate(-70.001 229.702 116.263)"/><rect width="16.404" height="15.848" x="217.834" y="72.088" fill="#ffea92" transform="rotate(-70.001 226.032 80.013)"/><path fill="#ffea92" d="M229.55,139.86l4.797-13.181l-14.892-5.42l-5.611,15.415l12.733,4.634 C227.77,141.743,229.101,141.094,229.55,139.86z"/><rect width="16.404" height="15.848" x="188.05" y="61.247" fill="#ffea92" transform="rotate(-70.001 196.249 69.172)"/><rect width="16.404" height="15.848" x="158.266" y="50.407" fill="#ffea92" transform="rotate(-70.001 166.465 58.331)"/><rect width="16.404" height="15.848" x="197.331" y="82.083" fill="#ffea92" transform="rotate(-70.001 205.53 90.007)"/><rect width="16.404" height="15.848" x="167.547" y="71.242" fill="#ffea92" transform="rotate(-70.001 175.746 79.167)"/><rect width="16.404" height="15.848" x="206.613" y="102.918" fill="#ffea92" transform="rotate(-70.001 214.81 110.842)"/><rect width="16.404" height="15.848" x="176.829" y="92.078" fill="#ffea92" transform="rotate(-70.001 185.027 100.002)"/><rect width="16.404" height="15.848" x="147.045" y="81.237" fill="#ffea92" transform="rotate(-70.001 155.244 89.161)"/><rect width="16.404" height="15.848" x="186.11" y="112.913" fill="#ffea92" transform="rotate(-70.001 194.308 120.837)"/><rect width="16.404" height="15.848" x="156.326" y="102.072" fill="#ffea92" transform="rotate(-70.001 164.525 109.996)"/><rect width="16.404" height="15.848" x="227.115" y="92.923" fill="#ffea92" transform="rotate(-70.001 235.313 100.848)"/><path fill="#3762cc" d="M227.335,143.443c-0.48,0-0.967-0.082-1.442-0.255l-87.192-31.735c-1.038-0.378-1.573-1.525-1.195-2.563 l22.442-61.661c0.181-0.499,0.553-0.904,1.034-1.128c0.481-0.224,1.031-0.248,1.529-0.067l87.193,31.736 c2.226,0.811,3.366,3.315,2.542,5.583l-20.817,57.192C230.78,142.329,229.104,143.443,227.335,143.443z M141.949,108.378 l85.313,31.051c0.149,0.054,0.338-0.061,0.409-0.253l16.019-44.011l0,0l4.797-13.18c0.07-0.192,0.001-0.402-0.15-0.457 l-85.313-31.052L141.949,108.378z"/><path fill="#3762cc" d="M98.457,215.807c-0.709,0-1.431-0.122-2.135-0.378c-3.245-1.181-4.923-4.781-3.742-8.026l59.36-163.09 c0.572-1.572,1.722-2.827,3.238-3.534c1.517-0.707,3.217-0.78,4.788-0.209c3.245,1.181,4.923,4.782,3.742,8.026l-59.36,163.09 C103.422,214.227,101.015,215.807,98.457,215.807z M157.822,44.192c-0.326,0-0.65,0.071-0.955,0.213 c-0.547,0.255-0.963,0.708-1.169,1.276l-59.36,163.09c-0.207,0.568-0.18,1.182,0.075,1.729s0.708,0.963,1.276,1.169 c0.568,0.207,1.181,0.18,1.729-0.075c0.547-0.255,0.963-0.709,1.169-1.277l59.36-163.09c0.427-1.172-0.18-2.472-1.352-2.899 C158.344,44.238,158.083,44.192,157.822,44.192z"/><path fill="#4671c6" d="M6.979,79.648l12.733-4.634l5.611,15.415l-14.892,5.42L5.634,82.669C5.185,81.434,5.787,80.083,6.979,79.648z"/><rect width="15.848" height="16.404" x="36.932" y="66.389" fill="#4671c6" transform="rotate(-19.999 44.86 74.595)"/><rect width="15.848" height="16.404" x="66.716" y="55.549" fill="#4671c6" transform="rotate(-19.999 74.645 63.754)"/><rect width="15.848" height="16.404" x="27.651" y="87.224" fill="#4671c6" transform="rotate(-19.999 35.578 95.432)"/><rect width="15.848" height="16.404" x="57.435" y="76.384" fill="#4671c6" transform="rotate(-19.999 65.363 84.59)"/><rect width="15.848" height="16.404" x="87.218" y="65.543" fill="#4671c6" transform="rotate(-19.999 95.149 73.749)"/><rect width="15.848" height="16.404" x="48.153" y="97.219" fill="#4671c6" transform="rotate(-19.999 56.082 105.427)"/><rect width="15.848" height="16.404" x="77.937" y="86.379" fill="#4671c6" transform="rotate(-19.999 85.867 94.586)"/><rect width="15.848" height="16.404" x="38.872" y="118.055" fill="#4671c6" transform="rotate(-19.999 46.8 126.264)"/><rect width="15.848" height="16.404" x="68.656" y="107.214" fill="#4671c6" transform="rotate(-19.999 76.585 115.423)"/><rect width="15.848" height="16.404" x="98.44" y="96.374" fill="#4671c6" transform="rotate(-19.999 106.37 104.581)"/><rect width="15.848" height="16.404" x="18.369" y="108.06" fill="#4671c6" transform="rotate(-19.999 26.296 116.269)"/><path fill="#a4c9ff" d="M158.994,213.55L158.994,213.55c2.212-0.805,3.352-3.251,2.547-5.462l-59.36-163.09 c-0.805-2.212-3.251-3.352-5.462-2.547l0,0c-2.212,0.805-3.352,3.251-2.547,5.462l59.36,163.09 C154.337,213.214,156.783,214.355,158.994,213.55z"/><rect width="15.848" height="16.404" x="22.04" y="71.809" fill="#ffea92" transform="rotate(-19.999 29.967 80.016)"/><path fill="#ffea92" d="M26.45,139.86l-4.797-13.181l14.892-5.42l5.611,15.415l-12.733,4.634 C28.23,141.743,26.899,141.094,26.45,139.86z"/><rect width="15.848" height="16.404" x="51.824" y="60.969" fill="#ffea92" transform="rotate(-19.999 59.752 69.174)"/><rect width="15.848" height="16.404" x="81.608" y="50.128" fill="#ffea92" transform="rotate(-19.999 89.537 58.333)"/><rect width="15.848" height="16.404" x="42.543" y="81.804" fill="#ffea92" transform="rotate(-19.999 50.47 90.011)"/><rect width="15.848" height="16.404" x="72.326" y="70.964" fill="#ffea92" transform="rotate(-19.999 80.256 79.17)"/><rect width="15.848" height="16.404" x="33.261" y="102.64" fill="#ffea92" transform="rotate(-19.999 41.189 110.848)"/><rect width="15.848" height="16.404" x="63.045" y="91.799" fill="#ffea92" transform="rotate(-19.999 70.974 100.007)"/><rect width="15.848" height="16.404" x="92.829" y="80.959" fill="#ffea92" transform="rotate(-19.999 100.76 89.165)"/><rect width="15.848" height="16.404" x="53.764" y="112.634" fill="#ffea92" transform="rotate(-19.999 61.693 120.843)"/><rect width="15.848" height="16.404" x="83.548" y="101.794" fill="#ffea92" transform="rotate(-19.999 91.478 110.002)"/><rect width="15.848" height="16.404" x="12.759" y="92.645" fill="#ffea92" transform="rotate(-19.999 20.685 100.853)"/><path fill="#4671c6" d="M6.979,79.648l12.733-4.634l5.611,15.415l-14.892,5.42L5.634,82.669C5.185,81.434,5.787,80.083,6.979,79.648z"/><rect width="15.848" height="16.404" x="36.932" y="66.389" fill="#4671c6" transform="rotate(-19.999 44.86 74.595)"/><rect width="15.848" height="16.404" x="66.716" y="55.549" fill="#4671c6" transform="rotate(-19.999 74.645 63.754)"/><rect width="15.848" height="16.404" x="27.651" y="87.224" fill="#4671c6" transform="rotate(-19.999 35.578 95.432)"/><rect width="15.848" height="16.404" x="57.435" y="76.384" fill="#4671c6" transform="rotate(-19.999 65.363 84.59)"/><rect width="15.848" height="16.404" x="87.218" y="65.543" fill="#4671c6" transform="rotate(-19.999 95.149 73.749)"/><rect width="15.848" height="16.404" x="48.153" y="97.219" fill="#4671c6" transform="rotate(-19.999 56.082 105.427)"/><rect width="15.848" height="16.404" x="77.937" y="86.379" fill="#4671c6" transform="rotate(-19.999 85.867 94.586)"/><rect width="15.848" height="16.404" x="38.872" y="118.055" fill="#4671c6" transform="rotate(-19.999 46.8 126.264)"/><rect width="15.848" height="16.404" x="68.656" y="107.214" fill="#4671c6" transform="rotate(-19.999 76.585 115.423)"/><rect width="15.848" height="16.404" x="98.44" y="96.374" fill="#4671c6" transform="rotate(-19.999 106.37 104.581)"/><rect width="15.848" height="16.404" x="18.369" y="108.06" fill="#4671c6" transform="rotate(-19.999 26.296 116.269)"/><rect width="15.848" height="16.404" x="22.04" y="71.809" fill="#e0ebfc" transform="rotate(-19.999 29.967 80.016)"/><path fill="#e0ebfc" d="M26.45,139.86l-4.797-13.181l14.892-5.42l5.611,15.415l-12.733,4.634 C28.23,141.743,26.899,141.094,26.45,139.86z"/><rect width="15.848" height="16.404" x="51.824" y="60.969" fill="#e0ebfc" transform="rotate(-19.999 59.752 69.174)"/><rect width="15.848" height="16.404" x="81.608" y="50.128" fill="#e0ebfc" transform="rotate(-19.999 89.537 58.333)"/><rect width="15.848" height="16.404" x="42.543" y="81.804" fill="#e0ebfc" transform="rotate(-19.999 50.47 90.011)"/><rect width="15.848" height="16.404" x="72.326" y="70.964" fill="#e0ebfc" transform="rotate(-19.999 80.256 79.17)"/><rect width="15.848" height="16.404" x="33.261" y="102.64" fill="#e0ebfc" transform="rotate(-19.999 41.189 110.848)"/><rect width="15.848" height="16.404" x="63.045" y="91.799" fill="#e0ebfc" transform="rotate(-19.999 70.974 100.007)"/><rect width="15.848" height="16.404" x="92.829" y="80.959" fill="#e0ebfc" transform="rotate(-19.999 100.76 89.165)"/><rect width="15.848" height="16.404" x="53.764" y="112.634" fill="#e0ebfc" transform="rotate(-19.999 61.693 120.843)"/><rect width="15.848" height="16.404" x="83.548" y="101.794" fill="#e0ebfc" transform="rotate(-19.999 91.478 110.002)"/><rect width="15.848" height="16.404" x="12.759" y="92.645" fill="#e0ebfc" transform="rotate(-19.999 20.685 100.853)"/><path fill="#3762cc" d="M28.665,143.443c-1.769,0-3.444-1.114-4.094-2.899L3.754,83.353c-0.825-2.269,0.315-4.773,2.541-5.583 l87.193-31.736c0.498-0.182,1.049-0.157,1.529,0.067c0.481,0.224,0.853,0.63,1.034,1.128l22.442,61.661 c0.378,1.038-0.157,2.186-1.195,2.563l-87.192,31.735C29.631,143.361,29.145,143.443,28.665,143.443z M12.311,95.165 l16.019,44.011c0.07,0.193,0.255,0.309,0.409,0.253l85.313-31.051L92.977,50.476L7.664,81.528c-0.151,0.055-0.22,0.265-0.15,0.457 L12.311,95.165z"/><path fill="#3762cc" d="M157.533,215.81c-0.902,0-1.801-0.197-2.643-0.59c-1.516-0.707-2.666-1.962-3.238-3.534L92.293,48.597 c-1.181-3.244,0.498-6.845,3.742-8.026c1.571-0.573,3.272-0.498,4.788,0.209s2.666,1.962,3.238,3.534l59.36,163.089 c1.181,3.244-0.498,6.845-3.742,8.026l0,0C158.98,215.684,158.255,215.81,157.533,215.81z M158.995,213.55h0.01H158.995z M98.178,44.192c-0.261,0-0.522,0.046-0.775,0.138c-1.172,0.427-1.778,1.727-1.352,2.899l59.36,163.09 c0.207,0.568,0.622,1.021,1.169,1.276c0.548,0.256,1.162,0.283,1.729,0.076c1.172-0.427,1.778-1.727,1.352-2.899l-59.36-163.09 c-0.207-0.568-0.622-1.021-1.169-1.276C98.829,44.263,98.504,44.192,98.178,44.192z"/></svg>