<svg xmlns="http://www.w3.org/2000/svg"  viewBox="0 0 512 512" width="64px" height="64px"><path fill="#463c4b" d="M208,418.828h-32c-26.51,0-48-21.49-48-48v0c0-26.51,21.49-48,48-48h32c26.51,0,48,21.49,48,48v0 C256,397.338,234.51,418.828,208,418.828z"/><path fill="#705ca3" d="M24,290.828h128c4.418,0,8-3.582,8-8l0,0c0-4.418-3.582-8-8-8H24c-4.418,0-8,3.582-8,8l0,0 C16,287.247,19.582,290.828,24,290.828z"/><path fill="#8d6be2" d="M24,290.828h24c4.418,0,8-3.582,8-8l0,0c0-4.418-3.582-8-8-8H24c-4.418,0-8,3.582-8,8l0,0 C16,287.247,19.582,290.828,24,290.828z"/><path fill="#8d6be2" d="M112,322.828h104v-40c0-13.255-10.745-24-24-24h-16C140.654,258.828,112,287.482,112,322.828L112,322.828z"/><path fill="#463c4b" d="M416,418.828h-32c-26.51,0-48-21.49-48-48v0c0-26.51,21.49-48,48-48h32c26.51,0,48,21.49,48,48v0 C464,397.338,442.51,418.828,416,418.828z"/><circle cx="384" cy="370.828" r="48" fill="#555a6e"/><path fill="#8d6be2" d="M456,402.828h32c4.418,0,8-3.582,8-8v-24c0-4.418-3.582-8-8-8h-32c-4.418,0-8,3.582-8,8v24 C448,399.247,451.582,402.828,456,402.828z"/><path fill="#8d6be2" d="M64,322.828h263.831c27.701,0,54.549,9.584,75.989,27.125l54.847,44.875H64V322.828z"/><path fill="#8d6be2" d="M64,322.828h197.164c27.701,0,54.549,9.584,75.989,27.125L392,394.828H64V322.828z"/><path fill="#705ca3" d="M208,322.828h64v72h-64c-8.837,0-16-7.163-16-16v-40C192,329.992,199.163,322.828,208,322.828z"/><path fill="#463c4b" d="M216,378.828h56v-40h-56c-4.418,0-8,3.582-8,8v24C208,375.247,211.582,378.828,216,378.828z"/><path fill="#463c4b" d="M304,418.828h-32c-26.51,0-48-21.49-48-48v0c0-26.51,21.49-48,48-48h32c26.51,0,48,21.49,48,48v0 C352,397.338,330.51,418.828,304,418.828z"/><circle cx="272" cy="370.828" r="48" fill="#555a6e"/><circle cx="272" cy="370.828" r="24" fill="#463c4b"/><circle cx="272" cy="370.828" r="8" fill="#fffeff"/><path fill="#463c4b" d="M96,418.828H64c-26.51,0-48-21.49-48-48v0c0-26.51,21.49-48,48-48h32c26.51,0,48,21.49,48,48v0 C144,397.338,122.51,418.828,96,418.828z"/><circle cx="64" cy="370.828" r="48" fill="#555a6e"/><path fill="#705ca3" d="M328,402.828h32c4.418,0,8-3.582,8-8v-24c0-4.418-3.582-8-8-8h-32c-4.418,0-8,3.582-8,8v24 C320,399.247,323.582,402.828,328,402.828z"/><path fill="#705ca3" d="M488,402.828H360c-4.418,0-8-3.582-8-8v-24c0-4.418,3.582-8,8-8s8,3.582,8,8v16h112v-16 c0-4.418,3.582-8,8-8s8,3.582,8,8v24C496,399.247,492.418,402.828,488,402.828z"/><circle cx="64" cy="370.828" r="24" fill="#463c4b"/><circle cx="64" cy="370.828" r="8" fill="#fffeff"/><path fill="#705ca3" d="M192,258.828L192,258.828c-13.255,0-24,10.745-24,24v40h48v-40C216,269.574,205.255,258.828,192,258.828z"/><path fill="#463c4b" d="M192,306.828L192,306.828c8.837,0,16-7.163,16-16v-8c0-8.837-7.163-16-16-16h0c-8.837,0-16,7.163-16,16v8 C176,299.665,183.163,306.828,192,306.828z"/><polygon fill="#555a6e" points="40,290.828 64,290.828 88,322.828 64,322.828"/><polygon fill="#463c4b" points="72,290.828 64,290.828 88,322.828 96,322.828"/><path fill="#fffeff" d="M224,274.828L224,274.828c-17.673,0-32,14.327-32,32v0c0,8.837,7.163,16,16,16h48v-16 C256,289.155,241.673,274.828,224,274.828z"/><path fill="#d7e6f0" d="M242.667,308.162c-2.209,0-4-1.791-4-4c0-8.087-6.58-14.667-14.667-14.667c-2.209,0-4-1.791-4-4 s1.791-4,4-4c12.499,0,22.667,10.168,22.667,22.667C246.667,306.371,244.875,308.162,242.667,308.162z"/><path fill="#463c4b" d="M236,290.828h15.708c2.724,4.708,4.292,10.169,4.292,16v8h-20c-6.627,0-12-5.373-12-12l0,0 C224,296.201,229.373,290.828,236,290.828z"/><g><path fill="#8caac8" d="M24,434.828h464c4.418,0,8-3.582,8-8l0,0c0-4.418-3.582-8-8-8H24c-4.418,0-8,3.582-8,8l0,0 C16,431.247,19.582,434.828,24,434.828z"/></g><g><path fill="#555a6e" d="M228,198.828L228,198.828c-2.209-2.209-2.209-5.791,0-8l112-112c2.209-2.209,5.791-2.209,8,0l4,4l-116,116 C233.791,201.038,230.209,201.038,228,198.828z"/></g><g><path fill="#555a6e" d="M361.105,201.724l45.791-45.791c2.415-2.415,3.771-5.69,3.771-9.104l0,0c0-3.415-1.357-6.69-3.771-9.104 L352,82.828l-64,64l54.895,54.895c2.415,2.415,5.69,3.771,9.104,3.771h0C355.415,205.495,358.69,204.139,361.105,201.724z"/></g><g><rect width="30.179" height="30.165" x="315.575" y="110.411" fill="#d7e6f0" transform="rotate(-45.001 330.666 125.498)"/></g><g><rect width="30.179" height="30.165" x="358.245" y="153.081" fill="#d7e6f0" transform="rotate(-45.001 373.335 168.169)"/></g><g><rect width="30.165" height="30.179" x="315.582" y="153.074" fill="#d7e6f0" transform="rotate(-45.001 330.665 168.168)"/></g><g><rect width="30.165" height="30.179" x="358.252" y="110.404" fill="#d7e6f0" transform="rotate(-45.001 373.337 125.498)"/></g><g><path fill="#555a6e" d="M284,198.828L284,198.828c2.209-2.209,2.209-5.791,0-8l-112-112c-2.209-2.209-5.791-2.209-8,0l-4,4l116,116 C278.209,201.038,281.791,201.038,284,198.828z"/></g><g><path fill="#555a6e" d="M150.895,201.724l-45.791-45.791c-2.415-2.415-3.771-5.69-3.771-9.104l0,0c0-3.415,1.357-6.69,3.771-9.104 L160,82.828l64,64l-54.895,54.895c-2.415,2.415-5.69,3.771-9.104,3.771h0C156.585,205.495,153.31,204.139,150.895,201.724z"/></g><g><rect width="30.165" height="30.179" x="166.252" y="110.404" fill="#d7e6f0" transform="rotate(-45.001 181.334 125.496)"/></g><g><rect width="30.165" height="30.179" x="123.582" y="153.074" fill="#d7e6f0" transform="rotate(-45.001 138.664 168.166)"/></g><g><rect width="30.179" height="30.165" x="166.245" y="153.081" fill="#d7e6f0" transform="rotate(-45.001 181.334 168.166)"/></g><g><rect width="30.179" height="30.165" x="123.575" y="110.411" fill="#d7e6f0" transform="rotate(-45.001 138.664 125.495)"/></g></svg>