<svg xmlns="http://www.w3.org/2000/svg"  viewBox="0 0 256 256" width="64px" height="64px"><path fill="#576fa5" d="M200.742,37.103c-7.351,0-13.31,5.959-13.31,13.31V23.512c0-7.351-5.959-13.31-13.31-13.31 c-7.351,0-13.31,5.959-13.31,13.31V17.31c0-7.351-5.959-13.31-13.31-13.31c-7.351,0-13.31,5.959-13.31,13.31v20.521 c0-7.351-5.959-13.31-13.31-13.31c-7.351,0-13.31,5.959-13.31,13.31v59.278v17.434c0-7.366-5.971-13.338-13.337-13.338 c-7.366,0-13.338,5.972-13.338,13.338v47.185c0,14.732,11.943,26.675,26.675,26.675v1.779c0,9.828,7.967,17.795,17.796,17.795 v27.251h73.463v-27.414c8.706-1.125,15.221-8.581,15.221-17.632V51.364v-0.951C214.052,43.062,208.093,37.103,200.742,37.103z"/><path fill="#395288" d="M198.831,207.815c0.001,0,0.002,0,0.003,0c8.705-1.126,15.219-8.581,15.219-17.632V51.364v-0.951 c0-7.226-5.762-13.094-12.94-13.291V89.92v100.263c0,8.872-6.26,16.205-14.705,17.553c-1.582,0.137-2.797,1.461-2.797,3.05v24.443 h15.221V207.815C198.831,207.815,198.831,207.815,198.831,207.815z"/><path fill="#fcc24c" d="M202.158,252h-79.174c-4.631,0-8.386-3.754-8.386-8.385v0c0-4.631,3.754-8.386,8.386-8.386h79.174 c4.631,0,8.386,3.754,8.386,8.386v0C210.544,248.246,206.789,252,202.158,252z"/><path fill="#dea42e" d="M202.158,235.229h-10c4.631,0,8.386,3.754,8.386,8.386c0,4.631-3.754,8.385-8.386,8.385h10 c4.631,0,8.386-3.754,8.386-8.385C210.544,238.983,206.789,235.229,202.158,235.229z"/><path fill="#690589" d="M202.158,254h-79.174c-5.727,0-10.386-4.659-10.386-10.386s4.659-10.385,10.386-10.385h79.174 c5.727,0,10.386,4.659,10.386,10.385S207.884,254,202.158,254z M122.984,237.229c-3.521,0-6.386,2.864-6.386,6.385 s2.864,6.386,6.386,6.386h79.174c3.521,0,6.386-2.865,6.386-6.386s-2.864-6.385-6.386-6.385H122.984z"/><path fill="#fcc24c" d="M163.208,252H84.034c-4.631,0-8.385-3.754-8.385-8.385v0c0-4.631,3.754-8.386,8.385-8.386h79.174 c4.631,0,8.386,3.754,8.386,8.386v0C171.594,248.246,167.839,252,163.208,252z"/><path fill="#dea42e" d="M163.208,235.229h-10c4.631,0,8.385,3.754,8.385,8.386c0,4.631-3.754,8.385-8.385,8.385h10 c4.631,0,8.385-3.754,8.385-8.385C171.594,238.983,167.84,235.229,163.208,235.229z"/><path fill="#fce06a" d="M84.034,252h10c-4.631,0-8.385-3.754-8.385-8.386c0-4.631,3.754-8.386,8.385-8.386h-10 c-4.631,0-8.385,3.754-8.385,8.386C75.648,248.246,79.403,252,84.034,252z"/><path fill="#690589" d="M107.573,154.219c-1.104,0-2-0.896-2-2v-37.676c0-1.104,0.896-2,2-2s2,0.896,2,2v37.676 C109.573,153.324,108.677,154.219,107.573,154.219z"/><path fill="#690589" d="M160.812,110.684c-1.104,0-2-0.896-2-2V17.31c0-6.236-5.073-11.31-11.31-11.31s-11.31,5.074-11.31,11.31 v35.91c0,1.104-0.896,2-2,2s-2-0.896-2-2V17.31c0-8.442,6.868-15.31,15.31-15.31s15.31,6.868,15.31,15.31v91.374 C162.812,109.788,161.917,110.684,160.812,110.684z"/><path fill="#690589" d="M160.812,110.684c-1.104,0-2-0.896-2-2V23.512c0-8.442,6.868-15.31,15.311-15.31 c8.441,0,15.31,6.868,15.31,15.31V53.22c0,1.104-0.896,2-2,2s-2-0.896-2-2V23.512c0-6.236-5.073-11.31-11.31-11.31 s-11.311,5.073-11.311,11.31v85.172C162.812,109.788,161.917,110.684,160.812,110.684z"/><path fill="#690589" d="M198.831,237.229h-73.462c-1.104,0-2-0.896-2-2v-25.351c-9.931-1.001-17.719-9.372-17.795-19.543 c-14.883-1.029-26.676-13.466-26.676-28.606v-47.185c0-8.457,6.881-15.337,15.338-15.337c4.487,0,8.529,1.937,11.337,5.018V37.831 c0-8.442,6.868-15.31,15.311-15.31c8.441,0,15.31,6.868,15.31,15.31v70.853c0,1.104-0.896,2-2,2s-2-0.896-2-2V37.831 c0-6.236-5.073-11.31-11.31-11.31s-11.311,5.074-11.311,11.31v76.712c0,1.104-0.896,2-2,2s-2-0.896-2-2 c0-6.251-5.086-11.337-11.337-11.337c-6.252,0-11.338,5.086-11.338,11.337v47.185c0,13.606,11.069,24.675,24.675,24.675 c1.104,0,2,0.896,2,2v1.78c0,8.709,7.086,15.795,15.796,15.795c1.104,0,2,0.896,2,2v25.251h69.462v-25.414 c0-1.005,0.746-1.854,1.744-1.983c7.81-1.009,13.478-7.59,13.478-15.649V50.413c0-6.236-5.074-11.31-11.311-11.31 s-11.31,5.073-11.31,11.31v58.271c0,1.104-0.896,2-2,2s-2-0.896-2-2V50.413c0-8.442,6.868-15.31,15.31-15.31 c8.442,0,15.311,6.868,15.311,15.31v139.771c0,9.327-6.43,17.332-15.222,19.308v25.738 C200.831,236.333,199.935,237.229,198.831,237.229z"/><path fill="#f4efed" d="M161.792,37.103c-7.351,0-13.31,5.959-13.31,13.31V23.512c0-7.351-5.959-13.31-13.31-13.31 c-7.351,0-13.31,5.959-13.31,13.31V17.31c0-7.351-5.959-13.31-13.31-13.31c-7.351,0-13.31,5.959-13.31,13.31v20.521 c0-7.351-5.959-13.31-13.31-13.31c-7.351,0-13.31,5.959-13.31,13.31v59.278v17.434c0-7.366-5.971-13.338-13.337-13.338 c-7.366,0-13.338,5.972-13.338,13.338v47.185c0,14.732,11.943,26.675,26.675,26.675v1.779c0,9.828,7.967,17.795,17.795,17.795 v27.251h73.463v-27.414c8.706-1.125,15.221-8.581,15.221-17.632V51.364v-0.951C175.102,43.062,169.143,37.103,161.792,37.103z"/><path fill="#d6d1cf" d="M159.881,207.815c0.001,0,0.002,0,0.003,0c8.705-1.126,15.219-8.581,15.219-17.632V51.364v-0.951 c0-7.226-5.762-13.094-12.94-13.291V89.92v100.263c0,8.872-6.26,16.205-14.705,17.553c-1.582,0.137-2.797,1.461-2.797,3.05v24.443 h15.221V207.815C159.881,207.815,159.881,207.815,159.881,207.815z"/><path fill="#fff" d="M93.456,207.576c-8.028-1.721-14.049-8.851-14.049-17.393l0,0c0-0.964-0.744-1.772-1.706-1.833 c-13.937-0.88-24.969-12.463-24.969-26.621v-47.186c0-5.445,3.268-10.12,7.946-12.193c-2.126-0.942-4.538-1.357-7.078-1.038 c-6.737,0.844-11.651,6.832-11.651,13.621v46.796c0,14.732,11.943,26.675,26.675,26.675v1.779c0,9.828,7.967,17.795,17.795,17.795 v27.251h10.784v-25.594c0-0.942-0.711-1.733-1.647-1.834L93.456,207.576z"/><path fill="#690589" d="M68.623,154.219c-1.104,0-2-0.896-2-2v-37.676c0-1.104,0.896-2,2-2s2,0.896,2,2v37.676 C70.623,153.324,69.727,154.219,68.623,154.219z"/><path fill="#690589" d="M121.863,110.684c-1.104,0-2-0.896-2-2V17.31c0-6.236-5.074-11.31-11.311-11.31s-11.31,5.074-11.31,11.31 v35.91c0,1.104-0.896,2-2,2s-2-0.896-2-2V17.31c0-8.442,6.868-15.31,15.31-15.31c8.442,0,15.311,6.868,15.311,15.31v91.374 C123.863,109.788,122.967,110.684,121.863,110.684z"/><path fill="#690589" d="M121.863,110.684c-1.104,0-2-0.896-2-2V23.512c0-8.442,6.868-15.31,15.31-15.31s15.31,6.868,15.31,15.31 V53.22c0,1.104-0.896,2-2,2s-2-0.896-2-2V23.512c0-6.236-5.073-11.31-11.31-11.31s-11.31,5.073-11.31,11.31v85.172 C123.863,109.788,122.967,110.684,121.863,110.684z"/><path fill="#690589" d="M159.881,237.229H86.418c-1.104,0-2-0.896-2-2v-25.351c-9.931-1.001-17.719-9.372-17.795-19.543 c-14.883-1.029-26.676-13.466-26.676-28.606v-47.185c0-8.457,6.881-15.337,15.338-15.337c4.487,0,8.529,1.937,11.337,5.018V37.831 c0-8.442,6.868-15.31,15.311-15.31c8.441,0,15.31,6.868,15.31,15.31v70.853c0,1.104-0.896,2-2,2s-2-0.896-2-2V37.831 c0-6.236-5.073-11.31-11.31-11.31s-11.311,5.074-11.311,11.31v76.712c0,1.104-0.896,2-2,2s-2-0.896-2-2 c0-6.251-5.086-11.337-11.337-11.337c-6.252,0-11.338,5.086-11.338,11.337v47.185c0,13.606,11.069,24.675,24.675,24.675 c1.104,0,2,0.896,2,2v1.78c0,8.709,7.086,15.795,15.796,15.795c1.104,0,2,0.896,2,2v25.251h69.463v-25.414 c0-1.005,0.746-1.854,1.744-1.983c7.809-1.009,13.477-7.59,13.477-15.649V50.413c0-6.236-5.073-11.31-11.31-11.31 s-11.311,5.073-11.311,11.31v58.271c0,1.104-0.896,2-2,2s-2-0.896-2-2V50.413c0-8.442,6.868-15.31,15.311-15.31 c8.441,0,15.31,6.868,15.31,15.31v139.771c0,9.327-6.43,17.332-15.221,19.308v25.738 C161.881,236.333,160.986,237.229,159.881,237.229z"/><path fill="#690589" d="M52.205,162.949c-1.104,0-2-0.896-2-2v-12c0-1.104,0.896-2,2-2s2,0.896,2,2v12 C54.205,162.053,53.309,162.949,52.205,162.949z"/><path fill="#690589" d="M163.208,254H84.034c-5.727,0-10.386-4.659-10.386-10.386s4.659-10.385,10.386-10.385h79.175 c5.727,0,10.386,4.659,10.386,10.385S168.935,254,163.208,254z M84.034,237.229c-3.521,0-6.386,2.864-6.386,6.385 S80.512,250,84.034,250h79.175c3.521,0,6.386-2.865,6.386-6.386s-2.864-6.385-6.386-6.385H84.034z"/><path fill="#7bac51" d="M118.82,189.556h56.282v-29.013H118.82c-8.012,0-14.507,6.495-14.507,14.507l0,0 C104.313,183.062,110.808,189.556,118.82,189.556z"/><rect width="12.941" height="29.013" x="162.162" y="160.543" fill="#5d8e33"/><path fill="#690589" d="M175.102,191.556H118.82c-9.102,0-16.507-7.405-16.507-16.506c0-9.102,7.405-16.507,16.507-16.507h56.282 c1.104,0,2,0.896,2,2v29.013C177.102,190.661,176.207,191.556,175.102,191.556z M118.82,162.543 c-6.896,0-12.507,5.61-12.507,12.507c0,6.896,5.61,12.506,12.507,12.506h54.282v-25.013H118.82z"/></svg>