<svg xmlns="http://www.w3.org/2000/svg"  viewBox="0 0 256 256" width="64px" height="64px"><path fill="#f4efed" d="M93.989,10.067c8.813-2.892,17.915-4.846,27.152-5.688C123.643,4.151,126.04,4,128,4h0 c59.579,0,107.878,48.299,107.878,107.878v109.639l-14.119,23.643c-2.39,4.002-7.229,5.822-11.664,4.387L28.942,190.925 c-5.258-1.702-8.82-6.598-8.82-12.125v-66.922c0-19.86,5.39-38.452,14.753-54.434l-0.043,0.031L28.72,41.326 c-1.806-4.771,0.735-10.084,5.582-11.675L93.989,10.067z"/><path fill="#d6d1cf" d="M128,4L128,4c-1.219,0-2.619,0.064-4.097,0.163c56.833,3.065,101.975,50.117,101.975,107.715v103.649 l-16.813,33.687l1.03,0.333c4.435,1.435,9.274-0.385,11.664-4.387l14.119-23.643V111.878C235.878,52.299,187.579,4,128,4z"/><path fill="#705ca3" d="M235.753,106.919L235.753,106.919C233.159,49.643,185.916,4,128,4h0c-1.986,0-4.423,0.156-6.961,0.389 c55.499,55.499,93.359,97.875,93.359,97.875L235.753,106.919z"/><path fill="#705ca3" d="M128,4L128,4c-1.222,0-2.624,0.064-4.106,0.163c54.459,2.933,98.168,46.258,101.731,100.548l10.127,2.208h0 C233.159,49.643,185.916,4,128,4z"/><path fill="#395288" d="M235.753,106.919l-80.323-17.51c-23.044-5.023-44.835,12.529-44.835,36.114v0 c0,12.993,6.822,25.031,17.968,31.708l107.316,64.286V111.878C235.878,110.215,235.827,108.563,235.753,106.919z"/><path fill="#576fa5" d="M225.878,111.878c0-2.408-0.087-4.796-0.243-7.165l-70.206-15.304c-23.044-5.023-44.835,12.529-44.835,36.114 l0,0c0,12.993,6.822,25.032,17.968,31.708l97.316,58.296V111.878z"/><path fill="#fff" d="M30.122,183.8v-71.922c0-19.861,5.39-38.452,14.753-54.434l-0.043,0.031l-10.53-27.823l0,0 c-4.847,1.59-7.387,6.904-5.582,11.675l6.112,16.148l0.043-0.031c-9.362,15.982-14.753,34.574-14.753,54.434V178.8 c0,5.527,3.562,10.424,8.821,12.126l4.52,1.463C31.368,190.093,30.122,187.059,30.122,183.8z"/><path fill="#705ca3" d="M28.942,190.925l90.201,29.19L20.122,128v50.8C20.122,184.327,23.684,189.224,28.942,190.925z"/><path fill="#705ca3" d="M30.122,183.8v-46.498l-10-9.302v50.8c0,5.527,3.562,10.424,8.821,12.125l4.52,1.463 C31.368,190.093,30.122,187.059,30.122,183.8z"/><ellipse cx="140.108" cy="121.575" fill="#705ca3" rx="13.382" ry="13.383" transform="rotate(-80.462 140.113 121.572)"/><path fill="#690589" d="M235.878,223.517c-0.356,0-0.712-0.095-1.027-0.284l-107.315-64.286c-11.683-6.998-18.94-19.805-18.94-33.424 c0-11.85,5.293-22.91,14.521-30.343c9.228-7.433,21.158-10.25,32.739-7.725l80.323,17.51c0.886,0.193,1.531,0.958,1.572,1.864 c0.087,1.921,0.127,3.526,0.127,5.05v109.639c0,0.72-0.388,1.385-1.014,1.74C236.558,223.431,236.218,223.517,235.878,223.517z M147.499,90.551c-7.89,0-15.582,2.676-21.874,7.744c-8.281,6.67-13.03,16.595-13.03,27.228c0,12.22,6.513,23.713,16.995,29.992 l104.288,62.473v-106.11c0-1.041-0.02-2.125-0.062-3.334l-78.812-17.181C152.508,90.819,149.993,90.551,147.499,90.551z"/><path fill="#690589" d="M119.144,222.115c-0.205,0-0.412-0.031-0.616-0.097l-90.201-29.19c-6.104-1.975-10.204-7.612-10.204-14.028 V128c0-0.796,0.472-1.516,1.201-1.833c0.729-0.317,1.577-0.173,2.161,0.369l99.021,92.115c0.687,0.639,0.837,1.669,0.362,2.478 C120.501,221.752,119.838,222.115,119.144,222.115z M22.122,132.592V178.8c0,4.675,2.988,8.783,7.437,10.222l0,0l81.617,26.412 L22.122,132.592z"/><path fill="#690589" d="M235.753,108.918c-0.142,0-0.285-0.015-0.426-0.046l-21.355-4.655c-0.412-0.09-0.785-0.307-1.065-0.622 c-0.379-0.423-38.463-42.974-93.282-97.793c-0.549-0.548-0.73-1.364-0.467-2.094s0.926-1.241,1.698-1.312 C123.722,2.134,126.125,2,128,2c58.881,0,107.089,46.046,109.751,104.828c0.028,0.62-0.233,1.219-0.709,1.619 C236.679,108.754,236.221,108.918,235.753,108.918z M215.455,100.447l18.15,3.957C229.759,49.013,183.864,6,128,6 c-0.73,0-1.552,0.022-2.461,0.066C175.668,56.347,211.165,95.672,215.455,100.447z"/><path fill="#690589" d="M213.209,252.042c-1.238,0-2.494-0.192-3.73-0.592L28.326,192.828c-6.104-1.975-10.204-7.612-10.204-14.028 v-66.922c0-19.15,5.016-37.991,14.513-54.558l-5.784-15.286c-1.068-2.823-0.94-5.877,0.361-8.601s3.599-4.741,6.466-5.682 L93.365,8.167c0.001,0,0.001,0,0.001,0c9.142-3,18.426-4.944,27.594-5.779C123.781,2.13,126.149,2,128,2 c60.587,0,109.878,49.291,109.878,109.878v109.639c0,0.361-0.098,0.715-0.283,1.025l-14.119,23.643 C221.256,249.903,217.336,252.042,213.209,252.042z M36.58,56.443c0.365,0.607,0.395,1.373,0.021,2.012 c-9.472,16.167-14.479,34.641-14.479,53.423V178.8c0,4.675,2.988,8.783,7.437,10.222l181.152,58.622 c3.573,1.157,7.407-0.289,9.331-3.51l13.836-23.169V111.878C233.878,53.497,186.381,6,128,6c-1.729,0-3.976,0.125-6.677,0.371 c-8.868,0.808-17.854,2.691-26.711,5.597L34.925,31.552c-1.819,0.597-3.277,1.878-4.104,3.606s-0.908,3.667-0.23,5.459 L36.58,56.443z"/><path fill="#690589" d="M140.108,136.958c-8.482,0-15.383-6.9-15.383-15.382s6.9-15.383,15.383-15.383 c8.481,0,15.382,6.901,15.382,15.383S148.59,136.958,140.108,136.958z M140.108,110.193c-6.276,0-11.383,5.106-11.383,11.383 s5.106,11.382,11.383,11.382s11.382-5.106,11.382-11.382S146.385,110.193,140.108,110.193z"/><path fill="#690589" d="M198.499,57.459c-0.986,0-1.846-0.73-1.979-1.736c-0.146-1.095,0.623-2.101,1.718-2.247l18.934-2.525 c1.088-0.147,2.102,0.622,2.247,1.718c0.146,1.095-0.623,2.101-1.718,2.247l-18.934,2.525 C198.677,57.454,198.588,57.459,198.499,57.459z"/><path fill="#690589" d="M206.988,71.67c-0.986,0-1.846-0.73-1.979-1.736c-0.146-1.095,0.623-2.101,1.718-2.247l19.174-2.557 c1.09-0.147,2.102,0.622,2.247,1.718c0.146,1.095-0.623,2.101-1.718,2.247l-19.174,2.557 C207.166,71.665,207.077,71.67,206.988,71.67z"/><path fill="#690589" d="M215.478,85.881c-0.986,0-1.846-0.73-1.979-1.736c-0.146-1.095,0.623-2.101,1.718-2.247l16.126-2.15 c1.09-0.149,2.102,0.623,2.247,1.718c0.146,1.095-0.623,2.101-1.718,2.247l-16.126,2.15 C215.655,85.875,215.566,85.881,215.478,85.881z"/><g><path fill="#690589" d="M30.122,126.395c-1.104,0-2-0.896-2-2v-12c0-1.104,0.896-2,2-2s2,0.896,2,2v12 C32.122,125.499,31.227,126.395,30.122,126.395z"/></g></svg>