<svg xmlns="http://www.w3.org/2000/svg"  viewBox="0 0 256 256" width="64px" height="64px"><rect width="27.017" height="124.951" x="114.041" y="-21.987" fill="#f4efed" transform="rotate(90 127.55 40.488)"/><rect width="124.951" height="5.957" x="65.074" y="26.98" fill="#fff"/><rect width="124.951" height="5.957" x="65.074" y="48.04" fill="#d6d1cf"/><path fill="#690589" d="M190.025,55.997H65.074c-1.104,0-2-0.896-2-2V26.98c0-1.104,0.896-2,2-2h124.951c1.104,0,2,0.896,2,2v27.017 C192.025,55.101,191.13,55.997,190.025,55.997z M67.074,51.997h120.951V28.98H67.074V51.997z"/><path fill="#f4efed" d="M19.053,55.225h27.085l8.509-14.736l-8.509-14.737l-27.085,0c5.227-9.587,15.396-16.093,27.085-16.093 c17.027,0,30.829,13.803,30.829,30.83s-13.803,30.83-30.829,30.83C34.449,71.318,24.281,64.812,19.053,55.225z"/><path fill="#f4efed" d="M236.947,25.752l-27.085,0l-8.509,14.737l8.509,14.737l27.085,0c-5.227,9.587-15.396,16.093-27.085,16.093 c-17.027,0-30.829-13.803-30.829-30.83s13.803-30.83,30.829-30.83C221.551,9.659,231.719,16.165,236.947,25.752z"/><path fill="#fcc24c" d="M227.872,217.072H28.709c-10.076,0-18.244-8.168-18.244-18.243v-36.272c0-10.076,8.168-18.244,18.244-18.244 h199.163c10.075,0,18.243,8.168,18.243,18.244v36.272C246.115,208.904,237.947,217.072,227.872,217.072z"/><path fill="#dea42e" d="M227.872,144.313h-9.122c10.076,0,18.244,8.168,18.244,18.244v36.271c0,10.076-8.168,18.244-18.244,18.244 h9.122c10.076,0,18.243-8.168,18.243-18.244v-36.271C246.115,152.481,237.948,144.313,227.872,144.313z"/><path fill="#f4efed" d="M192.123,191.883h53.992v-29.326H221.45C205.253,162.557,192.123,175.687,192.123,191.883L192.123,191.883z"/><rect width="9.122" height="29.326" x="236.994" y="162.557" fill="#d6d1cf"/><path fill="#f4efed" d="M179.88,81.74H76.701c-9.491,0-18.056,5.691-21.734,14.44l-20.232,48.133h187.11L201.613,96.18 C197.936,87.431,189.37,81.74,179.88,81.74z"/><path fill="#dea42e" d="M153.963,204.253h-51.346c-2.604,0-4.715,2.111-4.715,4.715v8.104h60.776v-8.104 C158.678,206.364,156.567,204.253,153.963,204.253z"/><path fill="#576fa5" d="M218.677,246.341h-17.336c-5.038,0-9.122-4.084-9.122-9.122v-20.147h35.579v20.147 C227.798,242.257,223.714,246.341,218.677,246.341z"/><path fill="#576fa5" d="M55.24,246.341H37.904c-5.038,0-9.122-4.084-9.122-9.122v-20.147h35.579v20.147 C64.362,242.257,60.278,246.341,55.24,246.341z"/><path fill="#395288" d="M221.413,217.072v20.147c0,5.038-4.084,9.122-9.122,9.122h6.385c5.038,0,9.122-4.084,9.122-9.122v-20.147 H221.413z"/><path fill="#758ec3" d="M35.168,217.072v20.147c0,5.038,4.084,9.122,9.122,9.122h-6.385c-5.038,0-9.122-4.084-9.122-9.122v-20.147 H35.168z"/><path fill="#fce06a" d="M28.709,144.313h9.122c-10.076,0-18.244,8.168-18.244,18.244v36.271c0,10.076,8.168,18.244,18.244,18.244 h-9.122c-10.076,0-18.244-8.168-18.244-18.244v-36.271C10.465,152.481,18.633,144.313,28.709,144.313z"/><path fill="#f4efed" d="M64.457,191.883H10.465v-29.326h24.666C51.327,162.557,64.457,175.687,64.457,191.883L64.457,191.883z"/><path fill="#690589" d="M227.872,219.072H28.709c-11.163,0-20.244-9.081-20.244-20.243v-36.272c0-11.163,9.081-20.244,20.244-20.244 h199.163c11.162,0,20.243,9.081,20.243,20.244v36.272C248.115,209.991,239.034,219.072,227.872,219.072z M28.709,146.313 c-8.957,0-16.244,7.287-16.244,16.244v36.272c0,8.957,7.287,16.243,16.244,16.243h199.163c8.956,0,16.243-7.287,16.243-16.243 v-36.272c0-8.957-7.287-16.244-16.243-16.244H28.709z"/><path fill="#690589" d="M55.24,248.341H37.904c-6.132,0-11.122-4.989-11.122-11.122v-20.147c0-1.104,0.896-2,2-2h35.58 c1.104,0,2,0.896,2,2v20.147C66.362,243.352,61.373,248.341,55.24,248.341z M30.782,219.072v18.147 c0,3.927,3.195,7.122,7.122,7.122H55.24c3.927,0,7.122-3.195,7.122-7.122v-18.147H30.782z"/><path fill="#690589" d="M218.677,248.341h-17.336c-6.133,0-11.122-4.989-11.122-11.122v-20.147c0-1.104,0.896-2,2-2h35.58 c1.104,0,2,0.896,2,2v20.147C229.799,243.352,224.81,248.341,218.677,248.341z M194.219,219.072v18.147 c0,3.927,3.195,7.122,7.122,7.122h17.336c3.927,0,7.122-3.195,7.122-7.122v-18.147H194.219z"/><path fill="#690589" d="M246.115,193.883h-53.992c-1.104,0-2-0.896-2-2c0-17.273,14.054-31.327,31.327-31.327h24.665 c1.104,0,2,0.896,2,2v29.327C248.115,192.988,247.22,193.883,246.115,193.883z M194.195,189.883h49.92v-25.327H221.45 C207.055,164.557,195.223,175.745,194.195,189.883z"/><path fill="#d6d1cf" d="M201.613,96.18c-3.678-8.749-12.243-14.44-21.734-14.44h-10c9.491,0,18.056,5.691,21.734,14.44 l20.232,48.133h10L201.613,96.18z"/><path fill="#fff" d="M54.967,96.18c3.678-8.749,12.243-14.44,21.734-14.44h10c-9.491,0-18.056,5.691-21.734,14.44l-20.232,48.133 h-10L54.967,96.18z"/><path fill="#690589" d="M221.846,146.313H34.735c-0.67,0-1.295-0.335-1.666-0.893c-0.371-0.558-0.438-1.265-0.178-1.882 l20.232-48.133c4-9.516,13.255-15.665,23.578-15.665H179.88c10.322,0,19.577,6.149,23.577,15.665l20.232,48.133 c0.26,0.617,0.192,1.324-0.178,1.882C223.141,145.978,222.516,146.313,221.846,146.313z M37.746,142.313h181.09L199.77,96.955 c-3.375-8.028-11.182-13.215-19.89-13.215H76.701c-8.708,0-16.516,5.187-19.89,13.215L37.746,142.313z"/><path fill="#690589" d="M56.277,116.001c-0.258,0-0.521-0.05-0.774-0.157c-1.019-0.428-1.497-1.601-1.069-2.619l5.044-12 c0.428-1.018,1.602-1.498,2.619-1.069c1.019,0.428,1.497,1.601,1.069,2.619l-5.044,12C57.8,115.541,57.058,116.001,56.277,116.001 z"/><path fill="#690589" d="M134.15,146.313c-0.865,0-1.663-0.566-1.918-1.438c-0.311-1.06,0.297-2.171,1.357-2.481l58.067-17 c1.056-0.309,2.17,0.297,2.481,1.357c0.31,1.06-0.298,2.171-1.358,2.481l-58.067,17 C134.525,146.287,134.337,146.313,134.15,146.313z"/><path fill="#fcc24c" d="M226.683,120.889h21.773c1.957,0,3.543,1.586,3.543,3.543v8.793c0,1.957-1.586,3.543-3.543,3.543h-21.773 c-2.023,0-3.663-1.64-3.663-3.663v-8.554C223.02,122.529,224.66,120.889,226.683,120.889z"/><path fill="#dea42e" d="M248.457,120.889h-7.086c1.957,0,3.543,1.587,3.543,3.543v8.794c0,1.957-1.586,3.543-3.543,3.543h7.086 c1.957,0,3.543-1.587,3.543-3.543v-8.794C252,122.476,250.414,120.889,248.457,120.889z"/><path fill="#690589" d="M248.457,138.769h-21.773c-3.123,0-5.663-2.541-5.663-5.663v-8.554c0-3.123,2.54-5.663,5.663-5.663h21.773 c3.057,0,5.543,2.487,5.543,5.543v8.793C254,136.282,251.514,138.769,248.457,138.769z M226.684,122.889 c-0.917,0-1.663,0.746-1.663,1.663v8.554c0,0.917,0.746,1.663,1.663,1.663h21.773c0.851,0,1.543-0.692,1.543-1.543v-8.793 c0-0.851-0.692-1.543-1.543-1.543H226.684z"/><path fill="#690589" d="M227.735,146.313c-1.104,0-2-0.896-2-2v-7.544c0-1.104,0.896-2,2-2s2,0.896,2,2v7.544 C229.735,145.417,228.84,146.313,227.735,146.313z"/><path fill="#fcc24c" d="M29.316,120.889H7.543c-1.957,0-3.543,1.586-3.543,3.543v8.793c0,1.957,1.586,3.543,3.543,3.543h21.773 c2.023,0,3.663-1.64,3.663-3.663v-8.554C32.979,122.529,31.339,120.889,29.316,120.889z"/><path fill="#fce06a" d="M7.543,120.889h7.086c-1.957,0-3.543,1.587-3.543,3.543v8.794c0,1.957,1.586,3.543,3.543,3.543H7.543 c-1.957,0-3.543-1.587-3.543-3.543v-8.794C4,122.476,5.586,120.889,7.543,120.889z"/><path fill="#690589" d="M29.316,138.769H7.543c-3.057,0-5.543-2.487-5.543-5.543v-8.793c0-3.057,2.486-5.543,5.543-5.543h21.773 c3.123,0,5.663,2.541,5.663,5.663v8.554C34.979,136.229,32.439,138.769,29.316,138.769z M7.543,122.889 c-0.851,0-1.543,0.692-1.543,1.543v8.793c0,0.851,0.692,1.543,1.543,1.543h21.773c0.917,0,1.663-0.746,1.663-1.663v-8.554 c0-0.917-0.746-1.663-1.663-1.663H7.543z"/><path fill="#690589" d="M28.264,146.313c-1.104,0-2-0.896-2-2v-7.544c0-1.104,0.896-2,2-2s2,0.896,2,2v7.544 C30.264,145.417,29.369,146.313,28.264,146.313z"/><path fill="#690589" d="M158.678,219.072H97.902c-1.104,0-2-0.896-2-2v-8.104c0-3.703,3.013-6.715,6.715-6.715h51.345 c3.702,0,6.715,3.012,6.715,6.715v8.104C160.678,218.176,159.782,219.072,158.678,219.072z M99.902,215.072h56.775v-6.104 c0-1.497-1.218-2.715-2.715-2.715h-51.345c-1.497,0-2.715,1.218-2.715,2.715V215.072z"/><rect width="9.122" height="29.326" x="10.465" y="162.557" fill="#fff"/><path fill="#690589" d="M64.458,193.883H10.465c-1.104,0-2-0.896-2-2v-29.327c0-1.104,0.896-2,2-2h24.666 c17.273,0,31.327,14.053,31.327,31.327C66.458,192.988,65.562,193.883,64.458,193.883z M12.465,189.883h49.92 c-1.027-14.138-12.859-25.327-27.254-25.327H12.465V189.883z"/><path fill="#d6d1cf" d="M226.947,25.752h10c-5.227-9.587-15.396-16.093-27.085-16.093c-1.713,0-3.392,0.146-5.029,0.415 C214.389,11.625,222.477,17.554,226.947,25.752z"/><path fill="#d6d1cf" d="M204.833,70.903c1.637,0.269,3.316,0.415,5.029,0.415c11.689,0,21.857-6.506,27.085-16.093h-10 C222.477,63.423,214.389,69.352,204.833,70.903z"/><path fill="#fff" d="M29.053,55.225h-10c5.227,9.587,15.396,16.093,27.085,16.093c1.713,0,3.392-0.146,5.029-0.415 C41.611,69.352,33.523,63.423,29.053,55.225z"/><path fill="#fff" d="M51.167,10.074c-1.637-0.269-3.316-0.415-5.029-0.415c-11.689,0-21.857,6.506-27.085,16.093h10 C33.523,17.554,41.611,11.625,51.167,10.074z"/><path fill="#690589" d="M209.862,73.318c-18.103,0-32.83-14.727-32.83-32.83s14.728-32.83,32.83-32.83 c12.027,0,23.078,6.566,28.84,17.136c0.338,0.62,0.324,1.372-0.036,1.979s-1.014,0.979-1.72,0.979h-25.93l-7.354,12.736 l7.354,12.737h25.93c0.706,0,1.359,0.372,1.72,0.979s0.374,1.358,0.036,1.979C232.94,66.752,221.89,73.318,209.862,73.318z M209.862,11.659c-15.896,0-28.83,12.933-28.83,28.83s12.934,28.83,28.83,28.83c9.39,0,18.103-4.558,23.477-12.093h-23.477 c-0.715,0-1.375-0.381-1.732-1l-8.51-14.737c-0.356-0.619-0.356-1.381,0-2l8.51-14.736c0.357-0.619,1.018-1,1.732-1h23.477 C227.965,16.217,219.253,11.659,209.862,11.659z"/><path fill="#690589" d="M46.138,73.318c-12.027,0-23.078-6.566-28.841-17.135c-0.338-0.62-0.324-1.372,0.036-1.979 s1.014-0.979,1.72-0.979h25.93l7.354-12.737l-7.354-12.736h-25.93c-0.706,0-1.359-0.372-1.72-0.979s-0.374-1.359-0.036-1.979 C23.06,14.225,34.111,7.659,46.138,7.659c18.103,0,32.83,14.727,32.83,32.83S64.241,73.318,46.138,73.318z M22.661,57.225 c5.375,7.535,14.088,12.093,23.478,12.093c15.896,0,28.83-12.933,28.83-28.83s-12.933-28.83-28.83-28.83 c-9.39,0-18.103,4.559-23.478,12.093h23.478c0.714,0,1.375,0.381,1.732,1l8.509,14.736c0.357,0.619,0.357,1.381,0,2L47.87,56.225 c-0.357,0.619-1.018,1-1.732,1H22.661z"/></svg>