<svg xmlns="http://www.w3.org/2000/svg"  viewBox="0 0 256 256" width="64px" height="64px"><rect width="165.816" height="40.815" x="45.092" y="4" fill="#576fa5"/><path fill="#690589" d="M210.908,46.815H45.092c-1.104,0-2-0.896-2-2V4c0-1.104,0.896-2,2-2h165.816c1.104,0,2,0.896,2,2v40.815 C212.908,45.92,212.013,46.815,210.908,46.815z M47.092,42.815h161.816V6H47.092V42.815z"/><polygon fill="#7bac51" points="104.969,215.113 151.031,215.113 237.996,4 191.935,4"/><polygon fill="#7bac51" points="151.031,215.113 104.969,215.113 18.004,4 64.065,4"/><polygon fill="#99ca6f" points="18.004,4 104.969,215.113 114.969,215.113 28.004,4"/><polygon fill="#5d8e33" points="237.996,4 151.031,215.113 141.031,215.113 227.996,4"/><path fill="#690589" d="M151.03,217.113H104.97c-0.811,0-1.541-0.489-1.85-1.238L16.154,4.762c-0.254-0.617-0.184-1.32,0.188-1.874 C16.713,2.333,17.337,2,18.004,2h46.062c0.811,0,1.541,0.489,1.85,1.238l86.965,211.113c0.254,0.617,0.184,1.32-0.188,1.874 C152.321,216.78,151.697,217.113,151.03,217.113z M106.309,213.113h41.734L62.727,6H20.991L106.309,213.113z"/><path fill="#690589" d="M47.367,55.849c-0.786,0-1.532-0.467-1.851-1.239l-4.943-12c-0.42-1.021,0.066-2.19,1.088-2.611 c1.021-0.42,2.189,0.065,2.611,1.088l4.943,12c0.42,1.021-0.066,2.19-1.088,2.611C47.879,55.8,47.621,55.849,47.367,55.849z"/><path fill="#690589" d="M151.03,217.113H104.97c-0.667,0-1.291-0.333-1.662-0.888c-0.371-0.554-0.441-1.257-0.188-1.874 L190.085,3.238C190.394,2.489,191.124,2,191.935,2h46.062c0.667,0,1.291,0.333,1.662,0.888c0.371,0.554,0.441,1.257,0.188,1.874 L152.88,215.875C152.571,216.624,151.841,217.113,151.03,217.113z M107.957,213.113h41.734L235.009,6h-41.735L107.957,213.113z"/><circle cx="128" cy="197.621" r="54.379" fill="#fcc24c" transform="rotate(-80.781 128.003 197.619)"/><path fill="#dea42e" d="M128,143.241c-1.447,0-2.875,0.074-4.293,0.184c28.024,2.191,50.086,25.609,50.086,54.195 c0,28.587-22.062,52.004-50.086,54.195c1.418,0.111,2.846,0.184,4.293,0.184c30.033,0,54.379-24.347,54.379-54.38 S158.033,143.241,128,143.241z"/><path fill="#fce06a" d="M128,252c1.447,0,2.875-0.074,4.293-0.184c-28.024-2.191-50.086-25.609-50.086-54.195 c0-28.586,22.062-52.004,50.086-54.195c-1.418-0.111-2.846-0.184-4.293-0.184c-30.033,0-54.379,24.346-54.379,54.379 S97.967,252,128,252z"/><path fill="#690589" d="M128,254c-31.088,0-56.38-25.292-56.38-56.38s25.292-56.379,56.38-56.379s56.38,25.291,56.38,56.379 S159.088,254,128,254z M128,145.241c-28.883,0-52.38,23.497-52.38,52.379C75.62,226.503,99.117,250,128,250 s52.38-23.497,52.38-52.38C180.38,168.738,156.883,145.241,128,145.241z"/><circle cx="128" cy="197.621" r="38.182" fill="#f4efed" transform="rotate(-76.714 128.015 197.631)"/><path fill="#690589" d="M128,237.803c-22.157,0-40.183-18.025-40.183-40.183c0-22.156,18.025-40.182,40.183-40.182 s40.183,18.025,40.183,40.182C168.183,219.777,150.157,237.803,128,237.803z M128,161.438c-19.951,0-36.183,16.231-36.183,36.182 c0,19.951,16.231,36.183,36.183,36.183s36.183-16.231,36.183-36.183C164.183,177.67,147.951,161.438,128,161.438z"/><path fill="#ff4397" d="M132.493,176.268v42.705c0,2.244-1.881,3.982-4.053,3.982c-2.244,0-3.982-1.737-3.982-3.982v-35.612 l-2.895,1.665c-0.651,0.434-1.375,0.58-2.026,0.58c-1.376,0-2.679-0.725-3.402-2.027c-1.23-1.81-0.579-4.343,1.303-5.43 l8.903-5.283c0.073-0.073,0.217-0.073,0.289-0.145c0.145,0,0.216-0.144,0.362-0.217c0.145,0,0.289-0.073,0.434-0.073 c0.073-0.073,0.218-0.073,0.289-0.073c0.145-0.072,0.363-0.072,0.507-0.072c0.073,0,0.145,0,0.218,0h0.072 c0.217,0,0.362,0,0.506,0c0.073,0.072,0.218,0.072,0.29,0.072c0.217,0,0.289,0.073,0.434,0.145c0.071,0,0.217,0,0.289,0.073 c0.217,0.144,0.289,0.217,0.434,0.217c0.072,0.073,0.145,0.145,0.289,0.218c0.073,0.071,0.218,0.144,0.29,0.217 c0.144,0.073,0.216,0.218,0.289,0.289c0.073,0.073,0.144,0.145,0.217,0.29c0.073,0.073,0.218,0.217,0.29,0.289l0.071,0.145 c0,0.073,0.073,0.144,0.073,0.217c0.073,0.145,0.145,0.218,0.145,0.362c0.073,0.145,0.073,0.29,0.145,0.362 c0,0.145,0.071,0.29,0.071,0.363c0,0.217,0,0.362,0.145,0.506C132.493,176.123,132.493,176.195,132.493,176.268z"/><path fill="#690589" d="M128.44,224.955c-3.354,0-5.981-2.628-5.981-5.982v-32.147c-0.854,0.512-1.858,0.78-2.922,0.78 c-2.101,0-4.049-1.139-5.106-2.978c-0.844-1.285-1.126-2.892-0.775-4.422c0.366-1.6,1.381-2.98,2.784-3.789l8.787-5.215 c0.179-0.124,0.347-0.202,0.473-0.251c0.02-0.011,0.038-0.021,0.059-0.029c0.091-0.066,0.203-0.138,0.335-0.204 c0.213-0.107,0.441-0.175,0.677-0.201c0.019-0.005,0.037-0.009,0.057-0.014c0.154-0.055,0.317-0.094,0.489-0.117 c0.381-0.1,0.717-0.1,0.907-0.1h0.796c0.203,0,0.403,0.031,0.594,0.09c0.302,0.033,0.543,0.111,0.724,0.188 c0.302,0.065,0.573,0.182,0.813,0.35c0.242,0.088,0.467,0.223,0.66,0.397c0.074,0.046,0.146,0.097,0.213,0.152 c0.06,0.04,0.116,0.081,0.168,0.12c0.326,0.215,0.527,0.46,0.633,0.596c0.091,0.095,0.199,0.219,0.311,0.382l0.123,0.122 c0.154,0.154,0.283,0.333,0.38,0.529l0.071,0.145c0.042,0.085,0.077,0.173,0.106,0.263c0.007,0.017,0.015,0.034,0.021,0.052 c0.074,0.138,0.177,0.354,0.239,0.636c0.001,0.001,0.001,0.002,0.001,0.004c0.094,0.193,0.156,0.401,0.184,0.616 c0.024,0.088,0.052,0.199,0.069,0.33c0.107,0.248,0.164,0.519,0.164,0.794v42.922 C134.493,222.271,131.778,224.955,128.44,224.955z M124.459,181.361c0.346,0,0.691,0.09,1.002,0.269 c0.617,0.357,0.998,1.018,0.998,1.731v35.611c0,1.148,0.833,1.982,1.981,1.982c1.132,0,2.053-0.89,2.053-1.982v-42.434 c-0.096-0.275-0.128-0.531-0.139-0.732c-0.002-0.005-0.003-0.011-0.004-0.016c-0.032-0.085-0.054-0.157-0.069-0.212 c-0.026-0.064-0.05-0.131-0.069-0.197c-0.006-0.012-0.011-0.022-0.017-0.034c-0.021-0.041-0.04-0.083-0.057-0.125 c-0.112-0.112-0.211-0.236-0.293-0.371c-0.021-0.024-0.045-0.051-0.067-0.078c-0.045-0.03-0.088-0.061-0.129-0.09 c-0.056-0.034-0.107-0.068-0.157-0.102c-0.109-0.05-0.205-0.104-0.286-0.153c-0.089-0.024-0.176-0.055-0.26-0.091 c-0.1-0.012-0.196-0.029-0.289-0.052h-0.405c-0.064,0.018-0.131,0.033-0.197,0.044c-0.09,0.03-0.183,0.054-0.277,0.07 c-0.113,0.068-0.247,0.137-0.401,0.191c-0.03,0.014-0.059,0.025-0.085,0.036l-8.832,5.241c-0.464,0.268-0.786,0.712-0.904,1.229 c-0.064,0.283-0.12,0.835,0.234,1.355c0.033,0.05,0.064,0.101,0.094,0.153c0.348,0.625,0.966,0.998,1.654,0.998 c0.366,0,0.675-0.082,0.917-0.243c0.037-0.024,0.074-0.048,0.112-0.069l2.896-1.665 C123.771,181.45,124.115,181.361,124.459,181.361z M132.73,172.083c0.021,0.021,0.043,0.043,0.066,0.067 C132.775,172.127,132.753,172.104,132.73,172.083z M131.655,171.225c0,0,0.001,0,0.002,0.001 C131.656,171.225,131.655,171.225,131.655,171.225z"/></svg>