<svg xmlns="http://www.w3.org/2000/svg"  viewBox="0 0 256 256" width="64px" height="64px"><path fill="#705ca3" d="M193.523,161.671H178.39h-27.126v-43.813H128h-23.264v43.813H77.61H62.477 c-16.347-0.021-29.616,13.214-29.637,29.561V252H128h95.16v-60.767C223.139,174.885,209.87,161.65,193.523,161.671z"/><path fill="#705ca3" d="M193.523,161.671h-9.749c16.347-0.021,29.616,13.214,29.637,29.561V252h9.749v-60.767 C223.139,174.885,209.87,161.65,193.523,161.671z"/><path fill="#705ca3" d="M62.477,161.671h9.749c-16.347-0.021-29.616,13.214-29.637,29.561V252H32.84v-60.767 C32.861,174.885,46.13,161.65,62.477,161.671z"/><path fill="#690589" d="M223.16,254H32.84c-1.104,0-2-0.896-2-2v-60.768c0.011-8.443,3.308-16.374,9.284-22.334 c5.966-5.951,13.89-9.227,22.314-9.227c0.014,0,0.028,0,0.042,0h40.256v-41.813c0-1.104,0.896-2,2-2h46.528c1.104,0,2,0.896,2,2 v41.813h40.256c0.013,0,0.028,0,0.042,0c8.426,0,16.348,3.275,22.314,9.227c5.976,5.96,9.273,13.892,9.284,22.332V252 C225.16,253.104,224.264,254,223.16,254z M34.84,250H221.16v-58.768c-0.009-7.37-2.889-14.296-8.108-19.502 c-5.211-5.197-12.132-8.059-19.49-8.059c-0.013,0-0.005,0.01-0.039,0h-42.258c-1.104,0-2-0.896-2-2v-41.813h-42.528v41.813 c0,1.104-0.896,2-2,2H62.478c-0.012,0-0.024,0-0.037,0c-7.361,0-14.281,2.861-19.492,8.059c-5.22,5.206-8.099,12.133-8.108,19.505 V250z"/><path fill="#705ca3" d="M151.264,161.671v2.247c0,12.848-10.416,23.264-23.264,23.264l0,0c-12.848,0-23.264-10.416-23.264-23.264 v-2.247H63.35V252H192.65v-90.329H151.264z"/><rect width="32.416" height="14.824" x="78.415" y="210.678" fill="#fcc24c"/><circle cx="161.013" cy="218.09" r="12.871" fill="#fcc24c" transform="rotate(-45.001 161.011 218.093)"/><path fill="#690589" d="M44.618,211.676c-1.104,0-2-0.896-2-2v-12c0-1.104,0.896-2,2-2s2,0.896,2,2v12 C46.618,210.781,45.722,211.676,44.618,211.676z"/><path fill="#690589" d="M192.649,254H63.351c-1.104,0-2-0.896-2-2v-90.329c0-1.104,0.896-2,2-2h41.385c1.104,0,2,0.896,2,2v2.246 c0,11.725,9.539,21.264,21.264,21.264s21.264-9.539,21.264-21.264v-2.246c0-1.104,0.896-2,2-2h41.385c1.104,0,2,0.896,2,2V252 C194.649,253.104,193.754,254,192.649,254z M65.351,250h125.299v-86.329h-37.385v0.246c0,13.931-11.333,25.264-25.264,25.264 s-25.264-11.333-25.264-25.264v-0.246H65.351V250z"/><path fill="#690589" d="M128,254c-1.104,0-2-0.896-2-2v-64.818c0-1.104,0.896-2,2-2s2,0.896,2,2V252C130,253.104,129.104,254,128,254 z"/><path fill="#690589" d="M110.831,227.502H78.415c-1.104,0-2-0.896-2-2v-14.824c0-1.104,0.896-2,2-2h32.416c1.104,0,2,0.896,2,2 v14.824C112.831,226.607,111.935,227.502,110.831,227.502z M80.415,223.502h28.416v-10.824H80.415V223.502z"/><path fill="#690589" d="M161.013,232.961c-8.2,0-14.871-6.671-14.871-14.871s6.671-14.871,14.871-14.871s14.871,6.671,14.871,14.871 S169.213,232.961,161.013,232.961z M161.013,207.219c-5.994,0-10.871,4.877-10.871,10.871s4.877,10.871,10.871,10.871 s10.871-4.876,10.871-10.871S167.007,207.219,161.013,207.219z"/><path fill="#690589" d="M106.103,173.785H63.351c-1.104,0-2-0.896-2-2s0.896-2,2-2h42.752c1.104,0,2,0.896,2,2 S107.208,173.785,106.103,173.785z"/><path fill="#690589" d="M192.649,173.785h-42.752c-1.104,0-2-0.896-2-2s0.896-2,2-2h42.752c1.104,0,2,0.896,2,2 S193.754,173.785,192.649,173.785z"/><path fill="#ffbd8e" d="M79.467,74.896h-3.465c-8.957,0-16.219,7.262-16.219,16.219c0,8.957,7.261,16.219,16.219,16.219h3.465 V74.896z"/><path fill="#e18152" d="M179.998,74.896h-3.465v32.437h3.465c8.957,0,16.218-7.261,16.218-16.219 C196.216,82.158,188.955,74.896,179.998,74.896z"/><path fill="#ff9f70" d="M128,157.344L128,157.344c-26.804,0-48.532-22.011-48.532-49.163V74.146 c0-27.152,21.729-49.163,48.532-49.163l0,0c26.804,0,48.533,22.011,48.533,49.163v34.036 C176.533,135.333,154.804,157.344,128,157.344z"/><path fill="#e18152" d="M128,24.983c-1.866,0-3.704,0.117-5.515,0.325c24.205,2.775,43.017,23.576,43.017,48.838v34.036 c0,25.262-18.812,46.062-43.017,48.838c1.811,0.208,3.649,0.325,5.515,0.325c26.804,0,48.533-22.011,48.533-49.163V74.146 C176.533,46.993,154.804,24.983,128,24.983z"/><path fill="#ffbd8e" d="M128,24.983c1.866,0,3.704,0.117,5.515,0.325c-24.206,2.775-43.018,23.576-43.018,48.838v34.036 c0,25.262,18.812,46.062,43.018,48.838c-1.811,0.208-3.649,0.325-5.515,0.325c-26.804,0-48.532-22.011-48.532-49.163V74.146 C79.467,46.993,101.196,24.983,128,24.983z"/><path fill="#690589" d="M128,159.344c-27.864,0-50.533-22.952-50.533-51.163V74.146c0-28.211,22.669-51.163,50.533-51.163 s50.533,22.952,50.533,51.163v34.036C178.533,136.393,155.864,159.344,128,159.344z M128,26.982 c-25.658,0-46.533,21.157-46.533,47.163v34.036c0,26.006,20.875,47.163,46.533,47.163s46.533-21.157,46.533-47.163V74.146 C174.533,48.14,153.658,26.982,128,26.982z"/><path fill="#690589" d="M79.467,109.333h-3.465c-10.046,0-18.219-8.173-18.219-18.218c0-10.046,8.173-18.219,18.219-18.219h3.465 c1.104,0,2,0.896,2,2v32.437C81.467,108.438,80.572,109.333,79.467,109.333z M76.002,76.896c-7.84,0-14.219,6.378-14.219,14.219 c0,7.84,6.378,14.218,14.219,14.218h1.465V76.896H76.002z"/><path fill="#690589" d="M179.998,109.333h-3.465c-1.104,0-2-0.896-2-2V74.896c0-1.104,0.896-2,2-2h3.465 c10.046,0,18.219,8.173,18.219,18.219C198.216,101.161,190.043,109.333,179.998,109.333z M178.533,105.333h1.465 c7.84,0,14.219-6.378,14.219-14.218c0-7.84-6.378-14.219-14.219-14.219h-1.465V105.333z"/><path fill="#705ca3" d="M128,4L128,4C99.135,4,75.736,27.399,75.736,56.264v6.389h104.528v-6.389C180.264,27.399,156.865,4,128,4z"/><path fill="#705ca3" d="M128,4L128,4c-1.166,0-2.319,0.052-3.466,0.127c27.247,1.786,48.798,24.438,48.798,52.137v6.389h6.932 v-6.389C180.264,27.399,156.865,4,128,4z"/><path fill="#705ca3" d="M128,4L128,4c1.166,0,2.319,0.052,3.466,0.127c-27.247,1.786-48.798,24.438-48.798,52.137v6.389h-6.932 v-6.389C75.736,27.399,99.135,4,128,4z"/><path fill="#690589" d="M180.264,64.653H75.736c-1.104,0-2-0.896-2-2v-6.39C73.736,26.343,98.079,2,128,2 s54.264,24.343,54.264,54.264v6.39C182.264,63.758,181.368,64.653,180.264,64.653z M77.736,60.653h100.527v-4.39 C178.264,28.548,155.715,6,128,6S77.736,28.548,77.736,56.264V60.653z"/><circle cx="128" cy="27.508" r="9.718" fill="#fcc24c" transform="rotate(-20.215 128.01 27.515)"/><path fill="#690589" d="M128,39.226c-6.461,0-11.718-5.256-11.718-11.718S121.539,15.79,128,15.79s11.718,5.256,11.718,11.718 S134.461,39.226,128,39.226z M128,19.79c-4.255,0-7.718,3.462-7.718,7.718s3.462,7.718,7.718,7.718s7.718-3.462,7.718-7.718 S132.255,19.79,128,19.79z"/><path fill="#705ca3" d="M174.51,73.063l-23.806-4.131c-15.023-2.607-30.383-2.607-45.407,0L81.49,73.063 c-5.517,0.957-10.564-3.29-10.564-8.889l0,0c0-4.388,3.157-8.139,7.48-8.889l26.891-4.666c15.023-2.607,30.383-2.607,45.407,0 l26.891,4.666c4.323,0.75,7.48,4.502,7.48,8.889v0C185.074,69.773,180.026,74.021,174.51,73.063z"/><path fill="#705ca3" d="M177.594,55.285l-5.787-1.004c3.498,1.557,5.868,5.051,5.868,9.028c0,4.251-2.656,7.786-6.297,9.212 l3.131,0.543c5.517,0.957,10.564-3.29,10.564-8.889C185.074,59.787,181.917,56.035,177.594,55.285z"/><path fill="#705ca3" d="M78.406,55.285l5.787-1.004c-3.498,1.557-5.868,5.051-5.868,9.028c0,4.251,2.656,7.786,6.297,9.212 l-3.131,0.543c-5.517,0.957-10.564-3.29-10.564-8.889C70.926,59.787,74.083,56.035,78.406,55.285z"/><path fill="#690589" d="M79.939,75.197c-2.575,0-5.083-0.902-7.087-2.589c-2.495-2.1-3.926-5.173-3.926-8.434 c0-5.374,3.843-9.941,9.138-10.86l26.891-4.666c15.292-2.653,30.799-2.653,46.091,0l26.891,4.666 c5.295,0.919,9.138,5.486,9.138,10.859c0,3.261-1.431,6.334-3.926,8.434c-2.495,2.099-5.767,2.982-8.98,2.426l-23.806-4.13 c-14.838-2.575-29.885-2.575-44.724,0l-23.806,4.13C81.201,75.143,80.568,75.197,79.939,75.197z M128,64.972 c7.7,0,15.399,0.664,23.045,1.99l23.806,4.13l0,0c2.046,0.355,4.132-0.208,5.722-1.545s2.501-3.295,2.501-5.373 c0-3.424-2.448-6.333-5.822-6.918l-26.891-4.666c-14.839-2.575-29.885-2.575-44.724,0l-26.891,4.666 c-3.374,0.585-5.822,3.495-5.822,6.918c0,2.077,0.912,4.035,2.501,5.373s3.673,1.901,5.722,1.545l23.806-4.13 C112.601,65.635,120.3,64.972,128,64.972z"/></svg>