<svg xmlns="http://www.w3.org/2000/svg"  viewBox="0 0 64 64" width="64px" height="64px"><path fill="#604999" d="M58.966,41.28L36.861,32.56c-1.023-0.404-2.699-0.404-3.723,0L11.034,41.28 c-1.024,0.403-1.862,1.634-1.862,2.734v16.774h51.655V44.015C60.828,42.914,59.99,41.684,58.966,41.28z"/><path fill="#63312d" d="M60.828,61.288H9.172c-0.276,0-0.5-0.224-0.5-0.5V44.015c0-1.313,0.957-2.719,2.179-3.2l22.104-8.721 c1.147-0.452,2.944-0.453,4.09,0l22.105,8.72h0c1.222,0.481,2.178,1.887,2.178,3.2v16.773 C61.328,61.064,61.104,61.288,60.828,61.288z M9.672,60.288h50.655V44.015c0-0.9-0.708-1.939-1.544-2.269h0l-22.105-8.721 c-0.91-0.36-2.446-0.359-3.356,0l-22.104,8.721c-0.838,0.33-1.545,1.369-1.545,2.269V60.288z"/><polygon fill="#604999" points="47.835,36.875 55.183,39.765 49.184,39.767 41.836,36.877"/><path fill="#63312d" d="M49.184,40.267c-0.062,0-0.125-0.012-0.183-0.035l-7.348-2.89c-0.224-0.088-0.353-0.322-0.308-0.559 c0.044-0.236,0.251-0.407,0.491-0.407l5.999-0.001c0.062,0,0.125,0.012,0.183,0.035l7.348,2.89 c0.224,0.088,0.353,0.322,0.308,0.559c-0.044,0.236-0.251,0.407-0.491,0.407L49.184,40.267z M44.472,37.376l4.807,1.89 l3.269-0.001l-4.807-1.89L44.472,37.376z"/><path fill="#604999" d="M35,3.191h-6V4.56c-3.931,1.922-6.601,5.674-6.601,9.988c0,4.905,0.876,13.705,6.601,17.307v1.604h6 c10.657,0,12.601-12.639,12.601-18.911C47.601,8.276,41.959,3.191,35,3.191z"/><path fill="#63312d" d="M35,33.959h-6c-0.276,0-0.5-0.224-0.5-0.5v-1.333c-5.736-3.827-6.601-12.629-6.601-17.579 c0-4.266,2.521-8.185,6.601-10.296v-1.06c0-0.276,0.224-0.5,0.5-0.5h6c7.224,0,13.101,5.319,13.101,11.856 c0,2.081-0.229,7.417-2.35,12.017C43.521,31.402,39.803,33.959,35,33.959z M29.5,32.959H35c11.517,0,12.101-15.337,12.101-18.411 c0-5.986-5.428-10.856-12.101-10.856h-5.5V4.56c0,0.191-0.109,0.365-0.28,0.449c-3.898,1.906-6.32,5.561-6.32,9.539 c0,4.81,0.827,13.398,6.367,16.883c0.146,0.092,0.234,0.251,0.234,0.423V32.959z"/><rect width="6" height="4.106" x="36.348" y="30.602" fill="#fffeff"/><path fill="#63312d" d="M42.348,35.208h-6c-0.276,0-0.5-0.224-0.5-0.5v-4.106c0-0.276,0.224-0.5,0.5-0.5h6c0.276,0,0.5,0.224,0.5,0.5 v4.106C42.848,34.984,42.624,35.208,42.348,35.208z M36.848,34.208h5v-3.106h-5V34.208z"/><path fill="#8d6be2" d="M52.966,41.28L30.861,32.56c-1.023-0.404-2.699-0.404-3.723,0L5.034,41.28 c-1.024,0.403-1.862,1.634-1.862,2.734v16.774h51.655V44.015C54.828,42.914,53.99,41.684,52.966,41.28z"/><path fill="#8d6be2" d="M5.172,45.218c0-1.101,0.837-2.332,1.862-2.735l22.104-8.72c1.024-0.404,2.7-0.404,3.723,0l21.224,8.372 c-0.313-0.379-0.698-0.688-1.119-0.854L30.861,32.56c-1.023-0.404-2.699-0.404-3.723,0L5.034,41.28 c-1.024,0.403-1.862,1.634-1.862,2.734v16.774h2V45.218z"/><path fill="#63312d" d="M54.828,61.288H3.172c-0.276,0-0.5-0.224-0.5-0.5V44.015c0-1.313,0.957-2.719,2.179-3.2l22.104-8.721 c1.147-0.452,2.944-0.453,4.09,0l22.105,8.72h0c1.222,0.481,2.178,1.887,2.178,3.2v16.773 C55.328,61.064,55.104,61.288,54.828,61.288z M3.672,60.288h50.655V44.015c0-0.9-0.708-1.939-1.544-2.269h0l-22.105-8.721 c-0.91-0.36-2.446-0.359-3.356,0L5.218,41.746c-0.838,0.33-1.545,1.369-1.545,2.269V60.288z"/><rect width="4.252" height="25.605" x="26.874" y="35.183" fill="#fffeff"/><path fill="#63312d" d="M31.126,61.288h-4.252c-0.276,0-0.5-0.224-0.5-0.5V35.183c0-0.276,0.224-0.5,0.5-0.5h4.252 c0.276,0,0.5,0.224,0.5,0.5v25.605C31.626,61.064,31.402,61.288,31.126,61.288z M27.374,60.288h3.252V35.683h-3.252V60.288z"/><path fill="#8d6be2" d="M41.601,14.548c0,6.272-1.944,18.911-12.601,18.911c-11.17,0-12.601-12.639-12.601-18.911 c0-6.272,5.642-11.356,12.601-11.356S41.601,8.276,41.601,14.548z"/><path fill="#8d6be2" d="M18.399,14.548c0-5.968,5.11-10.85,11.601-11.311c-0.331-0.023-0.663-0.046-1-0.046 c-6.959,0-12.601,5.085-12.601,11.356c0,6.272,1.431,18.911,12.601,18.911c0.334,0,0.66-0.013,0.977-0.037 C19.742,32.672,18.399,20.623,18.399,14.548z"/><path fill="#63312d" d="M29,33.959c-11.824,0-13.101-13.575-13.101-19.411C15.899,8.01,21.776,2.691,29,2.691 S42.101,8.01,42.101,14.548c0,2.081-0.229,7.417-2.35,12.017C37.521,31.402,33.803,33.959,29,33.959z M29,3.691 c-6.672,0-12.101,4.87-12.101,10.856c0,5.536,1.179,18.411,12.101,18.411c11.517,0,12.101-15.337,12.101-18.411 C41.101,8.562,35.672,3.691,29,3.691z"/><path fill="#fffeff" d="M29,33.459c-3.254,0-5.667-1.087-7.473-2.762v4.106c1.806,1.67,4.225,2.742,7.473,2.742 c3.157,0,5.544-1.113,7.348-2.838v-4.106C34.543,32.331,32.163,33.459,29,33.459z"/><path fill="#fffeff" d="M23.527,34.804v-2.668c-0.736-0.406-1.404-0.887-2-1.438v4.106c1.806,1.67,4.225,2.742,7.473,2.742 c0.333,0,0.652-0.019,0.968-0.043C27.234,37.299,25.136,36.291,23.527,34.804z"/><path fill="#63312d" d="M29,38.046c-3.121,0-5.749-0.967-7.813-2.875c-0.103-0.095-0.161-0.228-0.161-0.367v-4.106 c0-0.199,0.118-0.379,0.3-0.458c0.182-0.08,0.394-0.043,0.54,0.091c1.881,1.744,4.281,2.628,7.133,2.628 c2.764,0,5.12-0.915,7.001-2.718c0.146-0.139,0.358-0.178,0.542-0.099s0.304,0.26,0.304,0.46v4.106 c0,0.136-0.056,0.267-0.154,0.361C34.628,37.044,32.04,38.046,29,38.046z M22.027,34.582c1.849,1.635,4.193,2.464,6.973,2.464 c2.698,0,5-0.859,6.848-2.555v-2.794c-1.917,1.502-4.216,2.262-6.848,2.262c-2.706,0-5.046-0.736-6.973-2.191V34.582z"/><path fill="#84dbff" d="M41.518,16.432c0,3.145-1.932,10.443-12.518,10.443c-11.097,0-12.518-7.299-12.518-10.443 c0-3.147,5.604-0.69,12.518-0.69S41.518,13.284,41.518,16.432z"/><path fill="#caf4ff" d="M18.482,16.432c0-0.963,0.529-1.397,1.454-1.542c-2.135-0.188-3.454,0.02-3.454,1.542 c0,3.145,1.421,10.443,12.518,10.443c0.343,0,0.653-0.027,0.978-0.043C19.84,26.386,18.482,19.474,18.482,16.432z"/><path fill="#63312d" d="M29,27.375c-12.079,0-13.018-8.376-13.018-10.943c0-0.65,0.205-1.159,0.609-1.513 c1.009-0.882,3.041-0.61,5.854-0.234c1.948,0.261,4.156,0.557,6.554,0.557s4.606-0.295,6.554-0.557 c2.813-0.376,4.846-0.648,5.854,0.234c0.404,0.354,0.609,0.863,0.609,1.513C42.018,20.496,39.276,27.375,29,27.375z M18.775,15.329c-0.705,0-1.24,0.093-1.525,0.342c-0.115,0.101-0.268,0.29-0.268,0.761c0,2.333,0.867,9.943,12.018,9.943 c11.68,0,12.018-8.926,12.018-9.943c0-0.472-0.153-0.66-0.268-0.761c-0.667-0.583-2.705-0.311-5.062,0.005 c-1.881,0.252-4.223,0.565-6.687,0.565s-4.806-0.313-6.687-0.565C20.963,15.495,19.718,15.329,18.775,15.329z"/><path fill="#8d6be2" d="M12.648,60.788V51.03c0,0-9.429,1.683-9.429,9.758H12.648z"/><path fill="#8d6be2" d="M45.356,60.788V51.03c0,0,9.429,1.683,9.429,9.758H45.356z"/><path fill="#63312d" d="M12.647,61.288H3.218c-0.276,0-0.5-0.224-0.5-0.5c0-8.397,9.743-10.232,9.841-10.25 c0.146-0.027,0.295,0.014,0.409,0.109c0.114,0.095,0.179,0.235,0.179,0.383v9.758C13.147,61.064,12.924,61.288,12.647,61.288z M3.731,60.288h8.417v-8.635C10.182,52.147,4.05,54.174,3.731,60.288z"/><path fill="#63312d" d="M54.786,61.288h-9.429c-0.276,0-0.5-0.224-0.5-0.5V51.03c0-0.148,0.065-0.289,0.179-0.383 c0.113-0.095,0.264-0.136,0.409-0.109c0.098,0.018,9.841,1.853,9.841,10.25C55.286,61.064,55.062,61.288,54.786,61.288z M45.856,60.288h8.416c-0.323-6.036-6.466-8.119-8.416-8.629V60.288z"/><rect width="2.239" height="7.895" x="43.981" y="35.416" fill="#604999" transform="rotate(-68.531 45.101 39.365)"/><path fill="#63312d" d="M48.365,42.351c-0.062,0-0.124-0.012-0.183-0.035l-7.348-2.89c-0.257-0.101-0.383-0.391-0.282-0.648 l0.819-2.084c0.048-0.124,0.144-0.223,0.266-0.276c0.122-0.053,0.26-0.054,0.383-0.007l7.348,2.89 c0.257,0.101,0.383,0.391,0.282,0.648l-0.819,2.084c-0.048,0.124-0.144,0.223-0.266,0.276 C48.501,42.337,48.433,42.351,48.365,42.351z M41.666,38.679l6.417,2.523l0.453-1.153l-6.417-2.523L41.666,38.679z"/><rect width="7.895" height="2.239" x="8.952" y="38.244" fill="#604999" transform="rotate(-21.471 12.898 39.364)"/><path fill="#63312d" d="M9.635,42.351c-0.068,0-0.136-0.014-0.2-0.042c-0.122-0.053-0.217-0.152-0.266-0.276l-0.819-2.084 c-0.101-0.257,0.025-0.547,0.282-0.648l7.348-2.89c0.124-0.047,0.262-0.046,0.383,0.007c0.122,0.053,0.217,0.152,0.266,0.276 l0.819,2.084c0.101,0.257-0.025,0.547-0.282,0.648l-7.348,2.89C9.759,42.339,9.697,42.351,9.635,42.351z M9.464,40.049 l0.453,1.153l6.417-2.523l-0.453-1.153L9.464,40.049z"/><polygon fill="#efc36a" points="38.391,40.038 43.79,45.438 38.391,45.438"/><path fill="#63312d" d="M43.791,45.938h-5.399c-0.276,0-0.5-0.224-0.5-0.5v-5.4c0-0.202,0.122-0.385,0.309-0.462 c0.188-0.078,0.402-0.034,0.545,0.108l5.399,5.4c0.143,0.143,0.186,0.358,0.108,0.545C44.175,45.817,43.993,45.938,43.791,45.938z M38.891,44.938h3.692l-3.692-3.693V44.938z"/><polygon fill="#FCC24C" points="38.391,45.438 38.391,40.038 14.781,40.038 14.781,60.788 43.79,60.788 43.79,45.438"/><polygon fill="#FCC24C" points="16.781,42.038 38.391,42.038 38.391,40.038 14.781,40.038 14.781,60.788 16.781,60.788"/><path fill="#63312d" d="M43.791,61.288h-29.01c-0.276,0-0.5-0.224-0.5-0.5v-20.75c0-0.276,0.224-0.5,0.5-0.5h23.61 c0.276,0,0.5,0.224,0.5,0.5v4.9h4.899c0.276,0,0.5,0.224,0.5,0.5v15.35C44.291,61.064,44.067,61.288,43.791,61.288z M15.281,60.288h28.01v-14.35h-4.899c-0.276,0-0.5-0.224-0.5-0.5v-4.9h-22.61V60.288z"/><path fill="#fffeff" d="M9.53,55.017h0.289c-1.221,0-2.22,0.889-2.22,1.976c0,1.086,0.999,1.975,2.22,1.975h0.613 c-1.162,0-2.113,0.807-2.203,1.821H18.42c0.019-0.099,0.035-0.199,0.035-0.302c0-1.003-0.921-1.824-2.049-1.824h0.769 c1.128,0,2.05-0.82,2.05-1.822c0-1.003-0.923-1.823-2.05-1.823h0.661c1.128,0,2.05-0.82,2.05-1.823 c0-1.002-0.922-1.822-2.05-1.822h-0.363c1.129,0,2.05-0.821,2.05-1.824c0-1.002-0.921-1.823-2.05-1.823h-1.237l-5.804-0.607 c-1.221,0-2.221,0.888-2.221,1.975c0,1.086,0.999,1.976,2.221,1.976H9.53c-1.222,0-2.22,0.887-2.22,1.974 C7.31,54.127,8.308,55.017,9.53,55.017z"/><path fill="#fffeff" d="M12.432,58.967h-0.613c-1.221,0-2.22-0.889-2.22-1.975c0-1.087,0.999-1.976,2.22-1.976H11.53 c-1.222,0-2.22-0.889-2.22-1.975c0-1.086,0.998-1.974,2.22-1.974h0.902c-1.221,0-2.221-0.89-2.221-1.976 c0-0.846,0.609-1.566,1.455-1.846l-1.234-0.129c-1.221,0-2.221,0.888-2.221,1.975c0,1.086,0.999,1.976,2.221,1.976H9.53 c-1.222,0-2.22,0.887-2.22,1.974c0,1.086,0.998,1.975,2.22,1.975h0.289c-1.221,0-2.22,0.889-2.22,1.976 c0,1.086,0.999,1.975,2.22,1.975h0.613c-1.162,0-2.113,0.807-2.203,1.821h2C10.318,59.774,11.269,58.967,12.432,58.967z"/><path fill="#63312d" d="M18.42,61.288H8.229c-0.14,0-0.274-0.059-0.369-0.163s-0.142-0.242-0.129-0.381 c0.054-0.613,0.356-1.163,0.81-1.568c-0.857-0.417-1.442-1.24-1.442-2.184c0-0.75,0.368-1.422,0.948-1.877 c-0.744-0.442-1.237-1.207-1.237-2.074c0-1.011,0.671-1.883,1.629-2.266c-0.451-0.442-0.728-1.034-0.728-1.684 c0-1.364,1.221-2.475,2.721-2.475l5.856,0.61l1.185-0.003c1.406,0,2.55,1.042,2.55,2.323c0,0.667-0.311,1.27-0.807,1.694 c0.704,0.414,1.17,1.134,1.17,1.952c0,0.889-0.551,1.662-1.357,2.053c0.432,0.416,0.696,0.977,0.696,1.593 c0,0.915-0.584,1.708-1.431,2.086c0.411,0.413,0.661,0.96,0.661,1.56c0,0.136-0.019,0.268-0.044,0.397 C18.865,61.118,18.66,61.288,18.42,61.288z M8.901,60.288h9.036c-0.112-0.636-0.756-1.126-1.532-1.126c-0.276,0-0.5-0.224-0.5-0.5 s0.224-0.5,0.5-0.5h0.769c0.855,0,1.55-0.593,1.55-1.322c0-0.729-0.695-1.323-1.55-1.323c-0.276,0-0.5-0.224-0.5-0.5 s0.224-0.5,0.5-0.5h0.661c0.855,0,1.55-0.594,1.55-1.323c0-0.729-0.695-1.322-1.55-1.322h-0.363c-0.276,0-0.5-0.224-0.5-0.5 s0.224-0.5,0.5-0.5c0.854,0,1.55-0.594,1.55-1.324c0-0.729-0.695-1.323-1.55-1.323h-1.237l-5.856-0.61 c-0.896,0.003-1.668,0.665-1.668,1.478c0,0.813,0.772,1.476,1.721,1.476c0.276,0,0.5,0.224,0.5,0.5s-0.224,0.5-0.5,0.5H9.53 c-0.949,0-1.72,0.661-1.72,1.474c0,0.813,0.771,1.475,1.72,1.475h0.289c0.276,0,0.5,0.224,0.5,0.5s-0.224,0.5-0.5,0.5 c-0.948,0-1.72,0.662-1.72,1.476c0,0.813,0.771,1.475,1.72,1.475h0.613c0.276,0,0.5,0.224,0.5,0.5s-0.224,0.5-0.5,0.5 C9.769,59.467,9.184,59.801,8.901,60.288z"/><rect width="5.103" height="1" x="12.37" y="50.871" fill="#63312d"/><rect width="5.103" height="1" x="12.37" y="54.517" fill="#63312d"/><rect width="5.103" height="1" x="12.37" y="58.162" fill="#63312d"/><path fill="#fffeff" d="M38.403,53.193c0,1.003,0.922,1.823,2.05,1.823h0.661c-1.127,0-2.05,0.82-2.05,1.823 c0,1.002,0.923,1.822,2.05,1.822h0.769c-1.128,0-2.049,0.821-2.049,1.824c0,0.104,0.016,0.204,0.035,0.302H50.06 c-0.09-1.014-1.041-1.821-2.203-1.821h0.613c1.221,0,2.22-0.889,2.22-1.975c0-1.087-0.998-1.976-2.22-1.976h0.289 c1.222,0,2.22-0.889,2.22-1.975c0-1.086-0.998-1.974-2.22-1.974h-0.902c1.221,0,2.221-0.89,2.221-1.976 c0-1.086-1-1.975-2.221-1.975l-5.804,0.607h-1.237c-1.129,0-2.05,0.821-2.05,1.823c0,1.003,0.921,1.824,2.05,1.824h-0.363 C39.325,51.371,38.403,52.191,38.403,53.193z"/><path fill="#fffeff" d="M41.064,56.84c0-1.003,0.923-1.823,2.05-1.823h-0.661c-1.128,0-2.05-0.82-2.05-1.823 c0-1.002,0.922-1.822,2.05-1.822h0.363c-1.129,0-2.05-0.821-2.05-1.824c0-0.737,0.501-1.48,1.214-1.823h-1.164 c-1.129,0-2.05,0.821-2.05,1.823c0,1.003,0.921,1.824,2.05,1.824h-0.363c-1.128,0-2.05,0.82-2.05,1.822 c0,1.003,0.922,1.823,2.05,1.823h0.661c-1.127,0-2.05,0.82-2.05,1.823c0,1.002,0.923,1.822,2.05,1.822h0.769 c-1.128,0-2.049,0.821-2.049,1.824c0,0.104,0.016,0.204,0.035,0.302h2c-0.019-0.099-0.035-0.199-0.035-0.302 c0-1.003,0.921-1.824,2.049-1.824h-0.769C41.987,58.662,41.064,57.842,41.064,56.84z"/><path fill="#63312d" d="M50.061,61.288H39.869c-0.24,0-0.445-0.17-0.491-0.405c-0.025-0.129-0.044-0.261-0.044-0.397 c0-0.6,0.25-1.147,0.661-1.56c-0.847-0.378-1.431-1.171-1.431-2.086c0-0.616,0.265-1.177,0.696-1.593 c-0.807-0.391-1.357-1.165-1.357-2.053c0-0.817,0.466-1.538,1.17-1.952c-0.496-0.424-0.807-1.027-0.807-1.694 c0-1.281,1.144-2.323,2.55-2.323h1.237l5.751-0.604c0.002,0,0.004,0,0.006,0c1.55,0,2.767,1.109,2.767,2.472 c0,0.649-0.276,1.241-0.728,1.684c0.958,0.383,1.629,1.254,1.629,2.266c0,0.867-0.493,1.632-1.237,2.074 c0.58,0.455,0.948,1.127,0.948,1.877c0,0.944-0.584,1.767-1.442,2.184c0.454,0.405,0.756,0.955,0.81,1.568 c0.012,0.14-0.035,0.278-0.129,0.381S50.201,61.288,50.061,61.288z M40.352,60.288h9.036c-0.282-0.487-0.868-0.821-1.53-0.821 c-0.276,0-0.5-0.224-0.5-0.5s0.224-0.5,0.5-0.5h0.613c0.948,0,1.72-0.662,1.72-1.475c0-0.813-0.771-1.476-1.72-1.476 c-0.276,0-0.5-0.224-0.5-0.5s0.224-0.5,0.5-0.5h0.289c0.949,0,1.72-0.662,1.72-1.475c0-0.812-0.771-1.474-1.72-1.474h-0.902 c-0.276,0-0.5-0.224-0.5-0.5s0.224-0.5,0.5-0.5c0.949,0,1.721-0.662,1.721-1.476c0-0.813-0.772-1.475-1.721-1.475l-5.751,0.604 l-1.29,0.003c-0.854,0-1.55,0.593-1.55,1.323c0,0.73,0.695,1.324,1.55,1.324c0.276,0,0.5,0.224,0.5,0.5s-0.224,0.5-0.5,0.5h-0.363 c-0.855,0-1.55,0.593-1.55,1.322c0,0.729,0.695,1.323,1.55,1.323h0.661c0.276,0,0.5,0.224,0.5,0.5s-0.224,0.5-0.5,0.5 c-0.855,0-1.55,0.594-1.55,1.323c0,0.729,0.695,1.322,1.55,1.322h0.769c0.276,0,0.5,0.224,0.5,0.5s-0.224,0.5-0.5,0.5 C41.108,59.162,40.464,59.652,40.352,60.288z"/><rect width="5.103" height="1" x="40.816" y="50.871" fill="#63312d"/><rect width="5.103" height="1" x="40.816" y="54.517" fill="#63312d"/><rect width="5.103" height="1" x="40.816" y="58.162" fill="#63312d"/><rect width="5.718" height="1" x="19.413" y="45.989" fill="#63312d"/><rect width="8.417" height="1" x="19.413" y="48.46" fill="#63312d"/></svg>