<svg xmlns="http://www.w3.org/2000/svg"  viewBox="0 0 64 64" width="64px" height="64px"><path fill="#d1d1d1" d="M43.755,9.419l-1.927-0.672L25.887,54.464l1.931,0.673c0.532,0.185,1.113-0.096,1.299-0.627l14.382-41.248 c0.668-0.138,1.248-0.606,1.488-1.295C45.35,10.924,44.799,9.783,43.755,9.419z"/><path fill="#63312d" d="M28.151,55.694c-0.165,0-0.333-0.027-0.498-0.084l-1.931-0.673c-0.261-0.091-0.398-0.376-0.308-0.637 L41.356,8.583c0.043-0.125,0.135-0.228,0.254-0.286c0.12-0.058,0.258-0.065,0.383-0.022l1.926,0.672 c1.303,0.454,1.993,1.883,1.54,3.186c-0.259,0.741-0.837,1.302-1.576,1.544L29.588,54.675 C29.37,55.301,28.78,55.694,28.151,55.694z M26.523,54.157l1.458,0.509c0.268,0.093,0.567-0.049,0.662-0.32l14.382-41.248 c0.058-0.166,0.198-0.29,0.37-0.325c0.526-0.109,0.944-0.471,1.118-0.97c0.271-0.782-0.143-1.64-0.924-1.912 c-0.001,0-0.001,0-0.001,0l-1.454-0.507L26.523,54.157z"/><path fill="#f8f3f3" d="M43.06,11.297c0.363-1.044-0.187-2.186-1.232-2.55c-1.043-0.364-2.186,0.187-2.549,1.231 c-0.242,0.692-0.074,1.422,0.365,1.945L25.264,53.167c-0.186,0.532,0.096,1.114,0.628,1.299c0.532,0.185,1.113-0.096,1.298-0.627 l14.384-41.248C42.239,12.452,42.82,11.986,43.06,11.297z"/><path fill="#63312d" d="M26.229,55.024c-0.168,0-0.337-0.028-0.501-0.085c-0.384-0.133-0.692-0.408-0.869-0.774 s-0.201-0.778-0.067-1.162l14.293-40.994c-0.433-0.651-0.538-1.453-0.277-2.196c0.219-0.63,0.672-1.138,1.273-1.429 c0.604-0.29,1.283-0.328,1.912-0.109c1.302,0.454,1.993,1.883,1.54,3.187h-0.001c-0.258,0.74-0.835,1.3-1.573,1.543L27.662,54.003 c-0.133,0.383-0.408,0.691-0.773,0.868C26.679,54.973,26.454,55.024,26.229,55.024z M41.168,9.135c-0.223,0-0.445,0.05-0.651,0.15 c-0.361,0.174-0.634,0.479-0.765,0.857c-0.176,0.5-0.072,1.045,0.275,1.459c0.113,0.135,0.147,0.32,0.089,0.486l-14.38,41.244 c-0.046,0.131-0.038,0.272,0.023,0.397c0.061,0.125,0.166,0.219,0.297,0.265c0.132,0.046,0.273,0.038,0.397-0.023 c0.125-0.06,0.219-0.166,0.264-0.296l14.384-41.248c0.058-0.166,0.197-0.289,0.369-0.325c0.526-0.11,0.944-0.473,1.118-0.97 c0.271-0.782-0.144-1.641-0.926-1.913C41.502,9.163,41.335,9.135,41.168,9.135z"/><path fill="#f9a287" d="M56.031,19.34c-0.699,1.998-1.046,2.998-1.742,4.997c2.049,0.551,3.036,0.931,4.76,2.417 c0.695-1.998,1.045-2.997,1.742-4.996C59.067,20.273,58.078,19.893,56.031,19.34z"/><path fill="#f9dd9d" d="M52.547,29.333c2.047,0.552,3.037,0.932,4.76,2.418c0.697-1.999,1.045-2.997,1.742-4.996 c-1.724-1.487-2.711-1.867-4.76-2.417C53.592,26.335,53.243,27.334,52.547,29.333z"/><path fill="#f9a287" d="M50.805,34.329c2.047,0.552,3.037,0.931,4.76,2.418c0.697-1.999,1.045-2.998,1.742-4.996 c-1.723-1.487-2.713-1.867-4.76-2.418C51.85,31.331,51.5,32.33,50.805,34.329z"/><path fill="#f9dd9d" d="M54.289,24.337c0.696-1.999,1.043-2.999,1.742-4.997c-2.051-0.552-3.146-0.62-5.305-0.86 c-0.697,1.998-1.045,2.997-1.742,4.996C51.143,23.716,52.238,23.786,54.289,24.337z"/><path fill="#f9a287" d="M47.243,28.472c2.157,0.239,3.253,0.309,5.304,0.86c0.696-1.998,1.045-2.997,1.742-4.995 c-2.051-0.552-3.146-0.621-5.305-0.861C48.287,25.474,47.939,26.473,47.243,28.472z"/><path fill="#f9dd9d" d="M47.243,28.472c-0.696,1.998-1.046,2.997-1.743,4.996c2.158,0.239,3.254,0.309,5.305,0.86 c0.695-1.999,1.045-2.998,1.742-4.996C50.496,28.781,49.4,28.711,47.243,28.472z"/><path fill="#f9a287" d="M48.984,23.476c0.697-1.999,1.045-2.998,1.742-4.996c-2.158-0.24-3.256-0.31-5.305-0.861 c-0.697,1.999-1.045,2.997-1.742,4.996C45.728,23.165,46.826,23.236,48.984,23.476z"/><path fill="#f9dd9d" d="M43.68,22.614c-0.697,1.998-1.043,2.997-1.74,4.996c2.049,0.552,3.146,0.622,5.304,0.862 c0.696-1.999,1.044-2.998,1.741-4.996C46.826,23.236,45.728,23.165,43.68,22.614z"/><path fill="#f9a287" d="M41.939,27.61c-0.697,1.999-1.047,2.997-1.744,4.996c2.051,0.552,3.146,0.621,5.305,0.862 c0.697-1.999,1.047-2.998,1.743-4.996C45.086,28.232,43.988,28.162,41.939,27.61z"/><path fill="#f9dd9d" d="M45.422,17.619c-2.048-0.552-3.035-0.932-4.758-2.418c-0.697,1.998-1.045,2.997-1.742,4.996 c1.723,1.486,2.709,1.864,4.758,2.417C44.377,20.615,44.725,19.618,45.422,17.619z"/><path fill="#ffeecf" d="M41.182,19.388c0.417-1.195,0.738-2.115,1.051-3.013c-0.485-0.299-0.984-0.669-1.568-1.174 c-0.697,1.998-1.045,2.997-1.742,4.996c0.584,0.504,1.083,0.875,1.568,1.174C40.698,20.774,40.92,20.138,41.182,19.388z"/><path fill="#f9a287" d="M43.68,22.614c-2.049-0.553-3.035-0.931-4.758-2.417c-0.697,1.998-1.045,2.997-1.742,4.995 c1.723,1.486,2.711,1.866,4.76,2.418C42.637,25.611,42.982,24.612,43.68,22.614z"/><path fill="#ffc8bb" d="M38.906,25.91c0.649-1.859,1.068-3.061,1.584-4.539c-0.485-0.299-0.984-0.669-1.568-1.174 c-0.697,1.998-1.045,2.997-1.742,4.995c0.584,0.504,1.083,0.874,1.568,1.174C38.801,26.214,38.851,26.071,38.906,25.91z"/><path fill="#f9dd9d" d="M37.18,25.192c-0.696,1.999-1.045,2.998-1.742,4.996c1.723,1.487,2.711,1.866,4.758,2.418 c0.697-1.999,1.047-2.997,1.744-4.996C39.891,27.059,38.902,26.678,37.18,25.192z"/><path fill="#ffeecf" d="M37.18,25.192c-0.696,1.999-1.045,2.998-1.742,4.996c0.585,0.505,1.084,0.875,1.568,1.175 c0.63-1.804,1.064-3.053,1.742-4.997C38.263,26.066,37.764,25.696,37.18,25.192z"/><path fill="#63312d" d="M59.049,27.255c-0.118,0-0.234-0.042-0.326-0.122c-1.673-1.442-2.58-1.78-4.563-2.313 c-0.134-0.036-0.247-0.126-0.312-0.249c-0.064-0.123-0.075-0.267-0.03-0.398l1.743-4.998c0.086-0.247,0.352-0.386,0.602-0.318 c2.055,0.554,3.145,0.96,4.956,2.522c0.156,0.134,0.214,0.35,0.146,0.543l-1.741,4.996c-0.055,0.156-0.184,0.275-0.343,0.318 C59.136,27.25,59.092,27.255,59.049,27.255z M54.937,23.997c1.527,0.432,2.526,0.843,3.876,1.914l1.393-3.992 c-1.387-1.154-2.27-1.527-3.856-1.972L54.937,23.997z"/><path fill="#63312d" d="M57.307,32.251c-0.118,0-0.234-0.042-0.327-0.122c-1.669-1.44-2.576-1.779-4.562-2.314 c-0.135-0.036-0.247-0.126-0.312-0.25c-0.064-0.123-0.075-0.267-0.029-0.398l1.742-4.995c0.086-0.247,0.351-0.387,0.602-0.318 c2.054,0.552,3.143,0.958,4.956,2.522c0.156,0.134,0.214,0.349,0.146,0.543l-1.742,4.996c-0.054,0.156-0.183,0.275-0.343,0.318 C57.394,32.246,57.35,32.251,57.307,32.251z M53.195,28.993c1.529,0.433,2.528,0.844,3.876,1.914l1.393-3.992 c-1.388-1.155-2.271-1.528-3.856-1.971L53.195,28.993z"/><path fill="#63312d" d="M55.564,37.247c-0.118,0-0.234-0.042-0.327-0.122c-1.668-1.44-2.576-1.778-4.562-2.314 c-0.135-0.036-0.247-0.126-0.312-0.249c-0.064-0.123-0.075-0.267-0.03-0.398l1.743-4.997c0.086-0.247,0.351-0.385,0.602-0.318 c2.057,0.554,3.146,0.96,4.957,2.523c0.155,0.134,0.213,0.35,0.145,0.543l-1.742,4.996c-0.054,0.156-0.183,0.276-0.343,0.318 C55.651,37.242,55.607,37.247,55.564,37.247z M51.453,33.989c1.529,0.433,2.529,0.844,3.876,1.914l1.393-3.992 c-1.385-1.153-2.269-1.527-3.856-1.972L51.453,33.989z"/><path fill="#63312d" d="M54.289,24.837c-0.043,0-0.087-0.005-0.13-0.017c-1.749-0.471-2.763-0.58-4.441-0.761l-0.789-0.086 c-0.151-0.017-0.286-0.102-0.367-0.23s-0.1-0.288-0.049-0.431l1.742-4.996c0.076-0.22,0.295-0.357,0.527-0.333l0.796,0.087 c1.664,0.18,2.763,0.298,4.583,0.788c0.134,0.036,0.247,0.126,0.312,0.25c0.064,0.123,0.075,0.268,0.029,0.398l-1.741,4.997 C54.689,24.707,54.497,24.837,54.289,24.837z M49.663,23.047l0.162,0.018c1.526,0.165,2.578,0.278,4.144,0.672l1.411-4.049 c-1.44-0.357-2.408-0.462-3.909-0.624l-0.403-0.044L49.663,23.047z"/><path fill="#63312d" d="M52.547,29.833c-0.043,0-0.087-0.005-0.13-0.017c-1.754-0.472-2.771-0.581-4.456-0.762l-0.772-0.084 c-0.151-0.017-0.287-0.102-0.368-0.23c-0.081-0.128-0.1-0.287-0.05-0.431l1.742-4.996c0.076-0.22,0.298-0.359,0.527-0.333 l0.785,0.086c1.668,0.18,2.771,0.299,4.594,0.79c0.134,0.036,0.247,0.126,0.312,0.25c0.064,0.123,0.075,0.267,0.029,0.398 l-1.742,4.995C52.947,29.702,52.755,29.833,52.547,29.833z M47.922,28.043l0.146,0.016c1.532,0.165,2.589,0.278,4.159,0.674 l1.412-4.047c-1.445-0.359-2.416-0.463-3.921-0.626l-0.393-0.043L47.922,28.043z"/><path fill="#63312d" d="M50.805,34.829c-0.043,0-0.087-0.005-0.13-0.017c-1.754-0.472-2.771-0.582-4.458-0.763l-0.771-0.083 c-0.151-0.017-0.287-0.102-0.368-0.23s-0.1-0.288-0.049-0.431l1.743-4.996c0.076-0.219,0.28-0.359,0.526-0.333l0.77,0.083 c1.674,0.18,2.78,0.299,4.609,0.791c0.134,0.036,0.247,0.126,0.312,0.25c0.064,0.123,0.075,0.267,0.029,0.398l-1.741,4.996 C51.205,34.698,51.013,34.829,50.805,34.829z M46.18,33.039l0.145,0.016c1.532,0.165,2.589,0.278,4.16,0.674l1.411-4.048 c-1.449-0.36-2.424-0.465-3.935-0.627l-0.377-0.041L46.18,33.039z"/><path fill="#63312d" d="M48.984,23.976c-0.019,0-0.037-0.001-0.056-0.003l-0.772-0.084c-1.674-0.181-2.78-0.301-4.606-0.792 c-0.134-0.036-0.247-0.126-0.312-0.249c-0.064-0.123-0.075-0.268-0.029-0.398l1.742-4.996c0.086-0.248,0.352-0.387,0.602-0.318 c1.746,0.47,2.76,0.58,4.439,0.761l0.791,0.086c0.151,0.017,0.286,0.102,0.367,0.23s0.1,0.288,0.049,0.431l-1.742,4.996 C49.386,23.843,49.195,23.976,48.984,23.976z M44.331,22.266c1.447,0.36,2.422,0.465,3.933,0.628l0.38,0.042l1.404-4.027 l-0.164-0.018c-1.526-0.165-2.579-0.278-4.142-0.672L44.331,22.266z"/><path fill="#63312d" d="M47.243,28.972c-0.019,0-0.037-0.001-0.056-0.003l-0.782-0.085c-1.67-0.181-2.772-0.3-4.596-0.791 c-0.134-0.036-0.247-0.126-0.312-0.25c-0.064-0.123-0.075-0.267-0.029-0.398l1.74-4.996c0.086-0.248,0.351-0.386,0.602-0.318 c1.751,0.471,2.769,0.581,4.454,0.763l0.776,0.084c0.151,0.017,0.286,0.102,0.367,0.23s0.1,0.288,0.049,0.431l-1.74,4.996 C47.645,28.839,47.454,28.972,47.243,28.972z M42.59,27.263c1.444,0.359,2.416,0.464,3.923,0.627l0.39,0.042l1.403-4.027 l-0.149-0.016c-1.532-0.166-2.588-0.28-4.156-0.674L42.59,27.263z"/><path fill="#63312d" d="M45.5,33.968c-0.019,0-0.037-0.001-0.056-0.003l-0.798-0.087c-1.663-0.18-2.762-0.299-4.581-0.789 c-0.134-0.036-0.247-0.126-0.312-0.25c-0.064-0.123-0.075-0.267-0.029-0.398l1.744-4.996c0.086-0.247,0.352-0.386,0.602-0.318 c1.748,0.471,2.763,0.581,4.443,0.762l0.786,0.085c0.151,0.017,0.286,0.102,0.367,0.23s0.1,0.288,0.049,0.431l-1.743,4.996 C45.901,33.835,45.711,33.968,45.5,33.968z M40.847,32.259c1.439,0.357,2.407,0.462,3.908,0.625l0.404,0.044l1.405-4.027 l-0.159-0.017c-1.527-0.165-2.581-0.279-4.146-0.673L40.847,32.259z"/><path fill="#63312d" d="M43.68,23.114c-0.043,0-0.087-0.005-0.13-0.017c-2.056-0.555-3.146-0.96-4.954-2.521 c-0.156-0.134-0.214-0.349-0.146-0.543l1.742-4.996c0.054-0.156,0.183-0.275,0.343-0.318c0.156-0.044,0.33-0.004,0.455,0.104 c1.67,1.44,2.577,1.778,4.562,2.313c0.135,0.036,0.247,0.126,0.312,0.25c0.064,0.123,0.075,0.267,0.029,0.398l-1.742,4.996 C44.08,22.984,43.888,23.114,43.68,23.114z M39.507,20.038c1.384,1.152,2.268,1.525,3.854,1.97l1.412-4.05 c-1.527-0.433-2.526-0.844-3.874-1.913L39.507,20.038z"/><path fill="#63312d" d="M41.939,28.11c-0.043,0-0.087-0.005-0.13-0.017c-2.055-0.553-3.145-0.959-4.956-2.522 c-0.156-0.134-0.214-0.349-0.146-0.543l1.742-4.995c0.054-0.156,0.183-0.275,0.343-0.318c0.157-0.045,0.329-0.004,0.455,0.104 c1.669,1.439,2.576,1.777,4.562,2.312c0.135,0.036,0.247,0.126,0.312,0.25c0.064,0.123,0.075,0.267,0.029,0.398l-1.74,4.996 C42.34,27.98,42.147,28.11,41.939,28.11z M37.765,25.033c1.387,1.154,2.27,1.527,3.856,1.972l1.411-4.051 c-1.529-0.433-2.527-0.844-3.875-1.913L37.765,25.033z"/><path fill="#63312d" d="M40.195,33.106c-0.043,0-0.087-0.005-0.13-0.017c-2.055-0.554-3.145-0.96-4.955-2.522 c-0.155-0.134-0.213-0.35-0.145-0.543l1.741-4.996c0.055-0.156,0.184-0.275,0.343-0.318c0.161-0.045,0.33-0.004,0.456,0.104 c1.672,1.441,2.579,1.779,4.563,2.313c0.134,0.036,0.247,0.126,0.312,0.25c0.064,0.123,0.075,0.267,0.029,0.398l-1.744,4.996 C40.596,32.976,40.403,33.106,40.195,33.106z M36.022,30.029c1.385,1.153,2.268,1.526,3.854,1.971l1.414-4.05 c-1.528-0.432-2.527-0.843-3.876-1.914L36.022,30.029z"/><path fill="#d1d1d1" d="M22.195,8.928l-1.927,0.672l15.968,45.708l1.93-0.674c0.532-0.187,0.812-0.768,0.627-1.299L24.386,12.097 c0.437-0.523,0.6-1.25,0.359-1.939C24.38,9.114,23.238,8.563,22.195,8.928z"/><path fill="#63312d" d="M36.236,55.809c-0.207,0-0.4-0.129-0.472-0.335L19.796,9.766c-0.043-0.125-0.036-0.263,0.022-0.382 s0.16-0.211,0.286-0.255l1.926-0.672c0.63-0.222,1.31-0.182,1.911,0.107c0.602,0.29,1.055,0.797,1.276,1.428 c0.258,0.742,0.155,1.54-0.272,2.189l14.32,40.99c0.276,0.791-0.143,1.659-0.934,1.936l-1.93,0.674 C36.347,55.8,36.291,55.809,36.236,55.809z M20.906,9.908l15.638,44.765l1.457-0.509c0.271-0.095,0.414-0.392,0.32-0.662 L23.914,12.262c-0.058-0.166-0.024-0.351,0.088-0.485c0.344-0.412,0.445-0.956,0.271-1.455c-0.132-0.378-0.404-0.683-0.766-0.857 C23.146,9.29,22.738,9.269,22.36,9.4c0,0,0,0,0,0L20.906,9.908z"/><path fill="#f8f3f3" d="M22.819,10.831c-0.363-1.044-1.506-1.594-2.551-1.23c-1.043,0.365-1.594,1.506-1.229,2.55 c0.241,0.692,0.827,1.159,1.496,1.295l14.406,41.236c0.186,0.531,0.768,0.812,1.3,0.626c0.532-0.186,0.812-0.768,0.626-1.299 L22.462,12.769C22.896,12.246,23.06,11.519,22.819,10.831z"/><path fill="#63312d" d="M35.906,55.865c-0.629,0-1.219-0.393-1.437-1.018L20.15,13.861c-0.743-0.241-1.324-0.802-1.583-1.546 c-0.454-1.302,0.235-2.731,1.537-3.187c0.632-0.22,1.312-0.181,1.913,0.109c0.603,0.29,1.055,0.798,1.275,1.429 c0.259,0.739,0.156,1.538-0.271,2.188l14.318,40.99c0.276,0.792-0.142,1.66-0.933,1.937 C36.241,55.838,36.072,55.865,35.906,55.865z M20.93,9.988c-0.167,0-0.334,0.028-0.497,0.085 c-0.781,0.273-1.195,1.131-0.922,1.914c0.174,0.5,0.594,0.862,1.124,0.97c0.173,0.035,0.314,0.159,0.373,0.325l14.406,41.236 c0.095,0.27,0.393,0.417,0.663,0.319c0.271-0.094,0.413-0.392,0.319-0.662L21.99,12.935c-0.058-0.166-0.024-0.35,0.087-0.484 c0.343-0.414,0.444-0.957,0.271-1.454c0,0,0-0.001,0-0.001c-0.132-0.378-0.403-0.683-0.765-0.857 C21.375,10.038,21.153,9.988,20.93,9.988z"/><path fill="#f9a287" d="M7.97,19.34c0.698,1.998,1.045,2.998,1.742,4.997c-2.049,0.551-3.037,0.931-4.76,2.417 c-0.696-1.998-1.045-2.997-1.742-4.996C4.933,20.273,5.922,19.893,7.97,19.34z"/><path fill="#ffc8bb" d="M4.786,20.58c-0.488,0.3-0.988,0.672-1.576,1.179c0.697,1.999,1.046,2.998,1.742,4.996 c0.588-0.507,1.088-0.879,1.576-1.18C5.868,23.68,5.447,22.476,4.786,20.58z"/><path fill="#f9dd9d" d="M11.454,29.333c-2.048,0.552-3.037,0.932-4.761,2.418c-0.696-1.999-1.044-2.997-1.741-4.996 c1.723-1.487,2.711-1.867,4.76-2.417C10.409,26.335,10.757,27.334,11.454,29.333z"/><path fill="#ffeecf" d="M6.73,26.154c-0.071-0.205-0.136-0.39-0.202-0.579c-0.488,0.301-0.988,0.672-1.576,1.18 c0.697,1.999,1.045,2.997,1.741,4.996c0.588-0.507,1.089-0.879,1.577-1.18C7.762,29.112,7.362,27.966,6.73,26.154z"/><path fill="#f9a287" d="M13.196,34.329c-2.048,0.552-3.037,0.931-4.761,2.418c-0.696-1.999-1.045-2.998-1.742-4.996 c1.724-1.487,2.713-1.867,4.761-2.418C12.15,31.331,12.5,32.33,13.196,34.329z"/><path fill="#ffc8bb" d="M8.27,30.571c-0.488,0.301-0.989,0.672-1.577,1.18c0.697,1.998,1.046,2.997,1.742,4.996 c0.588-0.507,1.089-0.879,1.577-1.179c-0.344-0.985-0.68-1.948-1.138-3.26C8.648,31.658,8.453,31.095,8.27,30.571z"/><path fill="#f9dd9d" d="M9.712,24.337c-0.697-1.999-1.044-2.999-1.742-4.997c2.05-0.552,3.147-0.62,5.305-0.86 c0.696,1.998,1.045,2.997,1.741,4.996C12.858,23.716,11.762,23.786,9.712,24.337z"/><path fill="#f9a287" d="M16.757,28.472c-2.157,0.239-3.253,0.309-5.303,0.86c-0.697-1.998-1.045-2.997-1.742-4.995 c2.05-0.552,3.146-0.621,5.304-0.861C15.713,25.474,16.06,26.473,16.757,28.472z"/><path fill="#f9dd9d" d="M16.757,28.472c0.697,1.998,1.047,2.997,1.743,4.996c-2.158,0.239-3.254,0.309-5.304,0.86 c-0.696-1.999-1.046-2.998-1.742-4.996C13.504,28.781,14.6,28.711,16.757,28.472z"/><path fill="#f9a287" d="M15.016,23.476c-0.696-1.999-1.045-2.998-1.741-4.996c2.157-0.24,3.255-0.31,5.304-0.861 c0.697,1.999,1.045,2.997,1.742,4.996C18.271,23.165,17.174,23.236,15.016,23.476z"/><path fill="#f9dd9d" d="M20.32,22.614c0.696,1.998,1.044,2.997,1.741,4.996c-2.049,0.552-3.146,0.622-5.305,0.862 c-0.696-1.999-1.044-2.998-1.741-4.996C17.174,23.236,18.271,23.165,20.32,22.614z"/><path fill="#f9a287" d="M22.061,27.61c0.696,1.999,1.046,2.997,1.743,4.996c-2.05,0.552-3.146,0.621-5.305,0.862 c-0.696-1.999-1.046-2.998-1.743-4.996C18.915,28.232,20.013,28.162,22.061,27.61z"/><path fill="#f9dd9d" d="M18.578,17.619c2.048-0.552,3.036-0.932,4.758-2.418c0.697,1.998,1.045,2.997,1.742,4.996 c-1.722,1.486-2.709,1.864-4.758,2.417C19.623,20.615,19.275,19.618,18.578,17.619z"/><path fill="#f9a287" d="M20.32,22.614c2.049-0.553,3.036-0.931,4.758-2.417c0.697,1.998,1.045,2.997,1.742,4.995 c-1.723,1.486-2.711,1.866-4.759,2.418C21.364,25.611,21.017,24.612,20.32,22.614z"/><path fill="#f9dd9d" d="M26.82,25.192c0.696,1.999,1.045,2.998,1.742,4.996c-1.723,1.487-2.71,1.866-4.758,2.418 c-0.697-1.999-1.047-2.997-1.743-4.996C24.109,27.059,25.098,26.678,26.82,25.192z"/><path fill="#63312d" d="M4.952,27.255c-0.043,0-0.087-0.005-0.129-0.017c-0.16-0.043-0.288-0.162-0.343-0.318l-1.742-4.996 c-0.067-0.194-0.01-0.409,0.146-0.543c1.812-1.562,2.901-1.969,4.956-2.523c0.255-0.068,0.516,0.071,0.603,0.318l1.742,4.998 c0.046,0.131,0.035,0.275-0.03,0.398c-0.065,0.123-0.178,0.213-0.312,0.249c-1.985,0.534-2.892,0.871-4.563,2.313 C5.187,27.213,5.071,27.255,4.952,27.255z M3.795,21.918l1.392,3.992c1.35-1.07,2.348-1.481,3.877-1.913l-1.413-4.051 C6.064,20.391,5.181,20.765,3.795,21.918z"/><path fill="#63312d" d="M6.693,32.251c-0.043,0-0.087-0.005-0.129-0.017c-0.16-0.043-0.288-0.162-0.343-0.318L4.48,26.919 c-0.067-0.194-0.01-0.409,0.146-0.543c1.812-1.564,2.902-1.97,4.957-2.522c0.255-0.068,0.516,0.071,0.602,0.318l1.742,4.995 c0.046,0.131,0.035,0.275-0.03,0.398c-0.064,0.123-0.178,0.213-0.312,0.25c-1.985,0.535-2.893,0.873-4.564,2.314 C6.928,32.209,6.812,32.251,6.693,32.251z M5.537,26.914l1.392,3.993c1.349-1.07,2.348-1.481,3.877-1.914l-1.413-4.05 C7.807,25.387,6.923,25.759,5.537,26.914z"/><path fill="#63312d" d="M8.436,37.247c-0.043,0-0.087-0.005-0.129-0.017c-0.16-0.043-0.288-0.162-0.343-0.318l-1.742-4.996 c-0.067-0.194-0.01-0.409,0.146-0.543c1.812-1.563,2.902-1.969,4.958-2.523c0.255-0.067,0.516,0.071,0.602,0.318l1.742,4.996 c0.046,0.131,0.035,0.275-0.03,0.398c-0.065,0.123-0.178,0.213-0.312,0.249c-1.986,0.535-2.894,0.873-4.564,2.314 C8.67,37.205,8.554,37.247,8.436,37.247z M7.278,31.91l1.392,3.993c1.349-1.07,2.348-1.481,3.878-1.914l-1.413-4.051 C9.548,30.383,8.665,30.756,7.278,31.91z"/><path fill="#63312d" d="M9.712,24.837c-0.208,0-0.4-0.13-0.472-0.335l-1.742-4.997c-0.046-0.131-0.035-0.275,0.03-0.398 c0.065-0.123,0.178-0.213,0.312-0.25c1.819-0.489,2.918-0.608,4.583-0.788l0.797-0.087c0.231-0.023,0.45,0.112,0.527,0.333 l1.741,4.996c0.05,0.144,0.032,0.302-0.049,0.431s-0.216,0.213-0.368,0.23l-0.79,0.086c-1.679,0.182-2.692,0.291-4.439,0.761 C9.798,24.832,9.755,24.837,9.712,24.837z M8.621,19.688l1.412,4.049c1.563-0.394,2.616-0.507,4.142-0.672l0.163-0.018 l-1.404-4.027l-0.404,0.044C11.028,19.226,10.06,19.331,8.621,19.688z"/><path fill="#63312d" d="M11.454,29.833c-0.208,0-0.4-0.13-0.472-0.335L9.24,24.502c-0.046-0.131-0.035-0.275,0.03-0.398 c0.064-0.123,0.178-0.213,0.312-0.25c1.822-0.49,2.924-0.609,4.592-0.79l0.787-0.086c0.231-0.023,0.45,0.112,0.527,0.333 l1.741,4.996c0.05,0.144,0.032,0.303-0.049,0.431c-0.081,0.129-0.217,0.213-0.368,0.23l-0.772,0.084 c-1.685,0.181-2.702,0.29-4.456,0.762C11.541,29.827,11.497,29.833,11.454,29.833z M10.363,24.685l1.412,4.047 c1.57-0.396,2.626-0.509,4.158-0.674l0.146-0.016l-1.404-4.027l-0.393,0.043C12.776,24.222,11.806,24.327,10.363,24.685z"/><path fill="#63312d" d="M13.196,34.829c-0.208,0-0.401-0.13-0.472-0.335l-1.742-4.996c-0.046-0.131-0.035-0.275,0.03-0.398 c0.065-0.123,0.178-0.213,0.312-0.249c1.829-0.492,2.935-0.611,4.608-0.791l0.769-0.083c0.232-0.023,0.45,0.112,0.527,0.333 l1.743,4.996c0.05,0.144,0.032,0.303-0.049,0.431c-0.081,0.129-0.217,0.214-0.368,0.23l-0.772,0.083 c-1.686,0.181-2.704,0.291-4.457,0.763C13.283,34.823,13.239,34.829,13.196,34.829z M12.105,29.68l1.412,4.048 c1.57-0.396,2.627-0.509,4.16-0.674l0.145-0.016l-1.405-4.027l-0.376,0.041C14.528,29.215,13.554,29.32,12.105,29.68z"/><path fill="#63312d" d="M15.015,23.976c-0.21,0-0.401-0.133-0.472-0.335l-1.741-4.996c-0.05-0.144-0.032-0.302,0.049-0.431 s0.216-0.213,0.368-0.23l0.791-0.086c1.679-0.181,2.692-0.291,4.438-0.761c0.255-0.069,0.516,0.071,0.602,0.318l1.742,4.996 c0.046,0.131,0.035,0.275-0.03,0.398c-0.065,0.123-0.178,0.213-0.312,0.249c-1.827,0.491-2.933,0.61-4.606,0.792l-0.773,0.084 C15.052,23.975,15.034,23.976,15.015,23.976z M13.954,18.909l1.403,4.027l0.379-0.042c1.511-0.164,2.485-0.269,3.933-0.628 l-1.412-4.047c-1.562,0.394-2.615,0.507-4.141,0.672L13.954,18.909z"/><path fill="#63312d" d="M16.756,28.972c-0.21,0-0.401-0.133-0.472-0.335l-1.741-4.996c-0.05-0.144-0.032-0.302,0.049-0.431 c0.081-0.129,0.216-0.213,0.368-0.23l0.776-0.084c1.686-0.182,2.703-0.292,4.454-0.763c0.256-0.068,0.517,0.071,0.602,0.318 l1.741,4.996c0.046,0.131,0.035,0.275-0.03,0.398c-0.064,0.123-0.178,0.213-0.312,0.25c-1.823,0.491-2.927,0.61-4.598,0.791 l-0.782,0.085C16.793,28.971,16.775,28.972,16.756,28.972z M15.695,23.905l1.403,4.027l0.388-0.042 c1.508-0.163,2.48-0.268,3.924-0.627L20,23.214c-1.568,0.395-2.625,0.509-4.156,0.674L15.695,23.905z"/><path fill="#63312d" d="M18.5,33.968c-0.21,0-0.401-0.133-0.472-0.335l-1.743-4.996c-0.05-0.144-0.032-0.302,0.049-0.431 c0.081-0.129,0.216-0.213,0.368-0.23l0.785-0.085c1.682-0.182,2.697-0.292,4.445-0.762c0.254-0.067,0.516,0.071,0.602,0.318 l1.743,4.996c0.046,0.131,0.035,0.275-0.03,0.398c-0.065,0.123-0.178,0.213-0.312,0.25c-1.818,0.489-2.917,0.608-4.581,0.789 l-0.798,0.087C18.537,33.967,18.518,33.968,18.5,33.968z M17.436,28.901l1.405,4.027l0.405-0.044 c1.5-0.162,2.468-0.267,3.907-0.625l-1.413-4.048c-1.564,0.395-2.619,0.508-4.147,0.673L17.436,28.901z"/><path fill="#63312d" d="M20.32,23.114c-0.208,0-0.4-0.13-0.472-0.335l-1.742-4.996c-0.046-0.131-0.035-0.275,0.03-0.398 c0.064-0.123,0.178-0.213,0.312-0.25c1.986-0.535,2.894-0.874,4.562-2.313c0.125-0.109,0.295-0.148,0.456-0.104 c0.16,0.042,0.288,0.162,0.343,0.318l1.742,4.996c0.067,0.194,0.01,0.409-0.146,0.543c-1.808,1.561-2.898,1.967-4.954,2.521 C20.407,23.109,20.363,23.114,20.32,23.114z M19.226,17.958l1.413,4.05c1.588-0.445,2.472-0.819,3.854-1.97l-1.392-3.992 C21.754,17.114,20.755,17.525,19.226,17.958z"/><path fill="#63312d" d="M22.062,28.11c-0.208,0-0.4-0.13-0.472-0.335l-1.741-4.996c-0.046-0.131-0.035-0.275,0.03-0.398 c0.064-0.123,0.178-0.213,0.312-0.25c1.987-0.536,2.895-0.874,4.562-2.312c0.125-0.108,0.294-0.148,0.456-0.104 c0.16,0.042,0.288,0.162,0.343,0.318l1.742,4.995c0.067,0.194,0.01,0.409-0.146,0.543c-1.812,1.563-2.901,1.969-4.956,2.522 C22.148,28.105,22.104,28.11,22.062,28.11z M20.968,22.954l1.412,4.05c1.586-0.444,2.469-0.817,3.855-1.971l-1.392-3.992 C23.497,22.109,22.498,22.521,20.968,22.954z"/><path fill="#63312d" d="M23.805,33.106c-0.208,0-0.4-0.13-0.472-0.335l-1.743-4.996c-0.046-0.131-0.035-0.275,0.03-0.398 c0.065-0.123,0.178-0.213,0.312-0.249c1.984-0.534,2.891-0.873,4.562-2.313c0.125-0.109,0.296-0.149,0.456-0.104 c0.16,0.043,0.288,0.162,0.343,0.318l1.742,4.996c0.067,0.193,0.01,0.409-0.146,0.543c-1.811,1.563-2.9,1.969-4.955,2.522 C23.891,33.101,23.848,33.106,23.805,33.106z M22.709,27.95l1.414,4.051c1.586-0.445,2.469-0.818,3.854-1.972l-1.392-3.993 C25.236,27.106,24.237,27.518,22.709,27.95z"/></svg>