<svg xmlns="http://www.w3.org/2000/svg"  viewBox="0 0 256 256" width="64px" height="64px"><path fill="#f4efed" d="M133.787,15.575C68.5,15.575,15.575,68.5,15.575,133.787C15.575,199.074,68.5,252,133.787,252 S252,199.074,252,133.787C252,68.5,199.074,15.575,133.787,15.575z M133.787,155.111c-11.777,0-21.324-9.547-21.324-21.324 s9.547-21.324,21.324-21.324c11.777,0,21.324,9.547,21.324,21.324S145.564,155.111,133.787,155.111z"/><polygon fill="#ff4397" points="36.798,17.725 17.725,36.798 28.427,55.201 55.201,28.427"/><path fill="#d6d1cf" d="M133.787,15.575c-1.676,0-3.341,0.044-5,0.113C191.754,18.308,242,70.176,242,133.787 c0,63.611-50.246,115.479-113.213,118.1c1.659,0.069,3.324,0.113,5,0.113C199.074,252,252,199.074,252,133.787 S199.074,15.575,133.787,15.575z"/><path fill="#fff" d="M133.787,252c1.676,0,3.341-0.044,5-0.113c-62.967-2.621-113.213-54.489-113.213-118.1 S75.82,18.309,138.787,15.687c-1.659-0.069-3.324-0.113-5-0.113C68.5,15.575,15.575,68.5,15.575,133.787S68.5,252,133.787,252z"/><path fill="#fcc24c" d="M133.787,81.38c-28.944,0-52.407,23.464-52.407,52.407s23.464,52.407,52.407,52.407 s52.407-23.464,52.407-52.407S162.731,81.38,133.787,81.38z M133.787,155.111c-11.777,0-21.324-9.547-21.324-21.324 s9.547-21.324,21.324-21.324c11.777,0,21.324,9.547,21.324,21.324S145.564,155.111,133.787,155.111z"/><path fill="#690589" d="M133.787,188.194c-30,0-54.407-24.407-54.407-54.407s24.407-54.407,54.407-54.407 s54.407,24.407,54.407,54.407S163.788,188.194,133.787,188.194z M133.787,83.38c-27.794,0-50.407,22.613-50.407,50.407 s22.613,50.407,50.407,50.407s50.407-22.613,50.407-50.407S161.582,83.38,133.787,83.38z M133.787,157.111 c-12.861,0-23.324-10.463-23.324-23.324s10.463-23.324,23.324-23.324s23.324,10.463,23.324,23.324 S146.648,157.111,133.787,157.111z M133.787,114.463c-10.655,0-19.324,8.668-19.324,19.324s8.668,19.324,19.324,19.324 s19.324-8.669,19.324-19.324S144.442,114.463,133.787,114.463z"/><path fill="#690589" d="M133.787,254c-66.285,0-120.212-53.927-120.212-120.213c0-66.285,53.927-120.212,120.212-120.212 C200.073,13.575,254,67.502,254,133.787C254,200.073,200.073,254,133.787,254z M133.787,17.575 c-64.08,0-116.212,52.133-116.212,116.212C17.575,197.867,69.708,250,133.787,250C197.867,250,250,197.867,250,133.787 C250,69.708,197.867,17.575,133.787,17.575z M133.787,157.111c-12.861,0-23.324-10.463-23.324-23.324s10.463-23.324,23.324-23.324 s23.324,10.463,23.324,23.324S146.648,157.111,133.787,157.111z M133.787,114.463c-10.655,0-19.324,8.668-19.324,19.324 s8.668,19.324,19.324,19.324s19.324-8.669,19.324-19.324S144.442,114.463,133.787,114.463z"/><path fill="#690589" d="M125.598,68.631c-0.332,0-0.668-0.083-0.978-0.257c-0.963-0.541-1.305-1.76-0.764-2.723l16.375-29.147 c0.541-0.962,1.762-1.304,2.723-0.764c0.963,0.541,1.305,1.76,0.764,2.723L127.343,67.61 C126.977,68.264,126.297,68.631,125.598,68.631z"/><path fill="#690589" d="M125.598,231.853c-0.332,0-0.668-0.083-0.978-0.257c-0.963-0.541-1.305-1.76-0.764-2.723l16.375-29.147 c0.541-0.962,1.762-1.305,2.723-0.764c0.963,0.541,1.305,1.76,0.764,2.723l-16.375,29.147 C126.977,231.485,126.297,231.853,125.598,231.853z"/><path fill="#690589" d="M73.17,105.896c-0.721,0-1.418-0.392-1.774-1.075L55.931,75.181c-0.511-0.979-0.131-2.188,0.848-2.698 c0.979-0.51,2.188-0.131,2.698,0.848l15.464,29.641c0.511,0.979,0.131,2.188-0.848,2.698 C73.798,105.823,73.482,105.896,73.17,105.896z"/><path fill="#690589" d="M209.872,195.081c-0.721,0-1.418-0.392-1.774-1.075l-15.465-29.641c-0.511-0.979-0.131-2.188,0.848-2.698 c0.979-0.51,2.188-0.132,2.698,0.848l15.465,29.641c0.511,0.979,0.131,2.188-0.848,2.698 C210.5,195.007,210.184,195.081,209.872,195.081z"/><path fill="#690589" d="M184.652,91.244c-1.028,0-1.902-0.788-1.99-1.831c-0.093-1.101,0.723-2.068,1.824-2.162l33.313-2.821 c1.104-0.094,2.068,0.724,2.162,1.824c0.093,1.101-0.723,2.068-1.824,2.162l-33.313,2.821 C184.766,91.242,184.709,91.244,184.652,91.244z"/><path fill="#690589" d="M49.604,182.913c-1.028,0-1.902-0.788-1.99-1.831c-0.093-1.101,0.723-2.068,1.824-2.162l33.313-2.821 c1.108-0.087,2.068,0.724,2.162,1.824c0.093,1.101-0.723,2.068-1.824,2.162l-33.313,2.821 C49.718,182.91,49.661,182.913,49.604,182.913z"/><path fill="#ff4397" d="M68.549,68.548c12.267-12.267,27.13-20.354,42.82-24.267c5.975-1.49,9.07-8.076,6.29-13.571l-6.896-13.632 c-7.322-14.474-26.65-17.564-38.119-6.094L10.984,72.644c-11.47,11.47-8.38,30.797,6.094,38.119l13.632,6.896 c5.494,2.78,12.081-0.316,13.571-6.29C48.194,95.678,56.281,80.816,68.549,68.548z"/><path fill="#690589" d="M28.427,57.201c-0.085,0-0.172-0.005-0.258-0.017c-0.616-0.08-1.159-0.441-1.471-0.978L15.996,37.804 c-0.456-0.785-0.327-1.778,0.315-2.419l19.073-19.073c0.642-0.642,1.636-0.77,2.419-0.315l18.402,10.702 c0.537,0.312,0.898,0.855,0.978,1.471c0.08,0.615-0.13,1.233-0.569,1.672L29.841,56.615 C29.464,56.992,28.954,57.201,28.427,57.201z M20.228,37.124l8.622,14.825L51.949,28.85l-14.825-8.622L20.228,37.124z"/><path fill="#690589" d="M46.226,72.744c-1.988,0-3.858-0.774-5.264-2.181L27.013,56.615c-0.781-0.781-0.781-2.047,0-2.828 l26.773-26.773c0.78-0.781,2.048-0.781,2.828,0l13.948,13.948c1.406,1.406,2.181,3.276,2.181,5.264 c0,1.989-0.774,3.858-2.181,5.264L51.49,70.563C50.084,71.969,48.214,72.744,46.226,72.744z M31.256,55.201L43.79,67.735 c1.302,1.301,3.571,1.3,4.872,0l19.074-19.073v0c0.65-0.65,1.009-1.515,1.009-2.436c0-0.92-0.358-1.785-1.009-2.436L55.201,31.256 L31.256,55.201z"/><path fill="#f4efed" d="M33.262,85.963c3.403,3.403,3.403,8.921,0,12.324c-3.403,3.403-8.921,3.403-12.324,0 c-3.403-3.403-3.403-8.921,0-12.324C24.341,82.56,29.858,82.56,33.262,85.963z"/><circle cx="92.125" cy="27.099" r="8.715" fill="#f4efed"/><path fill="#690589" d="M27.1,102.835c-2.744,0-5.487-1.044-7.576-3.133c-4.178-4.177-4.178-10.975,0-15.152 c4.178-4.178,10.975-4.178,15.152,0c4.178,4.177,4.178,10.975,0,15.152C32.587,101.791,29.843,102.835,27.1,102.835z M27.1,85.414 c-1.719,0-3.439,0.654-4.748,1.963c-2.618,2.618-2.618,6.878,0,9.496c2.618,2.618,6.878,2.618,9.496,0 c2.618-2.618,2.618-6.878,0-9.496C30.539,86.068,28.819,85.414,27.1,85.414z"/><path fill="#690589" d="M92.125,37.809c-2.744,0-5.487-1.044-7.576-3.133c-4.178-4.177-4.178-10.975,0-15.152 c4.178-4.178,10.975-4.178,15.152,0c4.178,4.177,4.178,10.975,0,15.152C97.613,36.765,94.869,37.809,92.125,37.809z M92.125,20.388c-1.719,0-3.439,0.654-4.748,1.963c-2.618,2.618-2.618,6.878,0,9.496c2.618,2.618,6.878,2.618,9.496,0 c2.618-2.618,2.618-6.878,0-9.496C95.564,21.042,93.845,20.388,92.125,20.388z"/><path fill="#e12579" d="M72.644,10.984l-5.657,5.657c11.47-11.47,30.798-8.38,38.119,6.094l6.896,13.632 c1.264,2.499,1.303,5.219,0.419,7.587c5.275-1.958,7.85-8.082,5.238-13.244l-6.896-13.632 C103.441,2.605,84.113-0.485,72.644,10.984z"/><path fill="#ff61b5" d="M10.984,72.644l5.657-5.657c-11.47,11.47-8.38,30.798,6.094,38.119l13.632,6.896 c2.499,1.264,5.219,1.303,7.587,0.419c-1.958,5.275-8.082,7.85-13.244,5.238l-13.632-6.896 C2.605,103.441-0.485,84.113,10.984,72.644z"/><path fill="#690589" d="M34.996,120.689c-1.776,0-3.549-0.416-5.188-1.245l-13.632-6.896C8.698,108.765,3.65,101.849,2.328,93.574 S3.645,77.155,9.57,71.229L71.229,9.57c5.925-5.926,14.069-8.566,22.345-7.243c8.275,1.323,15.191,6.37,18.974,13.848 l6.896,13.632c1.587,3.138,1.66,6.77,0.199,9.963c-1.479,3.234-4.318,5.586-7.79,6.451c-15.818,3.944-30.303,12.154-41.891,23.74 c-11.586,11.587-19.796,26.073-23.74,41.891c-0.865,3.471-3.217,6.311-6.451,7.79C38.245,120.341,36.619,120.689,34.996,120.689z M89.407,5.995c-5.736,0-11.189,2.244-15.35,6.404L12.398,74.058c-5.008,5.008-7.239,11.892-6.121,18.885 s5.384,12.838,11.704,16.036l13.632,6.896c2.045,1.035,4.413,1.083,6.493,0.131c2.122-0.97,3.665-2.836,4.234-5.12 c4.12-16.522,12.693-31.651,24.793-43.751l0,0c12.1-12.1,27.229-20.673,43.751-24.793c2.283-0.569,4.149-2.113,5.12-4.234 c0.952-2.081,0.904-4.448-0.131-6.494l-6.896-13.632c-3.197-6.32-9.042-10.586-16.036-11.704 C91.759,6.088,90.577,5.995,89.407,5.995z"/><path fill="#690589" d="M26.658,149.801c-0.958,0-1.804-0.69-1.969-1.666c-1.046-6.156-0.849-12.153-0.84-12.406 c0.039-1.104,0.962-1.977,2.068-1.928c1.104,0.039,1.967,0.965,1.929,2.068c-0.002,0.058-0.19,5.854,0.786,11.595 c0.185,1.089-0.548,2.122-1.637,2.307C26.882,149.792,26.769,149.801,26.658,149.801z"/><path fill="#f4efed" d="M138.501,97.757c0,2.603-2.11,4.713-4.713,4.713c-2.603,0-4.713-2.11-4.713-4.713 c0-2.603,2.11-4.713,4.713-4.713C136.39,93.043,138.501,95.153,138.501,97.757z"/><circle cx="100.146" cy="119.354" r="4.713" fill="#f4efed"/><path fill="#f4efed" d="M114.641,162.003c0,2.603-2.11,4.713-4.713,4.713c-2.603,0-4.713-2.11-4.713-4.713s2.11-4.713,4.713-4.713 C112.531,157.289,114.641,159.399,114.641,162.003z"/><circle cx="167.429" cy="119.354" r="4.713" fill="#f4efed"/><circle cx="157.647" cy="162.003" r="4.713" fill="#f4efed"/><path fill="#690589" d="M133.787,104.47c-3.702,0-6.713-3.012-6.713-6.713s3.012-6.713,6.713-6.713s6.713,3.012,6.713,6.713 S137.489,104.47,133.787,104.47z M133.787,95.043c-1.496,0-2.713,1.217-2.713,2.713s1.217,2.713,2.713,2.713 s2.713-1.217,2.713-2.713S135.283,95.043,133.787,95.043z"/><path fill="#690589" d="M100.146,126.068c-3.702,0-6.713-3.012-6.713-6.713s3.012-6.713,6.713-6.713s6.713,3.012,6.713,6.713 S103.848,126.068,100.146,126.068z M100.146,116.641c-1.496,0-2.713,1.217-2.713,2.713s1.217,2.713,2.713,2.713 s2.713-1.217,2.713-2.713S101.642,116.641,100.146,116.641z"/><path fill="#690589" d="M109.928,168.716c-3.702,0-6.713-3.012-6.713-6.713s3.012-6.713,6.713-6.713s6.713,3.012,6.713,6.713 S113.629,168.716,109.928,168.716z M109.928,159.289c-1.496,0-2.713,1.217-2.713,2.713s1.217,2.713,2.713,2.713 s2.713-1.217,2.713-2.713S111.424,159.289,109.928,159.289z"/><path fill="#690589" d="M167.429,126.068c-3.702,0-6.713-3.012-6.713-6.713s3.012-6.713,6.713-6.713s6.713,3.012,6.713,6.713 S171.13,126.068,167.429,126.068z M167.429,116.641c-1.496,0-2.713,1.217-2.713,2.713s1.217,2.713,2.713,2.713 s2.713-1.217,2.713-2.713S168.925,116.641,167.429,116.641z"/><path fill="#690589" d="M157.646,168.716c-3.702,0-6.713-3.012-6.713-6.713s3.012-6.713,6.713-6.713s6.713,3.012,6.713,6.713 S161.348,168.716,157.646,168.716z M157.646,159.289c-1.496,0-2.713,1.217-2.713,2.713s1.217,2.713,2.713,2.713 s2.713-1.217,2.713-2.713S159.143,159.289,157.646,159.289z"/></svg>