<svg xmlns="http://www.w3.org/2000/svg"  viewBox="0 0 256 256" width="64px" height="64px"><path fill="#576fa5" d="M220.088,51.958H35.912C18.316,51.958,4,66.274,4,83.87v94.977c0,13.892,11.302,25.195,25.195,25.195 c5.036,0,9.118-4.082,9.118-9.118s-4.082-9.118-9.118-9.118c-3.838,0-6.959-3.122-6.959-6.959v-41.729h211.529v41.729 c0,3.838-3.122,6.959-6.959,6.959c-5.035,0-9.118,4.083-9.118,9.118s4.083,9.118,9.118,9.118 c13.892,0,25.195-11.303,25.195-25.195V83.87C252,66.274,237.684,51.958,220.088,51.958z M22.235,118.882V83.87 c0-7.542,6.135-13.676,13.677-13.676h184.176c7.542,0,13.676,6.135,13.676,13.676v35.012H22.235z"/><path fill="#ff4397" d="M217.791,101.023H38.209c-3.598,0-6.514-2.917-6.514-6.514l0,0c0-3.598,2.917-6.514,6.514-6.514h179.582 c3.598,0,6.514,2.917,6.514,6.514l0,0C224.305,98.106,221.389,101.023,217.791,101.023z"/><path fill="#690589" d="M217.791,103.023H38.209c-4.695,0-8.514-3.819-8.514-8.515c0-4.694,3.819-8.514,8.514-8.514h179.582 c4.695,0,8.515,3.819,8.515,8.514C226.306,99.204,222.486,103.023,217.791,103.023z M38.209,89.995 c-2.489,0-4.514,2.024-4.514,4.514s2.025,4.515,4.514,4.515h179.582c2.489,0,4.515-2.025,4.515-4.515s-2.025-4.514-4.515-4.514 H38.209z"/><path fill="#690589" d="M217.791,103.023H38.209c-4.695,0-8.514-3.819-8.514-8.515c0-4.694,3.819-8.514,8.514-8.514h179.582 c4.695,0,8.515,3.819,8.515,8.514C226.306,99.204,222.486,103.023,217.791,103.023z M38.209,89.995 c-2.489,0-4.514,2.024-4.514,4.514s2.025,4.515,4.514,4.515h179.582c2.489,0,4.515-2.025,4.515-4.515s-2.025-4.514-4.515-4.514 H38.209z"/><path fill="#395288" d="M220.088,51.958h-9C228.684,51.958,243,66.274,243,83.87v94.977c0,11.951-8.368,21.978-19.55,24.549 c1.039,0.412,2.169,0.646,3.355,0.646c13.892,0,25.195-11.303,25.195-25.195V83.87C252,66.274,237.684,51.958,220.088,51.958z"/><path fill="#758ec3" d="M35.912,51.958h9C27.316,51.958,13,66.274,13,83.87v94.977c0,11.951,8.368,21.978,19.55,24.549 c-1.039,0.412-2.169,0.646-3.355,0.646C15.303,204.042,4,192.739,4,178.847V83.87C4,66.274,18.316,51.958,35.912,51.958z"/><path fill="#690589" d="M226.806,206.041c-6.131,0-11.118-4.987-11.118-11.117s4.987-11.117,11.118-11.117 c2.734,0,4.959-2.225,4.959-4.96v-39.729H24.235v39.729c0,2.735,2.225,4.96,4.959,4.96c6.13,0,11.118,4.987,11.118,11.117 s-4.987,11.117-11.118,11.117C14.2,206.041,2,193.842,2,178.847V83.87c0-18.698,15.213-33.911,33.912-33.911h184.176 C238.787,49.959,254,65.172,254,83.87v94.977C254,193.842,241.801,206.041,226.806,206.041z M22.235,135.117h211.529 c1.104,0,2,0.896,2,2v41.729c0,4.94-4.019,8.96-8.959,8.96c-3.925,0-7.118,3.192-7.118,7.117s3.193,7.117,7.118,7.117 c12.789,0,23.194-10.405,23.194-23.194V83.87c0-16.493-13.419-29.911-29.912-29.911H35.912C19.418,53.959,6,67.377,6,83.87v94.977 c0,12.789,10.405,23.194,23.195,23.194c3.925,0,7.118-3.192,7.118-7.117s-3.193-7.117-7.118-7.117c-4.94,0-8.959-4.02-8.959-8.96 v-41.729C20.235,136.013,21.131,135.117,22.235,135.117z M233.765,120.883H22.235c-1.104,0-2-0.896-2-2V83.87 c0-8.645,7.032-15.677,15.676-15.677h184.176c8.645,0,15.677,7.032,15.677,15.677v35.013 C235.765,119.987,234.869,120.883,233.765,120.883z M24.235,116.883h207.529V83.87c0-6.438-5.238-11.677-11.677-11.677H35.912 c-6.438,0-11.676,5.238-11.676,11.677V116.883z"/><path fill="#690589" d="M226.806,206.041c-6.131,0-11.118-4.987-11.118-11.117s4.987-11.117,11.118-11.117 c2.734,0,4.959-2.225,4.959-4.96v-39.729H24.235v39.729c0,2.735,2.225,4.96,4.959,4.96c6.13,0,11.118,4.987,11.118,11.117 s-4.987,11.117-11.118,11.117C14.2,206.041,2,193.842,2,178.847V83.87c0-18.698,15.213-33.911,33.912-33.911h184.176 C238.787,49.959,254,65.172,254,83.87v94.977C254,193.842,241.801,206.041,226.806,206.041z M22.235,135.117h211.529 c1.104,0,2,0.896,2,2v41.729c0,4.94-4.019,8.96-8.959,8.96c-3.925,0-7.118,3.192-7.118,7.117s3.193,7.117,7.118,7.117 c12.789,0,23.194-10.405,23.194-23.194V83.87c0-16.493-13.419-29.911-29.912-29.911H35.912C19.418,53.959,6,67.377,6,83.87v94.977 c0,12.789,10.405,23.194,23.195,23.194c3.925,0,7.118-3.192,7.118-7.117s-3.193-7.117-7.118-7.117c-4.94,0-8.959-4.02-8.959-8.96 v-41.729C20.235,136.013,21.131,135.117,22.235,135.117z M233.765,120.883H22.235c-1.104,0-2-0.896-2-2V83.87 c0-8.645,7.032-15.677,15.676-15.677h184.176c8.645,0,15.677,7.032,15.677,15.677v35.013 C235.765,119.987,234.869,120.883,233.765,120.883z M24.235,116.883h207.529V83.87c0-6.438-5.238-11.677-11.677-11.677H35.912 c-6.438,0-11.676,5.238-11.676,11.677V116.883z"/><path fill="#705ca3" d="M188.251,164.142H67.749c-12.229,0-22.143-9.914-22.143-22.143V74.101c0-12.229,9.914-22.143,22.143-22.143 h120.502c12.229,0,22.143,9.914,22.143,22.143v67.898C210.394,154.228,200.48,164.142,188.251,164.142z"/><path fill="#705ca3" d="M67.749,164.142h10c-12.229,0-22.143-9.914-22.143-22.143V74.102c0-12.229,9.914-22.143,22.143-22.143h-10 c-12.229,0-22.143,9.914-22.143,22.143v67.898C45.606,154.229,55.52,164.142,67.749,164.142z"/><path fill="#705ca3" d="M188.251,51.958h-10c12.229,0,22.143,9.914,22.143,22.143v67.898c0,12.229-9.914,22.143-22.143,22.143h10 c12.229,0,22.143-9.914,22.143-22.143V74.101C210.394,61.872,200.48,51.958,188.251,51.958z"/><path fill="#690589" d="M188.251,166.142H67.749c-13.312,0-24.143-10.83-24.143-24.143V74.102c0-13.312,10.83-24.143,24.143-24.143 h120.502c13.312,0,24.143,10.83,24.143,24.143v67.897C212.394,155.312,201.563,166.142,188.251,166.142z M67.749,53.959 c-11.106,0-20.143,9.036-20.143,20.143v67.897c0,11.106,9.036,20.143,20.143,20.143h120.502c11.106,0,20.143-9.036,20.143-20.143 V74.102c0-11.106-9.036-20.143-20.143-20.143H67.749z"/><path fill="#690589" d="M188.251,166.142H67.749c-13.312,0-24.143-10.83-24.143-24.143V74.102c0-13.312,10.83-24.143,24.143-24.143 h120.502c13.312,0,24.143,10.83,24.143,24.143v67.897C212.394,155.312,201.563,166.142,188.251,166.142z M67.749,53.959 c-11.106,0-20.143,9.036-20.143,20.143v67.897c0,11.106,9.036,20.143,20.143,20.143h120.502c11.106,0,20.143-9.036,20.143-20.143 V74.102c0-11.106-9.036-20.143-20.143-20.143H67.749z"/><rect width="14.054" height="14.054" x="58.979" y="66.337" fill="#ff4397"/><rect width="14.054" height="14.054" x="58.979" y="93.996" fill="#ff4397"/><circle cx="77.493" cy="135.265" r="9.583" fill="#FCC24C"/><path fill="#690589" d="M77.493,146.848c-6.387,0-11.583-5.196-11.583-11.583c0-6.388,5.196-11.584,11.583-11.584 s11.583,5.196,11.583,11.584C89.076,141.651,83.88,146.848,77.493,146.848z M77.493,127.681c-4.182,0-7.583,3.402-7.583,7.584 s3.402,7.583,7.583,7.583s7.583-3.401,7.583-7.583S81.674,127.681,77.493,127.681z"/><path fill="#690589" d="M73.034,82.392H58.979c-1.104,0-2-0.896-2-2V66.337c0-1.104,0.896-2,2-2h14.054c1.104,0,2,0.896,2,2v14.055 C75.034,81.496,74.138,82.392,73.034,82.392z M60.979,78.392h10.054V68.337H60.979V78.392z"/><path fill="#690589" d="M73.034,110.05H58.979c-1.104,0-2-0.896-2-2V93.996c0-1.104,0.896-2,2-2h14.054c1.104,0,2,0.896,2,2v14.054 C75.034,109.154,74.138,110.05,73.034,110.05z M60.979,106.05h10.054V95.996H60.979V106.05z"/><path fill="#690589" d="M77.493,146.848c-6.387,0-11.583-5.196-11.583-11.583c0-6.388,5.196-11.584,11.583-11.584 s11.583,5.196,11.583,11.584C89.076,141.651,83.88,146.848,77.493,146.848z M77.493,127.681c-4.182,0-7.583,3.402-7.583,7.584 s3.402,7.583,7.583,7.583s7.583-3.401,7.583-7.583S81.674,127.681,77.493,127.681z"/><path fill="#690589" d="M73.034,82.392H58.979c-1.104,0-2-0.896-2-2V66.337c0-1.104,0.896-2,2-2h14.054c1.104,0,2,0.896,2,2v14.055 C75.034,81.496,74.138,82.392,73.034,82.392z M60.979,78.392h10.054V68.337H60.979V78.392z"/><path fill="#690589" d="M73.034,110.05H58.979c-1.104,0-2-0.896-2-2V93.996c0-1.104,0.896-2,2-2h14.054c1.104,0,2,0.896,2,2v14.054 C75.034,109.154,74.138,110.05,73.034,110.05z M60.979,106.05h10.054V95.996H60.979V106.05z"/><rect width="81.848" height="55.782" x="87.076" y="51.958" fill="#f4efed"/><rect width="14.054" height="14.054" x="182.966" y="66.337" fill="#ff4397"/><rect width="14.054" height="14.054" x="182.966" y="93.996" fill="#ff4397"/><circle cx="128" cy="135.265" r="9.584" fill="#FCC24C"/><circle cx="178.507" cy="135.265" r="9.584" fill="#FCC24C"/><rect width="8" height="55.782" x="160.924" y="51.958" fill="#d6d1cf"/><rect width="8" height="55.782" x="87.076" y="51.958" fill="#fff"/><path fill="#690589" d="M168.924,109.74H87.076c-1.104,0-2-0.896-2-2V51.959c0-1.104,0.896-2,2-2h81.848c1.104,0,2,0.896,2,2v55.781 C170.924,108.845,170.028,109.74,168.924,109.74z M89.076,105.74h77.848V53.959H89.076V105.74z"/><path fill="#690589" d="M128,146.848c-6.387,0-11.583-5.196-11.583-11.583c0-6.388,5.196-11.584,11.583-11.584 c6.387,0,11.583,5.196,11.583,11.584C139.583,141.651,134.387,146.848,128,146.848z M128,127.681 c-4.182,0-7.583,3.402-7.583,7.584s3.402,7.583,7.583,7.583s7.583-3.401,7.583-7.583S132.182,127.681,128,127.681z"/><path fill="#690589" d="M178.507,146.848c-6.387,0-11.583-5.196-11.583-11.583c0-6.388,5.196-11.584,11.583-11.584 c6.388,0,11.584,5.196,11.584,11.584C190.091,141.651,184.895,146.848,178.507,146.848z M178.507,127.681 c-4.182,0-7.583,3.402-7.583,7.584s3.401,7.583,7.583,7.583s7.584-3.401,7.584-7.583S182.688,127.681,178.507,127.681z"/><path fill="#690589" d="M197.021,82.392h-14.055c-1.104,0-2-0.896-2-2V66.337c0-1.104,0.896-2,2-2h14.055c1.104,0,2,0.896,2,2v14.055 C199.021,81.496,198.125,82.392,197.021,82.392z M184.966,78.392h10.055V68.337h-10.055V78.392z"/><path fill="#690589" d="M197.021,110.05h-14.055c-1.104,0-2-0.896-2-2V93.996c0-1.104,0.896-2,2-2h14.055c1.104,0,2,0.896,2,2v14.054 C199.021,109.154,198.125,110.05,197.021,110.05z M184.966,106.05h10.055V95.996h-10.055V106.05z"/><path fill="#690589" d="M12,108.915c-1.104,0-2-0.896-2-2v-12c0-1.104,0.896-2,2-2s2,0.896,2,2v12 C14,108.02,13.104,108.915,12,108.915z"/><path fill="#690589" d="M168.924,109.74H87.076c-1.104,0-2-0.896-2-2V51.959c0-1.104,0.896-2,2-2h81.848c1.104,0,2,0.896,2,2v55.781 C170.924,108.845,170.028,109.74,168.924,109.74z M89.076,105.74h77.848V53.959H89.076V105.74z"/><path fill="#690589" d="M128,146.848c-6.387,0-11.583-5.196-11.583-11.583c0-6.388,5.196-11.584,11.583-11.584 c6.387,0,11.583,5.196,11.583,11.584C139.583,141.651,134.387,146.848,128,146.848z M128,127.681 c-4.182,0-7.583,3.402-7.583,7.584s3.402,7.583,7.583,7.583s7.583-3.401,7.583-7.583S132.182,127.681,128,127.681z"/><path fill="#690589" d="M178.507,146.848c-6.387,0-11.583-5.196-11.583-11.583c0-6.388,5.196-11.584,11.583-11.584 c6.388,0,11.584,5.196,11.584,11.584C190.091,141.651,184.895,146.848,178.507,146.848z M178.507,127.681 c-4.182,0-7.583,3.402-7.583,7.584s3.401,7.583,7.583,7.583s7.584-3.401,7.584-7.583S182.688,127.681,178.507,127.681z"/><path fill="#690589" d="M197.021,82.392h-14.055c-1.104,0-2-0.896-2-2V66.337c0-1.104,0.896-2,2-2h14.055c1.104,0,2,0.896,2,2v14.055 C199.021,81.496,198.125,82.392,197.021,82.392z M184.966,78.392h10.055V68.337h-10.055V78.392z"/><path fill="#690589" d="M197.021,110.05h-14.055c-1.104,0-2-0.896-2-2V93.996c0-1.104,0.896-2,2-2h14.055c1.104,0,2,0.896,2,2v14.054 C199.021,109.154,198.125,110.05,197.021,110.05z M184.966,106.05h10.055V95.996h-10.055V106.05z"/></svg>