<svg xmlns="http://www.w3.org/2000/svg"  viewBox="0 0 64 64" width="64px" height="64px"><path fill="#705ca3" d="M57.767,7.377c-1.096-0.471-2.969-0.854-4.161-0.854H38.339c-1.193,0-3.066,0.383-4.161,0.854l-1.074,0.459 c-1.097,0.471-1.993,1.83-1.993,3.023v12.918c0,1.193,0.896,2.553,1.993,3.024l1.074,0.459c1.096,0.471,2.968,0.854,4.161,0.854 h15.267c1.192,0,3.065-0.383,4.161-0.854l1.073-0.459c1.096-0.471,1.993-1.83,1.993-3.024V10.859c0-1.193-0.897-2.553-1.993-3.023 L57.767,7.377z"/><path fill="#63312d" d="M53.606,28.613H38.339c-1.256,0-3.211-0.401-4.358-0.895l-1.073-0.458c-1.289-0.553-2.297-2.083-2.297-3.483 V10.859c0-1.4,1.008-2.931,2.296-3.482l1.075-0.46c1.146-0.492,3.102-0.894,4.357-0.894h15.267c1.255,0,3.209,0.401,4.358,0.894 l1.073,0.459c1.288,0.554,2.296,2.083,2.296,3.483v12.918c0,1.4-1.008,2.93-2.296,3.482l-1.074,0.46 C56.816,28.212,54.861,28.613,53.606,28.613z M38.339,7.023c-1.123,0-2.938,0.372-3.964,0.812l-1.074,0.46 c-0.916,0.393-1.69,1.567-1.69,2.563v12.918c0,0.996,0.774,2.171,1.69,2.564l1.073,0.458c1.026,0.441,2.841,0.813,3.964,0.813 h15.267c1.123,0,2.938-0.372,3.964-0.812l1.074-0.46c0.916-0.393,1.69-1.567,1.69-2.563V10.859c0-0.996-0.774-2.171-1.69-2.564 L57.57,7.837c0,0,0,0,0-0.001c-1.026-0.44-2.841-0.812-3.964-0.812H38.339z"/><path fill="#705ca3" d="M51.708,7.377c-1.096-0.471-2.969-0.854-4.161-0.854H32.28c-1.193,0-3.065,0.383-4.162,0.854l-1.073,0.459 c-1.097,0.471-1.993,1.83-1.993,3.023v12.918c0,1.193,0.896,2.553,1.993,3.024l1.073,0.459c1.096,0.471,2.969,0.854,4.162,0.854 h15.267c1.192,0,3.065-0.383,4.161-0.854l1.073-0.459c1.096-0.471,1.993-1.83,1.993-3.024V10.859c0-1.193-0.897-2.553-1.993-3.023 L51.708,7.377z"/><path fill="#705ca3" d="M27.071,25.797V12.879c0-1.193,0.896-2.553,1.993-3.023l1.074-0.459c1.096-0.471,2.968-0.853,4.161-0.853 h15.267c1.193,0,3.065,0.383,4.161,0.853l0.803,0.344c-0.337-0.826-0.992-1.578-1.75-1.904l-1.073-0.459 c-1.096-0.471-2.969-0.854-4.161-0.854H32.28c-1.193,0-3.065,0.383-4.162,0.854l-1.073,0.459c-1.097,0.471-1.993,1.83-1.993,3.023 v12.918c0,1.193,0.896,2.553,1.993,3.024l0.27,0.115C27.165,26.547,27.071,26.166,27.071,25.797z"/><path fill="#8d6be2" d="M25.052,10.271H14.843c-1.193,0-2.168,0.977-2.168,2.17v9.754c0,1.193,0.975,2.17,2.168,2.17h10.208V10.271z"/><path fill="#8d6be2" d="M14.695,24.215v-9.754c0-1.193,0.976-2.17,2.168-2.17h8.189v-2.02H14.843c-1.193,0-2.168,0.977-2.168,2.17 v9.754c0,1.147,0.904,2.084,2.034,2.156C14.706,24.305,14.695,24.262,14.695,24.215z"/><path fill="#705ca3" d="M12.675,12.394H9.694c-1.192,0-2.168,0.977-2.168,2.168v5.512c0,1.191,0.976,2.168,2.168,2.168h2.981V12.394z"/><path fill="#705ca3" d="M9.545,22.094v-5.512c0-1.191,0.976-2.168,2.169-2.168h0.961v-2.02H9.694c-1.192,0-2.168,0.977-2.168,2.168 v5.512c0,1.145,0.904,2.082,2.034,2.152C9.556,22.182,9.545,22.141,9.545,22.094z"/><rect width="4.359" height="5.873" x="3.167" y="14.381" fill="#FCC24C"/><path fill="#63312d" d="M7.525,20.754H3.167c-0.276,0-0.5-0.224-0.5-0.5v-5.873c0-0.276,0.224-0.5,0.5-0.5h4.359 c0.276,0,0.5,0.224,0.5,0.5v5.873C8.025,20.53,7.802,20.754,7.525,20.754z M3.667,19.754h3.359v-4.873H3.667V19.754z"/><path fill="#705ca3" d="M28.964,35.082h4.597l-1.216-5.488h-3.26C30.221,31.178,30.185,33.559,28.964,35.082z"/><path fill="#705ca3" d="M31.085,29.594h-2c1.135,1.584,1.099,3.965-0.121,5.488h2C32.185,33.559,32.221,31.178,31.085,29.594z"/><path fill="#705ca3" d="M59.651,55.359l-6.047-27.246H38.065l1.948,8.779c1.732,0.797,3.526,3.895,4.365,7.826 c0.812,3.811,0.483,7.264-0.679,8.781l0.413,1.859c0.257,1.164,1.444,2.117,2.637,2.117h11.202 C59.144,57.477,59.908,56.523,59.651,55.359z"/><path fill="#FCC24C" d="M45.697,35.617c-1.111,0-1.823,0.887-1.582,1.971l1.305,5.881c0.241,1.084,1.347,1.971,2.458,1.971h9.564 l-2.18-9.822H45.697z"/><path fill="#63312d" d="M57.441,45.939h-9.564c-1.335,0-2.656-1.06-2.946-2.362l-1.305-5.881c-0.15-0.675-0.014-1.319,0.382-1.812 c0.396-0.494,0.996-0.767,1.688-0.767h9.564c0.234,0,0.438,0.163,0.488,0.392l2.18,9.822c0.033,0.148-0.003,0.303-0.098,0.421 C57.736,45.871,57.593,45.939,57.441,45.939z M45.697,36.117c-0.383,0-0.706,0.14-0.908,0.392 c-0.203,0.253-0.269,0.598-0.186,0.971l1.305,5.881c0.19,0.856,1.092,1.579,1.969,1.579h8.941l-1.958-8.822H45.697z"/><path fill="#63312d" d="M57.952,57.977H46.75c-1.417,0-2.819-1.126-3.125-2.509l-0.413-1.859c-0.032-0.145,0.001-0.295,0.091-0.412 c1.11-1.449,1.346-4.814,0.587-8.373c-0.78-3.654-2.46-6.729-4.085-7.477c-0.142-0.065-0.245-0.193-0.279-0.346l-1.948-8.779 c-0.033-0.148,0.003-0.303,0.098-0.421c0.095-0.119,0.238-0.188,0.39-0.188h15.539c0.234,0,0.438,0.163,0.488,0.392l6.047,27.246 l0,0c0.158,0.715,0.014,1.396-0.405,1.917S58.683,57.977,57.952,57.977z M44.236,53.609l0.365,1.642 c0.207,0.936,1.191,1.726,2.149,1.726h11.202c0.422,0,0.778-0.154,1.003-0.435c0.226-0.28,0.299-0.662,0.208-1.074l-5.96-26.854 H38.688l1.762,7.941c1.842,1.03,3.597,4.213,4.417,8.06C45.667,48.359,45.415,51.844,44.236,53.609z"/><path fill="#705ca3" d="M53.592,55.359l-6.047-27.246H32.006l1.948,8.779c1.732,0.797,3.527,3.895,4.365,7.826 c0.812,3.811,0.483,7.264-0.679,8.781l0.413,1.859c0.257,1.164,1.444,2.117,2.637,2.117h11.202 C53.085,57.477,53.85,56.523,53.592,55.359z"/><path fill="#FCC24C" d="M45.752,35.617c-1.111,0-1.823,0.887-1.582,1.971l1.305,5.881c0.241,1.084,1.347,1.971,2.458,1.971h3.45 l-2.18-9.822H45.752z"/><path fill="#63312d" d="M51.382,45.939h-3.45c-1.335,0-2.656-1.06-2.946-2.362l-1.305-5.881c-0.15-0.675-0.014-1.319,0.382-1.812 c0.396-0.494,0.996-0.767,1.688-0.767h3.45c0.234,0,0.438,0.163,0.488,0.392l2.18,9.822c0.033,0.148-0.003,0.303-0.098,0.421 C51.677,45.871,51.534,45.939,51.382,45.939z M45.752,36.117c-0.383,0-0.706,0.14-0.908,0.392 c-0.203,0.253-0.269,0.598-0.186,0.971l1.305,5.881c0.19,0.856,1.092,1.579,1.969,1.579h2.827l-1.958-8.822H45.752z"/><path fill="#705ca3" d="M40.073,55.359L39.66,53.5c1.163-1.518,1.492-4.971,0.68-8.781c-0.839-3.932-2.633-7.029-4.366-7.826 l-1.948-8.779h-2.02l1.948,8.779c1.732,0.797,3.527,3.895,4.365,7.826c0.812,3.811,0.483,7.264-0.679,8.781l0.413,1.859 c0.257,1.164,1.444,2.117,2.637,2.117h2.02C41.518,57.477,40.331,56.523,40.073,55.359z"/><path fill="#63312d" d="M47.547,28.613H32.28c-1.255,0-3.211-0.401-4.359-0.895l-1.073-0.458c-1.288-0.553-2.296-2.083-2.296-3.483 V10.859c0-1.4,1.008-2.931,2.296-3.482l1.074-0.46c1.147-0.492,3.103-0.894,4.358-0.894h15.267c1.255,0,3.209,0.401,4.358,0.894 l1.073,0.459c1.288,0.554,2.296,2.083,2.296,3.483v12.918c0,1.4-1.008,2.93-2.296,3.482l-1.074,0.46 C50.757,28.212,48.802,28.613,47.547,28.613z M32.28,7.023c-1.123,0-2.938,0.372-3.964,0.812l-1.074,0.46 c-0.916,0.393-1.69,1.567-1.69,2.563v12.918c0,0.996,0.774,2.171,1.69,2.564l1.073,0.458c1.027,0.441,2.842,0.813,3.965,0.813 h15.267c1.123,0,2.938-0.372,3.964-0.812l1.074-0.46c0.916-0.393,1.69-1.567,1.69-2.563V10.859c0-0.996-0.774-2.171-1.69-2.564 l-1.073-0.458c0,0,0,0,0-0.001c-1.026-0.44-2.841-0.812-3.964-0.812H32.28z"/><path fill="#63312d" d="M25.052,24.865H14.843c-1.471,0-2.668-1.197-2.668-2.67v-9.754c0-1.473,1.197-2.67,2.668-2.67h10.208 c0.276,0,0.5,0.224,0.5,0.5v14.094C25.552,24.642,25.328,24.865,25.052,24.865z M14.843,10.771c-0.92,0-1.668,0.749-1.668,1.67 v9.754c0,0.921,0.748,1.67,1.668,1.67h9.708V10.771H14.843z"/><path fill="#63312d" d="M12.675,22.742H9.694c-1.471,0-2.668-1.197-2.668-2.668v-5.512c0-1.471,1.197-2.668,2.668-2.668h2.981 c0.276,0,0.5,0.224,0.5,0.5v9.848C13.175,22.519,12.952,22.742,12.675,22.742z M9.694,12.895c-0.92,0-1.668,0.748-1.668,1.668 v5.512c0,0.92,0.749,1.668,1.668,1.668h2.481v-8.848H9.694z"/><path fill="#63312d" d="M33.562,35.582h-4.597c-0.192,0-0.368-0.11-0.451-0.283c-0.083-0.174-0.06-0.379,0.061-0.529 c1.067-1.332,1.113-3.478,0.105-4.885c-0.109-0.152-0.124-0.353-0.039-0.52s0.257-0.271,0.445-0.271h3.26 c0.234,0,0.438,0.163,0.488,0.392l1.216,5.488c0.033,0.148-0.003,0.303-0.098,0.422C33.856,35.514,33.713,35.582,33.562,35.582z M29.874,34.582h3.064l-0.994-4.488h-1.995C30.592,31.503,30.562,33.21,29.874,34.582z"/><path fill="#63312d" d="M51.893,57.977H40.691c-1.417,0-2.819-1.126-3.125-2.509l-0.413-1.859c-0.032-0.145,0.001-0.295,0.091-0.412 c1.11-1.449,1.346-4.813,0.587-8.373c-0.779-3.654-2.459-6.729-4.085-7.477c-0.142-0.065-0.245-0.193-0.279-0.346l-1.948-8.779 c-0.033-0.148,0.003-0.303,0.098-0.421c0.095-0.119,0.238-0.188,0.39-0.188h15.539c0.234,0,0.438,0.163,0.488,0.392l6.047,27.246 l0,0c0.158,0.715,0.015,1.395-0.404,1.917C53.257,57.689,52.624,57.977,51.893,57.977z M38.177,53.609l0.365,1.642 c0.207,0.936,1.191,1.726,2.149,1.726h11.202c0.422,0,0.778-0.154,1.003-0.435c0.225-0.281,0.299-0.662,0.208-1.074l-5.96-26.854 H32.629l1.762,7.941c1.843,1.03,3.597,4.213,4.417,8.06C39.607,48.36,39.355,51.844,38.177,53.609z"/><path fill="#FCC24C" d="M45.972,19.562c0,1.109-0.909,2.02-2.02,2.02h-6.558c-1.111,0-2.02-0.91-2.02-2.02v-4.488 c0-1.109,0.909-2.019,2.02-2.019h6.558c1.111,0,2.02,0.91,2.02,2.019V19.562z"/><path fill="#63312d" d="M43.953,22.082h-6.558c-1.39,0-2.52-1.13-2.52-2.52v-4.488c0-1.39,1.13-2.52,2.52-2.52h6.558 c1.389,0,2.52,1.13,2.52,2.52v4.488C46.472,20.952,45.342,22.082,43.953,22.082z M37.395,13.555c-0.838,0-1.52,0.682-1.52,1.52 v4.488c0,0.838,0.682,1.52,1.52,1.52h6.558c0.838,0,1.52-0.682,1.52-1.52v-4.488c0-0.838-0.682-1.52-1.52-1.52H37.395z"/><rect width="4.359" height="1" x="3.167" y="16.818" fill="#63312d"/></svg>