<svg xmlns="http://www.w3.org/2000/svg"  viewBox="0 0 256 256" width="64px" height="64px"><path fill="#f4efed" d="M243.15,189.818H12.85c-4.888,0-8.85-3.962-8.85-8.85V39.172c0-4.888,3.962-8.85,8.85-8.85h230.3 c4.888,0,8.85,3.962,8.85,8.85v141.796C252,185.856,248.038,189.818,243.15,189.818z"/><path fill="#8d6be2" d="M243.15,30.322H128v159.496h115.15c4.888,0,8.85-3.962,8.85-8.85V39.172 C252,34.284,248.038,30.322,243.15,30.322z"/><rect width="9.313" height="23.49" x="141.526" y="69.23" fill="#FCC24C"/><rect width="9.313" height="43.49" x="163.46" y="49.23" fill="#FCC24C"/><rect width="9.313" height="33.49" x="185.395" y="59.23" fill="#FCC24C"/><rect width="9.313" height="23.49" x="207.329" y="69.23" fill="#FCC24C"/><rect width="9.313" height="43.49" x="229.263" y="49.23" fill="#FCC24C"/><path fill="#705ca3" d="M89.489,169.279H49.486c-13.543,0-24.561-11.019-24.561-24.562V75.422c0-13.543,11.019-24.562,24.561-24.562 h2.879c13.544,0,24.562,11.019,24.562,24.562v12.196c0,6.927,5.635,12.562,12.562,12.562c13.543,0,24.562,11.019,24.562,24.562 v19.976C114.051,158.261,103.032,169.279,89.489,169.279z M49.486,62.861c-6.927,0-12.561,5.635-12.561,12.562v69.295 c0,6.927,5.635,12.562,12.561,12.562h40.003c6.927,0,12.562-5.636,12.562-12.562v-19.976c0-6.927-5.635-12.562-12.562-12.562 c-13.543,0-24.562-11.019-24.562-24.562V75.422c0-6.927-5.636-12.562-12.562-12.562H49.486z"/><path fill="#8d6be2" d="M243.15,30.322h-10c4.888,0,8.85,3.962,8.85,8.85v141.796c0,4.888-3.962,8.85-8.85,8.85h10 c4.888,0,8.85-3.962,8.85-8.85V39.172C252,34.284,248.038,30.322,243.15,30.322z"/><path fill="#fff" d="M12.85,189.818h10c-4.888,0-8.85-3.962-8.85-8.85V39.172c0-4.888,3.962-8.85,8.85-8.85h-10 c-4.888,0-8.85,3.962-8.85,8.85v141.796C4,185.856,7.962,189.818,12.85,189.818z"/><path fill="#FCC24C" d="M208.901,225.678H47.099v-11.854c0-4.888,3.962-8.85,8.85-8.85h144.102c4.888,0,8.85,3.962,8.85,8.85V225.678 z"/><path fill="#FCC24C" d="M200.051,204.974h-10c4.888,0,8.85,3.962,8.85,8.85v11.855h10v-11.855 C208.901,208.936,204.939,204.974,200.051,204.974z"/><path fill="#FCC24C" d="M55.949,204.974h10c-4.888,0-8.85,3.962-8.85,8.85v11.855h-10v-11.855 C47.099,208.936,51.061,204.974,55.949,204.974z"/><rect width="94.993" height="15.156" x="80.503" y="189.818" fill="#FCC24C"/><path fill="#690589" d="M12,67.526c-1.104,0-2-0.896-2-2v-12c0-1.104,0.896-2,2-2s2,0.896,2,2v12C14,66.631,13.104,67.526,12,67.526z"/><path fill="#690589" d="M208.901,227.678H47.099c-1.104,0-2-0.896-2-2v-11.854c0-5.983,4.867-10.851,10.851-10.851h144.102 c5.983,0,10.851,4.867,10.851,10.851v11.854C210.901,226.782,210.006,227.678,208.901,227.678z M49.099,223.678h157.803v-9.854 c0-3.777-3.073-6.851-6.851-6.851H55.949c-3.777,0-6.851,3.073-6.851,6.851V223.678z"/><path fill="#690589" d="M175.497,206.974H80.503c-1.104,0-2-0.896-2-2v-15.155c0-1.104,0.896-2,2-2h94.994c1.104,0,2,0.896,2,2 v15.155C177.497,206.078,176.602,206.974,175.497,206.974z M82.503,202.974h90.994v-11.155H82.503V202.974z"/><path fill="#690589" d="M243.15,191.818H128c-1.104,0-2-0.896-2-2V30.322c0-1.104,0.896-2,2-2h115.15 c5.982,0,10.85,4.867,10.85,10.85v141.797C254,186.951,249.133,191.818,243.15,191.818z M130,187.818h113.15 c3.777,0,6.85-3.072,6.85-6.85V39.172c0-3.777-3.072-6.85-6.85-6.85H130V187.818z"/><path fill="#690589" d="M243.15,191.818H12.85c-5.982,0-10.85-4.867-10.85-10.851V39.172c0-5.982,4.867-10.85,10.85-10.85H243.15 c5.982,0,10.85,4.867,10.85,10.85v141.796C254,186.951,249.133,191.818,243.15,191.818z M12.85,32.322 c-3.777,0-6.85,3.072-6.85,6.85v141.796c0,3.777,3.072,6.851,6.85,6.851H243.15c3.777,0,6.85-3.073,6.85-6.851V39.172 c0-3.777-3.072-6.85-6.85-6.85H12.85z"/><path fill="#690589" d="M89.489,171.279H49.486c-14.646,0-26.562-11.916-26.562-26.562V75.422c0-14.646,11.915-26.562,26.562-26.562 h2.879c14.646,0,26.562,11.915,26.562,26.562v12.196c0,5.823,4.738,10.562,10.562,10.562c14.646,0,26.562,11.915,26.562,26.562 v19.976C116.051,159.363,104.136,171.279,89.489,171.279z M49.486,52.86c-12.44,0-22.562,10.121-22.562,22.562v69.295 c0,12.441,10.121,22.562,22.562,22.562h40.003c12.44,0,22.562-10.121,22.562-22.562v-19.976c0-12.44-10.121-22.562-22.562-22.562 c-8.029,0-14.562-6.532-14.562-14.562V75.422c0-12.44-10.121-22.562-22.562-22.562H49.486z M89.489,159.279H49.486 c-8.029,0-14.562-6.532-14.562-14.562V75.422c0-8.029,6.532-14.562,14.562-14.562h2.879c8.03,0,14.562,6.532,14.562,14.562 v12.196c0,12.44,10.121,22.562,22.562,22.562c8.029,0,14.562,6.532,14.562,14.562v19.976 C104.051,152.747,97.519,159.279,89.489,159.279z M49.486,64.86c-5.823,0-10.562,4.738-10.562,10.562v69.295 c0,5.824,4.738,10.562,10.562,10.562h40.003c5.823,0,10.562-4.738,10.562-10.562v-19.976c0-5.823-4.738-10.562-10.562-10.562 c-14.646,0-26.562-11.915-26.562-26.562V75.422c0-5.823-4.738-10.562-10.562-10.562H49.486z"/><path fill="#690589" d="M36.925,125.334h-12c-1.104,0-2-0.896-2-2s0.896-2,2-2h12c1.104,0,2,0.896,2,2S38.029,125.334,36.925,125.334 z"/><path fill="#690589" d="M252,112.07H128c-1.104,0-2-0.896-2-2s0.896-2,2-2h124c1.104,0,2,0.896,2,2S253.104,112.07,252,112.07z"/><path fill="#690589" d="M150.839,94.721h-9.312c-1.104,0-2-0.896-2-2V69.23c0-1.104,0.896-2,2-2h9.312c1.104,0,2,0.896,2,2v23.49 C152.839,93.825,151.943,94.721,150.839,94.721z M143.526,90.721h5.312V71.23h-5.312V90.721z"/><path fill="#690589" d="M172.773,94.721h-9.313c-1.104,0-2-0.896-2-2V49.23c0-1.104,0.896-2,2-2h9.313c1.104,0,2,0.896,2,2v43.49 C174.773,93.825,173.878,94.721,172.773,94.721z M165.46,90.721h5.313V51.23h-5.313V90.721z"/><path fill="#690589" d="M194.707,94.721h-9.312c-1.104,0-2-0.896-2-2V59.23c0-1.104,0.896-2,2-2h9.312c1.104,0,2,0.896,2,2v33.49 C196.707,93.825,195.812,94.721,194.707,94.721z M187.395,90.721h5.312V61.23h-5.312V90.721z"/><path fill="#690589" d="M216.642,94.721h-9.312c-1.104,0-2-0.896-2-2V69.23c0-1.104,0.896-2,2-2h9.312c1.104,0,2,0.896,2,2v23.49 C218.642,93.825,217.746,94.721,216.642,94.721z M209.329,90.721h5.312V71.23h-5.312V90.721z"/><path fill="#690589" d="M238.575,94.721h-9.312c-1.104,0-2-0.896-2-2V49.23c0-1.104,0.896-2,2-2h9.312c1.104,0,2,0.896,2,2v43.49 C240.575,93.825,239.68,94.721,238.575,94.721z M231.263,90.721h5.312V51.23h-5.312V90.721z"/><path fill="#690589" d="M141.528,171.279c-0.161,0-0.324-0.02-0.487-0.06c-1.072-0.269-1.723-1.354-1.455-2.426l4.189-16.736 c1.154-4.613,4.76-8.103,9.408-9.104s9.371,0.691,12.324,4.419c1.682,2.123,4.206,3.278,6.905,3.175 c2.706-0.106,5.125-1.456,6.636-3.704l8.081-12.021c2.284-3.397,6.091-5.445,10.184-5.479c0.033,0,0.067-0.001,0.102-0.001 c4.054,0,7.848,1.979,10.167,5.31l12.367,17.757c1.787,2.566,4.713,3.892,7.82,3.542c3.108-0.349,5.666-2.287,6.841-5.186 l2.111-5.209c0.415-1.024,1.579-1.518,2.604-1.103c1.024,0.415,1.518,1.581,1.103,2.604l-2.111,5.209 c-1.735,4.281-5.512,7.145-10.103,7.659c-4.594,0.507-8.908-1.442-11.548-5.231l-12.368-17.758 c-1.593-2.287-4.097-3.595-6.88-3.595c-0.024,0-0.049,0-0.073,0.001c-2.812,0.022-5.326,1.375-6.896,3.71l-8.081,12.021 c-2.231,3.32-5.804,5.313-9.8,5.469c-4.029,0.163-7.713-1.552-10.196-4.687c-2.029-2.563-5.147-3.683-8.346-2.993 c-3.196,0.689-5.578,2.994-6.371,6.165l-4.189,16.736C143.239,170.674,142.424,171.279,141.528,171.279z"/><path fill="#690589" d="M114.051,52.86H90.426c-1.104,0-2-0.896-2-2s0.896-2,2-2h23.625c1.104,0,2,0.896,2,2 S115.155,52.86,114.051,52.86z"/><path fill="#690589" d="M114.051,64.86H90.426c-1.104,0-2-0.896-2-2s0.896-2,2-2h23.625c1.104,0,2,0.896,2,2 S115.155,64.86,114.051,64.86z"/><path fill="#690589" d="M114.051,76.86H90.426c-1.104,0-2-0.896-2-2s0.896-2,2-2h23.625c1.104,0,2,0.896,2,2 S115.155,76.86,114.051,76.86z"/></svg>