<svg xmlns="http://www.w3.org/2000/svg"  viewBox="0 0 256 256" width="64px" height="64px"><circle cx="128" cy="128" r="124" fill="#576fa5"/><path fill="#395288" d="M128,4c-1.171,0-2.337,0.02-3.5,0.052C191.365,5.905,245,60.688,245,128 c0,67.312-53.635,122.094-120.5,123.948c1.163,0.032,2.329,0.052,3.5,0.052c68.483,0,124-55.517,124-124S196.483,4,128,4z"/><path fill="#758ec3" d="M128,252c1.171,0,2.337-0.02,3.5-0.052C64.635,250.094,11,195.312,11,128C11,60.688,64.635,5.905,131.5,4.052 C130.337,4.02,129.171,4,128,4C59.517,4,4,59.517,4,128S59.517,252,128,252z"/><circle cx="128" cy="128" r="109.097" fill="#f4efed"/><path fill="#8d6be2" d="M205.025,50.741l-13.792,13.792c16.282,16.222,26.36,38.667,26.36,63.467 c0,24.74-10.028,47.138-26.241,63.351l13.792,13.792c19.743-19.743,31.954-47.017,31.954-77.143 C237.097,97.814,224.836,70.493,205.025,50.741z"/><path fill="#690589" d="M205.144,207.143c-0.53,0-1.039-0.211-1.414-0.586l-13.792-13.792c-0.781-0.781-0.781-2.047,0-2.828 c16.544-16.544,25.655-38.541,25.655-61.937c0-23.456-9.152-45.493-25.771-62.05c-0.377-0.375-0.588-0.884-0.589-1.415 c0-0.531,0.21-1.041,0.586-1.416l13.792-13.792c0.781-0.781,2.045-0.781,2.826-0.002c21.062,20.998,32.66,48.939,32.66,78.676 c0,29.675-11.556,57.574-32.539,78.557C206.183,206.932,205.674,207.143,205.144,207.143z M194.165,191.336l10.966,10.966 c19.341-20.058,29.966-46.362,29.966-74.302c0-28-10.668-54.348-30.083-74.42l-10.965,10.965 c16.488,17.143,25.544,39.597,25.544,63.455C219.593,151.797,210.579,174.209,194.165,191.336z"/><path fill="#690589" d="M128,239.097c-61.259,0-111.097-49.838-111.097-111.097S66.741,16.903,128,16.903S239.097,66.741,239.097,128 S189.259,239.097,128,239.097z M128,20.903C68.946,20.903,20.903,68.946,20.903,128S68.946,235.097,128,235.097 S235.097,187.054,235.097,128S187.054,20.903,128,20.903z"/><path fill="#690589" d="M32.881,97.749c-0.216,0-0.436-0.035-0.652-0.11c-1.044-0.36-1.599-1.499-1.238-2.542 c1.433-4.154,3.121-8.264,5.021-12.215c0.479-0.995,1.676-1.412,2.669-0.936c0.996,0.479,1.415,1.674,0.937,2.669 c-1.833,3.812-3.463,7.777-4.845,11.785C34.486,97.229,33.711,97.749,32.881,97.749z"/><path fill="#690589" d="M128,254C58.523,254,2,197.477,2,128S58.523,2,128,2s126,56.523,126,126S197.477,254,128,254z M128,6 C60.729,6,6,60.729,6,128s54.729,122,122,122s122-54.729,122-122S195.271,6,128,6z"/><path fill="#690589" d="M128,32.702c-1.104,0-2-0.896-2-2V18.903c0-1.104,0.896-2,2-2s2,0.896,2,2v11.799 C130,31.806,129.104,32.702,128,32.702z"/><path fill="#690589" d="M237.097,130h-11.798c-1.104,0-2-0.896-2-2s0.896-2,2-2h11.798c1.104,0,2,0.896,2,2S238.201,130,237.097,130z"/><path fill="#690589" d="M30.701,130H18.903c-1.104,0-2-0.896-2-2s0.896-2,2-2h11.798c1.104,0,2,0.896,2,2S31.806,130,30.701,130z"/><path fill="#690589" d="M59.199,61.2c-0.512,0-1.023-0.195-1.414-0.586l-8.343-8.343c-0.781-0.781-0.781-2.047,0-2.828 c0.781-0.781,2.047-0.781,2.828,0l8.343,8.343c0.781,0.781,0.781,2.047,0,2.828C60.223,61.004,59.711,61.2,59.199,61.2z"/><path fill="#690589" d="M50.856,207.143c-0.512,0-1.023-0.195-1.414-0.586c-0.781-0.781-0.781-2.047,0-2.828l8.343-8.343 c0.781-0.781,2.047-0.781,2.828,0c0.781,0.781,0.781,2.047,0,2.828l-8.343,8.343C51.88,206.948,51.368,207.143,50.856,207.143z"/><path fill="#705ca3" d="M114.27,141.495L114.27,141.495c-8.545-8.545-6.83-22.836,3.495-29.116l22.566-13.726l42.842-26.06 l-26.06,42.842L143.386,138C137.106,148.324,122.815,150.04,114.27,141.495L114.27,141.495z"/><circle cx="128" cy="128" r="8.701" fill="#8d6be2"/><path fill="#690589" d="M128,138.701c-5.9,0-10.701-4.8-10.701-10.701S122.1,117.299,128,117.299s10.701,4.8,10.701,10.701 S133.9,138.701,128,138.701z M128,121.299c-3.695,0-6.701,3.006-6.701,6.701s3.006,6.701,6.701,6.701s6.701-3.006,6.701-6.701 S131.695,121.299,128,121.299z"/><path fill="#690589" d="M127.414,148.959c-5.444,0-10.645-2.137-14.558-6.05c-4.51-4.509-6.66-10.728-5.9-17.06 s4.32-11.864,9.77-15.178l65.408-39.787c0.789-0.479,1.802-0.356,2.453,0.294c0.652,0.652,0.774,1.666,0.295,2.454l-39.787,65.407 c-3.314,5.448-8.847,9.009-15.178,9.77C129.079,148.909,128.243,148.959,127.414,148.959z M177.196,78.569l-58.393,35.519 c-4.393,2.672-7.264,7.133-7.876,12.238c-0.613,5.105,1.121,10.119,4.757,13.755l0,0c3.636,3.635,8.652,5.369,13.755,4.757 c5.105-0.613,9.565-3.484,12.237-7.876L177.196,78.569z"/><path fill="#fcc24c" d="M170.898,206.297H85.102c-2.761,0-5-2.239-5-5v-31.703c0-2.761,2.239-5,5-5h85.796c2.761,0,5,2.239,5,5 v31.703C175.898,204.058,173.66,206.297,170.898,206.297z"/><path fill="#dea42e" d="M170.898,164.593h-7c2.761,0,5,2.239,5,5v31.703c0,2.761-2.239,5-5,5h7c2.761,0,5-2.239,5-5v-31.703 C175.898,166.832,173.66,164.593,170.898,164.593z"/><path fill="#fce06a" d="M85.102,206.297h7c-2.761,0-5-2.239-5-5v-31.703c0-2.761,2.239-5,5-5h-7c-2.761,0-5,2.239-5,5v31.703 C80.102,204.058,82.34,206.297,85.102,206.297z"/><path fill="#690589" d="M170.898,208.297H85.102c-3.859,0-7-3.14-7-7v-31.704c0-3.86,3.141-7,7-7h85.797c3.859,0,7,3.14,7,7v31.704 C177.898,205.157,174.758,208.297,170.898,208.297z M85.102,166.593c-1.654,0-3,1.346-3,3v31.704c0,1.654,1.346,3,3,3h85.797 c1.654,0,3-1.346,3-3v-31.704c0-1.654-1.346-3-3-3H85.102z"/><path fill="#690589" d="M91.552,195.986v-20.904c0-1.036,0.858-1.966,1.966-1.966c1.107,0,1.965,0.929,1.965,1.966v10.256 l11.578-11.613c0.786-0.786,2.001-0.786,2.787,0c0.75,0.75,0.75,2.001,0,2.787l-7.862,7.826l7.933,10.399 c0.715,0.822,0.572,2.073-0.286,2.752c-0.357,0.321-0.786,0.464-1.251,0.464c-0.536,0-1.072-0.25-1.465-0.715l-7.719-10.113 l-3.716,3.788v5.074c0,1.072-0.858,1.966-1.965,1.966C92.41,197.952,91.552,197.059,91.552,195.986z"/><path fill="#690589" d="M138.613,174.903v21.083c0,1.072-0.93,1.966-2.001,1.966c-1.108,0-1.966-0.893-1.966-1.966v-15.044 l-5.145,7.147c-0.393,0.536-0.965,0.822-1.608,0.822h-0.036h-0.036c-0.643,0-1.251-0.286-1.643-0.822l-5.11-7.147v15.044 c0,1.072-0.894,1.966-2.001,1.966c-1.072,0-1.966-0.893-1.966-1.966v-21.083c0-1.072,0.894-1.965,1.966-1.965 c0.035,0,0.035,0,0.107,0c0.572,0,1.215,0.286,1.572,0.822l7.111,9.863l7.111-9.863c0.394-0.536,0.965-0.822,1.608-0.822 c0,0,0,0,0.036,0C137.684,172.974,138.613,173.831,138.613,174.903z"/><path fill="#690589" d="M147.26,195.986v-21.083c0-1.108,0.858-1.965,1.966-1.965c1.107,0,2.001,0.858,2.001,1.965v8.576h9.255 v-8.576c0-1.108,0.858-1.965,1.966-1.965c1.107,0,2.001,0.858,2.001,1.965v21.083c0,1.108-0.894,1.966-2.001,1.966 c-1.108,0-1.966-0.858-1.966-1.966v-8.576h-9.255v8.576c0,1.108-0.894,1.966-2.001,1.966 C148.117,197.952,147.26,197.094,147.26,195.986z"/></svg>