<svg xmlns="http://www.w3.org/2000/svg"  viewBox="0 0 256 256" width="64px" height="64px"><path fill="#f4efed" d="M89.232,203.34L89.232,203.34c-2.409-1.321-3.292-4.345-1.971-6.754L165.08,54.631 c1.321-2.409,4.345-3.292,6.754-1.971l0,0c2.409,1.321,3.292,4.345,1.971,6.754L95.986,201.369 C94.665,203.778,91.641,204.661,89.232,203.34z"/><rect width="91.743" height="69.743" x="149.142" y="81.281" fill="#f4efed" transform="rotate(28.729 195.013 116.16)"/><rect width="69.743" height="7.484" x="197.084" y="132.662" fill="#d6d1cf" transform="rotate(-61.269 231.953 136.4)"/><rect width="30.581" height="23.248" x="217.714" y="98.843" fill="#fcc24c" transform="rotate(28.729 233.006 110.477)"/><rect width="30.581" height="23.248" x="195.363" y="139.614" fill="#fcc24c" transform="rotate(28.729 210.653 151.248)"/><rect width="23.248" height="7.484" x="231.507" y="112.277" fill="#dea42e" transform="rotate(-61.269 243.128 116.016)"/><rect width="23.248" height="7.484" x="209.157" y="153.048" fill="#dea42e" transform="rotate(-61.269 220.777 156.786)"/><rect width="30.581" height="23.248" x="164.082" y="69.443" fill="#fcc24c" transform="rotate(28.729 179.374 81.074)"/><rect width="30.581" height="23.248" x="141.732" y="110.214" fill="#fcc24c" transform="rotate(28.729 157.022 121.845)"/><rect width="30.581" height="23.248" x="179.723" y="104.529" fill="#fcc24c" transform="rotate(28.729 195.014 116.161)"/><path fill="#690589" d="M91.612,205.951c-1.132,0-2.28-0.276-3.341-0.857l0,0c-3.373-1.849-4.612-6.097-2.763-9.469l77.819-141.955 c1.851-3.373,6.099-4.61,9.47-2.763c1.634,0.896,2.82,2.374,3.343,4.163c0.521,1.788,0.316,3.673-0.579,5.307L97.74,202.331 C96.473,204.642,94.079,205.951,91.612,205.951z M90.193,201.586c1.439,0.789,3.251,0.26,4.039-1.178l77.819-141.955 c0.382-0.697,0.47-1.5,0.247-2.263c-0.223-0.763-0.729-1.394-1.426-1.775c-1.439-0.788-3.25-0.26-4.039,1.179L89.015,197.547 c-0.382,0.697-0.47,1.5-0.248,2.264C88.99,200.574,89.497,201.204,90.193,201.586L90.193,201.586z"/><path fill="#690589" d="M187.191,100.61c-0.325,0-0.654-0.08-0.959-0.247l-26.816-14.7c-0.466-0.255-0.811-0.685-0.959-1.194 c-0.148-0.509-0.089-1.056,0.166-1.521l11.176-20.386c0.255-0.465,0.685-0.81,1.193-0.958c0.509-0.149,1.057-0.089,1.522,0.166 L199.33,76.47c0.968,0.531,1.323,1.747,0.792,2.715l-11.175,20.385C188.583,100.234,187.898,100.61,187.191,100.61z M163.092,83.117l23.31,12.777l9.252-16.877l-23.309-12.778L163.092,83.117z"/><path fill="#690589" d="M218.472,170.782c-0.325,0-0.654-0.08-0.959-0.247l-80.447-44.101c-0.466-0.255-0.811-0.685-0.959-1.194 c-0.148-0.509-0.089-1.056,0.166-1.521l33.526-61.157c0.531-0.969,1.746-1.323,2.715-0.792l80.447,44.101 c0.466,0.255,0.811,0.685,0.959,1.194c0.148,0.509,0.089,1.056-0.166,1.521l-33.526,61.157 C219.863,170.406,219.179,170.782,218.472,170.782z M140.741,123.888l76.94,42.178l31.604-57.649l-76.94-42.178L140.741,123.888z"/><path fill="#690589" d="M164.841,141.381c-0.325,0-0.654-0.08-0.959-0.247l-26.816-14.7c-0.466-0.255-0.811-0.685-0.959-1.194 c-0.148-0.509-0.089-1.056,0.166-1.521l11.176-20.385c0.532-0.969,1.748-1.323,2.715-0.792l26.815,14.7 c0.969,0.531,1.324,1.747,0.793,2.715l-11.175,20.385C166.232,141.005,165.548,141.381,164.841,141.381z M140.741,123.888 l23.31,12.777l9.252-16.877l-23.309-12.777L140.741,123.888z"/><path fill="#690589" d="M202.834,135.695c-0.333,0-0.664-0.083-0.961-0.246l-26.816-14.7c-0.466-0.255-0.811-0.685-0.959-1.194 c-0.148-0.509-0.089-1.056,0.166-1.521l11.176-20.386c0.532-0.969,1.747-1.323,2.715-0.792l26.815,14.7 c0.969,0.531,1.324,1.747,0.793,2.715l-11.175,20.386c-0.255,0.465-0.685,0.81-1.193,0.958 C203.211,135.669,203.022,135.695,202.834,135.695z M178.732,118.203l23.31,12.777l9.252-16.878l-23.309-12.777L178.732,118.203z"/><path fill="#690589" d="M240.824,130.01c-0.333,0-0.664-0.083-0.962-0.246l-26.815-14.701c-0.465-0.255-0.81-0.685-0.958-1.194 c-0.148-0.509-0.089-1.056,0.166-1.521l11.176-20.385c0.531-0.969,1.747-1.323,2.715-0.792l26.815,14.7 c0.466,0.255,0.811,0.685,0.959,1.194c0.148,0.509,0.089,1.056-0.166,1.521l-11.176,20.386c-0.255,0.465-0.685,0.81-1.193,0.958 C241.201,129.984,241.012,130.01,240.824,130.01z M216.724,112.517l23.309,12.778l9.253-16.878L225.977,95.64L216.724,112.517z"/><path fill="#690589" d="M218.472,170.782c-0.325,0-0.654-0.08-0.959-0.247l-26.815-14.7c-0.466-0.255-0.811-0.685-0.959-1.194 c-0.148-0.509-0.089-1.056,0.166-1.521l11.176-20.386c0.531-0.969,1.747-1.323,2.715-0.792l26.815,14.7 c0.466,0.255,0.811,0.685,0.959,1.194c0.148,0.509,0.089,1.056-0.166,1.521l-11.176,20.386 C219.863,170.406,219.179,170.782,218.472,170.782z M194.373,153.289l23.309,12.777l9.253-16.878l-23.309-12.777L194.373,153.289z"/><path fill="#f4efed" d="M166.768,203.34L166.768,203.34c2.409-1.321,3.292-4.345,1.971-6.754L90.92,54.631 c-1.321-2.409-4.345-3.292-6.754-1.971l0,0c-2.409,1.321-3.292,4.345-1.971,6.754l77.819,141.955 C161.335,203.778,164.358,204.661,166.768,203.34z"/><rect width="91.742" height="69.743" x="15.115" y="81.281" fill="#f4efed" transform="rotate(151.271 60.987 116.151)"/><rect width="7.484" height="69.743" x="20.302" y="101.533" fill="#fff" transform="rotate(-28.729 24.049 136.406)"/><rect width="30.581" height="23.248" x="7.705" y="98.843" fill="#ff4397" transform="rotate(151.271 22.996 110.466)"/><rect width="30.581" height="23.248" x="30.056" y="139.614" fill="#ff4397" transform="rotate(151.271 45.347 151.237)"/><rect width="7.484" height="23.248" x="9.127" y="104.395" fill="#ff61b5" transform="rotate(-28.729 12.873 116.02)"/><rect width="7.484" height="23.248" x="31.478" y="145.166" fill="#ff61b5" transform="rotate(-28.729 35.225 156.792)"/><rect width="30.581" height="23.248" x="61.337" y="69.443" fill="#ff4397" transform="rotate(151.271 76.627 81.065)"/><rect width="30.581" height="23.248" x="83.687" y="110.214" fill="#ff4397" transform="rotate(151.271 98.978 121.836)"/><rect width="30.581" height="23.248" x="45.696" y="104.529" fill="#ff4397" transform="rotate(151.271 60.987 116.151)"/><path fill="#690589" d="M164.388,205.951c-2.466,0-4.86-1.309-6.128-3.62L80.44,60.375c-1.849-3.372-0.609-7.62,2.764-9.469 c1.633-0.896,3.519-1.102,5.307-0.58c1.789,0.522,3.267,1.709,4.163,3.343l77.82,141.955c0.896,1.634,1.101,3.519,0.579,5.307 c-0.522,1.789-1.709,3.267-3.344,4.163C166.668,205.675,165.521,205.951,164.388,205.951z M86.553,54.046 c-0.493,0-0.981,0.124-1.426,0.368c-0.697,0.382-1.203,1.012-1.426,1.775c-0.223,0.763-0.135,1.566,0.247,2.263l77.819,141.955 c0.788,1.439,2.602,1.966,4.038,1.178c0.001,0,0.001,0,0.001,0c0.696-0.382,1.203-1.012,1.426-1.775 c0.223-0.763,0.135-1.566-0.247-2.264L89.166,55.592c-0.382-0.697-1.012-1.203-1.775-1.426 C87.114,54.086,86.833,54.046,86.553,54.046z"/><path fill="#690589" d="M68.809,100.61c-0.707,0-1.392-0.375-1.756-1.039L55.877,79.186c-0.531-0.969-0.176-2.184,0.792-2.715 L83.486,61.77c0.465-0.255,1.014-0.314,1.521-0.166c0.509,0.148,0.939,0.493,1.194,0.958l11.175,20.386 c0.255,0.465,0.314,1.013,0.166,1.521c-0.148,0.509-0.493,0.939-0.958,1.194l-26.816,14.7 C69.463,100.53,69.133,100.61,68.809,100.61z M60.347,79.017l9.252,16.877l23.308-12.777l-9.252-16.878L60.347,79.017z"/><path fill="#690589" d="M37.526,170.781c-0.188,0-0.376-0.026-0.56-0.08c-0.509-0.148-0.939-0.493-1.194-0.958L2.246,108.586 c-0.531-0.969-0.176-2.184,0.792-2.715L83.486,61.77c0.465-0.255,1.014-0.314,1.521-0.166c0.509,0.148,0.939,0.493,1.194,0.958 l33.526,61.157c0.531,0.969,0.176,2.184-0.792,2.715l-80.447,44.101C38.19,170.698,37.859,170.781,37.526,170.781z M6.715,108.417 l31.603,57.649l76.939-42.178L83.655,66.239L6.715,108.417z"/><path fill="#690589" d="M91.16,141.381c-0.707,0-1.392-0.375-1.756-1.039l-11.175-20.385c-0.255-0.465-0.314-1.013-0.166-1.521 c0.148-0.509,0.493-0.938,0.958-1.194l26.815-14.7c0.97-0.53,2.185-0.176,2.715,0.792l11.175,20.385 c0.255,0.465,0.314,1.013,0.166,1.521c-0.148,0.509-0.493,0.939-0.958,1.194l-26.815,14.7 C91.814,141.301,91.484,141.381,91.16,141.381z M82.698,119.788l9.252,16.877l23.308-12.777l-9.252-16.877L82.698,119.788z"/><path fill="#690589" d="M53.168,135.696c-0.707,0-1.392-0.375-1.756-1.039l-11.175-20.386c-0.531-0.969-0.176-2.184,0.792-2.715 l26.815-14.7c0.97-0.53,2.186-0.175,2.715,0.792l11.176,20.386c0.255,0.465,0.314,1.013,0.166,1.521 c-0.148,0.509-0.493,0.939-0.958,1.194l-26.816,14.7C53.823,135.616,53.493,135.696,53.168,135.696z M44.707,114.102l9.252,16.878 l23.308-12.777l-9.253-16.878L44.707,114.102z"/><path fill="#690589" d="M15.175,130.01c-0.188,0-0.376-0.026-0.56-0.08c-0.509-0.148-0.939-0.493-1.194-0.958L2.246,108.586 c-0.255-0.465-0.314-1.013-0.166-1.521c0.148-0.509,0.493-0.939,0.958-1.194l26.816-14.7c0.97-0.53,2.185-0.176,2.715,0.792 l11.175,20.385c0.531,0.969,0.176,2.184-0.792,2.715l-26.816,14.701C15.839,129.927,15.508,130.01,15.175,130.01z M6.715,108.417 l9.252,16.878l23.308-12.778L30.023,95.64L6.715,108.417z"/><path fill="#690589" d="M18.347,120.322c-0.707,0-1.392-0.375-1.756-1.039l-4.77-8.7c-0.531-0.969-0.176-2.184,0.792-2.715 c0.97-0.53,2.185-0.175,2.715,0.792l4.77,8.7c0.531,0.969,0.176,2.184-0.792,2.715C19.001,120.243,18.671,120.322,18.347,120.322z"/><path fill="#690589" d="M37.528,170.782c-0.707,0-1.392-0.375-1.756-1.039l-11.175-20.386c-0.255-0.465-0.314-1.013-0.166-1.521 c0.148-0.509,0.493-0.939,0.958-1.194l26.816-14.7c0.97-0.53,2.185-0.176,2.715,0.792l11.175,20.386 c0.255,0.465,0.314,1.013,0.166,1.521c-0.148,0.509-0.493,0.939-0.958,1.194l-26.816,14.7 C38.182,170.702,37.853,170.782,37.528,170.782z M29.066,149.188l9.252,16.878l23.308-12.777l-9.252-16.878L29.066,149.188z"/></svg>