<svg xmlns="http://www.w3.org/2000/svg"  viewBox="0 0 256 256" width="64px" height="64px"><path fill="#f4efed" d="M205.894,175.866H49.546c-5.784,0-10.473-4.689-10.473-10.473v-61.615c0-5.784,4.689-10.473,10.473-10.473 h156.348c5.784,0,10.473,4.689,10.473,10.473v61.615C216.367,171.177,211.678,175.866,205.894,175.866z"/><path fill="#7bac51" d="M4,106.192v56.788c0,4.264,3.456,7.72,7.72,7.72l0,0c4.264,0,7.72-3.456,7.72-7.72v-56.788 c0-4.264-3.456-7.72-7.72-7.72l0,0C7.456,98.472,4,101.928,4,106.192z"/><path fill="#ff4397" d="M241.527,175.866h-10.39V93.305h10.39c5.784,0,10.473,4.689,10.473,10.473v61.615 C252,171.177,247.311,175.866,241.527,175.866z"/><rect width="14.771" height="44.853" x="216.367" y="112.159" fill="#576fa5"/><rect width="22.806" height="19.633" x="17.854" y="124.769" fill="#576fa5" transform="rotate(-90 29.257 134.585)"/><path fill="#99ca6f" d="M12,162.979v-56.787c0-2.797,1.493-5.24,3.72-6.594c-1.168-0.71-2.534-1.126-4-1.126 c-4.264,0-7.72,3.456-7.72,7.72v56.787c0,4.264,3.456,7.72,7.72,7.72c1.466,0,2.832-0.416,4-1.126 C13.493,168.219,12,165.776,12,162.979z"/><path fill="#d6d1cf" d="M205.894,93.305h-9c5.784,0,10.473,4.689,10.473,10.473v61.615c0,5.784-4.689,10.473-10.473,10.473h9 c5.784,0,10.473-4.689,10.473-10.473v-61.615C216.367,97.994,211.678,93.305,205.894,93.305z"/><path fill="#fff" d="M49.546,175.866h9c-5.784,0-10.473-4.689-10.473-10.473v-61.615c0-5.784,4.689-10.473,10.473-10.473h-9 c-5.784,0-10.473,4.689-10.473,10.473v61.615C39.074,171.177,43.762,175.866,49.546,175.866z"/><path fill="#690589" d="M205.894,177.866H49.546c-6.877,0-12.473-5.595-12.473-12.473v-61.615c0-6.877,5.595-12.473,12.473-12.473 h156.348c6.877,0,12.473,5.595,12.473,12.473v61.615C218.367,172.271,212.771,177.866,205.894,177.866z M49.546,95.305 c-4.672,0-8.473,3.801-8.473,8.473v61.615c0,4.672,3.801,8.473,8.473,8.473h156.348c4.672,0,8.473-3.801,8.473-8.473v-61.615 c0-4.672-3.801-8.473-8.473-8.473H49.546z"/><path fill="#e12579" d="M241.527,93.305h-8c5.784,0,10.473,4.689,10.473,10.473v61.615c0,5.784-4.689,10.473-10.473,10.473h8 c5.784,0,10.473-4.689,10.473-10.473v-61.615C252,97.994,247.311,93.305,241.527,93.305z"/><path fill="#690589" d="M231.138,159.012h-14.771c-1.104,0-2-0.896-2-2v-44.853c0-1.104,0.896-2,2-2h14.771c1.104,0,2,0.896,2,2 v44.853C233.138,158.116,232.242,159.012,231.138,159.012z M218.367,155.012h10.771v-40.853h-10.771V155.012z"/><path fill="#690589" d="M241.527,177.866h-10.39c-1.104,0-2-0.896-2-2V93.305c0-1.104,0.896-2,2-2h10.39 c6.877,0,12.473,5.595,12.473,12.473v61.615C254,172.271,248.405,177.866,241.527,177.866z M233.138,173.866h8.39 c4.672,0,8.473-3.801,8.473-8.473v-61.615c0-4.672-3.801-8.473-8.473-8.473h-8.39V173.866z"/><path fill="#690589" d="M11.72,172.699c-5.36,0-9.72-4.36-9.72-9.72v-56.788c0-5.359,4.36-9.72,9.72-9.72 c5.359,0,9.72,4.36,9.72,9.72v56.788C21.44,168.339,17.08,172.699,11.72,172.699z M11.72,100.472c-3.154,0-5.72,2.566-5.72,5.72 v56.788c0,3.154,2.566,5.72,5.72,5.72c3.154,0,5.72-2.566,5.72-5.72v-56.788C17.44,103.038,14.874,100.472,11.72,100.472z"/><path fill="#690589" d="M39.074,147.988H19.44c-1.104,0-2-0.896-2-2v-22.806c0-1.104,0.896-2,2-2h19.634c1.104,0,2,0.896,2,2v22.806 C41.074,147.093,40.178,147.988,39.074,147.988z M21.44,143.988h15.634v-18.806H21.44V143.988z"/><path fill="#f4efed" d="M181.676,70.157H73.764c-5.784,0-10.473,4.689-10.473,10.473v107.912c0,5.784,4.689,10.473,10.473,10.473 h21.477v11.43c0,5.784,4.689,10.473,10.473,10.473h75.963c5.784,0,10.473-4.689,10.473-10.473v-11.43V80.629 C192.149,74.845,187.46,70.157,181.676,70.157z"/><path fill="#fff" d="M71.291,188.542V80.629c0-5.784,4.688-10.472,10.471-10.473h-7.999c-5.784,0-10.473,4.689-10.473,10.473 v107.912c0,5.784,4.689,10.473,10.473,10.473h7.999C75.98,199.013,71.291,194.325,71.291,188.542z"/><path fill="#fff" d="M103.241,210.444v-6.43c0-2.762-2.239-5-5-5h-3v11.43c0,5.784,4.689,10.473,10.473,10.473h8 C107.93,220.917,103.241,216.228,103.241,210.444z"/><path fill="#fcc24c" d="M166.587,35.083H88.854c-4.264,0-7.72,3.456-7.72,7.72l0,0c0,4.264,3.456,7.72,7.72,7.72h77.733 c4.264,0,7.72-3.456,7.72-7.72l0,0C174.307,38.539,170.85,35.083,166.587,35.083z"/><rect width="22.806" height="19.633" x="116.317" y="50.523" fill="#576fa5"/><path fill="#dea42e" d="M166.587,35.083h-10c4.264,0,7.72,3.456,7.72,7.72s-3.456,7.72-7.72,7.72h10c4.264,0,7.72-3.456,7.72-7.72 S170.85,35.083,166.587,35.083z"/><path fill="#fce06a" d="M88.854,50.523h10c-4.264,0-7.72-3.456-7.72-7.72s3.456-7.72,7.72-7.72h-10c-4.264,0-7.72,3.456-7.72,7.72 S84.59,50.523,88.854,50.523z"/><path fill="#d6d1cf" d="M181.676,70.157h-8c5.784,0,10.473,4.689,10.473,10.473v118.385v11.43c0,5.784-4.689,10.473-10.473,10.473h8 c5.784,0,10.473-4.689,10.473-10.473v-11.43V80.629C192.149,74.845,187.46,70.157,181.676,70.157z"/><path fill="#690589" d="M166.586,52.523H88.854c-5.36,0-9.72-4.36-9.72-9.72c0-5.36,4.36-9.72,9.72-9.72h77.732 c5.36,0,9.72,4.36,9.72,9.72C176.307,48.163,171.946,52.523,166.586,52.523z M88.854,37.083c-3.154,0-5.72,2.566-5.72,5.72 c0,3.154,2.566,5.72,5.72,5.72h77.732c3.154,0,5.72-2.566,5.72-5.72c0-3.154-2.566-5.72-5.72-5.72H88.854z"/><path fill="#690589" d="M139.124,72.157h-22.807c-1.104,0-2-0.896-2-2V50.523c0-1.104,0.896-2,2-2h22.807c1.104,0,2,0.896,2,2v19.634 C141.124,71.261,140.228,72.157,139.124,72.157z M118.317,68.157h18.807V52.523h-18.807V68.157z"/><path fill="#690589" d="M181.676,222.917h-75.962c-6.877,0-12.473-5.595-12.473-12.473v-9.43H73.764 c-6.877,0-12.473-5.595-12.473-12.473V80.629c0-6.877,5.595-12.473,12.473-12.473h107.912c6.877,0,12.473,5.595,12.473,12.473 v129.815C194.149,217.322,188.554,222.917,181.676,222.917z M73.764,72.157c-4.672,0-8.473,3.801-8.473,8.473v107.912 c0,4.672,3.801,8.473,8.473,8.473h21.477c1.104,0,2,0.896,2,2v11.43c0,4.672,3.801,8.473,8.473,8.473h75.962 c4.672,0,8.473-3.801,8.473-8.473V80.629c0-4.672-3.801-8.473-8.473-8.473H73.764z"/><path fill="#690589" d="M71.669,101.729c-1.104,0-2-0.896-2-2V87.162c0-1.104,0.896-2,2-2s2,0.896,2,2v12.567 C73.669,100.833,72.774,101.729,71.669,101.729z"/><polygon fill="#fcc24c" points="115.29,94.706 150.509,94.706 132.899,119.911 162.593,119.911 107.349,174.465 116.671,139.247 92.847,139.247"/><path fill="#690589" d="M107.348,176.465c-0.344,0-0.689-0.088-1.002-0.27c-0.78-0.452-1.161-1.371-0.931-2.242l8.658-32.707H92.847 c-0.694,0-1.339-0.36-1.703-0.951c-0.364-0.591-0.396-1.329-0.083-1.949l22.443-44.541c0.34-0.675,1.031-1.1,1.786-1.1h35.219 c0.746,0,1.429,0.415,1.773,1.076c0.345,0.661,0.293,1.458-0.134,2.07l-15.412,22.06h25.857c0.811,0,1.542,0.49,1.85,1.24 c0.308,0.75,0.132,1.613-0.445,2.183l-55.245,54.554C108.37,176.268,107.861,176.465,107.348,176.465z M96.094,137.247h20.577 c0.621,0,1.206,0.288,1.585,0.78c0.378,0.492,0.507,1.131,0.349,1.731l-7.448,28.135l46.564-45.982h-24.822 c-0.746,0-1.429-0.415-1.773-1.076c-0.345-0.661-0.293-1.458,0.134-2.07l15.412-22.06h-30.15L96.094,137.247z"/></svg>