<svg xmlns="http://www.w3.org/2000/svg"  viewBox="0 0 256 256" width="64px" height="64px"><path fill="#f4efed" d="M252,148.769v-41.538h-22.987c-2.67-13.056-7.824-25.201-14.921-35.951l16.275-16.275l-29.372-29.372 L184.72,41.908c-10.75-7.097-22.895-12.251-35.951-14.921V4h-41.538v22.987c-13.056,2.67-25.201,7.825-35.951,14.921 L55.005,25.633L25.633,55.005L41.908,71.28c-7.097,10.75-12.251,22.895-14.921,35.951H4v41.538h22.987 c2.67,13.056,7.824,25.201,14.921,35.951l-16.275,16.275l29.372,29.372l16.275-16.275c10.75,7.097,22.895,12.251,35.951,14.922 V252h41.538v-22.986c13.056-2.67,25.201-7.825,35.951-14.922l16.275,16.275l29.372-29.372l-16.275-16.275 c7.097-10.75,12.251-22.895,14.921-35.951H252z M127.999,205.417c-42.756,0-77.417-34.661-77.417-77.417 s34.661-77.417,77.417-77.417c42.757,0,77.418,34.661,77.418,77.417S170.756,205.417,127.999,205.417z"/><path fill="#d6d1cf" d="M216.559,55.005l-12.404,12.404c-2.234,2.234-2.644,5.685-1.041,8.408 c4.76,8.085,8.454,16.872,10.874,26.174c0.799,3.069,3.525,5.24,6.697,5.24h8.329c-2.67-13.056-7.824-25.201-14.921-35.951 l16.275-16.275l-29.372-29.372l-6.904,6.904L216.559,55.005z"/><path fill="#d6d1cf" d="M229.013,148.769h-8.329c-3.171,0-5.898,2.171-6.697,5.24c-2.421,9.302-6.115,18.089-10.874,26.175 c-1.603,2.723-1.193,6.174,1.041,8.407l12.404,12.404l-22.468,22.468l6.904,6.904l29.372-29.372l-16.275-16.275 C221.189,173.97,226.343,161.825,229.013,148.769z"/><rect width="13.809" height="41.538" x="238.191" y="107.231" fill="#d6d1cf"/><path fill="#fff" d="M39.442,55.005l12.404,12.404c2.234,2.234,2.644,5.685,1.041,8.408c-4.76,8.085-8.454,16.872-10.874,26.174 c-0.799,3.069-3.525,5.24-6.697,5.24h-8.329c2.67-13.056,7.824-25.201,14.921-35.951L25.633,55.005l29.372-29.372l6.904,6.904 L39.442,55.005z"/><path fill="#fff" d="M26.987,148.769h8.329c3.172,0,5.898,2.171,6.697,5.24c2.421,9.302,6.115,18.089,10.874,26.175 c1.603,2.723,1.193,6.174-1.041,8.407l-12.404,12.404l22.468,22.468l-6.904,6.904l-29.372-29.372l16.275-16.275 C34.811,173.97,29.657,161.825,26.987,148.769z"/><rect width="13.809" height="41.538" x="4" y="107.231" fill="#fff"/><path fill="#690589" d="M148.769,254H107.23c-1.104,0-2-0.896-2-2v-21.367c-11.963-2.641-23.278-7.339-33.681-13.982l-15.131,15.13 c-0.781,0.781-2.047,0.781-2.828,0l-29.372-29.372c-0.781-0.781-0.781-2.047,0-2.828l15.13-15.13 c-6.644-10.404-11.341-21.72-13.981-33.682H4c-1.104,0-2-0.896-2-2v-41.538c0-1.104,0.896-2,2-2h21.367 c2.641-11.962,7.338-23.278,13.981-33.682l-15.13-15.13c-0.781-0.781-0.781-2.047,0-2.828l29.372-29.372 c0.781-0.781,2.047-0.781,2.828,0l15.131,15.13c10.402-6.643,21.718-11.34,33.681-13.981V4c0-1.104,0.896-2,2-2h41.538 c1.104,0,2,0.896,2,2v21.368c11.963,2.642,23.279,7.339,33.682,13.981l15.131-15.13c0.781-0.781,2.047-0.781,2.828,0 l29.372,29.372c0.781,0.781,0.781,2.047,0,2.828l-15.13,15.13c6.642,10.402,11.34,21.718,13.981,33.682H252c1.104,0,2,0.896,2,2 v41.538c0,1.104-0.896,2-2,2h-21.367c-2.642,11.964-7.34,23.28-13.981,33.682l15.13,15.13c0.781,0.781,0.781,2.047,0,2.828 l-29.372,29.372c-0.781,0.781-2.047,0.781-2.828,0l-15.131-15.13c-10.402,6.643-21.719,11.341-33.682,13.982V252 C150.769,253.104,149.873,254,148.769,254z M109.23,250h37.538v-20.986c0-0.95,0.668-1.769,1.6-1.959 c12.582-2.573,24.441-7.496,35.25-14.631c0.791-0.524,1.844-0.417,2.516,0.255l14.861,14.861l26.544-26.543l-14.861-14.861 c-0.672-0.671-0.778-1.723-0.255-2.516c7.135-10.807,12.058-22.667,14.632-35.25c0.19-0.931,1.009-1.599,1.959-1.599H250v-37.538 h-20.986c-0.95,0-1.769-0.668-1.959-1.599c-2.574-12.583-7.497-24.443-14.632-35.25c-0.523-0.793-0.417-1.845,0.255-2.516 l14.861-14.861l-26.544-26.543l-14.861,14.861c-0.671,0.672-1.724,0.78-2.516,0.255c-10.808-7.135-22.668-12.057-35.25-14.631 c-0.932-0.19-1.6-1.009-1.6-1.959V6H109.23v20.987c0,0.95-0.668,1.769-1.6,1.959C95.05,31.52,83.19,36.442,72.382,43.577 c-0.792,0.524-1.845,0.417-2.516-0.255L55.005,28.461L28.461,55.005l14.861,14.861c0.672,0.671,0.778,1.723,0.255,2.516 c-7.136,10.809-12.059,22.668-14.632,35.25c-0.189,0.931-1.009,1.599-1.959,1.599H6v37.538h20.986c0.95,0,1.77,0.668,1.959,1.599 c2.573,12.581,7.496,24.441,14.632,35.25c0.523,0.793,0.417,1.845-0.255,2.516l-14.861,14.861l26.544,26.543l14.861-14.861 c0.672-0.671,1.725-0.779,2.516-0.255c10.808,7.135,22.668,12.058,35.249,14.631c0.932,0.19,1.6,1.009,1.6,1.959V250z M127.999,207.417c-43.79,0-79.416-35.626-79.416-79.417s35.626-79.417,79.416-79.417c43.791,0,79.418,35.626,79.418,79.417 S171.79,207.417,127.999,207.417z M127.999,52.583c-41.585,0-75.416,33.832-75.416,75.417s33.831,75.417,75.416,75.417 c41.586,0,75.418-33.832,75.418-75.417S169.585,52.583,127.999,52.583z"/><circle cx="206.787" cy="206.787" r="45.213" fill="#fcc24c" transform="rotate(-80.781 206.791 206.784)"/><path fill="#dea42e" d="M206.787,161.574c-1.241,0-2.467,0.064-3.683,0.162c23.246,1.876,41.53,21.322,41.53,45.051 c0,23.729-18.284,43.175-41.53,45.051c1.216,0.098,2.442,0.163,3.683,0.163c24.97,0,45.213-20.243,45.213-45.213 S231.758,161.574,206.787,161.574z"/><path fill="#fce06a" d="M206.787,252c1.241,0,2.467-0.064,3.683-0.162c-23.246-1.876-41.53-21.322-41.53-45.051 c0-23.729,18.284-43.175,41.53-45.051c-1.216-0.098-2.442-0.162-3.683-0.162c-24.97,0-45.213,20.243-45.213,45.213 C161.574,231.758,181.817,252,206.787,252z"/><polygon fill="#576fa5" points="232.464,198.866 214.707,198.866 214.707,181.11 198.866,181.11 198.866,198.866 181.11,198.866 181.11,214.708 198.866,214.708 198.866,232.464 214.707,232.464 214.707,214.708 232.464,214.708"/><path fill="#690589" d="M214.707,234.464h-15.841c-1.104,0-2-0.896-2-2v-15.756H181.11c-1.104,0-2-0.896-2-2v-15.841 c0-1.104,0.896-2,2-2h15.756V181.11c0-1.104,0.896-2,2-2h15.841c1.104,0,2,0.896,2,2v15.756h15.758c1.104,0,2,0.896,2,2v15.841 c0,1.104-0.896,2-2,2h-15.758v15.756C216.707,233.568,215.812,234.464,214.707,234.464z M200.866,230.464h11.841v-15.756 c0-1.104,0.896-2,2-2h15.758v-11.841h-15.758c-1.104,0-2-0.896-2-2V183.11h-11.841v15.756c0,1.104-0.896,2-2,2H183.11v11.841 h15.756c1.104,0,2,0.896,2,2V230.464z"/><path fill="#690589" d="M206.787,254c-26.033,0-47.213-21.18-47.213-47.213s21.18-47.213,47.213-47.213S254,180.754,254,206.787 S232.82,254,206.787,254z M206.787,163.574c-23.828,0-43.213,19.385-43.213,43.213S182.959,250,206.787,250 S250,230.615,250,206.787S230.615,163.574,206.787,163.574z"/><polygon fill="#7bac51" points="118.161,175.026 67.866,127.352 85.221,109.046 118.746,140.824 173.031,92.626 189.751,111.518"/><path fill="#690589" d="M118.161,177.026c-0.495,0-0.991-0.184-1.376-0.548L66.49,128.804c-0.385-0.365-0.609-0.868-0.623-1.398 c-0.015-0.53,0.183-1.044,0.548-1.429l17.355-18.307c0.759-0.801,2.026-0.835,2.827-0.076l32.192,30.517l52.913-46.98 c0.396-0.353,0.919-0.532,1.448-0.501c0.53,0.032,1.025,0.273,1.378,0.671l16.721,18.892c0.731,0.827,0.655,2.089-0.171,2.822 l-71.591,63.508C119.109,176.858,118.635,177.026,118.161,177.026z M70.693,127.276l47.513,45.036l68.725-60.965l-14.069-15.896 l-52.787,46.868c-0.778,0.689-1.952,0.669-2.704-0.044l-32.073-30.403L70.693,127.276z"/><path fill="#690589" d="M17.809,136.322c-1.104,0-2-0.896-2-2v-12c0-1.104,0.896-2,2-2s2,0.896,2,2v12 C19.809,135.426,18.913,136.322,17.809,136.322z"/></svg>