<svg xmlns="http://www.w3.org/2000/svg"  viewBox="0 0 256 256" width="64px" height="64px"><circle cx="128" cy="128" r="124" fill="#576fa5"/><path fill="#758ec3" d="M14,128C14,61.192,66.836,6.734,133,4.109C131.341,4.043,129.675,4,128,4C59.517,4,4,59.517,4,128 s55.517,124,124,124c1.675,0,3.341-0.043,5-0.109C66.836,249.266,14,194.808,14,128z"/><path fill="#395288" d="M242,128c0,66.808-52.836,121.266-119,123.891c1.659,0.066,3.324,0.109,5,0.109c68.483,0,124-55.517,124-124 S196.483,4,128,4c-1.676,0-3.341,0.043-5,0.109C189.164,6.734,242,61.192,242,128z"/><circle cx="128" cy="128" r="104.397" fill="#fcc24c"/><path fill="#f4efed" d="M170.975,75.886c-4.888,0-8.851,3.963-8.851,8.851v34.387h-25.272V84.737c0-4.888-3.963-8.851-8.851-8.851 c-4.889,0-8.851,3.963-8.851,8.851v34.387H93.877V84.737c0-4.888-3.963-8.851-8.851-8.851c-4.888,0-8.851,3.963-8.851,8.851 v86.477c0,4.888,3.963,8.851,8.851,8.851c4.889,0,8.851-3.963,8.851-8.851v-34.387h25.272v34.387c0,4.888,3.963,8.851,8.851,8.851 c4.888,0,8.851-3.963,8.851-8.851v-34.387h25.272v34.387c0,4.888,3.963,8.851,8.851,8.851c4.888,0,8.851-3.963,8.851-8.851V84.737 C179.826,79.849,175.863,75.886,170.975,75.886z"/><path fill="#690589" d="M128,254C58.523,254,2,197.477,2,128S58.523,2,128,2s126,56.523,126,126S197.477,254,128,254z M128,6 C60.729,6,6,60.729,6,128s54.729,122,122,122s122-54.729,122-122S195.271,6,128,6z"/><path fill="#690589" d="M11.977,130.239c-1.104,0-2-0.896-2-2c0-4.071,0.2-8.174,0.595-12.195c0.107-1.1,1.092-1.901,2.186-1.795 c1.099,0.107,1.903,1.086,1.795,2.186c-0.382,3.892-0.575,7.863-0.575,11.805C13.977,129.344,13.081,130.239,11.977,130.239z"/><path fill="#690589" d="M128,234.397c-58.668,0-106.397-47.729-106.397-106.397S69.332,21.603,128,21.603S234.397,69.332,234.397,128 S186.668,234.397,128,234.397z M128,25.603C71.538,25.603,25.603,71.538,25.603,128S71.538,230.397,128,230.397 S230.397,184.462,230.397,128S184.462,25.603,128,25.603z"/><path fill="#690589" d="M170.975,182.065c-5.983,0-10.851-4.868-10.851-10.852v-32.387h-21.272v32.387 c0,5.983-4.868,10.852-10.851,10.852s-10.851-4.868-10.851-10.852v-32.387H95.876v32.387c0,5.983-4.868,10.852-10.851,10.852 s-10.851-4.868-10.851-10.852V84.737c0-5.983,4.868-10.852,10.851-10.852s10.851,4.868,10.851,10.852v32.387h21.272V84.737 c0-5.983,4.868-10.852,10.851-10.852s10.851,4.868,10.851,10.852v32.387h21.272V84.737c0-5.983,4.868-10.852,10.851-10.852 s10.851,4.868,10.851,10.852v86.477C181.826,177.197,176.958,182.065,170.975,182.065z M136.851,134.827h25.272 c1.104,0,2,0.896,2,2v34.387c0,3.778,3.073,6.852,6.851,6.852s6.851-3.073,6.851-6.852V84.737c0-3.778-3.073-6.852-6.851-6.852 s-6.851,3.073-6.851,6.852v34.387c0,1.104-0.896,2-2,2h-25.272c-1.104,0-2-0.896-2-2V84.737c0-3.778-3.073-6.852-6.851-6.852 s-6.851,3.073-6.851,6.852v34.387c0,1.104-0.896,2-2,2H93.876c-1.104,0-2-0.896-2-2V84.737c0-3.778-3.073-6.852-6.851-6.852 s-6.851,3.073-6.851,6.852v86.477c0,3.778,3.073,6.852,6.851,6.852s6.851-3.073,6.851-6.852v-34.387c0-1.104,0.896-2,2-2h25.272 c1.104,0,2,0.896,2,2v34.387c0,3.778,3.073,6.852,6.851,6.852s6.851-3.073,6.851-6.852v-34.387 C134.851,135.723,135.747,134.827,136.851,134.827z"/><path fill="#690589" d="M88.974,49.888V69.2c0,1.015-0.851,1.801-1.833,1.801c-1.015,0-1.8-0.786-1.8-1.801V53.096l-1.31,0.752 c-0.295,0.196-0.622,0.262-0.917,0.262c-0.622,0-1.211-0.327-1.538-0.916c-0.557-0.818-0.262-1.964,0.589-2.455l4.026-2.389 c0.033-0.033,0.098-0.033,0.131-0.065c0.066,0,0.098-0.066,0.164-0.099c0.065,0,0.131-0.033,0.196-0.033 c0.033-0.033,0.098-0.033,0.131-0.033c0.065-0.033,0.163-0.033,0.229-0.033c0.033,0,0.066,0,0.098,0h0.033 c0.098,0,0.164,0,0.229,0c0.033,0.033,0.098,0.033,0.131,0.033c0.098,0,0.131,0.033,0.196,0.065c0.033,0,0.098,0,0.131,0.033 c0.098,0.066,0.131,0.099,0.196,0.099c0.033,0.033,0.065,0.065,0.131,0.098c0.033,0.033,0.098,0.065,0.131,0.099 c0.066,0.033,0.098,0.098,0.131,0.13c0.033,0.033,0.066,0.066,0.098,0.131c0.033,0.033,0.098,0.098,0.131,0.131l0.033,0.065 c0,0.033,0.033,0.065,0.033,0.098c0.033,0.066,0.066,0.099,0.066,0.164c0.033,0.065,0.033,0.131,0.065,0.164 c0,0.065,0.033,0.131,0.033,0.164c0,0.098,0,0.163,0.065,0.229C88.974,49.822,88.974,49.855,88.974,49.888z"/><path fill="#690589" d="M132.82,57.123c1.604,1.571,2.39,3.666,2.39,5.728s-0.786,4.157-2.39,5.76 c-1.571,1.572-3.666,2.39-5.761,2.39c-2.062,0-4.157-0.818-5.728-2.39c-0.72-0.72-0.72-1.898,0-2.618 c0.72-0.721,1.898-0.721,2.619,0c0.851,0.851,1.964,1.276,3.11,1.276c1.146,0,2.258-0.425,3.142-1.276 c0.884-0.884,1.309-1.997,1.309-3.142c0-1.146-0.426-2.259-1.309-3.11c-0.851-0.884-1.964-1.277-3.11-1.309 c-0.524,0.033-1.015-0.196-1.342-0.589c-0.033,0-0.033,0-0.033-0.033c-0.753-0.721-0.753-1.866-0.066-2.619l3.339-3.404h-5.302 c-1.015,0-1.833-0.818-1.833-1.866c0-1.015,0.818-1.833,1.833-1.833h9.656c1.048,0,1.866,0.818,1.866,1.833 c0,0.328-0.098,0.622-0.229,0.884c-0.098,0.164-0.197,0.328-0.327,0.459l-4.124,4.255C131.38,55.911,132.165,56.435,132.82,57.123 z"/><path fill="#690589" d="M176.146,57.122c1.604,1.571,2.389,3.666,2.389,5.761c0,2.062-0.818,4.157-2.389,5.729 C174.575,70.215,172.48,71,170.418,71c-0.066,0-0.066,0-0.066,0c-2.029,0-4.157-0.786-5.695-2.389 c-0.753-0.688-0.753-1.866,0-2.619c0.687-0.72,1.898-0.72,2.619,0c0.851,0.884,1.964,1.309,3.142,1.309 c1.113,0,2.258-0.425,3.11-1.309c0.851-0.851,1.309-1.996,1.309-3.11c0-1.178-0.425-2.291-1.309-3.142 c-0.852-0.884-1.964-1.277-3.11-1.277c-1.113,0-2.291,0.393-3.142,1.277c-0.72,0.721-1.898,0.721-2.619,0 c-0.131-0.13-0.229-0.294-0.36-0.425c0-0.065,0-0.098-0.033-0.098c0-0.066-0.033-0.131-0.065-0.164 c0-0.099-0.033-0.164-0.033-0.229c0-0.033-0.033-0.033-0.033-0.065c-0.033-0.196-0.033-0.393,0-0.557l0.982-8.478 c0.098-0.556,0.393-1.014,0.818-1.309c0.066-0.033,0.098-0.033,0.131-0.065c0.033-0.033,0.066-0.033,0.098-0.065 c0.262-0.131,0.524-0.197,0.851-0.197h9.656c1.047,0,1.865,0.818,1.865,1.866c0,0.981-0.818,1.832-1.865,1.832h-8.052 l-0.393,3.241c0.72-0.196,1.473-0.295,2.193-0.295C172.48,54.732,174.575,55.518,176.146,57.122z"/><path fill="#690589" d="M92.771,205.065c0,1.015-0.786,1.801-1.801,1.801H79.383c0,0,0,0-0.033,0h-0.033 c-0.491,0-1.015-0.196-1.342-0.589c-0.687-0.752-0.622-1.866,0.098-2.553l9.689-8.772c0.949-0.851,1.375-1.964,1.375-3.142 c0-1.047-0.36-2.03-1.08-2.847c-0.851-0.95-1.997-1.375-3.142-1.375c-1.015,0-2.03,0.36-2.848,1.08l-1.014,0.917 c-0.753,0.687-1.866,0.621-2.553-0.131c-0.655-0.753-0.622-1.866,0.131-2.553l1.014-0.917c1.473-1.374,3.405-2.029,5.27-2.029 c2.127,0,4.288,0.884,5.826,2.585c1.375,1.473,2.03,3.404,2.03,5.27c0,2.127-0.884,4.288-2.586,5.827l-6.186,5.597h6.972 C91.985,203.232,92.771,204.051,92.771,205.065z"/><path fill="#690589" d="M136.941,200.777c0,1.015-0.818,1.801-1.833,1.801h-0.327v2.487c0,1.015-0.786,1.801-1.8,1.801 c-1.015,0-1.8-0.786-1.8-1.801v-2.487h-10.245h-0.033h-0.033c-0.393,0-0.785-0.099-1.113-0.393 c-0.818-0.622-0.916-1.736-0.294-2.52l12.111-15.057c0.033,0,0.033-0.033,0.066-0.066c0.033-0.033,0.065-0.065,0.098-0.13 c0.098-0.033,0.131-0.066,0.163-0.099c0.033-0.033,0.098-0.065,0.131-0.098c0.065-0.033,0.098-0.065,0.196-0.065 c0.033-0.066,0.065-0.099,0.131-0.099c0.033-0.033,0.098-0.033,0.196-0.065c0.033,0,0.098,0,0.131-0.033c0.065,0,0.163,0,0.229,0 c0,0,0.033,0,0.066,0c0.033,0,0.033,0,0.065,0c0.066,0,0.164,0,0.197,0c0.066,0.033,0.098,0.033,0.164,0.033 c0.033,0.033,0.131,0.033,0.196,0.065c0.033,0,0.098,0.033,0.131,0.033c0.065,0.066,0.131,0.099,0.163,0.131 c0.066,0.033,0.098,0.065,0.164,0.098c0,0,0.033,0,0.033,0.033c0.033,0,0.098,0.033,0.098,0.066 c0.066,0.065,0.098,0.098,0.131,0.13c0.033,0.034,0.065,0.099,0.098,0.131c0.033,0.033,0.066,0.065,0.131,0.164 c0,0.033,0.033,0.098,0.065,0.13c0.033,0.066,0.033,0.099,0.066,0.196c0,0.034,0.033,0.099,0.033,0.131 c0.033,0.065,0.033,0.099,0.033,0.197c0,0.065,0.033,0.098,0.033,0.164c0,0.033,0,0.065,0,0.098v13.224h0.327 C136.123,198.976,136.941,199.795,136.941,200.777z M131.18,190.892l-6.514,8.084h6.514V190.892z"/><path fill="#690589" d="M179.072,204.148c0.327,0.95-0.197,1.964-1.146,2.291c-0.131,0.033-0.393,0.098-0.72,0.098c0,0,0,0-0.033,0 c-0.327,0-0.818-0.065-1.277-0.359c-0.426-0.262-0.786-0.688-1.047-1.146c-0.458-0.949-0.688-2.128-0.688-3.928 c-0.033-0.621-0.163-1.047-0.392-1.407c-0.197-0.36-0.589-0.688-0.982-0.95c-0.687-0.458-1.538-0.72-1.833-0.785h-3.863v7.102 c0,0.982-0.818,1.801-1.833,1.801c-1.014,0-1.8-0.818-1.8-1.801v-19.312c0-1.015,0.786-1.8,1.8-1.8c0,0,0,0,0.033,0h5.826 c3.895,0,7.005,3.142,7.005,7.037c0,2.161-0.982,4.059-2.553,5.368c0.425,0.327,0.818,0.72,1.146,1.211 c0.655,0.949,1.08,2.16,1.08,3.534c-0.033,0.982,0.066,1.604,0.131,1.932C178.45,203.199,178.875,203.592,179.072,204.148z M174.489,190.99c0-1.898-1.506-3.404-3.371-3.404h-4.026v6.743h4.026C172.983,194.329,174.489,192.823,174.489,190.99z"/></svg>