<svg xmlns="http://www.w3.org/2000/svg"  viewBox="0 0 64 64" width="64px" height="64px"><path fill="#d1d1d1" d="M60.779,51.334c0,1.1-0.898,2-2,2H11.221c-1.1,0-2-0.9-2-2V12.666c0-1.1,0.9-2,2-2h47.559c1.102,0,2,0.9,2,2 V51.334z"/><path fill="#63312d" d="M58.779,53.834H11.221c-1.379,0-2.5-1.121-2.5-2.5V12.666c0-1.379,1.121-2.5,2.5-2.5h47.559 c1.379,0,2.5,1.121,2.5,2.5v38.668C61.279,52.713,60.158,53.834,58.779,53.834z M11.221,11.166c-0.827,0-1.5,0.673-1.5,1.5v38.668 c0,0.827,0.673,1.5,1.5,1.5h47.559c0.827,0,1.5-0.673,1.5-1.5V12.666c0-0.827-0.673-1.5-1.5-1.5H11.221z"/><path fill="#f9a287" d="M3.221,34.834v16.5c0,1.1,0.9,2,2,2h23.795v-18.5H3.221z"/><path fill="#ffc8bb" d="M5.221,51.334v-16.5h-2v16.5c0,1.1,0.9,2,2,2h2C6.121,53.334,5.221,52.434,5.221,51.334z"/><path fill="#f9dd9d" d="M54.779,51.334v-16.5H29.016v18.5h23.763C53.881,53.334,54.779,52.434,54.779,51.334z"/><path fill="#63312d" d="M29.016,53.834H5.221c-1.379,0-2.5-1.121-2.5-2.5v-16.5c0-0.276,0.224-0.5,0.5-0.5h25.795 c0.276,0,0.5,0.224,0.5,0.5v18.5C29.516,53.61,29.292,53.834,29.016,53.834z M3.721,35.334v16c0,0.827,0.673,1.5,1.5,1.5h23.295 v-17.5H3.721z"/><path fill="#63312d" d="M52.778,53.834H29.016c-0.276,0-0.5-0.224-0.5-0.5v-18.5c0-0.276,0.224-0.5,0.5-0.5h25.764 c0.276,0,0.5,0.224,0.5,0.5v16.5C55.279,52.713,54.157,53.834,52.778,53.834z M29.516,52.834h23.263 c0.828,0,1.501-0.673,1.501-1.5v-16H29.516V52.834z"/><path fill="#63312d" d="M60.779,16.834H9.221c-0.276,0-0.5-0.224-0.5-0.5v-3.668c0-1.379,1.121-2.5,2.5-2.5h47.559 c1.379,0,2.5,1.121,2.5,2.5v3.668C61.279,16.61,61.056,16.834,60.779,16.834z M9.721,15.834h50.559v-3.168 c0-0.827-0.673-1.5-1.5-1.5H11.221c-0.827,0-1.5,0.673-1.5,1.5V15.834z"/><path fill="#f8f3f3" d="M54.779,12.666c0-1.1-0.898-2-2-2H5.221c-1.1,0-2,0.9-2,2v3.668h51.559V12.666z"/><path fill="#63312d" d="M54.779,16.834H3.221c-0.276,0-0.5-0.224-0.5-0.5v-3.668c0-1.379,1.121-2.5,2.5-2.5h47.559 c1.379,0,2.5,1.121,2.5,2.5v3.668C55.279,16.61,55.056,16.834,54.779,16.834z M3.721,15.834h50.559v-3.168 c0-0.827-0.673-1.5-1.5-1.5H5.221c-0.827,0-1.5,0.673-1.5,1.5V15.834z"/><path fill="#63312d" d="M52.779,53.834H5.221c-1.379,0-2.5-1.121-2.5-2.5V12.666c0-1.379,1.121-2.5,2.5-2.5h47.559 c1.379,0,2.5,1.121,2.5,2.5v38.668C55.279,52.713,54.158,53.834,52.779,53.834z M5.221,11.166c-0.827,0-1.5,0.673-1.5,1.5v38.668 c0,0.827,0.673,1.5,1.5,1.5h47.559c0.827,0,1.5-0.673,1.5-1.5V12.666c0-0.827-0.673-1.5-1.5-1.5H5.221z"/><path fill="#f9dd9d" d="M9.129,13.5c0,0.631-0.512,1.143-1.143,1.143c-0.633,0-1.144-0.512-1.144-1.143s0.512-1.143,1.144-1.143 C8.617,12.357,9.129,12.869,9.129,13.5z"/><path fill="#f9dd9d" d="M13.363,13.5c0,0.631-0.512,1.143-1.145,1.143c-0.631,0-1.143-0.512-1.143-1.143s0.512-1.143,1.143-1.143 C12.852,12.357,13.363,12.869,13.363,13.5z"/><circle cx="16.453" cy="13.5" r="1.143" fill="#f9dd9d"/><path fill="#63312d" d="M7.986,15.143c-0.907,0-1.645-0.737-1.645-1.643s0.737-1.643,1.645-1.643c0.905,0,1.643,0.737,1.643,1.643 S8.892,15.143,7.986,15.143z M7.986,12.857c-0.355,0-0.645,0.288-0.645,0.643s0.289,0.643,0.645,0.643 c0.354,0,0.643-0.288,0.643-0.643S8.341,12.857,7.986,12.857z"/><path fill="#63312d" d="M12.219,15.143c-0.905,0-1.643-0.737-1.643-1.643s0.737-1.643,1.643-1.643c0.907,0,1.645,0.737,1.645,1.643 S13.126,15.143,12.219,15.143z M12.219,12.857c-0.354,0-0.643,0.288-0.643,0.643s0.288,0.643,0.643,0.643 c0.355,0,0.645-0.288,0.645-0.643S12.574,12.857,12.219,12.857z"/><path fill="#63312d" d="M16.453,15.143c-0.905,0-1.643-0.737-1.643-1.643s0.737-1.643,1.643-1.643s1.643,0.737,1.643,1.643 S17.358,15.143,16.453,15.143z M16.453,12.857c-0.354,0-0.643,0.288-0.643,0.643s0.288,0.643,0.643,0.643s0.643-0.288,0.643-0.643 S16.808,12.857,16.453,12.857z"/><rect width="17.184" height="18.5" x="3.221" y="16.334" fill="#f9dd9d"/><rect width="2" height="18.5" x="3.221" y="16.334" fill="#ffeecf"/><path fill="#63312d" d="M20.404,35.334H3.221c-0.276,0-0.5-0.224-0.5-0.5v-18.5c0-0.276,0.224-0.5,0.5-0.5h17.184 c0.276,0,0.5,0.224,0.5,0.5v18.5C20.904,35.11,20.681,35.334,20.404,35.334z M3.721,34.334h16.184v-17.5H3.721V34.334z"/><rect width="17.184" height="2.75" x="3.221" y="16.334" fill="#f8f3f3"/><path fill="#63312d" d="M20.404,19.584H3.221c-0.276,0-0.5-0.224-0.5-0.5v-2.75c0-0.276,0.224-0.5,0.5-0.5h17.184 c0.276,0,0.5,0.224,0.5,0.5v2.75C20.904,19.36,20.681,19.584,20.404,19.584z M3.721,18.584h16.184v-1.75H3.721V18.584z"/><rect width="25.795" height="2.75" x="3.221" y="34.834" fill="#f8f3f3"/><path fill="#63312d" d="M29.016,38.084H3.221c-0.276,0-0.5-0.224-0.5-0.5v-2.75c0-0.276,0.224-0.5,0.5-0.5h25.795 c0.276,0,0.5,0.224,0.5,0.5v2.75C29.516,37.86,29.292,38.084,29.016,38.084z M3.721,37.084h24.795v-1.75H3.721V37.084z"/><rect width="17.188" height="18.5" x="20.404" y="16.334" fill="#82d9ff"/><rect width="17.188" height="2.75" x="20.404" y="16.334" fill="#f8f3f3"/><path fill="#63312d" d="M37.592,19.584H20.404c-0.276,0-0.5-0.224-0.5-0.5v-2.75c0-0.276,0.224-0.5,0.5-0.5h17.188 c0.276,0,0.5,0.224,0.5,0.5v2.75C38.092,19.36,37.868,19.584,37.592,19.584z M20.904,18.584h16.188v-1.75H20.904V18.584z"/><path fill="#63312d" d="M37.592,35.334H20.404c-0.276,0-0.5-0.224-0.5-0.5v-18.5c0-0.276,0.224-0.5,0.5-0.5h17.188 c0.276,0,0.5,0.224,0.5,0.5v18.5C38.092,35.11,37.868,35.334,37.592,35.334z M20.904,34.334h16.188v-17.5H20.904V34.334z"/><rect width="17.188" height="18.5" x="37.592" y="16.334" fill="#f9a287"/><path fill="#63312d" d="M54.779,35.334H37.592c-0.276,0-0.5-0.224-0.5-0.5v-18.5c0-0.276,0.224-0.5,0.5-0.5h17.188 c0.276,0,0.5,0.224,0.5,0.5v18.5C55.279,35.11,55.056,35.334,54.779,35.334z M38.092,34.334h16.188v-17.5H38.092V34.334z"/><rect width="17.188" height="2.75" x="37.592" y="16.334" fill="#f8f3f3"/><path fill="#63312d" d="M54.779,19.584H37.592c-0.276,0-0.5-0.224-0.5-0.5v-2.75c0-0.276,0.224-0.5,0.5-0.5h17.188 c0.276,0,0.5,0.224,0.5,0.5v2.75C55.279,19.36,55.056,19.584,54.779,19.584z M38.092,18.584h16.188v-1.75H38.092V18.584z"/><rect width="25.764" height="2.75" x="29.016" y="34.834" fill="#f8f3f3"/><path fill="#63312d" d="M54.779,38.084H29.016c-0.276,0-0.5-0.224-0.5-0.5v-2.75c0-0.276,0.224-0.5,0.5-0.5h25.764 c0.276,0,0.5,0.224,0.5,0.5v2.75C55.279,37.86,55.056,38.084,54.779,38.084z M29.516,37.084h24.764v-1.75H29.516V37.084z"/><rect width="11.75" height="1" x="5.783" y="31.902" fill="#63312d"/><rect width="1.75" height="1" x="5.783" y="29.195" fill="#63312d"/><rect width="1.75" height="1" x="5.783" y="26.49" fill="#63312d"/><rect width="1.75" height="1" x="5.783" y="23.783" fill="#63312d"/><rect width="1.75" height="1" x="5.783" y="21.076" fill="#63312d"/><rect width="11.75" height="1" x="23.125" y="31.902" fill="#63312d"/><rect width="1.75" height="1" x="23.125" y="29.195" fill="#63312d"/><rect width="1.75" height="1" x="23.125" y="26.49" fill="#63312d"/><rect width="1.75" height="1" x="23.125" y="23.783" fill="#63312d"/><rect width="1.75" height="1" x="23.125" y="21.076" fill="#63312d"/><rect width="11.75" height="1" x="40.312" y="31.902" fill="#63312d"/><rect width="1.75" height="1" x="40.312" y="29.195" fill="#63312d"/><rect width="1.75" height="1" x="40.312" y="26.49" fill="#63312d"/><rect width="1.75" height="1" x="40.312" y="23.783" fill="#63312d"/><rect width="1.75" height="1" x="40.312" y="21.076" fill="#63312d"/><path fill="#63312d" d="M22.109,50.243c-0.449,0-0.877-0.177-1.112-0.484c-0.691-0.906-1.56-0.881-2.394-0.905l-8.255-0.01 c-1.559,0-2.399-1.189-2.399-2.31c0-0.579,0.209-1.118,0.588-1.518c0.372-0.392,1.129-0.827,2.517-0.593 c0.298,0.052,0.854,0.146,0.975,0.037c0.025-0.023,0.068-0.132,0.05-0.378c-0.083-1.076-0.113-2.094,0.431-2.71 c0.285-0.324,0.692-0.501,1.213-0.526l0,0c1.312-0.065,1.689,0.461,2.013,1.05c0.202,0.369,0.313,0.572,1.039,0.572 c0.417,0,0.798-0.007,1.132-0.013c0.266-0.005,0.502-0.009,0.704-0.009c0.607,0,0.983,0.23,1.19,0.424 c0.278,0.258,0.438,0.62,0.438,0.994c0,0.646-0.499,1.332-1.423,1.332c-0.246,0-0.34,0.065-0.363,0.086 c-0.036,0.182,0.034,0.297,0.117,0.297l1.438,0.002c1.026-0.036,2.239,0.5,3.025,1.34c0.52,0.557,0.772,1.187,0.711,1.774 c-0.079,0.745-0.52,1.301-1.179,1.485C22.415,50.224,22.261,50.243,22.109,50.243z M18.604,47.854 c0.908,0,2.208,0.017,3.188,1.298c0.039,0.052,0.257,0.136,0.503,0.067c0.265-0.074,0.418-0.285,0.454-0.627 c0.03-0.295-0.128-0.646-0.447-0.986c-0.581-0.621-1.553-1.056-2.277-1.023l-1.457-0.002c-0.635,0-1.152-0.542-1.152-1.209 c0-0.329,0.134-0.627,0.378-0.841c0.253-0.221,0.597-0.333,1.021-0.333c0.312,0,0.423-0.171,0.423-0.332 c0-0.057-0.016-0.167-0.118-0.262c-0.206-0.192-0.644-0.157-1.196-0.147c-0.339,0.006-0.726,0.013-1.149,0.013 c-1.318,0-1.664-0.631-1.916-1.092c-0.209-0.379-0.302-0.57-1.087-0.532l0,0c-0.323,0.017-0.447,0.115-0.512,0.188 c-0.285,0.324-0.244,1.188-0.185,1.974c0.041,0.529-0.084,0.931-0.372,1.192c-0.481,0.439-1.189,0.317-1.817,0.21 c-0.747-0.126-1.294-0.051-1.622,0.296c-0.202,0.213-0.313,0.508-0.313,0.829c0,0.631,0.438,1.31,1.4,1.31l8.22,0.01 C18.581,47.854,18.593,47.854,18.604,47.854z"/><path fill="#63312d" d="M48.321,50.243c-0.448,0-0.877-0.177-1.112-0.483c-0.681-0.894-1.531-0.906-2.356-0.906 c-0.013,0-0.025,0-0.037,0l-8.256-0.01c-1.558,0-2.398-1.189-2.398-2.31c0-0.579,0.209-1.118,0.588-1.518 c0.373-0.393,1.131-0.827,2.516-0.593c0.299,0.051,0.856,0.146,0.977,0.036c0.025-0.022,0.068-0.131,0.05-0.377 c-0.083-1.076-0.113-2.094,0.431-2.71c0.285-0.324,0.692-0.501,1.213-0.526l0,0c1.287-0.068,1.688,0.46,2.012,1.05 c0.202,0.369,0.313,0.572,1.04,0.572c0.415,0,0.795-0.007,1.129-0.013c0.267-0.005,0.504-0.009,0.707-0.009 c0.607,0,0.982,0.23,1.19,0.423c0.277,0.258,0.437,0.621,0.437,0.995c0,0.646-0.499,1.332-1.424,1.332 c-0.245,0-0.339,0.065-0.361,0.086c-0.036,0.182,0.034,0.297,0.117,0.297l1.438,0.002c1.022-0.03,2.24,0.5,3.025,1.341 c0.52,0.557,0.771,1.187,0.709,1.774c-0.077,0.743-0.517,1.298-1.174,1.483C48.629,50.223,48.475,50.243,48.321,50.243z M44.815,47.854c0.909,0,2.211,0.017,3.188,1.299c0.039,0.05,0.262,0.14,0.505,0.065c0.265-0.074,0.416-0.285,0.452-0.625 c0.031-0.296-0.127-0.646-0.445-0.987c-0.579-0.62-1.524-1.056-2.277-1.023L44.78,46.58c-0.635,0-1.152-0.543-1.152-1.209 c0-0.329,0.134-0.628,0.377-0.841c0.252-0.221,0.596-0.333,1.021-0.333c0.312,0,0.424-0.172,0.424-0.332 c0-0.058-0.015-0.167-0.117-0.262c-0.206-0.193-0.646-0.158-1.199-0.147c-0.339,0.006-0.725,0.013-1.146,0.013 c-1.318,0-1.664-0.631-1.917-1.092c-0.209-0.38-0.312-0.571-1.086-0.532c-0.323,0.017-0.447,0.115-0.512,0.188 c-0.285,0.324-0.244,1.188-0.185,1.974c0.041,0.528-0.084,0.93-0.372,1.192c-0.481,0.439-1.193,0.317-1.818,0.21 c-0.752-0.126-1.293-0.051-1.622,0.296c-0.202,0.213-0.313,0.508-0.313,0.829c0,0.631,0.438,1.31,1.399,1.31l8.22,0.01 C44.792,47.854,44.804,47.854,44.815,47.854z"/></svg>