<svg xmlns="http://www.w3.org/2000/svg"  viewBox="0 0 64 64" width="64px" height="64px"><path fill="#fffeff" d="M30.25,6.282v0.681C18.259,9.699,9.281,20.442,9.281,33.25h10c0-9.356,7.612-16.968,16.969-16.968v-10H30.25z"/><path fill="#63312d" d="M19.281,33.75h-10c-0.276,0-0.5-0.224-0.5-0.5c0-12.558,8.794-23.714,20.969-26.683V6.282 c0-0.276,0.224-0.5,0.5-0.5h6c0.276,0,0.5,0.224,0.5,0.5v10c0,0.276-0.224,0.5-0.5,0.5c-9.081,0-16.469,7.388-16.469,16.468 C19.781,33.526,19.558,33.75,19.281,33.75z M9.786,32.75h9.002c0.261-9.236,7.726-16.701,16.962-16.961V6.782h-5v0.181 c0,0.233-0.161,0.436-0.389,0.487C18.6,10.134,10.019,20.727,9.786,32.75z"/><path fill="#705ca3" d="M36.25,8.782h-6v0.747c-10.601,2.683-18.469,12.3-18.469,23.722s7.868,21.039,18.469,23.722v0.747h6 c13.492,0,24.469-10.977,24.469-24.468S49.742,8.782,36.25,8.782z"/><path fill="#63312d" d="M36.25,58.218h-6c-0.276,0-0.5-0.224-0.5-0.5v-0.36C18.855,54.422,11.281,44.564,11.281,33.25 S18.855,12.078,29.75,9.142v-0.36c0-0.276,0.224-0.5,0.5-0.5h6c13.768,0,24.969,11.201,24.969,24.968S50.018,58.218,36.25,58.218z M30.75,57.218h5.5c13.216,0,23.969-10.752,23.969-23.968S49.466,9.282,36.25,9.282h-5.5v0.247c0,0.229-0.155,0.429-0.377,0.485 C19.721,12.708,12.281,22.264,12.281,33.25s7.439,20.542,18.091,23.237c0.222,0.056,0.377,0.256,0.377,0.485V57.218z"/><path fill="#705ca3" d="M30.25,57.718c-13.492,0-24.469-10.977-24.469-24.468S16.758,8.782,30.25,8.782S54.719,19.758,54.719,33.25 S43.742,57.718,30.25,57.718z"/><path fill="#705ca3" d="M7.781,33.25c0-13.156,10.439-23.916,23.469-24.443c-0.332-0.014-0.665-0.025-1-0.025 c-13.492,0-24.469,10.977-24.469,24.468S16.758,57.718,30.25,57.718c0.335,0,0.668-0.012,1-0.025 C18.22,57.166,7.781,46.406,7.781,33.25z"/><path fill="#63312d" d="M30.25,58.218c-13.768,0-24.969-11.201-24.969-24.968S16.482,8.282,30.25,8.282S55.219,19.482,55.219,33.25 S44.018,58.218,30.25,58.218z M30.25,9.282c-13.216,0-23.969,10.752-23.969,23.968S17.034,57.218,30.25,57.218 S54.219,46.466,54.219,33.25S43.466,9.282,30.25,9.282z"/><ellipse cx="30.25" cy="33.25" fill="#f8f3f3" rx="13.593" ry="13.594" transform="rotate(-88.315 30.25 33.249)"/><path fill="#63312d" d="M30.25,47.343c-7.771,0-14.094-6.322-14.094-14.093s6.322-14.093,14.094-14.093s14.094,6.322,14.094,14.093 S38.021,47.343,30.25,47.343z M30.25,20.157c-7.22,0-13.094,5.874-13.094,13.093S23.03,46.343,30.25,46.343 S43.344,40.47,43.344,33.25S37.47,20.157,30.25,20.157z"/><circle cx="30.25" cy="33.25" r="10.527" fill="#FCC24C"/><path fill="#FCC24C" d="M21.723,33.25c0-5.467,4.19-9.971,9.527-10.476c-0.33-0.031-0.663-0.051-1-0.051 c-5.805,0-10.527,4.722-10.527,10.527s4.723,10.527,10.527,10.527c0.337,0,0.67-0.02,1-0.051 C25.913,43.221,21.723,38.717,21.723,33.25z"/><path fill="#63312d" d="M30.25,44.277c-6.081,0-11.027-4.947-11.027-11.027s4.947-11.027,11.027-11.027S41.277,27.17,41.277,33.25 S36.331,44.277,30.25,44.277z M30.25,23.223c-5.529,0-10.027,4.498-10.027,10.027s4.498,10.027,10.027,10.027 s10.027-4.498,10.027-10.027S35.779,23.223,30.25,23.223z"/><circle cx="30.25" cy="33.25" r="4.054" fill="#f8f3f3"/><path fill="#63312d" d="M30.25,37.804c-2.511,0-4.554-2.043-4.554-4.554s2.043-4.554,4.554-4.554s4.554,2.043,4.554,4.554 S32.761,37.804,30.25,37.804z M30.25,29.696c-1.96,0-3.554,1.594-3.554,3.554s1.594,3.554,3.554,3.554s3.554-1.594,3.554-3.554 S32.21,29.696,30.25,29.696z"/><circle cx="30.25" cy="33.25" r="1.798" fill="#705ca3"/><path fill="#ffeecf" d="M30.452,33.25c0-0.622,0.317-1.17,0.798-1.493c-0.286-0.192-0.63-0.305-1-0.305 c-0.991,0-1.798,0.807-1.798,1.798s0.807,1.798,1.798,1.798c0.37,0,0.714-0.113,1-0.305C30.769,34.42,30.452,33.872,30.452,33.25z"/><path fill="#63312d" d="M30.25,35.548c-1.267,0-2.298-1.031-2.298-2.298s1.031-2.298,2.298-2.298s2.298,1.031,2.298,2.298 S31.517,35.548,30.25,35.548z M30.25,31.952c-0.716,0-1.298,0.583-1.298,1.298s0.583,1.298,1.298,1.298s1.298-0.583,1.298-1.298 S30.966,31.952,30.25,31.952z"/><path fill="#fffeff" d="M13.281,33.25h-10c0-14.87,12.098-26.968,26.969-26.968v10C20.894,16.282,13.281,23.894,13.281,33.25z"/><path fill="#fffeff" d="M30.25,7.738V6.282C15.379,6.282,3.281,18.38,3.281,33.25h2.035C6,19.681,16.763,8.732,30.25,7.738z"/><path fill="#63312d" d="M13.281,33.75h-10c-0.276,0-0.5-0.224-0.5-0.5c0-15.146,12.322-27.468,27.469-27.468 c0.276,0,0.5,0.224,0.5,0.5v10c0,0.276-0.224,0.5-0.5,0.5c-9.081,0-16.469,7.388-16.469,16.468 C13.781,33.526,13.558,33.75,13.281,33.75z M3.786,32.75h9.002c0.261-9.236,7.726-16.701,16.962-16.961V6.787 C15.552,7.051,4.051,18.552,3.786,32.75z"/><path fill="#f8f3f3" d="M31.522,26.163c0,0.703-0.57,1.272-1.272,1.272c-0.702,0-1.272-0.569-1.272-1.272 c0-0.702,0.57-1.272,1.272-1.272C30.953,24.891,31.522,25.461,31.522,26.163z"/><path fill="#f8f3f3" d="M31.522,40.541c0,0.703-0.57,1.272-1.272,1.272c-0.702,0-1.272-0.569-1.272-1.272 c0-0.702,0.57-1.272,1.272-1.272C30.953,39.269,31.522,39.838,31.522,40.541z"/><path fill="#f8f3f3" d="M37.438,34.624c-0.703,0-1.272-0.57-1.272-1.272c0-0.702,0.569-1.271,1.272-1.271 c0.702,0,1.272,0.569,1.272,1.271C38.71,34.054,38.141,34.624,37.438,34.624z"/><path fill="#f8f3f3" d="M23.062,34.624c-0.703,0-1.272-0.57-1.272-1.272c0-0.702,0.569-1.271,1.272-1.271 c0.702,0,1.271,0.569,1.271,1.271C24.333,34.054,23.764,34.624,23.062,34.624z"/><path fill="#63312d" d="M30.25,27.935c-0.977,0-1.772-0.795-1.772-1.772s0.795-1.772,1.772-1.772c0.978,0,1.772,0.795,1.772,1.772 S31.228,27.935,30.25,27.935z M30.25,25.391c-0.426,0-0.772,0.346-0.772,0.772s0.346,0.772,0.772,0.772s0.772-0.346,0.772-0.772 S30.676,25.391,30.25,25.391z"/><path fill="#63312d" d="M30.25,42.312c-0.977,0-1.772-0.795-1.772-1.772s0.795-1.772,1.772-1.772c0.978,0,1.772,0.795,1.772,1.772 S31.228,42.312,30.25,42.312z M30.25,39.769c-0.426,0-0.772,0.346-0.772,0.772s0.346,0.772,0.772,0.772s0.772-0.346,0.772-0.772 S30.676,39.769,30.25,39.769z"/><path fill="#63312d" d="M37.438,35.124c-0.977,0-1.772-0.795-1.772-1.772c0-0.977,0.795-1.771,1.772-1.771s1.772,0.795,1.772,1.771 C39.21,34.329,38.416,35.124,37.438,35.124z M37.438,32.58c-0.426,0-0.772,0.346-0.772,0.771c0,0.426,0.346,0.772,0.772,0.772 s0.772-0.347,0.772-0.772C38.21,32.926,37.864,32.58,37.438,32.58z"/><path fill="#63312d" d="M23.062,35.124c-0.978,0-1.772-0.795-1.772-1.772c0-0.977,0.795-1.771,1.772-1.771 c0.977,0,1.771,0.795,1.771,1.771C24.833,34.329,24.038,35.124,23.062,35.124z M23.062,32.58c-0.426,0-0.772,0.346-0.772,0.771 c0,0.426,0.347,0.772,0.772,0.772c0.425,0,0.771-0.347,0.771-0.772C23.833,32.926,23.487,32.58,23.062,32.58z"/><path fill="#f8f3f3" d="M10.677,26.75c0,0.943-0.765,1.708-1.708,1.708S7.26,27.693,7.26,26.75c0-0.943,0.765-1.708,1.708-1.708 S10.677,25.806,10.677,26.75z"/><circle cx="22.489" cy="12.667" r="1.709" fill="#f8f3f3"/><path fill="#63312d" d="M8.969,28.958c-1.218,0-2.208-0.991-2.208-2.208s0.991-2.208,2.208-2.208s2.208,0.991,2.208,2.208 S10.187,28.958,8.969,28.958z M8.969,25.541c-0.667,0-1.208,0.542-1.208,1.208s0.542,1.208,1.208,1.208s1.208-0.542,1.208-1.208 S9.635,25.541,8.969,25.541z"/><path fill="#63312d" d="M22.489,14.875c-1.218,0-2.208-0.991-2.208-2.208s0.991-2.208,2.208-2.208s2.208,0.991,2.208,2.208 S23.707,14.875,22.489,14.875z M22.489,11.458c-0.667,0-1.208,0.542-1.208,1.208s0.542,1.208,1.208,1.208s1.208-0.542,1.208-1.208 S23.156,11.458,22.489,11.458z"/></svg>