<svg xmlns="http://www.w3.org/2000/svg"  viewBox="0 0 64 64" width="64px" height="64px"><path fill="#efc36a" d="M60.823,54.529c0,1.1-0.9,2-2,2H11.177c-1.1,0-2-0.9-2-2V9.471c0-1.1,0.9-2,2-2h47.646c1.1,0,2,0.9,2,2 V54.529z"/><path fill="#63312d" d="M58.823,57.029H11.177c-1.378,0-2.5-1.121-2.5-2.5V9.471c0-1.379,1.122-2.5,2.5-2.5h47.646 c1.378,0,2.5,1.121,2.5,2.5v45.059C61.323,55.908,60.202,57.029,58.823,57.029z M11.177,7.971c-0.827,0-1.5,0.673-1.5,1.5v45.059 c0,0.827,0.673,1.5,1.5,1.5h47.646c0.827,0,1.5-0.673,1.5-1.5V9.471c0-0.827-0.673-1.5-1.5-1.5H11.177z"/><path fill="#f9dd9d" d="M54.823,54.529c0,1.1-0.9,2-2,2H5.177c-1.1,0-2-0.9-2-2V9.471c0-1.1,0.9-2,2-2h47.646c1.1,0,2,0.9,2,2V54.529 z"/><path fill="#ffeecf" d="M7.177,9.471h47.646c0-1.1-0.9-2-2-2H5.177c-1.1,0-2,0.9-2,2v45.059c0,1.1,0.9,2,2,2V11.471 C5.177,10.371,6.077,9.471,7.177,9.471z"/><path fill="#84dbff" d="M50.052,50.184c0,1.1-0.9,2-2,2H9.947c-1.1,0-2-0.9-2-2V13.818c0-1.1,0.9-2,2-2h38.105c1.1,0,2,0.9,2,2 V50.184z"/><path fill="#caf4ff" d="M11.947,13.818h38.104c0-1.1-0.9-2-2-2H9.947c-1.1,0-2,0.9-2,2v36.365c0,1.1,0.9,2,2,2V15.818 C9.947,14.719,10.848,13.818,11.947,13.818z"/><path fill="#63312d" d="M48.052,52.682H9.948c-1.378,0-2.5-1.121-2.5-2.5V13.818c0-1.379,1.122-2.5,2.5-2.5h38.104 c1.378,0,2.5,1.121,2.5,2.5v36.363C50.552,51.561,49.43,52.682,48.052,52.682z M9.948,12.318c-0.827,0-1.5,0.673-1.5,1.5v36.363 c0,0.827,0.673,1.5,1.5,1.5h38.104c0.827,0,1.5-0.673,1.5-1.5V13.818c0-0.827-0.673-1.5-1.5-1.5H9.948z"/><path fill="#63312d" d="M52.823,57.029H5.177c-1.378,0-2.5-1.121-2.5-2.5V9.471c0-1.379,1.122-2.5,2.5-2.5h47.646 c1.378,0,2.5,1.121,2.5,2.5v45.059C55.323,55.908,54.202,57.029,52.823,57.029z M5.177,7.971c-0.827,0-1.5,0.673-1.5,1.5v45.059 c0,0.827,0.673,1.5,1.5,1.5h47.646c0.827,0,1.5-0.673,1.5-1.5V9.471c0-0.827-0.673-1.5-1.5-1.5H5.177z"/><path fill="#52b8d9" d="M38.818,20.668v9.342H30.99v-9.342h-3.981v9.342h-7.828v-9.342H15.2v22.666h3.981v-9.342h7.828v9.342h3.981 v-9.342h8.227c1.976,0,3.583-1.607,3.583-3.584v-9.74H38.818z"/><path fill="#63312d" d="M30.99,43.834h-3.981c-0.276,0-0.5-0.224-0.5-0.5v-8.842h-6.828v8.842c0,0.276-0.224,0.5-0.5,0.5H15.2 c-0.276,0-0.5-0.224-0.5-0.5V20.668c0-0.276,0.224-0.5,0.5-0.5h3.98c0.276,0,0.5,0.224,0.5,0.5v8.842h6.828v-8.842 c0-0.276,0.224-0.5,0.5-0.5h3.981c0.276,0,0.5,0.224,0.5,0.5v8.842h6.828v-8.842c0-0.276,0.224-0.5,0.5-0.5H42.8 c0.276,0,0.5,0.224,0.5,0.5v9.74c0,2.252-1.832,4.084-4.083,4.084H31.49v8.842C31.49,43.61,31.267,43.834,30.99,43.834z M27.509,42.834h2.981v-8.842c0-0.276,0.224-0.5,0.5-0.5h8.227c1.7,0,3.083-1.384,3.083-3.084v-9.24h-2.981v8.842 c0,0.276-0.224,0.5-0.5,0.5H30.99c-0.276,0-0.5-0.224-0.5-0.5v-8.842h-2.981v8.842c0,0.276-0.224,0.5-0.5,0.5h-7.828 c-0.276,0-0.5-0.224-0.5-0.5v-8.842H15.7v21.666h2.98v-8.842c0-0.276,0.224-0.5,0.5-0.5h7.828c0.276,0,0.5,0.224,0.5,0.5V42.834z"/><path fill="#f9a287" d="M13.448,20.854c0-2.066,1.676-3.742,3.742-3.742s3.742,1.676,3.742,3.742c0,2.068-1.676,3.744-3.742,3.744 S13.448,22.922,13.448,20.854z"/><path fill="#ffc8bb" d="M15.448,20.854c0-1.717,1.164-3.15,2.742-3.59c-0.32-0.088-0.651-0.152-1-0.152 c-2.066,0-3.742,1.676-3.742,3.742c0,2.068,1.676,3.744,3.742,3.744c0.349,0,0.68-0.065,1-0.152 C16.612,24.006,15.448,22.572,15.448,20.854z"/><path fill="#63312d" d="M17.19,25.098c-2.339,0-4.242-1.904-4.242-4.244c0-2.339,1.903-4.242,4.242-4.242s4.242,1.903,4.242,4.242 C21.433,23.193,19.53,25.098,17.19,25.098z M17.19,17.611c-1.788,0-3.242,1.454-3.242,3.242c0,1.789,1.455,3.244,3.242,3.244 s3.242-1.455,3.242-3.244C20.433,19.065,18.978,17.611,17.19,17.611z"/><circle cx="17.19" cy="43.146" r="3.742" fill="#f9dd9d"/><path fill="#ffeecf" d="M15.448,43.146c0-1.719,1.164-3.15,2.742-3.59c-0.32-0.09-0.651-0.152-1-0.152 c-2.066,0-3.742,1.676-3.742,3.742s1.676,3.742,3.742,3.742c0.349,0,0.68-0.062,1-0.152 C16.612,46.297,15.448,44.865,15.448,43.146z"/><path fill="#f9dd9d" d="M25.258,20.854c0-2.066,1.676-3.742,3.742-3.742s3.742,1.676,3.742,3.742c0,2.068-1.676,3.744-3.742,3.744 S25.258,22.922,25.258,20.854z"/><path fill="#ffeecf" d="M27.258,20.854c0-1.717,1.164-3.15,2.742-3.59c-0.32-0.088-0.651-0.152-1-0.152 c-2.066,0-3.742,1.676-3.742,3.742c0,2.068,1.676,3.744,3.742,3.744c0.349,0,0.68-0.065,1-0.152 C28.422,24.006,27.258,22.572,27.258,20.854z"/><circle cx="29" cy="43.146" r="3.742" fill="#f9dd9d"/><path fill="#ffeecf" d="M27.258,43.146c0-1.719,1.164-3.15,2.742-3.59c-0.32-0.09-0.651-0.152-1-0.152 c-2.066,0-3.742,1.676-3.742,3.742s1.676,3.742,3.742,3.742c0.349,0,0.68-0.062,1-0.152 C28.422,46.297,27.258,44.865,27.258,43.146z"/><path fill="#f9dd9d" d="M37.067,20.854c0-2.066,1.676-3.742,3.742-3.742c2.066,0,3.742,1.676,3.742,3.742 c0,2.068-1.676,3.744-3.742,3.744C38.743,24.598,37.067,22.922,37.067,20.854z"/><path fill="#ffeecf" d="M39.067,20.854c0-1.717,1.164-3.15,2.742-3.59c-0.32-0.088-0.651-0.152-1-0.152 c-2.066,0-3.742,1.676-3.742,3.742c0,2.068,1.676,3.744,3.742,3.744c0.349,0,0.68-0.065,1-0.152 C40.231,24.006,39.067,22.572,39.067,20.854z"/><path fill="#63312d" d="M17.19,47.389c-2.339,0-4.242-1.903-4.242-4.242s1.903-4.242,4.242-4.242s4.242,1.903,4.242,4.242 S19.53,47.389,17.19,47.389z M17.19,39.904c-1.788,0-3.242,1.454-3.242,3.242s1.455,3.242,3.242,3.242s3.242-1.454,3.242-3.242 S18.978,39.904,17.19,39.904z"/><path fill="#63312d" d="M29,25.098c-2.339,0-4.242-1.904-4.242-4.244c0-2.339,1.903-4.242,4.242-4.242s4.242,1.903,4.242,4.242 C33.242,23.193,31.339,25.098,29,25.098z M29,17.611c-1.788,0-3.242,1.454-3.242,3.242c0,1.789,1.455,3.244,3.242,3.244 s3.242-1.455,3.242-3.244C32.242,19.065,30.788,17.611,29,17.611z"/><path fill="#63312d" d="M29,47.389c-2.339,0-4.242-1.903-4.242-4.242s1.903-4.242,4.242-4.242s4.242,1.903,4.242,4.242 S31.339,47.389,29,47.389z M29,39.904c-1.788,0-3.242,1.454-3.242,3.242s1.455,3.242,3.242,3.242s3.242-1.454,3.242-3.242 S30.788,39.904,29,39.904z"/><path fill="#63312d" d="M40.81,25.098c-2.339,0-4.242-1.904-4.242-4.244c0-2.339,1.903-4.242,4.242-4.242s4.242,1.903,4.242,4.242 C45.052,23.193,43.149,25.098,40.81,25.098z M40.81,17.611c-1.788,0-3.242,1.454-3.242,3.242c0,1.789,1.455,3.244,3.242,3.244 s3.242-1.455,3.242-3.244C44.052,19.065,42.597,17.611,40.81,17.611z"/></svg>