<svg xmlns="http://www.w3.org/2000/svg"  viewBox="0 0 64 64" width="64px" height="64px"><path fill="#705ca3" d="M40.064,43.096c0-1.316-0.195-2.587-0.539-3.793l3.694-2.087l-3.187-5.643h-6v0.112 c-1.367-0.938-2.91-1.635-4.572-2.035v-4.246h-6.479v4.246c-2.681,0.645-5.053,2.062-6.872,4.013l-3.699-2.09l-0.011,0.019v-0.019 H6.41v3.188h4.199l-1.387,2.454l3.694,2.086c-0.344,1.207-0.54,2.478-0.54,3.794c0,1.317,0.196,2.587,0.54,3.795l-3.694,2.086 l1.504,2.66H6.41v2.981h6v-0.001v0.001l3.698-2.089c1.82,1.951,4.192,3.37,6.873,4.015v4.245h6.479v-4.245 c1.662-0.4,3.205-1.098,4.572-2.036v0.118h6v-0.008l3.187-5.642l-3.694-2.087C39.869,45.683,40.064,44.413,40.064,43.096z"/><path fill="#63312d" d="M29.461,61.289h-6.479c-0.276,0-0.5-0.224-0.5-0.5v-3.856c-2.454-0.662-4.675-1.959-6.465-3.777l-3.36,1.898 c-0.075,0.042-0.16,0.064-0.246,0.064h-6c-0.276,0-0.5-0.224-0.5-0.5v-2.981c0-0.276,0.224-0.5,0.5-0.5h3.459l-1.082-1.914 c-0.065-0.116-0.082-0.252-0.046-0.38c0.035-0.128,0.12-0.236,0.235-0.302l3.356-1.895c-0.303-1.18-0.456-2.372-0.456-3.55 s0.153-2.371,0.456-3.549l-3.356-1.895c-0.115-0.065-0.2-0.174-0.235-0.302c-0.036-0.127-0.02-0.264,0.046-0.38l0.966-1.708H6.41 c-0.276,0-0.5-0.224-0.5-0.5v-3.188c0-0.276,0.224-0.5,0.5-0.5h5.989c0.047,0,0.093,0.006,0.136,0.019 c0.042,0.009,0.083,0.025,0.121,0.046l3.361,1.899c1.789-1.816,4.01-3.113,6.464-3.775v-3.857c0-0.276,0.224-0.5,0.5-0.5h6.479 c0.276,0,0.5,0.224,0.5,0.5v3.858c1.44,0.389,2.802,0.997,4.056,1.812c0.006,0,0.011,0,0.017,0h6c0.181,0,0.347,0.097,0.436,0.254 l3.187,5.643c0.136,0.241,0.051,0.545-0.189,0.682l-3.356,1.896c0.302,1.176,0.455,2.368,0.455,3.549 c0,1.18-0.153,2.373-0.455,3.55l3.356,1.896c0.24,0.136,0.325,0.441,0.189,0.682l-3.173,5.617 c-0.081,0.168-0.252,0.287-0.449,0.287h-6c-0.008,0-0.017,0-0.024,0c-1.252,0.812-2.61,1.419-4.048,1.807v3.857 C29.961,61.065,29.737,61.289,29.461,61.289z M23.481,60.289h5.479v-3.745c0-0.231,0.158-0.432,0.383-0.486 c1.58-0.38,3.062-1.04,4.406-1.962c0.153-0.104,0.353-0.116,0.517-0.03c0.032,0.017,0.062,0.037,0.089,0.06h5.382l2.801-4.96 l-3.259-1.841c-0.201-0.114-0.298-0.351-0.234-0.572c0.345-1.212,0.52-2.442,0.52-3.657s-0.175-2.445-0.52-3.656 c-0.063-0.222,0.033-0.459,0.234-0.573l3.259-1.841l-2.797-4.953h-5.393c-0.025,0.021-0.053,0.039-0.082,0.055 c-0.164,0.086-0.363,0.075-0.517-0.03c-1.343-0.921-2.825-1.582-4.406-1.961c-0.225-0.054-0.383-0.255-0.383-0.486v-3.746h-5.479 v3.746c0,0.231-0.158,0.432-0.383,0.486c-2.543,0.611-4.834,1.949-6.624,3.868c-0.157,0.168-0.41,0.207-0.611,0.094l-3.585-2.025 H6.91v2.188h3.699c0.178,0,0.342,0.094,0.432,0.248c0.09,0.153,0.091,0.343,0.004,0.498l-1.141,2.019l3.259,1.84 c0.201,0.114,0.298,0.35,0.234,0.572c-0.346,1.214-0.521,2.444-0.521,3.657c0,1.212,0.175,2.443,0.521,3.658 c0.063,0.222-0.033,0.458-0.234,0.572l-3.259,1.84l1.258,2.225c0.087,0.155,0.086,0.344-0.004,0.498s-0.254,0.248-0.432,0.248 H6.91v1.981h5.368l3.584-2.024c0.202-0.113,0.455-0.074,0.611,0.094c1.792,1.92,4.082,3.259,6.625,3.87 c0.225,0.054,0.383,0.255,0.383,0.486V60.289z"/><path fill="#705ca3" d="M34.064,43.096c0-1.316-0.195-2.587-0.539-3.793l3.694-2.087l-3.187-5.643l-3.699,2.091 c-1.82-1.951-4.192-3.369-6.873-4.014v-4.246h-6.479v4.246c-2.681,0.645-5.053,2.062-6.872,4.013l-3.699-2.09l-3.188,5.643 l3.694,2.086c-0.344,1.207-0.54,2.478-0.54,3.794c0,1.317,0.196,2.587,0.54,3.795l-3.694,2.086l3.188,5.642l3.698-2.089 c1.82,1.951,4.192,3.37,6.873,4.015v4.245h6.479v-4.245c2.681-0.645,5.053-2.063,6.873-4.015l3.699,2.089l3.187-5.642 l-3.694-2.087C33.869,45.683,34.064,44.413,34.064,43.096z"/><path fill="#705ca3" d="M5.223,48.977l3.694-2.086c-0.344-1.208-0.54-2.477-0.54-3.795c0-1.316,0.196-2.587,0.54-3.794l-3.694-2.086 l2.703-4.786L6.41,31.573l-3.188,5.643l3.694,2.086c-0.344,1.207-0.54,2.478-0.54,3.794c0,1.317,0.196,2.587,0.54,3.795 l-3.694,2.086l3.188,5.642l1.516-0.856L5.223,48.977z"/><rect width="2" height="4.191" x="16.981" y="25.404" fill="#705ca3"/><rect width="2" height="4.152" x="16.981" y="56.637" fill="#705ca3"/><path fill="#63312d" d="M23.461,61.289h-6.479c-0.276,0-0.5-0.224-0.5-0.5v-3.856c-2.454-0.662-4.675-1.959-6.465-3.777l-3.36,1.898 c-0.241,0.133-0.546,0.051-0.682-0.189l-3.188-5.642c-0.065-0.116-0.082-0.252-0.046-0.38c0.035-0.128,0.12-0.236,0.235-0.302 l3.356-1.895c-0.303-1.18-0.456-2.372-0.456-3.55s0.153-2.371,0.456-3.549l-3.356-1.895c-0.115-0.065-0.2-0.174-0.235-0.302 c-0.036-0.127-0.02-0.264,0.046-0.38l3.188-5.643c0.065-0.115,0.174-0.2,0.302-0.236c0.127-0.035,0.263-0.019,0.38,0.046 l3.361,1.899c1.789-1.816,4.01-3.113,6.464-3.775v-3.857c0-0.276,0.224-0.5,0.5-0.5h6.479c0.276,0,0.5,0.224,0.5,0.5v3.857 c2.454,0.662,4.676,1.959,6.465,3.776l3.361-1.899c0.116-0.065,0.252-0.083,0.38-0.047s0.236,0.121,0.302,0.236l3.187,5.643 c0.136,0.241,0.051,0.545-0.189,0.682l-3.356,1.896c0.302,1.176,0.455,2.368,0.455,3.549c0,1.18-0.153,2.373-0.455,3.55 l3.356,1.896c0.24,0.136,0.325,0.441,0.189,0.682l-3.187,5.642c-0.137,0.241-0.442,0.324-0.682,0.189l-3.361-1.898 c-1.79,1.817-4.011,3.115-6.465,3.777v3.856C23.961,61.065,23.737,61.289,23.461,61.289z M17.481,60.289h5.479v-3.745 c0-0.231,0.158-0.432,0.383-0.486c2.543-0.611,4.833-1.949,6.625-3.87c0.156-0.169,0.409-0.208,0.611-0.094l3.264,1.843 l2.694-4.771l-3.259-1.841c-0.201-0.114-0.298-0.351-0.234-0.572c0.345-1.212,0.52-2.442,0.52-3.657s-0.175-2.445-0.52-3.656 c-0.063-0.222,0.033-0.459,0.234-0.573l3.259-1.841l-2.694-4.771l-3.264,1.844c-0.2,0.115-0.454,0.076-0.611-0.094 c-1.791-1.919-4.082-3.257-6.625-3.869c-0.225-0.054-0.383-0.255-0.383-0.486v-3.746h-5.479v3.746 c0,0.231-0.158,0.432-0.383,0.486c-2.543,0.611-4.834,1.949-6.624,3.868c-0.157,0.168-0.411,0.207-0.611,0.094L6.6,32.254 l-2.695,4.772l3.259,1.84c0.201,0.114,0.298,0.35,0.234,0.572c-0.346,1.214-0.521,2.444-0.521,3.657 c0,1.212,0.175,2.443,0.521,3.658c0.063,0.222-0.033,0.458-0.234,0.572l-3.259,1.84L6.6,53.937l3.263-1.843 c0.201-0.113,0.455-0.074,0.611,0.094c1.792,1.92,4.082,3.259,6.625,3.87c0.225,0.054,0.383,0.255,0.383,0.486V60.289z"/><path fill="#FCC24C" d="M28.949,43.096c0,4.822-3.907,8.73-8.728,8.73c-4.82,0-8.729-3.908-8.729-8.73 c0-4.819,3.908-8.728,8.729-8.728C25.042,34.368,28.949,38.276,28.949,43.096z"/><path fill="#FCC24C" d="M13.492,43.096c0-4.481,3.379-8.169,7.729-8.666c-0.328-0.038-0.66-0.062-1-0.062 c-4.82,0-8.729,3.908-8.729,8.728c0,4.822,3.908,8.73,8.729,8.73c0.34,0,0.672-0.024,1-0.062 C16.871,51.268,13.492,47.579,13.492,43.096z"/><path fill="#63312d" d="M20.221,52.326c-5.089,0-9.229-4.141-9.229-9.23c0-5.088,4.14-9.228,9.229-9.228s9.229,4.14,9.229,9.228 C29.449,48.186,25.31,52.326,20.221,52.326z M20.221,34.868c-4.537,0-8.229,3.691-8.229,8.228c0,4.538,3.691,8.23,8.229,8.23 s8.229-3.692,8.229-8.23C28.449,38.559,24.758,34.868,20.221,34.868z"/><path fill="#f8f3f3" d="M24.975,43.096c0,2.626-2.127,4.755-4.754,4.755c-2.625,0-4.754-2.129-4.754-4.755s2.129-4.754,4.754-4.754 C22.848,38.342,24.975,40.47,24.975,43.096z"/><path fill="#63312d" d="M20.221,48.351c-2.897,0-5.254-2.357-5.254-5.255c0-2.897,2.356-5.254,5.254-5.254s5.254,2.357,5.254,5.254 C25.475,45.993,23.118,48.351,20.221,48.351z M20.221,38.842c-2.346,0-4.254,1.908-4.254,4.254c0,2.346,1.908,4.255,4.254,4.255 s4.254-1.909,4.254-4.255C24.475,40.75,22.566,38.842,20.221,38.842z"/><rect width="6" height="1" x="37.22" y="48.477" fill="#63312d"/><rect width="6" height="1" x="37.22" y="36.716" fill="#63312d"/><path fill="#efc36a" d="M58.514,15.901c0-0.945-0.141-1.856-0.388-2.721l2.65-1.496L58.49,7.635h-4.434 c-0.949-0.629-2.009-1.104-3.15-1.379V3.211h-7.258v4.092c-0.861,0.495-1.645,1.11-2.318,1.832l-2.653-1.499l-0.008,0.014V7.635 h-6.056v2.288h4.772l-0.994,1.761l2.65,1.496c-0.247,0.866-0.388,1.777-0.388,2.722s0.141,1.855,0.388,2.722l-2.65,1.496 l1.078,1.908h-4.856v2.139h6.064l2.652-1.499c0.675,0.723,1.458,1.338,2.319,1.833v4.091h7.258v-3.044 c1.14-0.274,2.197-0.749,3.144-1.376h4.439v-0.005l2.286-4.046l-2.65-1.497C58.373,17.756,58.514,16.846,58.514,15.901z"/><path fill="#63312d" d="M50.906,29.092h-7.258c-0.276,0-0.5-0.224-0.5-0.5v-3.807c-0.698-0.427-1.338-0.927-1.909-1.493l-2.316,1.309 c-0.075,0.042-0.16,0.064-0.246,0.064h-6.063c-0.276,0-0.5-0.224-0.5-0.5v-2.139c0-0.276,0.224-0.5,0.5-0.5h3.999l-0.657-1.162 c-0.065-0.116-0.082-0.252-0.046-0.38c0.035-0.128,0.12-0.236,0.235-0.302l2.314-1.306c-0.203-0.823-0.306-1.654-0.306-2.477 c0-0.823,0.103-1.654,0.305-2.476l-2.313-1.306c-0.115-0.065-0.2-0.174-0.235-0.301c-0.036-0.128-0.02-0.265,0.046-0.38 l0.573-1.015h-3.915c-0.276,0-0.5-0.224-0.5-0.5V7.635c0-0.276,0.224-0.5,0.5-0.5h6.056c0.047,0,0.092,0.006,0.135,0.019 c0.041,0.01,0.081,0.025,0.119,0.046l2.317,1.31c0.57-0.565,1.21-1.065,1.908-1.492V3.211c0-0.276,0.224-0.5,0.5-0.5h7.258 c0.276,0,0.5,0.224,0.5,0.5V5.87c0.984,0.278,1.924,0.702,2.799,1.265h4.285c0.181,0,0.347,0.097,0.436,0.254l2.286,4.048 c0.065,0.116,0.082,0.252,0.046,0.38c-0.035,0.127-0.12,0.236-0.235,0.301l-2.313,1.306c0.202,0.822,0.305,1.653,0.305,2.476 c0,0.823-0.103,1.654-0.306,2.477l2.314,1.306c0.115,0.065,0.2,0.174,0.235,0.302c0.036,0.127,0.02,0.264-0.046,0.38l-2.274,4.025 c-0.082,0.166-0.252,0.281-0.447,0.281h-4.291c-0.874,0.562-1.812,0.985-2.793,1.263v2.658 C51.406,28.868,51.183,29.092,50.906,29.092z M44.148,28.092h6.258v-2.544c0-0.231,0.158-0.432,0.383-0.486 c1.057-0.254,2.061-0.694,2.985-1.307c0.082-0.054,0.178-0.083,0.276-0.083h4.145l1.899-3.362l-2.215-1.25 c-0.201-0.114-0.298-0.351-0.234-0.573c0.244-0.857,0.368-1.727,0.368-2.584c0-0.858-0.124-1.728-0.368-2.584 c-0.063-0.222,0.033-0.459,0.234-0.573l2.215-1.25l-1.896-3.359h-4.142c-0.099,0-0.194-0.029-0.276-0.083 c-0.926-0.614-1.933-1.054-2.991-1.309c-0.225-0.054-0.383-0.255-0.383-0.486V3.711h-6.258v3.592c0,0.179-0.096,0.344-0.251,0.434 c-0.827,0.475-1.568,1.061-2.202,1.74c-0.158,0.168-0.411,0.208-0.611,0.094l-2.539-1.435h-5.432v1.288h4.271 c0.178,0,0.342,0.094,0.432,0.248c0.09,0.153,0.091,0.343,0.004,0.498l-0.748,1.326l2.215,1.25 c0.201,0.114,0.298,0.351,0.234,0.573c-0.244,0.857-0.368,1.727-0.368,2.584c0,0.857,0.124,1.727,0.368,2.585 c0.063,0.222-0.033,0.459-0.234,0.573l-2.215,1.25l0.832,1.472c0.087,0.155,0.086,0.345-0.004,0.498 c-0.09,0.154-0.254,0.248-0.432,0.248h-4.355v1.139h5.432l2.538-1.434c0.202-0.112,0.455-0.075,0.611,0.094 c0.636,0.68,1.377,1.266,2.203,1.741c0.155,0.089,0.251,0.254,0.251,0.434V28.092z"/><path fill="#FCC24C" d="M52.453,15.901c0-0.945-0.141-1.856-0.387-2.721l2.649-1.496L52.43,7.635l-2.653,1.5 c-1.306-1.4-3.007-2.417-4.93-2.879V3.211h-4.647v3.045c-1.923,0.462-3.624,1.479-4.93,2.878l-2.652-1.499l-2.287,4.048 l2.65,1.496c-0.247,0.866-0.388,1.777-0.388,2.722s0.141,1.855,0.388,2.722l-2.65,1.496l2.287,4.046l2.652-1.499 c1.306,1.399,3.007,2.417,4.93,2.88v3.044h4.647v-3.044c1.923-0.463,3.625-1.481,4.931-2.88l2.652,1.499l2.286-4.046l-2.649-1.497 C52.312,17.756,52.453,16.846,52.453,15.901z"/><path fill="#FCC24C" d="M32.33,20.119l2.65-1.496c-0.247-0.867-0.388-1.777-0.388-2.722s0.141-1.856,0.388-2.722l-2.65-1.496 l1.803-3.191l-1.516-0.857l-2.287,4.048l2.65,1.496c-0.247,0.866-0.388,1.777-0.388,2.722s0.141,1.855,0.388,2.722l-2.65,1.496 l2.287,4.046l1.516-0.856L32.33,20.119z"/><rect width="2" height="3.045" x="40.199" y="3.211" fill="#FCC24C"/><rect width="2" height="3.044" x="40.199" y="25.547" fill="#FCC24C"/><path fill="#63312d" d="M44.847,29.092h-4.647c-0.276,0-0.5-0.224-0.5-0.5v-2.658c-1.708-0.48-3.257-1.386-4.52-2.641l-2.316,1.309 c-0.241,0.132-0.546,0.052-0.682-0.189l-2.287-4.046c-0.065-0.116-0.082-0.252-0.046-0.38c0.035-0.128,0.12-0.236,0.235-0.302 l2.314-1.306c-0.203-0.823-0.306-1.654-0.306-2.477c0-0.823,0.103-1.654,0.305-2.476l-2.313-1.306 c-0.115-0.065-0.2-0.174-0.235-0.301c-0.036-0.128-0.02-0.265,0.046-0.38l2.287-4.048c0.065-0.115,0.174-0.2,0.302-0.236 c0.128-0.035,0.265-0.019,0.38,0.047l2.316,1.309c1.263-1.255,2.812-2.16,4.52-2.639V3.211c0-0.276,0.224-0.5,0.5-0.5h4.647 c0.276,0,0.5,0.224,0.5,0.5V5.87c1.708,0.479,3.258,1.384,4.52,2.64l2.317-1.31c0.115-0.066,0.253-0.082,0.38-0.047 c0.128,0.036,0.236,0.121,0.302,0.236l2.286,4.048c0.065,0.116,0.082,0.252,0.046,0.38c-0.035,0.128-0.12,0.236-0.235,0.302 l-2.313,1.306c0.202,0.822,0.305,1.653,0.305,2.476c0,0.822-0.103,1.653-0.305,2.476l2.313,1.307 c0.115,0.065,0.2,0.174,0.235,0.302c0.036,0.127,0.02,0.264-0.046,0.38l-2.286,4.046c-0.065,0.115-0.174,0.2-0.302,0.236 c-0.127,0.036-0.264,0.019-0.38-0.046l-2.316-1.309c-1.262,1.255-2.812,2.161-4.521,2.641v2.658 C45.347,28.868,45.123,29.092,44.847,29.092z M40.699,28.092h3.647v-2.544c0-0.231,0.158-0.432,0.383-0.486 c1.797-0.433,3.416-1.378,4.683-2.735c0.156-0.169,0.409-0.208,0.611-0.094l2.217,1.253l1.794-3.176l-2.214-1.25 c-0.201-0.114-0.298-0.35-0.235-0.572c0.244-0.859,0.368-1.729,0.368-2.585c0-0.857-0.124-1.727-0.367-2.584 c-0.063-0.222,0.033-0.458,0.234-0.572l2.214-1.25L52.24,8.317l-2.218,1.254c-0.199,0.115-0.454,0.076-0.611-0.094 c-1.267-1.357-2.885-2.303-4.682-2.734c-0.225-0.054-0.383-0.255-0.383-0.486V3.711h-3.647v2.545c0,0.231-0.158,0.432-0.383,0.486 c-1.796,0.431-3.415,1.376-4.682,2.733c-0.157,0.168-0.411,0.208-0.611,0.094l-2.217-1.253l-1.795,3.177l2.215,1.25 c0.201,0.114,0.298,0.351,0.234,0.573c-0.244,0.857-0.368,1.727-0.368,2.584c0,0.857,0.124,1.727,0.368,2.585 c0.063,0.222-0.033,0.459-0.234,0.573l-2.215,1.25l1.795,3.176l2.217-1.253c0.201-0.112,0.455-0.075,0.611,0.094 c1.267,1.357,2.885,2.303,4.682,2.735c0.225,0.054,0.383,0.255,0.383,0.486V28.092z"/><path fill="#705ca3" d="M48.785,15.901c0,3.458-2.805,6.262-6.262,6.262c-3.459,0-6.262-2.804-6.262-6.262 c0-3.457,2.803-6.26,6.262-6.26C45.98,9.641,48.785,12.443,48.785,15.901z"/><path fill="#705ca3" d="M38.262,15.901c0-3.116,2.279-5.693,5.262-6.173c-0.326-0.053-0.658-0.087-1-0.087 c-3.459,0-6.262,2.803-6.262,6.26c0,3.458,2.803,6.262,6.262,6.262c0.342,0,0.674-0.035,1-0.087 C40.541,21.596,38.262,19.018,38.262,15.901z"/><path fill="#63312d" d="M42.523,22.663c-3.729,0-6.762-3.034-6.762-6.762c0-3.728,3.033-6.76,6.762-6.76s6.762,3.033,6.762,6.76 C49.285,19.629,46.252,22.663,42.523,22.663z M42.523,10.141c-3.177,0-5.762,2.584-5.762,5.76c0,3.177,2.585,5.762,5.762,5.762 s5.762-2.585,5.762-5.762C48.285,12.725,45.7,10.141,42.523,10.141z"/><path fill="#f8f3f3" d="M45.934,15.901c0,1.884-1.527,3.411-3.41,3.411c-1.885,0-3.41-1.527-3.41-3.411c0-1.884,1.525-3.41,3.41-3.41 C44.406,12.491,45.934,14.017,45.934,15.901z"/><path fill="#63312d" d="M42.523,19.812c-2.156,0-3.91-1.754-3.91-3.911s1.754-3.91,3.91-3.91s3.91,1.754,3.91,3.91 S44.68,19.812,42.523,19.812z M42.523,12.991c-1.604,0-2.91,1.306-2.91,2.91c0,1.605,1.306,2.911,2.91,2.911 s2.91-1.306,2.91-2.911C45.434,14.296,44.128,12.991,42.523,12.991z"/><rect width="6.061" height="1" x="54.716" y="19.619" fill="#63312d"/><rect width="6.061" height="1" x="54.716" y="11.184" fill="#63312d"/><rect width="6.061" height="1" x="52.43" y="7.135" fill="#63312d"/><rect width="6.061" height="1" x="52.43" y="23.666" fill="#63312d"/></svg>