<svg xmlns="http://www.w3.org/2000/svg"  viewBox="0 0 256 256" width="64px" height="64px"><path fill="#ff4397" d="M193.955,155.099H24.965c-8.549,0-15.48-6.93-15.48-15.479v-30.777c0-8.549,6.931-15.48,15.48-15.48h168.99 c8.549,0,15.48,6.93,15.48,15.48v30.777C209.435,148.169,202.504,155.099,193.955,155.099z"/><path fill="#5d8e33" d="M193.955,93.364h-7.74c8.549,0,15.48,6.93,15.48,15.48v30.776c0,8.549-6.93,15.48-15.48,15.48h7.74 c8.549,0,15.48-6.93,15.48-15.48v-30.776C209.435,100.294,202.504,93.364,193.955,93.364z"/><path fill="#f4efed" d="M163.622,133.727h45.812v-24.883h-20.929C174.763,108.843,163.622,119.984,163.622,133.727L163.622,133.727z"/><rect width="7.74" height="24.883" x="201.695" y="108.843" fill="#d6d1cf"/><path fill="#f4efed" d="M153.234,40.27H65.687c-8.053,0-15.321,4.829-18.441,12.253L30.079,93.364h158.763l-17.167-40.841 C168.554,45.099,161.287,40.27,153.234,40.27z"/><path fill="#5d8e33" d="M131.243,144.222H87.677c-2.21,0-4.001,1.791-4.001,4.001v6.876h51.568v-6.876 C135.244,146.014,133.453,144.222,131.243,144.222z"/><path fill="#576fa5" d="M186.153,179.934h-14.71c-4.275,0-7.74-3.465-7.74-7.74v-17.095h30.189v17.095 C193.893,176.469,190.427,179.934,186.153,179.934z"/><path fill="#576fa5" d="M47.477,179.934h-14.71c-4.274,0-7.74-3.465-7.74-7.74v-17.095h30.189v17.095 C55.217,176.469,51.752,179.934,47.477,179.934z"/><path fill="#395288" d="M188.475,155.099v17.095c0,4.274-3.465,7.74-7.74,7.74h5.418c4.275,0,7.74-3.465,7.74-7.74v-17.095H188.475z"/><path fill="#758ec3" d="M30.446,155.099v17.095c0,4.274,3.465,7.74,7.74,7.74h-5.418c-4.274,0-7.74-3.465-7.74-7.74v-17.095H30.446z"/><path fill="#ff61b5" d="M24.965,93.364h7.74c-8.549,0-15.48,6.93-15.48,15.48v30.776c0,8.549,6.93,15.48,15.48,15.48h-7.74 c-8.549,0-15.48-6.93-15.48-15.48v-30.776C9.486,100.294,16.416,93.364,24.965,93.364z"/><path fill="#f4efed" d="M55.298,133.727H9.486v-24.883h20.929C44.157,108.843,55.298,119.984,55.298,133.727L55.298,133.727z"/><path fill="#690589" d="M193.955,157.099H24.966c-9.639,0-17.48-7.841-17.48-17.479v-30.776c0-9.638,7.842-17.479,17.48-17.479 h168.989c9.639,0,17.479,7.841,17.479,17.479v30.776C211.435,149.258,203.594,157.099,193.955,157.099z M24.966,95.364 c-7.434,0-13.48,6.047-13.48,13.479v30.776c0,7.433,6.047,13.479,13.48,13.479h168.989c7.433,0,13.479-6.047,13.479-13.479 v-30.776c0-7.433-6.047-13.479-13.479-13.479H24.966z"/><path fill="#690589" d="M47.478,181.934h-14.71c-5.371,0-9.74-4.369-9.74-9.74v-17.095c0-1.104,0.896-2,2-2h30.189 c1.104,0,2,0.896,2,2v17.095C57.217,177.565,52.848,181.934,47.478,181.934z M27.027,157.099v15.095c0,3.165,2.575,5.74,5.74,5.74 h14.71c3.165,0,5.739-2.575,5.739-5.74v-15.095H27.027z"/><path fill="#690589" d="M186.152,181.934h-14.709c-5.371,0-9.74-4.369-9.74-9.74v-17.095c0-1.104,0.896-2,2-2h30.189 c1.104,0,2,0.896,2,2v17.095C195.893,177.565,191.523,181.934,186.152,181.934z M165.703,157.099v15.095 c0,3.165,2.575,5.74,5.74,5.74h14.709c3.165,0,5.74-2.575,5.74-5.74v-15.095H165.703z"/><path fill="#690589" d="M209.435,135.727h-45.812c-1.104,0-2-0.896-2-2c0-14.824,12.06-26.883,26.884-26.883h20.929 c1.104,0,2,0.896,2,2v24.883C211.435,134.831,210.539,135.727,209.435,135.727z M165.709,131.727h41.726v-20.883h-18.929 C176.562,110.843,166.726,120.042,165.709,131.727z"/><path fill="#d6d1cf" d="M171.675,52.523c-3.12-7.424-10.388-12.253-18.441-12.253h-8.485c8.053,0,15.321,4.829,18.441,12.253 l17.167,40.841h8.485L171.675,52.523z"/><path fill="#fff" d="M47.246,52.523c3.12-7.424,10.388-12.253,18.441-12.253h8.485c-8.053,0-15.321,4.829-18.441,12.253 L38.564,93.364h-8.485L47.246,52.523z"/><path fill="#690589" d="M188.842,95.364H30.079c-0.67,0-1.295-0.335-1.666-0.893c-0.37-0.558-0.438-1.265-0.178-1.882l17.167-40.841 C48.844,43.56,56.806,38.27,65.687,38.27h87.547c8.882,0,16.844,5.29,20.285,13.478l17.167,40.841 c0.26,0.617,0.192,1.324-0.178,1.882C190.137,95.028,189.512,95.364,188.842,95.364z M33.089,91.364h152.743l-16.001-38.066 c-2.815-6.699-9.33-11.027-16.598-11.027H65.687c-7.267,0-13.781,4.329-16.597,11.027L33.089,91.364z"/><path fill="#690589" d="M48.356,69.644c-0.259,0-0.521-0.05-0.774-0.157c-1.018-0.428-1.496-1.601-1.068-2.619l4.28-10.182 c0.428-1.018,1.601-1.497,2.619-1.069c1.018,0.428,1.496,1.601,1.068,2.619l-4.28,10.182 C49.88,69.183,49.138,69.644,48.356,69.644z"/><path fill="#ff4397" d="M192.947,73.488h18.475c1.66,0,3.006,1.346,3.006,3.006v7.461c0,1.66-1.346,3.006-3.006,3.006h-18.475 c-1.717,0-3.108-1.392-3.108-3.108v-7.258C189.839,74.88,191.23,73.488,192.947,73.488z"/><path fill="#e12579" d="M211.421,73.488h-6.013c1.66,0,3.006,1.346,3.006,3.007v7.461c0,1.66-1.346,3.006-3.006,3.006h6.013 c1.66,0,3.007-1.346,3.007-3.006v-7.461C214.428,74.834,213.082,73.488,211.421,73.488z"/><path fill="#690589" d="M211.421,88.962h-18.475c-2.816,0-5.107-2.292-5.107-5.108v-7.258c0-2.816,2.291-5.108,5.107-5.108h18.475 c2.761,0,5.007,2.246,5.007,5.006v7.461C216.428,86.717,214.182,88.962,211.421,88.962z M192.946,75.488 c-0.61,0-1.107,0.497-1.107,1.108v7.258c0,0.611,0.497,1.108,1.107,1.108h18.475c0.555,0,1.007-0.452,1.007-1.006v-7.461 c0-0.555-0.452-1.006-1.007-1.006H192.946z"/><path fill="#690589" d="M193.84,95.364c-1.104,0-2-0.896-2-2v-6.401c0-1.104,0.896-2,2-2s2,0.896,2,2v6.401 C195.84,94.468,194.944,95.364,193.84,95.364z"/><path fill="#ff4397" d="M25.481,73.488H7.006C5.346,73.488,4,74.834,4,76.495v7.461c0,1.66,1.346,3.006,3.006,3.006h18.475 c1.716,0,3.108-1.392,3.108-3.108v-7.258C28.589,74.88,27.197,73.488,25.481,73.488z"/><path fill="#ff61b5" d="M7.006,73.488h6.013c-1.66,0-3.006,1.346-3.006,3.007v7.461c0,1.66,1.346,3.006,3.006,3.006H7.006 C5.346,86.962,4,85.616,4,83.956v-7.461C4,74.834,5.346,73.488,7.006,73.488z"/><path fill="#690589" d="M25.481,88.962H7.007C4.246,88.962,2,86.717,2,83.956v-7.461c0-2.761,2.246-5.006,5.007-5.006h18.475 c2.816,0,5.107,2.292,5.107,5.108v7.258C30.589,86.671,28.298,88.962,25.481,88.962z M7.007,75.488C6.452,75.488,6,75.94,6,76.495 v7.461c0,0.555,0.452,1.006,1.007,1.006h18.475c0.61,0,1.107-0.497,1.107-1.108v-7.258c0-0.611-0.497-1.108-1.107-1.108H7.007z"/><path fill="#690589" d="M24.588,95.364c-1.104,0-2-0.896-2-2v-6.401c0-1.104,0.896-2,2-2s2,0.896,2,2v6.401 C26.588,94.468,25.692,95.364,24.588,95.364z"/><path fill="#690589" d="M135.244,157.099H83.676c-1.104,0-2-0.896-2-2v-6.876c0-3.309,2.692-6.001,6.001-6.001h43.566 c3.309,0,6.001,2.692,6.001,6.001v6.876C137.244,156.204,136.349,157.099,135.244,157.099z M85.676,153.099h47.568v-4.876 c0-1.104-0.897-2.001-2.001-2.001H87.677c-1.104,0-2.001,0.897-2.001,2.001V153.099z"/><rect width="7.74" height="24.883" x="9.486" y="108.843" fill="#fff"/><path fill="#690589" d="M55.298,135.727H9.485c-1.104,0-2-0.896-2-2v-24.883c0-1.104,0.896-2,2-2h20.929 c14.824,0,26.884,12.06,26.884,26.883C57.298,134.831,56.402,135.727,55.298,135.727z M11.485,131.727h41.726 c-1.017-11.685-10.853-20.883-22.797-20.883H11.485V131.727z"/><path fill="#fcc24c" d="M231.527,190.895H62.538c-8.549,0-15.48-6.93-15.48-15.479v-30.777c0-8.549,6.93-15.48,15.48-15.48h168.99 c8.549,0,15.48,6.93,15.48,15.48v30.777C247.007,183.965,240.077,190.895,231.527,190.895z"/><path fill="#dea42e" d="M231.527,129.16h-7.74c8.549,0,15.48,6.93,15.48,15.48v30.776c0,8.549-6.93,15.48-15.48,15.48h7.74 c8.549,0,15.48-6.93,15.48-15.48v-30.776C247.007,136.09,240.077,129.16,231.527,129.16z"/><path fill="#f4efed" d="M201.195,169.523h45.812v-24.883h-20.929C212.335,144.639,201.195,155.78,201.195,169.523L201.195,169.523z"/><rect width="7.74" height="24.883" x="239.267" y="144.639" fill="#d6d1cf"/><path fill="#f4efed" d="M190.806,76.066h-87.547c-8.053,0-15.321,4.829-18.441,12.252L67.651,129.16h158.763l-17.167-40.841 C206.127,80.895,198.859,76.066,190.806,76.066z"/><path fill="#dea42e" d="M168.816,180.018h-43.567c-2.209,0-4.001,1.791-4.001,4.001v6.876h51.568v-6.876 C172.817,181.809,171.025,180.018,168.816,180.018z"/><path fill="#576fa5" d="M223.725,215.73h-14.71c-4.275,0-7.74-3.465-7.74-7.74v-17.095h30.189v17.095 C231.465,212.265,228,215.73,223.725,215.73z"/><path fill="#576fa5" d="M85.049,215.73H70.34c-4.274,0-7.74-3.465-7.74-7.74v-17.095h30.189v17.095 C92.789,212.265,89.324,215.73,85.049,215.73z"/><path fill="#395288" d="M226.047,190.895v17.095c0,4.274-3.465,7.74-7.74,7.74h5.418c4.275,0,7.74-3.465,7.74-7.74v-17.095H226.047z"/><path fill="#758ec3" d="M68.018,190.895v17.095c0,4.274,3.465,7.74,7.74,7.74H70.34c-4.274,0-7.74-3.465-7.74-7.74v-17.095H68.018z"/><path fill="#fce06a" d="M62.538,129.16h7.74c-8.549,0-15.48,6.93-15.48,15.48v30.776c0,8.549,6.931,15.48,15.48,15.48h-7.74 c-8.549,0-15.48-6.93-15.48-15.48v-30.776C47.058,136.09,53.988,129.16,62.538,129.16z"/><path fill="#f4efed" d="M92.87,169.523H47.058v-24.883h20.929C81.73,144.639,92.87,155.78,92.87,169.523L92.87,169.523z"/><path fill="#690589" d="M231.527,192.895H62.538c-9.639,0-17.48-7.841-17.48-17.479v-30.776c0-9.638,7.842-17.479,17.48-17.479 h168.989c9.639,0,17.479,7.841,17.479,17.479v30.776C249.007,185.054,241.166,192.895,231.527,192.895z M62.538,131.16 c-7.434,0-13.48,6.047-13.48,13.479v30.776c0,7.433,6.047,13.479,13.48,13.479h168.989c7.433,0,13.479-6.047,13.479-13.479 v-30.776c0-7.433-6.047-13.479-13.479-13.479H62.538z"/><path fill="#690589" d="M85.05,217.73H70.34c-5.371,0-9.74-4.369-9.74-9.74v-17.095c0-1.104,0.896-2,2-2h30.189c1.104,0,2,0.896,2,2 v17.095C94.789,213.361,90.42,217.73,85.05,217.73z M64.6,192.895v15.095c0,3.165,2.575,5.74,5.74,5.74h14.71 c3.165,0,5.739-2.575,5.739-5.74v-15.095H64.6z"/><path fill="#690589" d="M223.726,217.73h-14.71c-5.37,0-9.739-4.369-9.739-9.74v-17.095c0-1.104,0.896-2,2-2h30.188 c1.104,0,2,0.896,2,2v17.095C233.465,213.361,229.096,217.73,223.726,217.73z M203.276,192.895v15.095 c0,3.165,2.574,5.74,5.739,5.74h14.71c3.165,0,5.739-2.575,5.739-5.74v-15.095H203.276z"/><path fill="#690589" d="M247.007,171.522h-45.812c-1.104,0-2-0.896-2-2c0-14.824,12.06-26.883,26.884-26.883h20.929 c1.104,0,2,0.896,2,2v24.883C249.007,170.627,248.111,171.522,247.007,171.522z M203.281,167.522h41.726v-20.883h-18.929 C214.134,146.639,204.298,155.838,203.281,167.522z"/><path fill="#d6d1cf" d="M209.247,88.318c-3.12-7.424-10.388-12.253-18.441-12.253h-8.485c8.053,0,15.321,4.829,18.441,12.253 l17.167,40.841h8.485L209.247,88.318z"/><path fill="#fff" d="M84.818,88.318c3.12-7.424,10.388-12.253,18.441-12.253h8.485c-8.053,0-15.321,4.829-18.441,12.253 L76.136,129.16h-8.485L84.818,88.318z"/><path fill="#690589" d="M226.414,131.16H67.651c-0.67,0-1.295-0.335-1.666-0.893c-0.37-0.558-0.438-1.265-0.178-1.882l17.167-40.841 c3.441-8.188,11.403-13.478,20.284-13.478h87.547c8.882,0,16.844,5.29,20.285,13.478l17.167,40.841 c0.26,0.617,0.192,1.324-0.178,1.882C227.709,130.824,227.084,131.16,226.414,131.16z M70.661,127.16h152.743l-16.001-38.066 c-2.815-6.699-9.33-11.027-16.598-11.027h-87.547c-7.267,0-13.781,4.329-16.597,11.027L70.661,127.16z"/><path fill="#690589" d="M152.005,131.16c-0.865,0-1.663-0.566-1.919-1.438c-0.31-1.06,0.298-2.171,1.358-2.481l49.271-14.424 c1.057-0.311,2.17,0.296,2.481,1.357c0.31,1.06-0.298,2.171-1.358,2.481l-49.271,14.424 C152.38,131.134,152.191,131.16,152.005,131.16z"/><path fill="#fcc24c" d="M230.519,109.284h18.475c1.66,0,3.006,1.346,3.006,3.006v7.461c0,1.66-1.346,3.006-3.006,3.006h-18.475 c-1.716,0-3.108-1.392-3.108-3.108v-7.258C227.411,110.676,228.803,109.284,230.519,109.284z"/><path fill="#dea42e" d="M248.993,109.284h-6.013c1.66,0,3.006,1.346,3.006,3.007v7.461c0,1.66-1.346,3.006-3.006,3.006h6.013 c1.66,0,3.007-1.346,3.007-3.006v-7.461C252,110.63,250.654,109.284,248.993,109.284z"/><path fill="#690589" d="M248.993,124.758h-18.475c-2.816,0-5.107-2.292-5.107-5.108v-7.258c0-2.816,2.291-5.108,5.107-5.108h18.475 c2.761,0,5.007,2.246,5.007,5.006v7.461C254,122.513,251.754,124.758,248.993,124.758z M230.519,111.284 c-0.61,0-1.107,0.497-1.107,1.108v7.258c0,0.611,0.497,1.108,1.107,1.108h18.475c0.555,0,1.007-0.452,1.007-1.006v-7.461 c0-0.555-0.452-1.006-1.007-1.006H230.519z"/><path fill="#690589" d="M231.412,131.16c-1.104,0-2-0.896-2-2v-6.401c0-1.104,0.896-2,2-2s2,0.896,2,2v6.401 C233.412,130.264,232.517,131.16,231.412,131.16z"/><path fill="#fcc24c" d="M63.053,109.284H44.579c-1.66,0-3.006,1.346-3.006,3.006v7.461c0,1.66,1.346,3.006,3.006,3.006h18.475 c1.717,0,3.108-1.392,3.108-3.108v-7.258C66.161,110.676,64.77,109.284,63.053,109.284z"/><path fill="#fce06a" d="M44.579,109.284h6.013c-1.66,0-3.006,1.346-3.006,3.007v7.461c0,1.66,1.346,3.006,3.006,3.006h-6.013 c-1.66,0-3.007-1.346-3.007-3.006v-7.461C41.572,110.63,42.918,109.284,44.579,109.284z"/><path fill="#690589" d="M63.054,124.758H44.579c-2.761,0-5.007-2.246-5.007-5.006v-7.461c0-2.761,2.246-5.006,5.007-5.006h18.475 c2.816,0,5.107,2.292,5.107,5.108v7.258C68.161,122.467,65.87,124.758,63.054,124.758z M44.579,111.284 c-0.555,0-1.007,0.452-1.007,1.006v7.461c0,0.555,0.452,1.006,1.007,1.006h18.475c0.61,0,1.107-0.497,1.107-1.108v-7.258 c0-0.611-0.497-1.108-1.107-1.108H44.579z"/><path fill="#690589" d="M62.16,131.16c-1.104,0-2-0.896-2-2v-6.401c0-1.104,0.896-2,2-2s2,0.896,2,2v6.401 C64.16,130.264,63.265,131.16,62.16,131.16z"/><path fill="#690589" d="M172.816,192.895h-51.568c-1.104,0-2-0.896-2-2v-6.876c0-3.309,2.692-6.001,6.001-6.001h43.566 c3.309,0,6.001,2.692,6.001,6.001v6.876C174.816,192,173.921,192.895,172.816,192.895z M123.248,188.895h47.568v-4.876 c0-1.104-0.897-2.001-2.001-2.001h-43.566c-1.104,0-2.001,0.897-2.001,2.001V188.895z"/><rect width="7.74" height="24.883" x="47.058" y="144.639" fill="#fff"/><path fill="#690589" d="M92.87,171.522H47.058c-1.104,0-2-0.896-2-2v-24.883c0-1.104,0.896-2,2-2h20.93 c14.823,0,26.883,12.06,26.883,26.883C94.87,170.627,93.975,171.522,92.87,171.522z M49.058,167.522h41.726 c-1.017-11.685-10.853-20.883-22.796-20.883h-18.93V167.522z"/></svg>